G75*
%MOIN*%
%OFA0B0*%
%FSLAX25Y25*%
%IPPOS*%
%LPD*%
%AMOC8*
5,1,8,0,0,1.08239X$1,22.5*
%
%ADD10C,0.00600*%
%ADD11C,0.00000*%
%ADD12C,0.01000*%
%ADD13C,0.01200*%
%ADD14C,0.00400*%
%ADD15R,0.40000X0.18750*%
%ADD16C,0.00700*%
%ADD17R,0.20000X0.10000*%
%ADD18R,0.10000X0.10000*%
%ADD19R,0.12500X0.10000*%
%ADD20R,0.10000X0.11250*%
%ADD21C,0.02000*%
%ADD22C,0.02400*%
%ADD23C,0.00800*%
%ADD24R,0.30000X0.13750*%
%ADD25R,0.30000X0.15000*%
%ADD26R,0.45000X0.20000*%
%ADD27C,0.00200*%
%ADD28R,0.10000X0.20500*%
%ADD29C,0.00300*%
%ADD30C,0.00500*%
%ADD31C,0.00591*%
D10*
X0003000Y0003000D02*
X0073000Y0003000D01*
X0073000Y0074250D01*
X0111750Y0074250D01*
X0111750Y0048000D01*
X0131750Y0028000D01*
X0228000Y0028000D01*
X0228000Y0083000D01*
X0373000Y0083000D01*
X0373000Y0258000D01*
X0228000Y0258000D01*
X0228000Y0318000D01*
X0123000Y0318000D01*
X0123000Y0223000D01*
X0079250Y0223000D01*
X0065500Y0209250D01*
X0065500Y0163000D01*
X0003000Y0163000D01*
X0003000Y0003000D01*
X0004500Y0003500D02*
X0004500Y0082500D01*
X0061500Y0082500D01*
X0061500Y0003500D01*
X0038000Y0003500D01*
X0037998Y0003640D01*
X0037992Y0003780D01*
X0037982Y0003920D01*
X0037969Y0004060D01*
X0037951Y0004199D01*
X0037929Y0004338D01*
X0037904Y0004475D01*
X0037875Y0004613D01*
X0037842Y0004749D01*
X0037805Y0004884D01*
X0037764Y0005018D01*
X0037719Y0005151D01*
X0037671Y0005283D01*
X0037619Y0005413D01*
X0037564Y0005542D01*
X0037505Y0005669D01*
X0037442Y0005795D01*
X0037376Y0005919D01*
X0037307Y0006040D01*
X0037234Y0006160D01*
X0037157Y0006278D01*
X0037078Y0006393D01*
X0036995Y0006507D01*
X0036909Y0006617D01*
X0036820Y0006726D01*
X0036728Y0006832D01*
X0036633Y0006935D01*
X0036536Y0007036D01*
X0036435Y0007133D01*
X0036332Y0007228D01*
X0036226Y0007320D01*
X0036117Y0007409D01*
X0036007Y0007495D01*
X0035893Y0007578D01*
X0035778Y0007657D01*
X0035660Y0007734D01*
X0035540Y0007807D01*
X0035419Y0007876D01*
X0035295Y0007942D01*
X0035169Y0008005D01*
X0035042Y0008064D01*
X0034913Y0008119D01*
X0034783Y0008171D01*
X0034651Y0008219D01*
X0034518Y0008264D01*
X0034384Y0008305D01*
X0034249Y0008342D01*
X0034113Y0008375D01*
X0033975Y0008404D01*
X0033838Y0008429D01*
X0033699Y0008451D01*
X0033560Y0008469D01*
X0033420Y0008482D01*
X0033280Y0008492D01*
X0033140Y0008498D01*
X0033000Y0008500D01*
X0032860Y0008498D01*
X0032720Y0008492D01*
X0032580Y0008482D01*
X0032440Y0008469D01*
X0032301Y0008451D01*
X0032162Y0008429D01*
X0032025Y0008404D01*
X0031887Y0008375D01*
X0031751Y0008342D01*
X0031616Y0008305D01*
X0031482Y0008264D01*
X0031349Y0008219D01*
X0031217Y0008171D01*
X0031087Y0008119D01*
X0030958Y0008064D01*
X0030831Y0008005D01*
X0030705Y0007942D01*
X0030581Y0007876D01*
X0030460Y0007807D01*
X0030340Y0007734D01*
X0030222Y0007657D01*
X0030107Y0007578D01*
X0029993Y0007495D01*
X0029883Y0007409D01*
X0029774Y0007320D01*
X0029668Y0007228D01*
X0029565Y0007133D01*
X0029464Y0007036D01*
X0029367Y0006935D01*
X0029272Y0006832D01*
X0029180Y0006726D01*
X0029091Y0006617D01*
X0029005Y0006507D01*
X0028922Y0006393D01*
X0028843Y0006278D01*
X0028766Y0006160D01*
X0028693Y0006040D01*
X0028624Y0005919D01*
X0028558Y0005795D01*
X0028495Y0005669D01*
X0028436Y0005542D01*
X0028381Y0005413D01*
X0028329Y0005283D01*
X0028281Y0005151D01*
X0028236Y0005018D01*
X0028195Y0004884D01*
X0028158Y0004749D01*
X0028125Y0004613D01*
X0028096Y0004475D01*
X0028071Y0004338D01*
X0028049Y0004199D01*
X0028031Y0004060D01*
X0028018Y0003920D01*
X0028008Y0003780D01*
X0028002Y0003640D01*
X0028000Y0003500D01*
X0004500Y0003500D01*
X0078000Y0074875D02*
X0075500Y0077375D01*
X0075500Y0082375D01*
X0078000Y0084875D01*
X0083000Y0084875D01*
X0085500Y0082375D01*
X0088000Y0084875D01*
X0093000Y0084875D01*
X0095500Y0082375D01*
X0098000Y0084875D01*
X0103000Y0084875D01*
X0105500Y0082375D01*
X0105500Y0077375D01*
X0103000Y0074875D01*
X0098000Y0074875D01*
X0095500Y0077375D01*
X0093000Y0074875D01*
X0088000Y0074875D01*
X0085500Y0077375D01*
X0083000Y0074875D01*
X0078000Y0074875D01*
X0061500Y0083500D02*
X0061500Y0162500D01*
X0004500Y0162500D01*
X0004500Y0083500D01*
X0028000Y0083500D01*
X0028002Y0083640D01*
X0028008Y0083780D01*
X0028018Y0083920D01*
X0028031Y0084060D01*
X0028049Y0084199D01*
X0028071Y0084338D01*
X0028096Y0084475D01*
X0028125Y0084613D01*
X0028158Y0084749D01*
X0028195Y0084884D01*
X0028236Y0085018D01*
X0028281Y0085151D01*
X0028329Y0085283D01*
X0028381Y0085413D01*
X0028436Y0085542D01*
X0028495Y0085669D01*
X0028558Y0085795D01*
X0028624Y0085919D01*
X0028693Y0086040D01*
X0028766Y0086160D01*
X0028843Y0086278D01*
X0028922Y0086393D01*
X0029005Y0086507D01*
X0029091Y0086617D01*
X0029180Y0086726D01*
X0029272Y0086832D01*
X0029367Y0086935D01*
X0029464Y0087036D01*
X0029565Y0087133D01*
X0029668Y0087228D01*
X0029774Y0087320D01*
X0029883Y0087409D01*
X0029993Y0087495D01*
X0030107Y0087578D01*
X0030222Y0087657D01*
X0030340Y0087734D01*
X0030460Y0087807D01*
X0030581Y0087876D01*
X0030705Y0087942D01*
X0030831Y0088005D01*
X0030958Y0088064D01*
X0031087Y0088119D01*
X0031217Y0088171D01*
X0031349Y0088219D01*
X0031482Y0088264D01*
X0031616Y0088305D01*
X0031751Y0088342D01*
X0031887Y0088375D01*
X0032025Y0088404D01*
X0032162Y0088429D01*
X0032301Y0088451D01*
X0032440Y0088469D01*
X0032580Y0088482D01*
X0032720Y0088492D01*
X0032860Y0088498D01*
X0033000Y0088500D01*
X0033140Y0088498D01*
X0033280Y0088492D01*
X0033420Y0088482D01*
X0033560Y0088469D01*
X0033699Y0088451D01*
X0033838Y0088429D01*
X0033975Y0088404D01*
X0034113Y0088375D01*
X0034249Y0088342D01*
X0034384Y0088305D01*
X0034518Y0088264D01*
X0034651Y0088219D01*
X0034783Y0088171D01*
X0034913Y0088119D01*
X0035042Y0088064D01*
X0035169Y0088005D01*
X0035295Y0087942D01*
X0035419Y0087876D01*
X0035540Y0087807D01*
X0035660Y0087734D01*
X0035778Y0087657D01*
X0035893Y0087578D01*
X0036007Y0087495D01*
X0036117Y0087409D01*
X0036226Y0087320D01*
X0036332Y0087228D01*
X0036435Y0087133D01*
X0036536Y0087036D01*
X0036633Y0086935D01*
X0036728Y0086832D01*
X0036820Y0086726D01*
X0036909Y0086617D01*
X0036995Y0086507D01*
X0037078Y0086393D01*
X0037157Y0086278D01*
X0037234Y0086160D01*
X0037307Y0086040D01*
X0037376Y0085919D01*
X0037442Y0085795D01*
X0037505Y0085669D01*
X0037564Y0085542D01*
X0037619Y0085413D01*
X0037671Y0085283D01*
X0037719Y0085151D01*
X0037764Y0085018D01*
X0037805Y0084884D01*
X0037842Y0084749D01*
X0037875Y0084613D01*
X0037904Y0084475D01*
X0037929Y0084338D01*
X0037951Y0084199D01*
X0037969Y0084060D01*
X0037982Y0083920D01*
X0037992Y0083780D01*
X0037998Y0083640D01*
X0038000Y0083500D01*
X0061500Y0083500D01*
X0117044Y0072305D02*
X0117044Y0069970D01*
X0118212Y0068802D01*
X0122882Y0068802D01*
X0118212Y0073473D01*
X0122882Y0073473D01*
X0124050Y0072305D01*
X0124050Y0069970D01*
X0122882Y0068802D01*
X0122882Y0066471D02*
X0124050Y0066471D01*
X0124050Y0065303D01*
X0122882Y0065303D01*
X0122882Y0066471D01*
X0124050Y0062976D02*
X0124050Y0058305D01*
X0124050Y0060640D02*
X0117044Y0060640D01*
X0119379Y0058305D01*
X0117044Y0055978D02*
X0121715Y0055978D01*
X0124050Y0053642D01*
X0121715Y0051307D01*
X0117044Y0051307D01*
X0117044Y0072305D02*
X0118212Y0073473D01*
X0149444Y0101885D02*
X0151779Y0104221D01*
X0156450Y0104221D01*
X0156450Y0106548D02*
X0151779Y0106548D01*
X0151779Y0108883D02*
X0151779Y0110051D01*
X0151779Y0108883D02*
X0154115Y0106548D01*
X0152947Y0104221D02*
X0152947Y0099550D01*
X0151779Y0099550D02*
X0149444Y0101885D01*
X0151779Y0099550D02*
X0156450Y0099550D01*
X0162044Y0097236D02*
X0162044Y0093734D01*
X0169050Y0093734D01*
X0166715Y0093734D02*
X0166715Y0097236D01*
X0165547Y0098404D01*
X0163212Y0098404D01*
X0162044Y0097236D01*
X0164379Y0100731D02*
X0169050Y0100731D01*
X0166715Y0100731D02*
X0164379Y0103067D01*
X0164379Y0104234D01*
X0165547Y0106563D02*
X0164379Y0107731D01*
X0164379Y0110066D01*
X0165547Y0111234D01*
X0167882Y0111234D01*
X0169050Y0110066D01*
X0169050Y0107731D01*
X0167882Y0106563D01*
X0165547Y0106563D01*
X0176944Y0110635D02*
X0179279Y0108300D01*
X0181615Y0108300D01*
X0183950Y0110635D01*
X0182782Y0112965D02*
X0183950Y0114133D01*
X0183950Y0116468D01*
X0182782Y0117636D01*
X0180447Y0117636D01*
X0179279Y0116468D01*
X0179279Y0115301D01*
X0180447Y0112965D01*
X0176944Y0112965D01*
X0176944Y0117636D01*
X0176944Y0119963D02*
X0181615Y0119963D01*
X0183950Y0122299D01*
X0181615Y0124634D01*
X0176944Y0124634D01*
X0176944Y0126961D02*
X0179279Y0129297D01*
X0181615Y0129297D01*
X0183950Y0126961D01*
X0169050Y0127557D02*
X0169050Y0129892D01*
X0169050Y0128725D02*
X0164379Y0128725D01*
X0164379Y0127557D01*
X0162044Y0128725D02*
X0160876Y0128725D01*
X0162044Y0125230D02*
X0169050Y0125230D01*
X0169050Y0120559D02*
X0162044Y0120559D01*
X0164379Y0122894D01*
X0162044Y0125230D01*
X0156450Y0126376D02*
X0156450Y0128711D01*
X0156450Y0127543D02*
X0151779Y0127543D01*
X0151779Y0126376D01*
X0151779Y0124048D02*
X0156450Y0124048D01*
X0156450Y0120545D01*
X0155282Y0119378D01*
X0151779Y0119378D01*
X0151779Y0117050D02*
X0151779Y0113547D01*
X0152947Y0112380D01*
X0155282Y0112380D01*
X0156450Y0113547D01*
X0156450Y0117050D01*
X0149444Y0117050D01*
X0149444Y0127543D02*
X0148276Y0127543D01*
X0151779Y0131041D02*
X0151779Y0134544D01*
X0152947Y0135712D01*
X0156450Y0135712D01*
X0155282Y0138039D02*
X0152947Y0138039D01*
X0151779Y0139206D01*
X0151779Y0141542D01*
X0152947Y0142709D01*
X0155282Y0142709D01*
X0156450Y0141542D01*
X0156450Y0139206D01*
X0155282Y0138039D01*
X0156450Y0131041D02*
X0151779Y0131041D01*
X0164379Y0133390D02*
X0165547Y0132222D01*
X0167882Y0132222D01*
X0169050Y0133390D01*
X0169050Y0136893D01*
X0169050Y0139220D02*
X0164379Y0139220D01*
X0164379Y0136893D02*
X0164379Y0133390D01*
X0166715Y0139220D02*
X0164379Y0141556D01*
X0164379Y0142723D01*
X0165547Y0145052D02*
X0164379Y0146220D01*
X0164379Y0148555D01*
X0165547Y0149723D01*
X0167882Y0149723D01*
X0169050Y0148555D01*
X0169050Y0146220D01*
X0167882Y0145052D01*
X0165547Y0145052D01*
X0200694Y0155800D02*
X0207700Y0155800D01*
X0207700Y0160471D01*
X0207700Y0162798D02*
X0203029Y0167469D01*
X0201862Y0167469D01*
X0200694Y0166301D01*
X0200694Y0163966D01*
X0201862Y0162798D01*
X0207700Y0162798D02*
X0207700Y0167469D01*
X0206532Y0169796D02*
X0207700Y0170964D01*
X0207700Y0173299D01*
X0206532Y0174467D01*
X0201862Y0174467D01*
X0200694Y0173299D01*
X0200694Y0170964D01*
X0201862Y0169796D01*
X0203029Y0169796D01*
X0204197Y0170964D01*
X0204197Y0174467D01*
X0203029Y0176794D02*
X0201862Y0176794D01*
X0200694Y0177962D01*
X0200694Y0180297D01*
X0201862Y0181465D01*
X0203029Y0181465D01*
X0204197Y0180297D01*
X0204197Y0177962D01*
X0203029Y0176794D01*
X0204197Y0177962D02*
X0205365Y0176794D01*
X0206532Y0176794D01*
X0207700Y0177962D01*
X0207700Y0180297D01*
X0206532Y0181465D01*
X0205365Y0181465D01*
X0204197Y0180297D01*
X0200694Y0183792D02*
X0207700Y0188463D01*
X0200694Y0188463D01*
X0200694Y0183792D02*
X0207700Y0183792D01*
X0181615Y0213300D02*
X0179279Y0213300D01*
X0176944Y0215635D01*
X0176944Y0217965D02*
X0180447Y0217965D01*
X0179279Y0220301D01*
X0179279Y0221468D01*
X0180447Y0222636D01*
X0182782Y0222636D01*
X0183950Y0221468D01*
X0183950Y0219133D01*
X0182782Y0217965D01*
X0183950Y0215635D02*
X0181615Y0213300D01*
X0176944Y0217965D02*
X0176944Y0222636D01*
X0176944Y0224963D02*
X0181615Y0224963D01*
X0183950Y0227299D01*
X0181615Y0229634D01*
X0176944Y0229634D01*
X0176944Y0231961D02*
X0179279Y0234297D01*
X0181615Y0234297D01*
X0183950Y0231961D01*
X0171450Y0231959D02*
X0171450Y0229624D01*
X0171450Y0230791D02*
X0166779Y0230791D01*
X0166779Y0229624D01*
X0164444Y0230791D02*
X0163276Y0230791D01*
X0164444Y0227296D02*
X0171450Y0227296D01*
X0166779Y0224961D02*
X0164444Y0227296D01*
X0166779Y0224961D02*
X0164444Y0222626D01*
X0171450Y0222626D01*
X0170282Y0213300D02*
X0167947Y0213300D01*
X0166779Y0212133D01*
X0166779Y0209797D01*
X0167947Y0208630D01*
X0170282Y0208630D01*
X0171450Y0209797D01*
X0171450Y0212133D01*
X0170282Y0213300D01*
X0166779Y0206301D02*
X0166779Y0205133D01*
X0169115Y0202798D01*
X0171450Y0202798D02*
X0166779Y0202798D01*
X0165612Y0200471D02*
X0167947Y0200471D01*
X0169115Y0199303D01*
X0169115Y0195800D01*
X0171450Y0195800D02*
X0164444Y0195800D01*
X0164444Y0199303D01*
X0165612Y0200471D01*
X0157700Y0203300D02*
X0153029Y0203300D01*
X0150694Y0205635D01*
X0153029Y0207971D01*
X0157700Y0207971D01*
X0157700Y0210298D02*
X0153029Y0210298D01*
X0153029Y0212633D02*
X0153029Y0213801D01*
X0153029Y0212633D02*
X0155365Y0210298D01*
X0154197Y0207971D02*
X0154197Y0203300D01*
X0154197Y0216130D02*
X0153029Y0217297D01*
X0153029Y0220800D01*
X0153029Y0223128D02*
X0156532Y0223128D01*
X0157700Y0224295D01*
X0157700Y0227798D01*
X0153029Y0227798D01*
X0153029Y0230126D02*
X0153029Y0231293D01*
X0157700Y0231293D01*
X0157700Y0230126D02*
X0157700Y0232461D01*
X0157700Y0234791D02*
X0153029Y0234791D01*
X0153029Y0238294D01*
X0154197Y0239462D01*
X0157700Y0239462D01*
X0156532Y0241789D02*
X0157700Y0242956D01*
X0157700Y0245292D01*
X0156532Y0246459D01*
X0154197Y0246459D01*
X0153029Y0245292D01*
X0153029Y0242956D01*
X0154197Y0241789D01*
X0156532Y0241789D01*
X0166779Y0241287D02*
X0171450Y0241287D01*
X0171450Y0238959D02*
X0171450Y0235456D01*
X0170282Y0234289D01*
X0167947Y0234289D01*
X0166779Y0235456D01*
X0166779Y0238959D01*
X0169115Y0241287D02*
X0166779Y0243622D01*
X0166779Y0244790D01*
X0167947Y0247118D02*
X0170282Y0247118D01*
X0171450Y0248286D01*
X0171450Y0250621D01*
X0170282Y0251789D01*
X0167947Y0251789D01*
X0166779Y0250621D01*
X0166779Y0248286D01*
X0167947Y0247118D01*
X0150694Y0231293D02*
X0149526Y0231293D01*
X0150694Y0220800D02*
X0157700Y0220800D01*
X0157700Y0217297D01*
X0156532Y0216130D01*
X0154197Y0216130D01*
X0102375Y0215500D02*
X0102375Y0210500D01*
X0099875Y0208000D01*
X0102375Y0205500D01*
X0102375Y0200500D01*
X0099875Y0198000D01*
X0102375Y0195500D01*
X0102375Y0190500D01*
X0099875Y0188000D01*
X0102375Y0185500D01*
X0102375Y0180500D01*
X0099875Y0178000D01*
X0102375Y0175500D01*
X0102375Y0170500D01*
X0099875Y0168000D01*
X0084875Y0168000D01*
X0082375Y0170500D01*
X0082375Y0175500D01*
X0084875Y0178000D01*
X0082375Y0180500D01*
X0082375Y0185500D01*
X0084875Y0188000D01*
X0082375Y0190500D01*
X0082375Y0195500D01*
X0084875Y0198000D01*
X0082375Y0200500D01*
X0082375Y0205500D01*
X0084875Y0208000D01*
X0082375Y0210500D01*
X0082375Y0215500D01*
X0084875Y0218000D01*
X0099875Y0218000D01*
X0102375Y0215500D01*
X0210500Y0270500D02*
X0213000Y0268000D01*
X0218000Y0268000D01*
X0220500Y0270500D01*
X0220500Y0275500D01*
X0218000Y0278000D01*
X0213000Y0278000D01*
X0210500Y0275500D01*
X0210500Y0270500D01*
X0213000Y0278000D02*
X0218000Y0278000D01*
X0220500Y0280500D01*
X0220500Y0285500D01*
X0218000Y0288000D01*
X0213000Y0288000D01*
X0210500Y0285500D01*
X0210500Y0280500D01*
X0213000Y0278000D01*
X0285800Y0240955D02*
X0285800Y0234550D01*
X0289003Y0234550D01*
X0290070Y0235618D01*
X0290070Y0239888D01*
X0289003Y0240955D01*
X0285800Y0240955D01*
X0292245Y0240955D02*
X0294381Y0240955D01*
X0293313Y0240955D02*
X0293313Y0234550D01*
X0292245Y0234550D02*
X0294381Y0234550D01*
X0296542Y0234550D02*
X0296542Y0240955D01*
X0299745Y0240955D01*
X0300813Y0239888D01*
X0300813Y0237753D01*
X0299745Y0236685D01*
X0296542Y0236685D01*
X0298678Y0236685D02*
X0300813Y0234550D01*
X0302988Y0234550D02*
X0307258Y0238820D01*
X0307258Y0239888D01*
X0306191Y0240955D01*
X0304056Y0240955D01*
X0302988Y0239888D01*
X0302988Y0234550D02*
X0307258Y0234550D01*
X0305123Y0230955D02*
X0305123Y0224550D01*
X0302988Y0224550D02*
X0307258Y0224550D01*
X0302961Y0220955D02*
X0300826Y0218820D01*
X0298691Y0220955D01*
X0298691Y0214550D01*
X0296516Y0214550D02*
X0296516Y0220955D01*
X0296542Y0224550D02*
X0296542Y0230955D01*
X0299745Y0230955D01*
X0300813Y0229888D01*
X0300813Y0227753D01*
X0299745Y0226685D01*
X0296542Y0226685D01*
X0298678Y0226685D02*
X0300813Y0224550D01*
X0302961Y0220955D02*
X0302961Y0214550D01*
X0296516Y0214550D02*
X0294381Y0216685D01*
X0292245Y0214550D01*
X0292245Y0220955D01*
X0290070Y0219888D02*
X0290070Y0217753D01*
X0289003Y0216685D01*
X0285800Y0216685D01*
X0285800Y0214550D02*
X0285800Y0220955D01*
X0289003Y0220955D01*
X0290070Y0219888D01*
X0289003Y0224550D02*
X0285800Y0224550D01*
X0285800Y0230955D01*
X0289003Y0230955D01*
X0290070Y0229888D01*
X0290070Y0225618D01*
X0289003Y0224550D01*
X0292245Y0224550D02*
X0294381Y0224550D01*
X0293313Y0224550D02*
X0293313Y0230955D01*
X0292245Y0230955D02*
X0294381Y0230955D01*
X0302988Y0228820D02*
X0305123Y0230955D01*
X0304056Y0202205D02*
X0302988Y0201138D01*
X0304056Y0202205D02*
X0306191Y0202205D01*
X0307258Y0201138D01*
X0307258Y0200070D01*
X0302988Y0195800D01*
X0307258Y0195800D01*
X0305123Y0190955D02*
X0305123Y0184550D01*
X0302988Y0184550D02*
X0307258Y0184550D01*
X0302961Y0180955D02*
X0300826Y0178820D01*
X0298691Y0180955D01*
X0298691Y0174550D01*
X0296516Y0174550D02*
X0296516Y0180955D01*
X0296542Y0184550D02*
X0296542Y0190955D01*
X0299745Y0190955D01*
X0300813Y0189888D01*
X0300813Y0187753D01*
X0299745Y0186685D01*
X0296542Y0186685D01*
X0298678Y0186685D02*
X0300813Y0184550D01*
X0302961Y0180955D02*
X0302961Y0174550D01*
X0296516Y0174550D02*
X0294381Y0176685D01*
X0292245Y0174550D01*
X0292245Y0180955D01*
X0290070Y0179888D02*
X0290070Y0177753D01*
X0289003Y0176685D01*
X0285800Y0176685D01*
X0285800Y0174550D02*
X0285800Y0180955D01*
X0289003Y0180955D01*
X0290070Y0179888D01*
X0289003Y0184550D02*
X0285800Y0184550D01*
X0285800Y0190955D01*
X0289003Y0190955D01*
X0290070Y0189888D01*
X0290070Y0185618D01*
X0289003Y0184550D01*
X0292245Y0184550D02*
X0294381Y0184550D01*
X0293313Y0184550D02*
X0293313Y0190955D01*
X0292245Y0190955D02*
X0294381Y0190955D01*
X0294381Y0195800D02*
X0292245Y0195800D01*
X0293313Y0195800D02*
X0293313Y0202205D01*
X0292245Y0202205D02*
X0294381Y0202205D01*
X0296542Y0202205D02*
X0299745Y0202205D01*
X0300813Y0201138D01*
X0300813Y0199003D01*
X0299745Y0197935D01*
X0296542Y0197935D01*
X0296542Y0195800D02*
X0296542Y0202205D01*
X0298678Y0197935D02*
X0300813Y0195800D01*
X0305123Y0190955D02*
X0302988Y0188820D01*
X0290070Y0196868D02*
X0290070Y0201138D01*
X0289003Y0202205D01*
X0285800Y0202205D01*
X0285800Y0195800D01*
X0289003Y0195800D01*
X0290070Y0196868D01*
X0312180Y0154115D02*
X0312180Y0150912D01*
X0313247Y0149844D01*
X0314315Y0150912D01*
X0314315Y0153047D01*
X0315382Y0154115D01*
X0316450Y0153047D01*
X0316450Y0149844D01*
X0312180Y0147676D02*
X0312180Y0146608D01*
X0314315Y0144473D01*
X0316450Y0144473D02*
X0312180Y0144473D01*
X0313247Y0142298D02*
X0314315Y0142298D01*
X0314315Y0138027D01*
X0315382Y0138027D02*
X0313247Y0138027D01*
X0312180Y0139095D01*
X0312180Y0141230D01*
X0313247Y0142298D01*
X0316450Y0141230D02*
X0316450Y0139095D01*
X0315382Y0138027D01*
X0316450Y0135852D02*
X0316450Y0132650D01*
X0315382Y0131582D01*
X0313247Y0131582D01*
X0312180Y0132650D01*
X0312180Y0135852D01*
X0310045Y0135852D02*
X0316450Y0135852D01*
X0315382Y0129407D02*
X0313247Y0129407D01*
X0312180Y0128339D01*
X0312180Y0126204D01*
X0313247Y0125136D01*
X0315382Y0125136D01*
X0316450Y0126204D01*
X0316450Y0128339D01*
X0315382Y0129407D01*
X0316450Y0122961D02*
X0316450Y0119759D01*
X0315382Y0118691D01*
X0313247Y0118691D01*
X0312180Y0119759D01*
X0312180Y0122961D01*
X0313247Y0116516D02*
X0316450Y0116516D01*
X0313247Y0116516D02*
X0312180Y0115448D01*
X0312180Y0112245D01*
X0316450Y0112245D01*
X0316450Y0110070D02*
X0316450Y0105800D01*
X0310045Y0105800D01*
X0310045Y0110070D01*
X0313247Y0107935D02*
X0313247Y0105800D01*
X0303820Y0104705D02*
X0303820Y0103638D01*
X0301685Y0101503D01*
X0301685Y0098300D01*
X0301685Y0101503D02*
X0299550Y0103638D01*
X0299550Y0104705D01*
X0293313Y0109550D02*
X0289042Y0109550D01*
X0293313Y0113820D01*
X0293313Y0114888D01*
X0292245Y0115955D01*
X0290110Y0115955D01*
X0289042Y0114888D01*
X0286867Y0115955D02*
X0286867Y0109550D01*
X0282597Y0115955D01*
X0282597Y0109550D01*
X0280435Y0109550D02*
X0278300Y0109550D01*
X0279368Y0109550D02*
X0279368Y0115955D01*
X0280435Y0115955D02*
X0278300Y0115955D01*
X0278300Y0119550D02*
X0280435Y0119550D01*
X0279368Y0119550D02*
X0279368Y0125955D01*
X0280435Y0125955D02*
X0278300Y0125955D01*
X0279003Y0129550D02*
X0280070Y0130618D01*
X0280070Y0132753D01*
X0277935Y0132753D01*
X0275800Y0134888D02*
X0275800Y0130618D01*
X0276868Y0129550D01*
X0279003Y0129550D01*
X0282245Y0129550D02*
X0282245Y0135955D01*
X0286516Y0129550D01*
X0286516Y0135955D01*
X0288691Y0135955D02*
X0291894Y0135955D01*
X0292961Y0134888D01*
X0292961Y0130618D01*
X0291894Y0129550D01*
X0288691Y0129550D01*
X0288691Y0135955D01*
X0290826Y0139550D02*
X0292961Y0141685D01*
X0292961Y0145955D01*
X0288691Y0145955D02*
X0288691Y0141685D01*
X0290826Y0139550D01*
X0286516Y0140618D02*
X0285448Y0139550D01*
X0283313Y0139550D01*
X0282245Y0140618D01*
X0282245Y0142753D02*
X0284381Y0143820D01*
X0285448Y0143820D01*
X0286516Y0142753D01*
X0286516Y0140618D01*
X0282245Y0142753D02*
X0282245Y0145955D01*
X0286516Y0145955D01*
X0280070Y0142753D02*
X0275800Y0142753D01*
X0277935Y0144888D02*
X0277935Y0140618D01*
X0276868Y0135955D02*
X0275800Y0134888D01*
X0276868Y0135955D02*
X0279003Y0135955D01*
X0280070Y0134888D01*
X0282597Y0125955D02*
X0286867Y0119550D01*
X0286867Y0125955D01*
X0289042Y0123820D02*
X0291178Y0125955D01*
X0291178Y0119550D01*
X0293313Y0119550D02*
X0289042Y0119550D01*
X0282597Y0119550D02*
X0282597Y0125955D01*
X0270070Y0104705D02*
X0265800Y0098300D01*
X0270070Y0098300D02*
X0265800Y0104705D01*
X0220500Y0070500D02*
X0220500Y0065500D01*
X0218000Y0063000D01*
X0220500Y0060500D01*
X0220500Y0055500D01*
X0218000Y0053000D01*
X0213000Y0053000D01*
X0210500Y0055500D01*
X0210500Y0060500D01*
X0213000Y0063000D01*
X0218000Y0063000D01*
X0213000Y0063000D01*
X0210500Y0065500D01*
X0210500Y0070500D01*
X0213000Y0073000D01*
X0218000Y0073000D01*
X0220500Y0070500D01*
X0333194Y0117050D02*
X0337865Y0117050D01*
X0340200Y0119385D01*
X0337865Y0121721D01*
X0333194Y0121721D01*
X0335529Y0125216D02*
X0336697Y0124048D01*
X0339032Y0124048D01*
X0340200Y0125216D01*
X0340200Y0128719D01*
X0339032Y0131046D02*
X0336697Y0131046D01*
X0335529Y0132214D01*
X0335529Y0135717D01*
X0340200Y0135717D02*
X0340200Y0132214D01*
X0339032Y0131046D01*
X0335529Y0128719D02*
X0335529Y0125216D01*
X0346500Y0111500D02*
X0346500Y0110000D01*
X0348000Y0110000D01*
X0346500Y0110000D02*
X0346500Y0108500D01*
X0346500Y0110000D02*
X0345000Y0110000D01*
X0342000Y0105000D02*
X0342003Y0105270D01*
X0342013Y0105540D01*
X0342030Y0105809D01*
X0342053Y0106078D01*
X0342083Y0106347D01*
X0342119Y0106614D01*
X0342162Y0106881D01*
X0342211Y0107146D01*
X0342267Y0107410D01*
X0342330Y0107673D01*
X0342398Y0107934D01*
X0342474Y0108193D01*
X0342555Y0108450D01*
X0342643Y0108706D01*
X0342737Y0108959D01*
X0342837Y0109210D01*
X0342944Y0109458D01*
X0343056Y0109703D01*
X0343175Y0109946D01*
X0343299Y0110185D01*
X0343429Y0110422D01*
X0343565Y0110655D01*
X0343707Y0110885D01*
X0343854Y0111111D01*
X0344007Y0111334D01*
X0344165Y0111553D01*
X0344328Y0111768D01*
X0344497Y0111978D01*
X0344671Y0112185D01*
X0344850Y0112387D01*
X0345033Y0112585D01*
X0345222Y0112778D01*
X0345415Y0112967D01*
X0345613Y0113150D01*
X0345815Y0113329D01*
X0346022Y0113503D01*
X0346232Y0113672D01*
X0346447Y0113835D01*
X0346666Y0113993D01*
X0346889Y0114146D01*
X0347115Y0114293D01*
X0347345Y0114435D01*
X0347578Y0114571D01*
X0347815Y0114701D01*
X0348054Y0114825D01*
X0348297Y0114944D01*
X0348542Y0115056D01*
X0348790Y0115163D01*
X0349041Y0115263D01*
X0349294Y0115357D01*
X0349550Y0115445D01*
X0349807Y0115526D01*
X0350066Y0115602D01*
X0350327Y0115670D01*
X0350590Y0115733D01*
X0350854Y0115789D01*
X0351119Y0115838D01*
X0351386Y0115881D01*
X0351653Y0115917D01*
X0351922Y0115947D01*
X0352191Y0115970D01*
X0352460Y0115987D01*
X0352730Y0115997D01*
X0353000Y0116000D01*
X0353270Y0115997D01*
X0353540Y0115987D01*
X0353809Y0115970D01*
X0354078Y0115947D01*
X0354347Y0115917D01*
X0354614Y0115881D01*
X0354881Y0115838D01*
X0355146Y0115789D01*
X0355410Y0115733D01*
X0355673Y0115670D01*
X0355934Y0115602D01*
X0356193Y0115526D01*
X0356450Y0115445D01*
X0356706Y0115357D01*
X0356959Y0115263D01*
X0357210Y0115163D01*
X0357458Y0115056D01*
X0357703Y0114944D01*
X0357946Y0114825D01*
X0358185Y0114701D01*
X0358422Y0114571D01*
X0358655Y0114435D01*
X0358885Y0114293D01*
X0359111Y0114146D01*
X0359334Y0113993D01*
X0359553Y0113835D01*
X0359768Y0113672D01*
X0359978Y0113503D01*
X0360185Y0113329D01*
X0360387Y0113150D01*
X0360585Y0112967D01*
X0360778Y0112778D01*
X0360967Y0112585D01*
X0361150Y0112387D01*
X0361329Y0112185D01*
X0361503Y0111978D01*
X0361672Y0111768D01*
X0361835Y0111553D01*
X0361993Y0111334D01*
X0362146Y0111111D01*
X0362293Y0110885D01*
X0362435Y0110655D01*
X0362571Y0110422D01*
X0362701Y0110185D01*
X0362825Y0109946D01*
X0362944Y0109703D01*
X0363056Y0109458D01*
X0363163Y0109210D01*
X0363263Y0108959D01*
X0363357Y0108706D01*
X0363445Y0108450D01*
X0363526Y0108193D01*
X0363602Y0107934D01*
X0363670Y0107673D01*
X0363733Y0107410D01*
X0363789Y0107146D01*
X0363838Y0106881D01*
X0363881Y0106614D01*
X0363917Y0106347D01*
X0363947Y0106078D01*
X0363970Y0105809D01*
X0363987Y0105540D01*
X0363997Y0105270D01*
X0364000Y0105000D01*
X0363997Y0104730D01*
X0363987Y0104460D01*
X0363970Y0104191D01*
X0363947Y0103922D01*
X0363917Y0103653D01*
X0363881Y0103386D01*
X0363838Y0103119D01*
X0363789Y0102854D01*
X0363733Y0102590D01*
X0363670Y0102327D01*
X0363602Y0102066D01*
X0363526Y0101807D01*
X0363445Y0101550D01*
X0363357Y0101294D01*
X0363263Y0101041D01*
X0363163Y0100790D01*
X0363056Y0100542D01*
X0362944Y0100297D01*
X0362825Y0100054D01*
X0362701Y0099815D01*
X0362571Y0099578D01*
X0362435Y0099345D01*
X0362293Y0099115D01*
X0362146Y0098889D01*
X0361993Y0098666D01*
X0361835Y0098447D01*
X0361672Y0098232D01*
X0361503Y0098022D01*
X0361329Y0097815D01*
X0361150Y0097613D01*
X0360967Y0097415D01*
X0360778Y0097222D01*
X0360585Y0097033D01*
X0360387Y0096850D01*
X0360185Y0096671D01*
X0359978Y0096497D01*
X0359768Y0096328D01*
X0359553Y0096165D01*
X0359334Y0096007D01*
X0359111Y0095854D01*
X0358885Y0095707D01*
X0358655Y0095565D01*
X0358422Y0095429D01*
X0358185Y0095299D01*
X0357946Y0095175D01*
X0357703Y0095056D01*
X0357458Y0094944D01*
X0357210Y0094837D01*
X0356959Y0094737D01*
X0356706Y0094643D01*
X0356450Y0094555D01*
X0356193Y0094474D01*
X0355934Y0094398D01*
X0355673Y0094330D01*
X0355410Y0094267D01*
X0355146Y0094211D01*
X0354881Y0094162D01*
X0354614Y0094119D01*
X0354347Y0094083D01*
X0354078Y0094053D01*
X0353809Y0094030D01*
X0353540Y0094013D01*
X0353270Y0094003D01*
X0353000Y0094000D01*
X0352730Y0094003D01*
X0352460Y0094013D01*
X0352191Y0094030D01*
X0351922Y0094053D01*
X0351653Y0094083D01*
X0351386Y0094119D01*
X0351119Y0094162D01*
X0350854Y0094211D01*
X0350590Y0094267D01*
X0350327Y0094330D01*
X0350066Y0094398D01*
X0349807Y0094474D01*
X0349550Y0094555D01*
X0349294Y0094643D01*
X0349041Y0094737D01*
X0348790Y0094837D01*
X0348542Y0094944D01*
X0348297Y0095056D01*
X0348054Y0095175D01*
X0347815Y0095299D01*
X0347578Y0095429D01*
X0347345Y0095565D01*
X0347115Y0095707D01*
X0346889Y0095854D01*
X0346666Y0096007D01*
X0346447Y0096165D01*
X0346232Y0096328D01*
X0346022Y0096497D01*
X0345815Y0096671D01*
X0345613Y0096850D01*
X0345415Y0097033D01*
X0345222Y0097222D01*
X0345033Y0097415D01*
X0344850Y0097613D01*
X0344671Y0097815D01*
X0344497Y0098022D01*
X0344328Y0098232D01*
X0344165Y0098447D01*
X0344007Y0098666D01*
X0343854Y0098889D01*
X0343707Y0099115D01*
X0343565Y0099345D01*
X0343429Y0099578D01*
X0343299Y0099815D01*
X0343175Y0100054D01*
X0343056Y0100297D01*
X0342944Y0100542D01*
X0342837Y0100790D01*
X0342737Y0101041D01*
X0342643Y0101294D01*
X0342555Y0101550D01*
X0342474Y0101807D01*
X0342398Y0102066D01*
X0342330Y0102327D01*
X0342267Y0102590D01*
X0342211Y0102854D01*
X0342162Y0103119D01*
X0342119Y0103386D01*
X0342083Y0103653D01*
X0342053Y0103922D01*
X0342030Y0104191D01*
X0342013Y0104460D01*
X0342003Y0104730D01*
X0342000Y0105000D01*
D11*
X0215451Y0098000D02*
X0215453Y0098158D01*
X0215459Y0098316D01*
X0215469Y0098474D01*
X0215483Y0098632D01*
X0215501Y0098789D01*
X0215522Y0098946D01*
X0215548Y0099102D01*
X0215578Y0099258D01*
X0215611Y0099413D01*
X0215649Y0099566D01*
X0215690Y0099719D01*
X0215735Y0099871D01*
X0215784Y0100022D01*
X0215837Y0100171D01*
X0215893Y0100319D01*
X0215953Y0100465D01*
X0216017Y0100610D01*
X0216085Y0100753D01*
X0216156Y0100895D01*
X0216230Y0101035D01*
X0216308Y0101172D01*
X0216390Y0101308D01*
X0216474Y0101442D01*
X0216563Y0101573D01*
X0216654Y0101702D01*
X0216749Y0101829D01*
X0216846Y0101954D01*
X0216947Y0102076D01*
X0217051Y0102195D01*
X0217158Y0102312D01*
X0217268Y0102426D01*
X0217381Y0102537D01*
X0217496Y0102646D01*
X0217614Y0102751D01*
X0217735Y0102853D01*
X0217858Y0102953D01*
X0217984Y0103049D01*
X0218112Y0103142D01*
X0218242Y0103232D01*
X0218375Y0103318D01*
X0218510Y0103402D01*
X0218646Y0103481D01*
X0218785Y0103558D01*
X0218926Y0103630D01*
X0219068Y0103700D01*
X0219212Y0103765D01*
X0219358Y0103827D01*
X0219505Y0103885D01*
X0219654Y0103940D01*
X0219804Y0103991D01*
X0219955Y0104038D01*
X0220107Y0104081D01*
X0220260Y0104120D01*
X0220415Y0104156D01*
X0220570Y0104187D01*
X0220726Y0104215D01*
X0220882Y0104239D01*
X0221039Y0104259D01*
X0221197Y0104275D01*
X0221354Y0104287D01*
X0221513Y0104295D01*
X0221671Y0104299D01*
X0221829Y0104299D01*
X0221987Y0104295D01*
X0222146Y0104287D01*
X0222303Y0104275D01*
X0222461Y0104259D01*
X0222618Y0104239D01*
X0222774Y0104215D01*
X0222930Y0104187D01*
X0223085Y0104156D01*
X0223240Y0104120D01*
X0223393Y0104081D01*
X0223545Y0104038D01*
X0223696Y0103991D01*
X0223846Y0103940D01*
X0223995Y0103885D01*
X0224142Y0103827D01*
X0224288Y0103765D01*
X0224432Y0103700D01*
X0224574Y0103630D01*
X0224715Y0103558D01*
X0224854Y0103481D01*
X0224990Y0103402D01*
X0225125Y0103318D01*
X0225258Y0103232D01*
X0225388Y0103142D01*
X0225516Y0103049D01*
X0225642Y0102953D01*
X0225765Y0102853D01*
X0225886Y0102751D01*
X0226004Y0102646D01*
X0226119Y0102537D01*
X0226232Y0102426D01*
X0226342Y0102312D01*
X0226449Y0102195D01*
X0226553Y0102076D01*
X0226654Y0101954D01*
X0226751Y0101829D01*
X0226846Y0101702D01*
X0226937Y0101573D01*
X0227026Y0101442D01*
X0227110Y0101308D01*
X0227192Y0101172D01*
X0227270Y0101035D01*
X0227344Y0100895D01*
X0227415Y0100753D01*
X0227483Y0100610D01*
X0227547Y0100465D01*
X0227607Y0100319D01*
X0227663Y0100171D01*
X0227716Y0100022D01*
X0227765Y0099871D01*
X0227810Y0099719D01*
X0227851Y0099566D01*
X0227889Y0099413D01*
X0227922Y0099258D01*
X0227952Y0099102D01*
X0227978Y0098946D01*
X0227999Y0098789D01*
X0228017Y0098632D01*
X0228031Y0098474D01*
X0228041Y0098316D01*
X0228047Y0098158D01*
X0228049Y0098000D01*
X0228047Y0097842D01*
X0228041Y0097684D01*
X0228031Y0097526D01*
X0228017Y0097368D01*
X0227999Y0097211D01*
X0227978Y0097054D01*
X0227952Y0096898D01*
X0227922Y0096742D01*
X0227889Y0096587D01*
X0227851Y0096434D01*
X0227810Y0096281D01*
X0227765Y0096129D01*
X0227716Y0095978D01*
X0227663Y0095829D01*
X0227607Y0095681D01*
X0227547Y0095535D01*
X0227483Y0095390D01*
X0227415Y0095247D01*
X0227344Y0095105D01*
X0227270Y0094965D01*
X0227192Y0094828D01*
X0227110Y0094692D01*
X0227026Y0094558D01*
X0226937Y0094427D01*
X0226846Y0094298D01*
X0226751Y0094171D01*
X0226654Y0094046D01*
X0226553Y0093924D01*
X0226449Y0093805D01*
X0226342Y0093688D01*
X0226232Y0093574D01*
X0226119Y0093463D01*
X0226004Y0093354D01*
X0225886Y0093249D01*
X0225765Y0093147D01*
X0225642Y0093047D01*
X0225516Y0092951D01*
X0225388Y0092858D01*
X0225258Y0092768D01*
X0225125Y0092682D01*
X0224990Y0092598D01*
X0224854Y0092519D01*
X0224715Y0092442D01*
X0224574Y0092370D01*
X0224432Y0092300D01*
X0224288Y0092235D01*
X0224142Y0092173D01*
X0223995Y0092115D01*
X0223846Y0092060D01*
X0223696Y0092009D01*
X0223545Y0091962D01*
X0223393Y0091919D01*
X0223240Y0091880D01*
X0223085Y0091844D01*
X0222930Y0091813D01*
X0222774Y0091785D01*
X0222618Y0091761D01*
X0222461Y0091741D01*
X0222303Y0091725D01*
X0222146Y0091713D01*
X0221987Y0091705D01*
X0221829Y0091701D01*
X0221671Y0091701D01*
X0221513Y0091705D01*
X0221354Y0091713D01*
X0221197Y0091725D01*
X0221039Y0091741D01*
X0220882Y0091761D01*
X0220726Y0091785D01*
X0220570Y0091813D01*
X0220415Y0091844D01*
X0220260Y0091880D01*
X0220107Y0091919D01*
X0219955Y0091962D01*
X0219804Y0092009D01*
X0219654Y0092060D01*
X0219505Y0092115D01*
X0219358Y0092173D01*
X0219212Y0092235D01*
X0219068Y0092300D01*
X0218926Y0092370D01*
X0218785Y0092442D01*
X0218646Y0092519D01*
X0218510Y0092598D01*
X0218375Y0092682D01*
X0218242Y0092768D01*
X0218112Y0092858D01*
X0217984Y0092951D01*
X0217858Y0093047D01*
X0217735Y0093147D01*
X0217614Y0093249D01*
X0217496Y0093354D01*
X0217381Y0093463D01*
X0217268Y0093574D01*
X0217158Y0093688D01*
X0217051Y0093805D01*
X0216947Y0093924D01*
X0216846Y0094046D01*
X0216749Y0094171D01*
X0216654Y0094298D01*
X0216563Y0094427D01*
X0216474Y0094558D01*
X0216390Y0094692D01*
X0216308Y0094828D01*
X0216230Y0094965D01*
X0216156Y0095105D01*
X0216085Y0095247D01*
X0216017Y0095390D01*
X0215953Y0095535D01*
X0215893Y0095681D01*
X0215837Y0095829D01*
X0215784Y0095978D01*
X0215735Y0096129D01*
X0215690Y0096281D01*
X0215649Y0096434D01*
X0215611Y0096587D01*
X0215578Y0096742D01*
X0215548Y0096898D01*
X0215522Y0097054D01*
X0215501Y0097211D01*
X0215483Y0097368D01*
X0215469Y0097526D01*
X0215459Y0097684D01*
X0215453Y0097842D01*
X0215451Y0098000D01*
X0069201Y0098000D02*
X0069203Y0098158D01*
X0069209Y0098316D01*
X0069219Y0098474D01*
X0069233Y0098632D01*
X0069251Y0098789D01*
X0069272Y0098946D01*
X0069298Y0099102D01*
X0069328Y0099258D01*
X0069361Y0099413D01*
X0069399Y0099566D01*
X0069440Y0099719D01*
X0069485Y0099871D01*
X0069534Y0100022D01*
X0069587Y0100171D01*
X0069643Y0100319D01*
X0069703Y0100465D01*
X0069767Y0100610D01*
X0069835Y0100753D01*
X0069906Y0100895D01*
X0069980Y0101035D01*
X0070058Y0101172D01*
X0070140Y0101308D01*
X0070224Y0101442D01*
X0070313Y0101573D01*
X0070404Y0101702D01*
X0070499Y0101829D01*
X0070596Y0101954D01*
X0070697Y0102076D01*
X0070801Y0102195D01*
X0070908Y0102312D01*
X0071018Y0102426D01*
X0071131Y0102537D01*
X0071246Y0102646D01*
X0071364Y0102751D01*
X0071485Y0102853D01*
X0071608Y0102953D01*
X0071734Y0103049D01*
X0071862Y0103142D01*
X0071992Y0103232D01*
X0072125Y0103318D01*
X0072260Y0103402D01*
X0072396Y0103481D01*
X0072535Y0103558D01*
X0072676Y0103630D01*
X0072818Y0103700D01*
X0072962Y0103765D01*
X0073108Y0103827D01*
X0073255Y0103885D01*
X0073404Y0103940D01*
X0073554Y0103991D01*
X0073705Y0104038D01*
X0073857Y0104081D01*
X0074010Y0104120D01*
X0074165Y0104156D01*
X0074320Y0104187D01*
X0074476Y0104215D01*
X0074632Y0104239D01*
X0074789Y0104259D01*
X0074947Y0104275D01*
X0075104Y0104287D01*
X0075263Y0104295D01*
X0075421Y0104299D01*
X0075579Y0104299D01*
X0075737Y0104295D01*
X0075896Y0104287D01*
X0076053Y0104275D01*
X0076211Y0104259D01*
X0076368Y0104239D01*
X0076524Y0104215D01*
X0076680Y0104187D01*
X0076835Y0104156D01*
X0076990Y0104120D01*
X0077143Y0104081D01*
X0077295Y0104038D01*
X0077446Y0103991D01*
X0077596Y0103940D01*
X0077745Y0103885D01*
X0077892Y0103827D01*
X0078038Y0103765D01*
X0078182Y0103700D01*
X0078324Y0103630D01*
X0078465Y0103558D01*
X0078604Y0103481D01*
X0078740Y0103402D01*
X0078875Y0103318D01*
X0079008Y0103232D01*
X0079138Y0103142D01*
X0079266Y0103049D01*
X0079392Y0102953D01*
X0079515Y0102853D01*
X0079636Y0102751D01*
X0079754Y0102646D01*
X0079869Y0102537D01*
X0079982Y0102426D01*
X0080092Y0102312D01*
X0080199Y0102195D01*
X0080303Y0102076D01*
X0080404Y0101954D01*
X0080501Y0101829D01*
X0080596Y0101702D01*
X0080687Y0101573D01*
X0080776Y0101442D01*
X0080860Y0101308D01*
X0080942Y0101172D01*
X0081020Y0101035D01*
X0081094Y0100895D01*
X0081165Y0100753D01*
X0081233Y0100610D01*
X0081297Y0100465D01*
X0081357Y0100319D01*
X0081413Y0100171D01*
X0081466Y0100022D01*
X0081515Y0099871D01*
X0081560Y0099719D01*
X0081601Y0099566D01*
X0081639Y0099413D01*
X0081672Y0099258D01*
X0081702Y0099102D01*
X0081728Y0098946D01*
X0081749Y0098789D01*
X0081767Y0098632D01*
X0081781Y0098474D01*
X0081791Y0098316D01*
X0081797Y0098158D01*
X0081799Y0098000D01*
X0081797Y0097842D01*
X0081791Y0097684D01*
X0081781Y0097526D01*
X0081767Y0097368D01*
X0081749Y0097211D01*
X0081728Y0097054D01*
X0081702Y0096898D01*
X0081672Y0096742D01*
X0081639Y0096587D01*
X0081601Y0096434D01*
X0081560Y0096281D01*
X0081515Y0096129D01*
X0081466Y0095978D01*
X0081413Y0095829D01*
X0081357Y0095681D01*
X0081297Y0095535D01*
X0081233Y0095390D01*
X0081165Y0095247D01*
X0081094Y0095105D01*
X0081020Y0094965D01*
X0080942Y0094828D01*
X0080860Y0094692D01*
X0080776Y0094558D01*
X0080687Y0094427D01*
X0080596Y0094298D01*
X0080501Y0094171D01*
X0080404Y0094046D01*
X0080303Y0093924D01*
X0080199Y0093805D01*
X0080092Y0093688D01*
X0079982Y0093574D01*
X0079869Y0093463D01*
X0079754Y0093354D01*
X0079636Y0093249D01*
X0079515Y0093147D01*
X0079392Y0093047D01*
X0079266Y0092951D01*
X0079138Y0092858D01*
X0079008Y0092768D01*
X0078875Y0092682D01*
X0078740Y0092598D01*
X0078604Y0092519D01*
X0078465Y0092442D01*
X0078324Y0092370D01*
X0078182Y0092300D01*
X0078038Y0092235D01*
X0077892Y0092173D01*
X0077745Y0092115D01*
X0077596Y0092060D01*
X0077446Y0092009D01*
X0077295Y0091962D01*
X0077143Y0091919D01*
X0076990Y0091880D01*
X0076835Y0091844D01*
X0076680Y0091813D01*
X0076524Y0091785D01*
X0076368Y0091761D01*
X0076211Y0091741D01*
X0076053Y0091725D01*
X0075896Y0091713D01*
X0075737Y0091705D01*
X0075579Y0091701D01*
X0075421Y0091701D01*
X0075263Y0091705D01*
X0075104Y0091713D01*
X0074947Y0091725D01*
X0074789Y0091741D01*
X0074632Y0091761D01*
X0074476Y0091785D01*
X0074320Y0091813D01*
X0074165Y0091844D01*
X0074010Y0091880D01*
X0073857Y0091919D01*
X0073705Y0091962D01*
X0073554Y0092009D01*
X0073404Y0092060D01*
X0073255Y0092115D01*
X0073108Y0092173D01*
X0072962Y0092235D01*
X0072818Y0092300D01*
X0072676Y0092370D01*
X0072535Y0092442D01*
X0072396Y0092519D01*
X0072260Y0092598D01*
X0072125Y0092682D01*
X0071992Y0092768D01*
X0071862Y0092858D01*
X0071734Y0092951D01*
X0071608Y0093047D01*
X0071485Y0093147D01*
X0071364Y0093249D01*
X0071246Y0093354D01*
X0071131Y0093463D01*
X0071018Y0093574D01*
X0070908Y0093688D01*
X0070801Y0093805D01*
X0070697Y0093924D01*
X0070596Y0094046D01*
X0070499Y0094171D01*
X0070404Y0094298D01*
X0070313Y0094427D01*
X0070224Y0094558D01*
X0070140Y0094692D01*
X0070058Y0094828D01*
X0069980Y0094965D01*
X0069906Y0095105D01*
X0069835Y0095247D01*
X0069767Y0095390D01*
X0069703Y0095535D01*
X0069643Y0095681D01*
X0069587Y0095829D01*
X0069534Y0095978D01*
X0069485Y0096129D01*
X0069440Y0096281D01*
X0069399Y0096434D01*
X0069361Y0096587D01*
X0069328Y0096742D01*
X0069298Y0096898D01*
X0069272Y0097054D01*
X0069251Y0097211D01*
X0069233Y0097368D01*
X0069219Y0097526D01*
X0069209Y0097684D01*
X0069203Y0097842D01*
X0069201Y0098000D01*
X0215451Y0244250D02*
X0215453Y0244408D01*
X0215459Y0244566D01*
X0215469Y0244724D01*
X0215483Y0244882D01*
X0215501Y0245039D01*
X0215522Y0245196D01*
X0215548Y0245352D01*
X0215578Y0245508D01*
X0215611Y0245663D01*
X0215649Y0245816D01*
X0215690Y0245969D01*
X0215735Y0246121D01*
X0215784Y0246272D01*
X0215837Y0246421D01*
X0215893Y0246569D01*
X0215953Y0246715D01*
X0216017Y0246860D01*
X0216085Y0247003D01*
X0216156Y0247145D01*
X0216230Y0247285D01*
X0216308Y0247422D01*
X0216390Y0247558D01*
X0216474Y0247692D01*
X0216563Y0247823D01*
X0216654Y0247952D01*
X0216749Y0248079D01*
X0216846Y0248204D01*
X0216947Y0248326D01*
X0217051Y0248445D01*
X0217158Y0248562D01*
X0217268Y0248676D01*
X0217381Y0248787D01*
X0217496Y0248896D01*
X0217614Y0249001D01*
X0217735Y0249103D01*
X0217858Y0249203D01*
X0217984Y0249299D01*
X0218112Y0249392D01*
X0218242Y0249482D01*
X0218375Y0249568D01*
X0218510Y0249652D01*
X0218646Y0249731D01*
X0218785Y0249808D01*
X0218926Y0249880D01*
X0219068Y0249950D01*
X0219212Y0250015D01*
X0219358Y0250077D01*
X0219505Y0250135D01*
X0219654Y0250190D01*
X0219804Y0250241D01*
X0219955Y0250288D01*
X0220107Y0250331D01*
X0220260Y0250370D01*
X0220415Y0250406D01*
X0220570Y0250437D01*
X0220726Y0250465D01*
X0220882Y0250489D01*
X0221039Y0250509D01*
X0221197Y0250525D01*
X0221354Y0250537D01*
X0221513Y0250545D01*
X0221671Y0250549D01*
X0221829Y0250549D01*
X0221987Y0250545D01*
X0222146Y0250537D01*
X0222303Y0250525D01*
X0222461Y0250509D01*
X0222618Y0250489D01*
X0222774Y0250465D01*
X0222930Y0250437D01*
X0223085Y0250406D01*
X0223240Y0250370D01*
X0223393Y0250331D01*
X0223545Y0250288D01*
X0223696Y0250241D01*
X0223846Y0250190D01*
X0223995Y0250135D01*
X0224142Y0250077D01*
X0224288Y0250015D01*
X0224432Y0249950D01*
X0224574Y0249880D01*
X0224715Y0249808D01*
X0224854Y0249731D01*
X0224990Y0249652D01*
X0225125Y0249568D01*
X0225258Y0249482D01*
X0225388Y0249392D01*
X0225516Y0249299D01*
X0225642Y0249203D01*
X0225765Y0249103D01*
X0225886Y0249001D01*
X0226004Y0248896D01*
X0226119Y0248787D01*
X0226232Y0248676D01*
X0226342Y0248562D01*
X0226449Y0248445D01*
X0226553Y0248326D01*
X0226654Y0248204D01*
X0226751Y0248079D01*
X0226846Y0247952D01*
X0226937Y0247823D01*
X0227026Y0247692D01*
X0227110Y0247558D01*
X0227192Y0247422D01*
X0227270Y0247285D01*
X0227344Y0247145D01*
X0227415Y0247003D01*
X0227483Y0246860D01*
X0227547Y0246715D01*
X0227607Y0246569D01*
X0227663Y0246421D01*
X0227716Y0246272D01*
X0227765Y0246121D01*
X0227810Y0245969D01*
X0227851Y0245816D01*
X0227889Y0245663D01*
X0227922Y0245508D01*
X0227952Y0245352D01*
X0227978Y0245196D01*
X0227999Y0245039D01*
X0228017Y0244882D01*
X0228031Y0244724D01*
X0228041Y0244566D01*
X0228047Y0244408D01*
X0228049Y0244250D01*
X0228047Y0244092D01*
X0228041Y0243934D01*
X0228031Y0243776D01*
X0228017Y0243618D01*
X0227999Y0243461D01*
X0227978Y0243304D01*
X0227952Y0243148D01*
X0227922Y0242992D01*
X0227889Y0242837D01*
X0227851Y0242684D01*
X0227810Y0242531D01*
X0227765Y0242379D01*
X0227716Y0242228D01*
X0227663Y0242079D01*
X0227607Y0241931D01*
X0227547Y0241785D01*
X0227483Y0241640D01*
X0227415Y0241497D01*
X0227344Y0241355D01*
X0227270Y0241215D01*
X0227192Y0241078D01*
X0227110Y0240942D01*
X0227026Y0240808D01*
X0226937Y0240677D01*
X0226846Y0240548D01*
X0226751Y0240421D01*
X0226654Y0240296D01*
X0226553Y0240174D01*
X0226449Y0240055D01*
X0226342Y0239938D01*
X0226232Y0239824D01*
X0226119Y0239713D01*
X0226004Y0239604D01*
X0225886Y0239499D01*
X0225765Y0239397D01*
X0225642Y0239297D01*
X0225516Y0239201D01*
X0225388Y0239108D01*
X0225258Y0239018D01*
X0225125Y0238932D01*
X0224990Y0238848D01*
X0224854Y0238769D01*
X0224715Y0238692D01*
X0224574Y0238620D01*
X0224432Y0238550D01*
X0224288Y0238485D01*
X0224142Y0238423D01*
X0223995Y0238365D01*
X0223846Y0238310D01*
X0223696Y0238259D01*
X0223545Y0238212D01*
X0223393Y0238169D01*
X0223240Y0238130D01*
X0223085Y0238094D01*
X0222930Y0238063D01*
X0222774Y0238035D01*
X0222618Y0238011D01*
X0222461Y0237991D01*
X0222303Y0237975D01*
X0222146Y0237963D01*
X0221987Y0237955D01*
X0221829Y0237951D01*
X0221671Y0237951D01*
X0221513Y0237955D01*
X0221354Y0237963D01*
X0221197Y0237975D01*
X0221039Y0237991D01*
X0220882Y0238011D01*
X0220726Y0238035D01*
X0220570Y0238063D01*
X0220415Y0238094D01*
X0220260Y0238130D01*
X0220107Y0238169D01*
X0219955Y0238212D01*
X0219804Y0238259D01*
X0219654Y0238310D01*
X0219505Y0238365D01*
X0219358Y0238423D01*
X0219212Y0238485D01*
X0219068Y0238550D01*
X0218926Y0238620D01*
X0218785Y0238692D01*
X0218646Y0238769D01*
X0218510Y0238848D01*
X0218375Y0238932D01*
X0218242Y0239018D01*
X0218112Y0239108D01*
X0217984Y0239201D01*
X0217858Y0239297D01*
X0217735Y0239397D01*
X0217614Y0239499D01*
X0217496Y0239604D01*
X0217381Y0239713D01*
X0217268Y0239824D01*
X0217158Y0239938D01*
X0217051Y0240055D01*
X0216947Y0240174D01*
X0216846Y0240296D01*
X0216749Y0240421D01*
X0216654Y0240548D01*
X0216563Y0240677D01*
X0216474Y0240808D01*
X0216390Y0240942D01*
X0216308Y0241078D01*
X0216230Y0241215D01*
X0216156Y0241355D01*
X0216085Y0241497D01*
X0216017Y0241640D01*
X0215953Y0241785D01*
X0215893Y0241931D01*
X0215837Y0242079D01*
X0215784Y0242228D01*
X0215735Y0242379D01*
X0215690Y0242531D01*
X0215649Y0242684D01*
X0215611Y0242837D01*
X0215578Y0242992D01*
X0215548Y0243148D01*
X0215522Y0243304D01*
X0215501Y0243461D01*
X0215483Y0243618D01*
X0215469Y0243776D01*
X0215459Y0243934D01*
X0215453Y0244092D01*
X0215451Y0244250D01*
D12*
X0313240Y0235010D02*
X0320913Y0223500D01*
X0313240Y0223500D02*
X0320913Y0235010D01*
X0333315Y0252685D02*
X0392370Y0252685D01*
X0392370Y0213315D01*
X0333315Y0213315D01*
X0333315Y0252685D01*
X0320913Y0196260D02*
X0320913Y0194342D01*
X0317077Y0190505D01*
X0317077Y0184750D01*
X0317077Y0190505D02*
X0313240Y0194342D01*
X0313240Y0196260D01*
D13*
X0323000Y0208000D02*
X0263000Y0208000D01*
X0247400Y0206471D02*
X0247400Y0213377D01*
X0245098Y0215679D01*
X0242796Y0215679D01*
X0240494Y0213377D01*
X0240494Y0206471D01*
X0242796Y0201867D02*
X0245098Y0201867D01*
X0247400Y0199565D01*
X0247400Y0194961D01*
X0245098Y0192659D01*
X0245098Y0188055D02*
X0242796Y0188055D01*
X0240494Y0185753D01*
X0240494Y0181149D01*
X0238192Y0178847D01*
X0235890Y0178847D01*
X0233588Y0181149D01*
X0233588Y0185753D01*
X0235890Y0188055D01*
X0235890Y0192659D02*
X0238192Y0192659D01*
X0240494Y0194961D01*
X0240494Y0199565D01*
X0242796Y0201867D01*
X0247400Y0206471D02*
X0233588Y0206471D01*
X0233588Y0213377D01*
X0235890Y0215679D01*
X0238192Y0215679D01*
X0240494Y0213377D01*
X0235890Y0201867D02*
X0233588Y0199565D01*
X0233588Y0194961D01*
X0235890Y0192659D01*
X0245098Y0188055D02*
X0247400Y0185753D01*
X0247400Y0181149D01*
X0245098Y0178847D01*
X0240494Y0174243D02*
X0242796Y0171941D01*
X0242796Y0165035D01*
X0247400Y0165035D02*
X0233588Y0165035D01*
X0233588Y0171941D01*
X0235890Y0174243D01*
X0240494Y0174243D01*
X0233588Y0160431D02*
X0247400Y0160431D01*
X0238192Y0155828D02*
X0233588Y0160431D01*
X0238192Y0155828D02*
X0233588Y0151224D01*
X0247400Y0151224D01*
X0247400Y0146620D02*
X0238192Y0146620D01*
X0233588Y0142016D01*
X0238192Y0137412D01*
X0247400Y0137412D01*
X0240494Y0137412D02*
X0240494Y0146620D01*
X0240494Y0132808D02*
X0235890Y0132808D01*
X0233588Y0130506D01*
X0233588Y0123600D01*
X0247400Y0123600D01*
X0242796Y0123600D02*
X0242796Y0130506D01*
X0240494Y0132808D01*
X0242796Y0128204D02*
X0247400Y0132808D01*
X0263000Y0148000D02*
X0263000Y0108000D01*
X0308000Y0108000D01*
X0308000Y0148000D01*
X0263000Y0148000D01*
X0263000Y0170500D02*
X0263000Y0245500D01*
X0310500Y0245500D01*
X0323000Y0245500D01*
X0323000Y0170500D01*
X0310500Y0170500D01*
X0263000Y0170500D01*
X0310500Y0170500D02*
X0310500Y0245500D01*
D14*
X0215300Y0191566D02*
X0215300Y0190031D01*
X0214533Y0189264D01*
X0212998Y0189264D01*
X0212231Y0190031D01*
X0212231Y0191566D01*
X0212998Y0192333D01*
X0213765Y0192333D01*
X0213765Y0189264D01*
X0212231Y0187729D02*
X0212231Y0186962D01*
X0213765Y0185427D01*
X0213765Y0183893D02*
X0213765Y0180824D01*
X0212998Y0180824D02*
X0212231Y0181591D01*
X0212231Y0183126D01*
X0212998Y0183893D01*
X0213765Y0183893D01*
X0215300Y0183126D02*
X0215300Y0181591D01*
X0214533Y0180824D01*
X0212998Y0180824D01*
X0212998Y0179289D02*
X0212998Y0176220D01*
X0215300Y0176220D02*
X0210696Y0176220D01*
X0210696Y0179289D02*
X0215300Y0179289D01*
X0215300Y0185427D02*
X0212231Y0185427D01*
X0212231Y0170081D02*
X0212231Y0167779D01*
X0212998Y0167012D01*
X0213765Y0167779D01*
X0213765Y0169314D01*
X0214533Y0170081D01*
X0215300Y0169314D01*
X0215300Y0167012D01*
X0213765Y0165477D02*
X0213765Y0162408D01*
X0212998Y0162408D02*
X0212231Y0163175D01*
X0212231Y0164710D01*
X0212998Y0165477D01*
X0213765Y0165477D01*
X0215300Y0164710D02*
X0215300Y0163175D01*
X0214533Y0162408D01*
X0212998Y0162408D01*
X0212998Y0160873D02*
X0212231Y0160106D01*
X0212231Y0158571D01*
X0212998Y0157804D01*
X0214533Y0157804D01*
X0215300Y0158571D01*
X0215300Y0160106D01*
X0214533Y0160873D01*
X0212998Y0160873D01*
X0212998Y0156269D02*
X0212998Y0154735D01*
X0212998Y0156269D02*
X0214533Y0156269D01*
X0215300Y0155502D01*
X0215300Y0153967D01*
X0214533Y0153200D01*
X0211463Y0153200D01*
X0210696Y0153967D01*
X0210696Y0155502D01*
X0211463Y0156269D01*
X0241394Y0091554D02*
X0241394Y0086950D01*
X0241394Y0089252D02*
X0242161Y0090019D01*
X0243696Y0090019D01*
X0244463Y0089252D01*
X0244463Y0086950D01*
X0246765Y0087717D02*
X0247532Y0086950D01*
X0246765Y0087717D02*
X0246765Y0090787D01*
X0245998Y0090019D02*
X0247532Y0090019D01*
X0249067Y0090019D02*
X0250602Y0090019D01*
X0249834Y0090787D02*
X0249834Y0087717D01*
X0250602Y0086950D01*
X0252136Y0086950D02*
X0254438Y0086950D01*
X0255206Y0087717D01*
X0255206Y0089252D01*
X0254438Y0090019D01*
X0252136Y0090019D01*
X0252136Y0085415D01*
X0256740Y0086950D02*
X0256740Y0087717D01*
X0257507Y0087717D01*
X0257507Y0086950D01*
X0256740Y0086950D01*
X0256740Y0089252D02*
X0256740Y0090019D01*
X0257507Y0090019D01*
X0257507Y0089252D01*
X0256740Y0089252D01*
X0259042Y0086950D02*
X0262111Y0091554D01*
X0266715Y0091554D02*
X0263646Y0086950D01*
X0268250Y0086950D02*
X0268250Y0090019D01*
X0268250Y0088485D02*
X0269785Y0090019D01*
X0270552Y0090019D01*
X0272087Y0089252D02*
X0272854Y0090019D01*
X0274389Y0090019D01*
X0275156Y0089252D01*
X0275156Y0088485D01*
X0272087Y0088485D01*
X0272087Y0089252D02*
X0272087Y0087717D01*
X0272854Y0086950D01*
X0274389Y0086950D01*
X0276691Y0086950D02*
X0278992Y0086950D01*
X0279760Y0087717D01*
X0279760Y0089252D01*
X0278992Y0090019D01*
X0276691Y0090019D01*
X0276691Y0085415D01*
X0281294Y0086950D02*
X0281294Y0090019D01*
X0281294Y0088485D02*
X0282829Y0090019D01*
X0283596Y0090019D01*
X0285898Y0090019D02*
X0287433Y0090019D01*
X0288200Y0089252D01*
X0288200Y0086950D01*
X0285898Y0086950D01*
X0285131Y0087717D01*
X0285898Y0088485D01*
X0288200Y0088485D01*
X0289735Y0090019D02*
X0292037Y0090019D01*
X0292804Y0089252D01*
X0292804Y0087717D01*
X0292037Y0086950D01*
X0289735Y0086950D01*
X0289735Y0085415D02*
X0289735Y0090019D01*
X0294339Y0087717D02*
X0295106Y0087717D01*
X0295106Y0086950D01*
X0294339Y0086950D01*
X0294339Y0087717D01*
X0296641Y0087717D02*
X0297408Y0086950D01*
X0298943Y0086950D01*
X0299710Y0087717D01*
X0299710Y0089252D01*
X0298943Y0090019D01*
X0297408Y0090019D01*
X0296641Y0089252D01*
X0296641Y0087717D01*
X0301245Y0086950D02*
X0301245Y0090019D01*
X0301245Y0088485D02*
X0302779Y0090019D01*
X0303547Y0090019D01*
X0305081Y0089252D02*
X0305081Y0087717D01*
X0305849Y0086950D01*
X0308151Y0086950D01*
X0308151Y0086183D02*
X0308151Y0090019D01*
X0305849Y0090019D01*
X0305081Y0089252D01*
X0306616Y0085415D02*
X0307383Y0085415D01*
X0308151Y0086183D01*
X0309685Y0086950D02*
X0312755Y0091554D01*
X0314289Y0090019D02*
X0314289Y0087717D01*
X0315057Y0086950D01*
X0315824Y0087717D01*
X0316591Y0086950D01*
X0317358Y0087717D01*
X0317358Y0090019D01*
X0318893Y0090019D02*
X0319660Y0090019D01*
X0319660Y0086950D01*
X0318893Y0086950D02*
X0320428Y0086950D01*
X0321962Y0086950D02*
X0321962Y0091554D01*
X0319660Y0091554D02*
X0319660Y0092321D01*
X0321962Y0088485D02*
X0324264Y0090019D01*
X0325799Y0090019D02*
X0326566Y0090019D01*
X0326566Y0086950D01*
X0325799Y0086950D02*
X0327334Y0086950D01*
X0328868Y0086950D02*
X0331938Y0091554D01*
X0333472Y0091554D02*
X0335774Y0091554D01*
X0336541Y0090787D01*
X0336541Y0089252D01*
X0335774Y0088485D01*
X0333472Y0088485D01*
X0335007Y0088485D02*
X0336541Y0086950D01*
X0338076Y0086950D02*
X0338076Y0090019D01*
X0339611Y0091554D01*
X0341145Y0090019D01*
X0341145Y0086950D01*
X0342680Y0086950D02*
X0342680Y0091554D01*
X0344215Y0090019D01*
X0345749Y0091554D01*
X0345749Y0086950D01*
X0347284Y0086950D02*
X0347284Y0091554D01*
X0349586Y0091554D01*
X0350353Y0090787D01*
X0350353Y0089252D01*
X0349586Y0088485D01*
X0347284Y0088485D01*
X0351888Y0087717D02*
X0352655Y0086950D01*
X0354190Y0086950D01*
X0354957Y0087717D01*
X0354957Y0088485D01*
X0354190Y0089252D01*
X0352655Y0089252D01*
X0351888Y0090019D01*
X0351888Y0090787D01*
X0352655Y0091554D01*
X0354190Y0091554D01*
X0354957Y0090787D01*
X0356492Y0090787D02*
X0356492Y0090019D01*
X0357259Y0089252D01*
X0358794Y0089252D01*
X0359561Y0088485D01*
X0359561Y0087717D01*
X0358794Y0086950D01*
X0357259Y0086950D01*
X0356492Y0087717D01*
X0356492Y0090787D02*
X0357259Y0091554D01*
X0358794Y0091554D01*
X0359561Y0090787D01*
X0361096Y0091554D02*
X0363398Y0091554D01*
X0364165Y0090787D01*
X0364165Y0090019D01*
X0363398Y0089252D01*
X0361096Y0089252D01*
X0363398Y0089252D02*
X0364165Y0088485D01*
X0364165Y0087717D01*
X0363398Y0086950D01*
X0361096Y0086950D01*
X0361096Y0091554D01*
X0341145Y0089252D02*
X0338076Y0089252D01*
X0333472Y0086950D02*
X0333472Y0091554D01*
X0326566Y0091554D02*
X0326566Y0092321D01*
X0324264Y0086950D02*
X0321962Y0088485D01*
X0307692Y0156950D02*
X0306158Y0158485D01*
X0306158Y0161554D01*
X0304623Y0161554D02*
X0301554Y0161554D01*
X0301554Y0159252D01*
X0303089Y0160019D01*
X0303856Y0160019D01*
X0304623Y0159252D01*
X0304623Y0157717D01*
X0303856Y0156950D01*
X0302321Y0156950D01*
X0301554Y0157717D01*
X0300019Y0159252D02*
X0296950Y0159252D01*
X0298485Y0160787D02*
X0298485Y0157717D01*
X0307692Y0156950D02*
X0309227Y0158485D01*
X0309227Y0161554D01*
X0209050Y0067841D02*
X0208283Y0068608D01*
X0206748Y0068608D01*
X0205981Y0067841D01*
X0205981Y0065539D01*
X0210585Y0065539D01*
X0209050Y0065539D02*
X0209050Y0067841D01*
X0208283Y0064004D02*
X0206748Y0064004D01*
X0205981Y0063237D01*
X0205981Y0061702D01*
X0206748Y0060935D01*
X0208283Y0060935D01*
X0209050Y0061702D01*
X0209050Y0063237D01*
X0208283Y0064004D01*
X0209050Y0059400D02*
X0208283Y0058633D01*
X0205213Y0058633D01*
X0205981Y0057866D02*
X0205981Y0059400D01*
X0205981Y0056331D02*
X0205981Y0054029D01*
X0206748Y0053262D01*
X0207515Y0054029D01*
X0207515Y0055564D01*
X0208283Y0056331D01*
X0209050Y0055564D01*
X0209050Y0053262D01*
X0209050Y0051727D02*
X0209050Y0049425D01*
X0208283Y0048658D01*
X0206748Y0048658D01*
X0205981Y0049425D01*
X0205981Y0051727D01*
X0204446Y0051727D02*
X0209050Y0051727D01*
X0209050Y0047123D02*
X0206748Y0047123D01*
X0205981Y0046356D01*
X0205981Y0044054D01*
X0209050Y0044054D01*
X0209050Y0042519D02*
X0209050Y0039450D01*
X0204446Y0039450D01*
X0204446Y0042519D01*
X0206748Y0040985D02*
X0206748Y0039450D01*
X0185415Y0036554D02*
X0182346Y0036554D01*
X0182346Y0031950D01*
X0185415Y0031950D01*
X0183881Y0034252D02*
X0182346Y0034252D01*
X0180811Y0034252D02*
X0180044Y0033485D01*
X0177742Y0033485D01*
X0179277Y0033485D02*
X0180811Y0031950D01*
X0180811Y0034252D02*
X0180811Y0035787D01*
X0180044Y0036554D01*
X0177742Y0036554D01*
X0177742Y0031950D01*
X0176207Y0031950D02*
X0173138Y0031950D01*
X0173138Y0036554D01*
X0176207Y0036554D01*
X0174673Y0034252D02*
X0173138Y0034252D01*
X0171604Y0034252D02*
X0168534Y0034252D01*
X0168534Y0031950D02*
X0168534Y0036554D01*
X0171604Y0036554D02*
X0171604Y0031950D01*
X0162396Y0032717D02*
X0161628Y0031950D01*
X0159326Y0031950D01*
X0159326Y0036554D01*
X0161628Y0036554D01*
X0162396Y0035787D01*
X0162396Y0035019D01*
X0161628Y0034252D01*
X0159326Y0034252D01*
X0157792Y0033485D02*
X0157792Y0032717D01*
X0157024Y0031950D01*
X0155490Y0031950D01*
X0154722Y0032717D01*
X0153188Y0032717D02*
X0153188Y0036554D01*
X0154722Y0035787D02*
X0154722Y0035019D01*
X0155490Y0034252D01*
X0157024Y0034252D01*
X0157792Y0033485D01*
X0157792Y0035787D02*
X0157024Y0036554D01*
X0155490Y0036554D01*
X0154722Y0035787D01*
X0153188Y0032717D02*
X0152420Y0031950D01*
X0150886Y0031950D01*
X0150119Y0032717D01*
X0150119Y0036554D01*
X0161628Y0034252D02*
X0162396Y0033485D01*
X0162396Y0032717D01*
X0069050Y0033522D02*
X0068283Y0032754D01*
X0066748Y0032754D01*
X0065981Y0033522D01*
X0065981Y0035056D01*
X0066748Y0035824D01*
X0068283Y0035824D01*
X0069050Y0035056D01*
X0069050Y0033522D01*
X0069050Y0031220D02*
X0069050Y0028918D01*
X0068283Y0028150D01*
X0066748Y0028150D01*
X0065981Y0028918D01*
X0065981Y0031220D01*
X0065213Y0026616D02*
X0064446Y0025848D01*
X0064446Y0024314D01*
X0065213Y0023546D01*
X0065981Y0023546D01*
X0066748Y0024314D01*
X0066748Y0025848D01*
X0067515Y0026616D01*
X0068283Y0026616D01*
X0069050Y0025848D01*
X0069050Y0024314D01*
X0068283Y0023546D01*
X0067515Y0017408D02*
X0065981Y0017408D01*
X0064446Y0015873D01*
X0065213Y0014339D02*
X0064446Y0013571D01*
X0064446Y0012037D01*
X0065213Y0011269D01*
X0068283Y0011269D01*
X0069050Y0012037D01*
X0069050Y0013571D01*
X0068283Y0014339D01*
X0069050Y0015873D02*
X0067515Y0017408D01*
X0069050Y0009735D02*
X0067515Y0008200D01*
X0065981Y0008200D01*
X0064446Y0009735D01*
X0065981Y0037358D02*
X0065981Y0038893D01*
X0065213Y0038125D02*
X0068283Y0038125D01*
X0069050Y0038893D01*
X0068283Y0041195D02*
X0065213Y0041195D01*
X0065981Y0041962D02*
X0065981Y0040427D01*
X0068283Y0041195D02*
X0069050Y0041962D01*
X0069050Y0048101D02*
X0069050Y0051170D01*
X0069050Y0052705D02*
X0069050Y0054239D01*
X0069050Y0053472D02*
X0065981Y0053472D01*
X0065981Y0052705D01*
X0064446Y0053472D02*
X0063679Y0053472D01*
X0064446Y0051170D02*
X0065213Y0051170D01*
X0068283Y0048101D01*
X0069050Y0048101D01*
X0064446Y0048101D02*
X0064446Y0051170D01*
X0065981Y0055774D02*
X0069050Y0057309D01*
X0065981Y0058843D01*
X0068196Y0128200D02*
X0072800Y0128200D01*
X0070498Y0128200D02*
X0070498Y0131269D01*
X0070498Y0132804D02*
X0070498Y0134339D01*
X0068196Y0135873D02*
X0068196Y0132804D01*
X0072800Y0132804D01*
X0072800Y0135873D01*
X0072800Y0137408D02*
X0069731Y0137408D01*
X0068196Y0138942D01*
X0069731Y0140477D01*
X0072800Y0140477D01*
X0070498Y0140477D02*
X0070498Y0137408D01*
X0068196Y0142012D02*
X0068196Y0145081D01*
X0068196Y0143546D02*
X0072800Y0143546D01*
X0072033Y0146616D02*
X0072800Y0147383D01*
X0072800Y0148918D01*
X0072033Y0149685D01*
X0071265Y0149685D01*
X0070498Y0148918D01*
X0070498Y0147383D01*
X0069731Y0146616D01*
X0068963Y0146616D01*
X0068196Y0147383D01*
X0068196Y0148918D01*
X0068963Y0149685D01*
X0068196Y0151220D02*
X0068196Y0152754D01*
X0068196Y0151987D02*
X0072800Y0151987D01*
X0072800Y0151220D02*
X0072800Y0152754D01*
X0072800Y0154289D02*
X0068196Y0154289D01*
X0072800Y0157358D01*
X0068196Y0157358D01*
X0068196Y0158893D02*
X0072800Y0158893D01*
X0071265Y0158893D02*
X0068196Y0161962D01*
X0070498Y0159660D02*
X0072800Y0161962D01*
X0072033Y0168101D02*
X0068963Y0168101D01*
X0068196Y0168868D01*
X0068196Y0170403D01*
X0068963Y0171170D01*
X0068963Y0172705D02*
X0072033Y0172705D01*
X0072800Y0173472D01*
X0072800Y0175007D01*
X0072033Y0175774D01*
X0068963Y0175774D01*
X0068196Y0175007D01*
X0068196Y0173472D01*
X0068963Y0172705D01*
X0070498Y0171170D02*
X0070498Y0169635D01*
X0070498Y0171170D02*
X0072033Y0171170D01*
X0072800Y0170403D01*
X0072800Y0168868D01*
X0072033Y0168101D01*
X0072800Y0177309D02*
X0068196Y0177309D01*
X0068196Y0180378D01*
X0068963Y0181912D02*
X0069731Y0181912D01*
X0070498Y0182680D01*
X0070498Y0184214D01*
X0071265Y0184982D01*
X0072033Y0184982D01*
X0072800Y0184214D01*
X0072800Y0182680D01*
X0072033Y0181912D01*
X0072800Y0180378D02*
X0072800Y0177309D01*
X0070498Y0177309D02*
X0070498Y0178843D01*
X0068963Y0181912D02*
X0068196Y0182680D01*
X0068196Y0184214D01*
X0068963Y0184982D01*
X0068196Y0191120D02*
X0072800Y0191120D01*
X0070498Y0191120D02*
X0070498Y0194190D01*
X0070498Y0195724D02*
X0070498Y0197259D01*
X0068196Y0198794D02*
X0068196Y0195724D01*
X0072800Y0195724D01*
X0072800Y0198794D01*
X0072800Y0200328D02*
X0068196Y0200328D01*
X0068196Y0202630D01*
X0068963Y0203397D01*
X0070498Y0203397D01*
X0071265Y0202630D01*
X0071265Y0200328D01*
X0071265Y0201863D02*
X0072800Y0203397D01*
X0072800Y0204932D02*
X0068196Y0204932D01*
X0068196Y0208001D01*
X0070498Y0206467D02*
X0070498Y0204932D01*
X0072800Y0204932D02*
X0072800Y0208001D01*
X0072800Y0194190D02*
X0068196Y0194190D01*
X0068196Y0131269D02*
X0072800Y0131269D01*
X0204446Y0271257D02*
X0209050Y0271257D01*
X0209050Y0274326D01*
X0209050Y0275861D02*
X0205981Y0275861D01*
X0205981Y0278163D01*
X0206748Y0278930D01*
X0209050Y0278930D01*
X0208283Y0280465D02*
X0206748Y0280465D01*
X0205981Y0281232D01*
X0205981Y0283534D01*
X0204446Y0283534D02*
X0209050Y0283534D01*
X0209050Y0281232D01*
X0208283Y0280465D01*
X0209050Y0285069D02*
X0209050Y0287371D01*
X0208283Y0288138D01*
X0207515Y0287371D01*
X0207515Y0285836D01*
X0206748Y0285069D01*
X0205981Y0285836D01*
X0205981Y0288138D01*
X0205981Y0289673D02*
X0205981Y0291207D01*
X0205213Y0290440D02*
X0208283Y0290440D01*
X0209050Y0291207D01*
X0208283Y0292742D02*
X0209050Y0293509D01*
X0209050Y0295044D01*
X0208283Y0295811D01*
X0206748Y0295811D01*
X0205981Y0295044D01*
X0205981Y0293509D01*
X0206748Y0292742D01*
X0208283Y0292742D01*
X0209050Y0297346D02*
X0209050Y0299648D01*
X0208283Y0300415D01*
X0206748Y0300415D01*
X0205981Y0299648D01*
X0205981Y0297346D01*
X0210585Y0297346D01*
X0204446Y0274326D02*
X0204446Y0271257D01*
X0206748Y0271257D02*
X0206748Y0272792D01*
X0184165Y0309450D02*
X0181096Y0309450D01*
X0181096Y0314054D01*
X0184165Y0314054D01*
X0182631Y0311752D02*
X0181096Y0311752D01*
X0179561Y0311752D02*
X0178794Y0310985D01*
X0176492Y0310985D01*
X0178027Y0310985D02*
X0179561Y0309450D01*
X0179561Y0311752D02*
X0179561Y0313287D01*
X0178794Y0314054D01*
X0176492Y0314054D01*
X0176492Y0309450D01*
X0174957Y0309450D02*
X0171888Y0309450D01*
X0171888Y0314054D01*
X0174957Y0314054D01*
X0173423Y0311752D02*
X0171888Y0311752D01*
X0170354Y0311752D02*
X0167284Y0311752D01*
X0167284Y0309450D02*
X0167284Y0314054D01*
X0170354Y0314054D02*
X0170354Y0309450D01*
X0161146Y0310217D02*
X0160378Y0309450D01*
X0158076Y0309450D01*
X0158076Y0314054D01*
X0160378Y0314054D01*
X0161146Y0313287D01*
X0161146Y0312519D01*
X0160378Y0311752D01*
X0158076Y0311752D01*
X0156542Y0310985D02*
X0156542Y0310217D01*
X0155774Y0309450D01*
X0154240Y0309450D01*
X0153472Y0310217D01*
X0151938Y0310217D02*
X0151938Y0314054D01*
X0153472Y0313287D02*
X0153472Y0312519D01*
X0154240Y0311752D01*
X0155774Y0311752D01*
X0156542Y0310985D01*
X0156542Y0313287D02*
X0155774Y0314054D01*
X0154240Y0314054D01*
X0153472Y0313287D01*
X0151938Y0310217D02*
X0151170Y0309450D01*
X0149636Y0309450D01*
X0148869Y0310217D01*
X0148869Y0314054D01*
X0160378Y0311752D02*
X0161146Y0310985D01*
X0161146Y0310217D01*
D15*
X0353000Y0223625D03*
D16*
X0258900Y0222062D02*
X0253629Y0222062D01*
X0253629Y0224697D02*
X0253629Y0226015D01*
X0253629Y0224697D02*
X0256264Y0222062D01*
X0256264Y0219414D02*
X0256264Y0215461D01*
X0257582Y0214143D01*
X0258900Y0215461D01*
X0258900Y0219414D01*
X0254947Y0219414D01*
X0253629Y0218096D01*
X0253629Y0215461D01*
X0254947Y0211495D02*
X0253629Y0210177D01*
X0253629Y0207542D01*
X0254947Y0206224D01*
X0257582Y0206224D01*
X0258900Y0207542D01*
X0258900Y0210177D01*
X0257582Y0211495D01*
X0254947Y0211495D01*
X0256264Y0203577D02*
X0257582Y0203577D01*
X0258900Y0202259D01*
X0258900Y0198305D01*
X0250993Y0198305D01*
X0250993Y0202259D01*
X0252311Y0203577D01*
X0253629Y0203577D01*
X0254947Y0202259D01*
X0254947Y0198305D01*
X0254947Y0202259D02*
X0256264Y0203577D01*
X0254947Y0187739D02*
X0253629Y0186421D01*
X0253629Y0183786D01*
X0254947Y0182468D01*
X0257582Y0182468D01*
X0258900Y0183786D01*
X0258900Y0186421D01*
X0257582Y0187739D01*
X0254947Y0187739D01*
X0253629Y0179820D02*
X0258900Y0177185D01*
X0253629Y0174549D01*
X0253629Y0171903D02*
X0253629Y0170586D01*
X0256264Y0167950D01*
X0253629Y0167950D02*
X0258900Y0167950D01*
X0256264Y0165302D02*
X0254947Y0165302D01*
X0253629Y0163985D01*
X0253629Y0161349D01*
X0254947Y0160031D01*
X0257582Y0160031D01*
X0258900Y0161349D01*
X0258900Y0163985D01*
X0256264Y0165302D02*
X0256264Y0160031D01*
X0256264Y0157384D02*
X0257582Y0157384D01*
X0258900Y0156066D01*
X0258900Y0153430D01*
X0257582Y0152113D01*
X0254947Y0153430D02*
X0254947Y0156066D01*
X0256264Y0157384D01*
X0252311Y0157384D02*
X0250993Y0156066D01*
X0250993Y0153430D01*
X0252311Y0152113D01*
X0253629Y0152113D01*
X0254947Y0153430D01*
X0256264Y0141546D02*
X0254947Y0140228D01*
X0254947Y0137593D01*
X0253629Y0136275D01*
X0252311Y0136275D01*
X0250993Y0137593D01*
X0250993Y0140228D01*
X0252311Y0141546D01*
X0256264Y0141546D02*
X0257582Y0141546D01*
X0258900Y0140228D01*
X0258900Y0137593D01*
X0257582Y0136275D01*
X0254947Y0133627D02*
X0256264Y0132310D01*
X0256264Y0128356D01*
X0258900Y0128356D02*
X0250993Y0128356D01*
X0250993Y0132310D01*
X0252311Y0133627D01*
X0254947Y0133627D01*
X0258900Y0125709D02*
X0250993Y0125709D01*
X0253629Y0123073D01*
X0250993Y0120438D01*
X0258900Y0120438D01*
X0258900Y0117790D02*
X0253629Y0117790D01*
X0250993Y0115154D01*
X0253629Y0112519D01*
X0258900Y0112519D01*
X0258900Y0109871D02*
X0256264Y0107236D01*
X0256264Y0108553D02*
X0256264Y0104600D01*
X0258900Y0104600D02*
X0250993Y0104600D01*
X0250993Y0108553D01*
X0252311Y0109871D01*
X0254947Y0109871D01*
X0256264Y0108553D01*
X0254947Y0112519D02*
X0254947Y0117790D01*
X0254947Y0228661D02*
X0253629Y0229978D01*
X0253629Y0233932D01*
X0250993Y0233932D02*
X0258900Y0233932D01*
X0258900Y0229978D01*
X0257582Y0228661D01*
X0254947Y0228661D01*
D17*
X0285500Y0159250D03*
D18*
X0268000Y0143000D03*
X0215500Y0038000D03*
X0215500Y0303000D03*
D19*
X0301750Y0143000D03*
D20*
X0090500Y0079875D03*
D21*
X0065192Y0098000D02*
X0065195Y0098253D01*
X0065204Y0098506D01*
X0065220Y0098758D01*
X0065242Y0099010D01*
X0065270Y0099262D01*
X0065304Y0099512D01*
X0065344Y0099762D01*
X0065390Y0100011D01*
X0065442Y0100258D01*
X0065501Y0100505D01*
X0065565Y0100749D01*
X0065636Y0100992D01*
X0065712Y0101233D01*
X0065795Y0101473D01*
X0065883Y0101710D01*
X0065977Y0101945D01*
X0066076Y0102177D01*
X0066182Y0102407D01*
X0066293Y0102635D01*
X0066409Y0102859D01*
X0066531Y0103081D01*
X0066659Y0103299D01*
X0066791Y0103515D01*
X0066929Y0103727D01*
X0067072Y0103935D01*
X0067221Y0104140D01*
X0067374Y0104342D01*
X0067532Y0104539D01*
X0067695Y0104733D01*
X0067862Y0104922D01*
X0068034Y0105108D01*
X0068211Y0105289D01*
X0068392Y0105466D01*
X0068578Y0105638D01*
X0068767Y0105805D01*
X0068961Y0105968D01*
X0069158Y0106126D01*
X0069360Y0106279D01*
X0069565Y0106428D01*
X0069773Y0106571D01*
X0069985Y0106709D01*
X0070201Y0106841D01*
X0070419Y0106969D01*
X0070641Y0107091D01*
X0070865Y0107207D01*
X0071093Y0107318D01*
X0071323Y0107424D01*
X0071555Y0107523D01*
X0071790Y0107617D01*
X0072027Y0107705D01*
X0072267Y0107788D01*
X0072508Y0107864D01*
X0072751Y0107935D01*
X0072995Y0107999D01*
X0073242Y0108058D01*
X0073489Y0108110D01*
X0073738Y0108156D01*
X0073988Y0108196D01*
X0074238Y0108230D01*
X0074490Y0108258D01*
X0074742Y0108280D01*
X0074994Y0108296D01*
X0075247Y0108305D01*
X0075500Y0108308D01*
X0075753Y0108305D01*
X0076006Y0108296D01*
X0076258Y0108280D01*
X0076510Y0108258D01*
X0076762Y0108230D01*
X0077012Y0108196D01*
X0077262Y0108156D01*
X0077511Y0108110D01*
X0077758Y0108058D01*
X0078005Y0107999D01*
X0078249Y0107935D01*
X0078492Y0107864D01*
X0078733Y0107788D01*
X0078973Y0107705D01*
X0079210Y0107617D01*
X0079445Y0107523D01*
X0079677Y0107424D01*
X0079907Y0107318D01*
X0080135Y0107207D01*
X0080359Y0107091D01*
X0080581Y0106969D01*
X0080799Y0106841D01*
X0081015Y0106709D01*
X0081227Y0106571D01*
X0081435Y0106428D01*
X0081640Y0106279D01*
X0081842Y0106126D01*
X0082039Y0105968D01*
X0082233Y0105805D01*
X0082422Y0105638D01*
X0082608Y0105466D01*
X0082789Y0105289D01*
X0082966Y0105108D01*
X0083138Y0104922D01*
X0083305Y0104733D01*
X0083468Y0104539D01*
X0083626Y0104342D01*
X0083779Y0104140D01*
X0083928Y0103935D01*
X0084071Y0103727D01*
X0084209Y0103515D01*
X0084341Y0103299D01*
X0084469Y0103081D01*
X0084591Y0102859D01*
X0084707Y0102635D01*
X0084818Y0102407D01*
X0084924Y0102177D01*
X0085023Y0101945D01*
X0085117Y0101710D01*
X0085205Y0101473D01*
X0085288Y0101233D01*
X0085364Y0100992D01*
X0085435Y0100749D01*
X0085499Y0100505D01*
X0085558Y0100258D01*
X0085610Y0100011D01*
X0085656Y0099762D01*
X0085696Y0099512D01*
X0085730Y0099262D01*
X0085758Y0099010D01*
X0085780Y0098758D01*
X0085796Y0098506D01*
X0085805Y0098253D01*
X0085808Y0098000D01*
X0085805Y0097747D01*
X0085796Y0097494D01*
X0085780Y0097242D01*
X0085758Y0096990D01*
X0085730Y0096738D01*
X0085696Y0096488D01*
X0085656Y0096238D01*
X0085610Y0095989D01*
X0085558Y0095742D01*
X0085499Y0095495D01*
X0085435Y0095251D01*
X0085364Y0095008D01*
X0085288Y0094767D01*
X0085205Y0094527D01*
X0085117Y0094290D01*
X0085023Y0094055D01*
X0084924Y0093823D01*
X0084818Y0093593D01*
X0084707Y0093365D01*
X0084591Y0093141D01*
X0084469Y0092919D01*
X0084341Y0092701D01*
X0084209Y0092485D01*
X0084071Y0092273D01*
X0083928Y0092065D01*
X0083779Y0091860D01*
X0083626Y0091658D01*
X0083468Y0091461D01*
X0083305Y0091267D01*
X0083138Y0091078D01*
X0082966Y0090892D01*
X0082789Y0090711D01*
X0082608Y0090534D01*
X0082422Y0090362D01*
X0082233Y0090195D01*
X0082039Y0090032D01*
X0081842Y0089874D01*
X0081640Y0089721D01*
X0081435Y0089572D01*
X0081227Y0089429D01*
X0081015Y0089291D01*
X0080799Y0089159D01*
X0080581Y0089031D01*
X0080359Y0088909D01*
X0080135Y0088793D01*
X0079907Y0088682D01*
X0079677Y0088576D01*
X0079445Y0088477D01*
X0079210Y0088383D01*
X0078973Y0088295D01*
X0078733Y0088212D01*
X0078492Y0088136D01*
X0078249Y0088065D01*
X0078005Y0088001D01*
X0077758Y0087942D01*
X0077511Y0087890D01*
X0077262Y0087844D01*
X0077012Y0087804D01*
X0076762Y0087770D01*
X0076510Y0087742D01*
X0076258Y0087720D01*
X0076006Y0087704D01*
X0075753Y0087695D01*
X0075500Y0087692D01*
X0075247Y0087695D01*
X0074994Y0087704D01*
X0074742Y0087720D01*
X0074490Y0087742D01*
X0074238Y0087770D01*
X0073988Y0087804D01*
X0073738Y0087844D01*
X0073489Y0087890D01*
X0073242Y0087942D01*
X0072995Y0088001D01*
X0072751Y0088065D01*
X0072508Y0088136D01*
X0072267Y0088212D01*
X0072027Y0088295D01*
X0071790Y0088383D01*
X0071555Y0088477D01*
X0071323Y0088576D01*
X0071093Y0088682D01*
X0070865Y0088793D01*
X0070641Y0088909D01*
X0070419Y0089031D01*
X0070201Y0089159D01*
X0069985Y0089291D01*
X0069773Y0089429D01*
X0069565Y0089572D01*
X0069360Y0089721D01*
X0069158Y0089874D01*
X0068961Y0090032D01*
X0068767Y0090195D01*
X0068578Y0090362D01*
X0068392Y0090534D01*
X0068211Y0090711D01*
X0068034Y0090892D01*
X0067862Y0091078D01*
X0067695Y0091267D01*
X0067532Y0091461D01*
X0067374Y0091658D01*
X0067221Y0091860D01*
X0067072Y0092065D01*
X0066929Y0092273D01*
X0066791Y0092485D01*
X0066659Y0092701D01*
X0066531Y0092919D01*
X0066409Y0093141D01*
X0066293Y0093365D01*
X0066182Y0093593D01*
X0066076Y0093823D01*
X0065977Y0094055D01*
X0065883Y0094290D01*
X0065795Y0094527D01*
X0065712Y0094767D01*
X0065636Y0095008D01*
X0065565Y0095251D01*
X0065501Y0095495D01*
X0065442Y0095742D01*
X0065390Y0095989D01*
X0065344Y0096238D01*
X0065304Y0096488D01*
X0065270Y0096738D01*
X0065242Y0096990D01*
X0065220Y0097242D01*
X0065204Y0097494D01*
X0065195Y0097747D01*
X0065192Y0098000D01*
X0065500Y0088000D02*
X0065500Y0163000D01*
X0065500Y0088000D02*
X0231750Y0088000D01*
X0231750Y0109250D01*
X0214250Y0128000D01*
X0214250Y0145500D01*
X0219250Y0145500D01*
X0219250Y0199250D01*
X0214250Y0199250D01*
X0214250Y0214250D01*
X0231750Y0231750D01*
X0231750Y0254250D01*
X0123000Y0254250D01*
X0196750Y0190500D02*
X0196750Y0154250D01*
X0205500Y0145500D01*
X0214250Y0145500D01*
X0211987Y0098000D02*
X0211990Y0098240D01*
X0211999Y0098479D01*
X0212013Y0098718D01*
X0212034Y0098957D01*
X0212060Y0099195D01*
X0212093Y0099433D01*
X0212131Y0099669D01*
X0212175Y0099905D01*
X0212224Y0100139D01*
X0212280Y0100372D01*
X0212341Y0100604D01*
X0212407Y0100834D01*
X0212480Y0101062D01*
X0212558Y0101289D01*
X0212641Y0101514D01*
X0212730Y0101736D01*
X0212825Y0101956D01*
X0212924Y0102174D01*
X0213029Y0102390D01*
X0213140Y0102602D01*
X0213255Y0102812D01*
X0213376Y0103019D01*
X0213502Y0103223D01*
X0213632Y0103424D01*
X0213768Y0103622D01*
X0213908Y0103816D01*
X0214053Y0104007D01*
X0214203Y0104194D01*
X0214357Y0104377D01*
X0214516Y0104556D01*
X0214679Y0104732D01*
X0214847Y0104903D01*
X0215018Y0105071D01*
X0215194Y0105234D01*
X0215373Y0105393D01*
X0215556Y0105547D01*
X0215743Y0105697D01*
X0215934Y0105842D01*
X0216128Y0105982D01*
X0216326Y0106118D01*
X0216527Y0106248D01*
X0216731Y0106374D01*
X0216938Y0106495D01*
X0217148Y0106610D01*
X0217360Y0106721D01*
X0217576Y0106826D01*
X0217794Y0106925D01*
X0218014Y0107020D01*
X0218236Y0107109D01*
X0218461Y0107192D01*
X0218688Y0107270D01*
X0218916Y0107343D01*
X0219146Y0107409D01*
X0219378Y0107470D01*
X0219611Y0107526D01*
X0219845Y0107575D01*
X0220081Y0107619D01*
X0220317Y0107657D01*
X0220555Y0107690D01*
X0220793Y0107716D01*
X0221032Y0107737D01*
X0221271Y0107751D01*
X0221510Y0107760D01*
X0221750Y0107763D01*
X0221990Y0107760D01*
X0222229Y0107751D01*
X0222468Y0107737D01*
X0222707Y0107716D01*
X0222945Y0107690D01*
X0223183Y0107657D01*
X0223419Y0107619D01*
X0223655Y0107575D01*
X0223889Y0107526D01*
X0224122Y0107470D01*
X0224354Y0107409D01*
X0224584Y0107343D01*
X0224812Y0107270D01*
X0225039Y0107192D01*
X0225264Y0107109D01*
X0225486Y0107020D01*
X0225706Y0106925D01*
X0225924Y0106826D01*
X0226140Y0106721D01*
X0226352Y0106610D01*
X0226562Y0106495D01*
X0226769Y0106374D01*
X0226973Y0106248D01*
X0227174Y0106118D01*
X0227372Y0105982D01*
X0227566Y0105842D01*
X0227757Y0105697D01*
X0227944Y0105547D01*
X0228127Y0105393D01*
X0228306Y0105234D01*
X0228482Y0105071D01*
X0228653Y0104903D01*
X0228821Y0104732D01*
X0228984Y0104556D01*
X0229143Y0104377D01*
X0229297Y0104194D01*
X0229447Y0104007D01*
X0229592Y0103816D01*
X0229732Y0103622D01*
X0229868Y0103424D01*
X0229998Y0103223D01*
X0230124Y0103019D01*
X0230245Y0102812D01*
X0230360Y0102602D01*
X0230471Y0102390D01*
X0230576Y0102174D01*
X0230675Y0101956D01*
X0230770Y0101736D01*
X0230859Y0101514D01*
X0230942Y0101289D01*
X0231020Y0101062D01*
X0231093Y0100834D01*
X0231159Y0100604D01*
X0231220Y0100372D01*
X0231276Y0100139D01*
X0231325Y0099905D01*
X0231369Y0099669D01*
X0231407Y0099433D01*
X0231440Y0099195D01*
X0231466Y0098957D01*
X0231487Y0098718D01*
X0231501Y0098479D01*
X0231510Y0098240D01*
X0231513Y0098000D01*
X0231510Y0097760D01*
X0231501Y0097521D01*
X0231487Y0097282D01*
X0231466Y0097043D01*
X0231440Y0096805D01*
X0231407Y0096567D01*
X0231369Y0096331D01*
X0231325Y0096095D01*
X0231276Y0095861D01*
X0231220Y0095628D01*
X0231159Y0095396D01*
X0231093Y0095166D01*
X0231020Y0094938D01*
X0230942Y0094711D01*
X0230859Y0094486D01*
X0230770Y0094264D01*
X0230675Y0094044D01*
X0230576Y0093826D01*
X0230471Y0093610D01*
X0230360Y0093398D01*
X0230245Y0093188D01*
X0230124Y0092981D01*
X0229998Y0092777D01*
X0229868Y0092576D01*
X0229732Y0092378D01*
X0229592Y0092184D01*
X0229447Y0091993D01*
X0229297Y0091806D01*
X0229143Y0091623D01*
X0228984Y0091444D01*
X0228821Y0091268D01*
X0228653Y0091097D01*
X0228482Y0090929D01*
X0228306Y0090766D01*
X0228127Y0090607D01*
X0227944Y0090453D01*
X0227757Y0090303D01*
X0227566Y0090158D01*
X0227372Y0090018D01*
X0227174Y0089882D01*
X0226973Y0089752D01*
X0226769Y0089626D01*
X0226562Y0089505D01*
X0226352Y0089390D01*
X0226140Y0089279D01*
X0225924Y0089174D01*
X0225706Y0089075D01*
X0225486Y0088980D01*
X0225264Y0088891D01*
X0225039Y0088808D01*
X0224812Y0088730D01*
X0224584Y0088657D01*
X0224354Y0088591D01*
X0224122Y0088530D01*
X0223889Y0088474D01*
X0223655Y0088425D01*
X0223419Y0088381D01*
X0223183Y0088343D01*
X0222945Y0088310D01*
X0222707Y0088284D01*
X0222468Y0088263D01*
X0222229Y0088249D01*
X0221990Y0088240D01*
X0221750Y0088237D01*
X0221510Y0088240D01*
X0221271Y0088249D01*
X0221032Y0088263D01*
X0220793Y0088284D01*
X0220555Y0088310D01*
X0220317Y0088343D01*
X0220081Y0088381D01*
X0219845Y0088425D01*
X0219611Y0088474D01*
X0219378Y0088530D01*
X0219146Y0088591D01*
X0218916Y0088657D01*
X0218688Y0088730D01*
X0218461Y0088808D01*
X0218236Y0088891D01*
X0218014Y0088980D01*
X0217794Y0089075D01*
X0217576Y0089174D01*
X0217360Y0089279D01*
X0217148Y0089390D01*
X0216938Y0089505D01*
X0216731Y0089626D01*
X0216527Y0089752D01*
X0216326Y0089882D01*
X0216128Y0090018D01*
X0215934Y0090158D01*
X0215743Y0090303D01*
X0215556Y0090453D01*
X0215373Y0090607D01*
X0215194Y0090766D01*
X0215018Y0090929D01*
X0214847Y0091097D01*
X0214679Y0091268D01*
X0214516Y0091444D01*
X0214357Y0091623D01*
X0214203Y0091806D01*
X0214053Y0091993D01*
X0213908Y0092184D01*
X0213768Y0092378D01*
X0213632Y0092576D01*
X0213502Y0092777D01*
X0213376Y0092981D01*
X0213255Y0093188D01*
X0213140Y0093398D01*
X0213029Y0093610D01*
X0212924Y0093826D01*
X0212825Y0094044D01*
X0212730Y0094264D01*
X0212641Y0094486D01*
X0212558Y0094711D01*
X0212480Y0094938D01*
X0212407Y0095166D01*
X0212341Y0095396D01*
X0212280Y0095628D01*
X0212224Y0095861D01*
X0212175Y0096095D01*
X0212131Y0096331D01*
X0212093Y0096567D01*
X0212060Y0096805D01*
X0212034Y0097043D01*
X0212013Y0097282D01*
X0211999Y0097521D01*
X0211990Y0097760D01*
X0211987Y0098000D01*
X0196750Y0190500D02*
X0205500Y0199250D01*
X0214250Y0199250D01*
X0211672Y0244250D02*
X0211675Y0244497D01*
X0211684Y0244745D01*
X0211699Y0244991D01*
X0211721Y0245238D01*
X0211748Y0245484D01*
X0211781Y0245729D01*
X0211820Y0245973D01*
X0211866Y0246216D01*
X0211917Y0246458D01*
X0211974Y0246699D01*
X0212037Y0246938D01*
X0212106Y0247175D01*
X0212181Y0247411D01*
X0212261Y0247645D01*
X0212347Y0247877D01*
X0212439Y0248107D01*
X0212537Y0248334D01*
X0212640Y0248559D01*
X0212748Y0248781D01*
X0212862Y0249001D01*
X0212981Y0249217D01*
X0213106Y0249431D01*
X0213236Y0249642D01*
X0213370Y0249849D01*
X0213510Y0250053D01*
X0213655Y0250253D01*
X0213805Y0250450D01*
X0213960Y0250643D01*
X0214119Y0250833D01*
X0214283Y0251018D01*
X0214451Y0251199D01*
X0214624Y0251376D01*
X0214801Y0251549D01*
X0214982Y0251717D01*
X0215167Y0251881D01*
X0215357Y0252040D01*
X0215550Y0252195D01*
X0215747Y0252345D01*
X0215947Y0252490D01*
X0216151Y0252630D01*
X0216358Y0252764D01*
X0216569Y0252894D01*
X0216783Y0253019D01*
X0216999Y0253138D01*
X0217219Y0253252D01*
X0217441Y0253360D01*
X0217666Y0253463D01*
X0217893Y0253561D01*
X0218123Y0253653D01*
X0218355Y0253739D01*
X0218589Y0253819D01*
X0218825Y0253894D01*
X0219062Y0253963D01*
X0219301Y0254026D01*
X0219542Y0254083D01*
X0219784Y0254134D01*
X0220027Y0254180D01*
X0220271Y0254219D01*
X0220516Y0254252D01*
X0220762Y0254279D01*
X0221009Y0254301D01*
X0221255Y0254316D01*
X0221503Y0254325D01*
X0221750Y0254328D01*
X0221997Y0254325D01*
X0222245Y0254316D01*
X0222491Y0254301D01*
X0222738Y0254279D01*
X0222984Y0254252D01*
X0223229Y0254219D01*
X0223473Y0254180D01*
X0223716Y0254134D01*
X0223958Y0254083D01*
X0224199Y0254026D01*
X0224438Y0253963D01*
X0224675Y0253894D01*
X0224911Y0253819D01*
X0225145Y0253739D01*
X0225377Y0253653D01*
X0225607Y0253561D01*
X0225834Y0253463D01*
X0226059Y0253360D01*
X0226281Y0253252D01*
X0226501Y0253138D01*
X0226717Y0253019D01*
X0226931Y0252894D01*
X0227142Y0252764D01*
X0227349Y0252630D01*
X0227553Y0252490D01*
X0227753Y0252345D01*
X0227950Y0252195D01*
X0228143Y0252040D01*
X0228333Y0251881D01*
X0228518Y0251717D01*
X0228699Y0251549D01*
X0228876Y0251376D01*
X0229049Y0251199D01*
X0229217Y0251018D01*
X0229381Y0250833D01*
X0229540Y0250643D01*
X0229695Y0250450D01*
X0229845Y0250253D01*
X0229990Y0250053D01*
X0230130Y0249849D01*
X0230264Y0249642D01*
X0230394Y0249431D01*
X0230519Y0249217D01*
X0230638Y0249001D01*
X0230752Y0248781D01*
X0230860Y0248559D01*
X0230963Y0248334D01*
X0231061Y0248107D01*
X0231153Y0247877D01*
X0231239Y0247645D01*
X0231319Y0247411D01*
X0231394Y0247175D01*
X0231463Y0246938D01*
X0231526Y0246699D01*
X0231583Y0246458D01*
X0231634Y0246216D01*
X0231680Y0245973D01*
X0231719Y0245729D01*
X0231752Y0245484D01*
X0231779Y0245238D01*
X0231801Y0244991D01*
X0231816Y0244745D01*
X0231825Y0244497D01*
X0231828Y0244250D01*
X0231825Y0244003D01*
X0231816Y0243755D01*
X0231801Y0243509D01*
X0231779Y0243262D01*
X0231752Y0243016D01*
X0231719Y0242771D01*
X0231680Y0242527D01*
X0231634Y0242284D01*
X0231583Y0242042D01*
X0231526Y0241801D01*
X0231463Y0241562D01*
X0231394Y0241325D01*
X0231319Y0241089D01*
X0231239Y0240855D01*
X0231153Y0240623D01*
X0231061Y0240393D01*
X0230963Y0240166D01*
X0230860Y0239941D01*
X0230752Y0239719D01*
X0230638Y0239499D01*
X0230519Y0239283D01*
X0230394Y0239069D01*
X0230264Y0238858D01*
X0230130Y0238651D01*
X0229990Y0238447D01*
X0229845Y0238247D01*
X0229695Y0238050D01*
X0229540Y0237857D01*
X0229381Y0237667D01*
X0229217Y0237482D01*
X0229049Y0237301D01*
X0228876Y0237124D01*
X0228699Y0236951D01*
X0228518Y0236783D01*
X0228333Y0236619D01*
X0228143Y0236460D01*
X0227950Y0236305D01*
X0227753Y0236155D01*
X0227553Y0236010D01*
X0227349Y0235870D01*
X0227142Y0235736D01*
X0226931Y0235606D01*
X0226717Y0235481D01*
X0226501Y0235362D01*
X0226281Y0235248D01*
X0226059Y0235140D01*
X0225834Y0235037D01*
X0225607Y0234939D01*
X0225377Y0234847D01*
X0225145Y0234761D01*
X0224911Y0234681D01*
X0224675Y0234606D01*
X0224438Y0234537D01*
X0224199Y0234474D01*
X0223958Y0234417D01*
X0223716Y0234366D01*
X0223473Y0234320D01*
X0223229Y0234281D01*
X0222984Y0234248D01*
X0222738Y0234221D01*
X0222491Y0234199D01*
X0222245Y0234184D01*
X0221997Y0234175D01*
X0221750Y0234172D01*
X0221503Y0234175D01*
X0221255Y0234184D01*
X0221009Y0234199D01*
X0220762Y0234221D01*
X0220516Y0234248D01*
X0220271Y0234281D01*
X0220027Y0234320D01*
X0219784Y0234366D01*
X0219542Y0234417D01*
X0219301Y0234474D01*
X0219062Y0234537D01*
X0218825Y0234606D01*
X0218589Y0234681D01*
X0218355Y0234761D01*
X0218123Y0234847D01*
X0217893Y0234939D01*
X0217666Y0235037D01*
X0217441Y0235140D01*
X0217219Y0235248D01*
X0216999Y0235362D01*
X0216783Y0235481D01*
X0216569Y0235606D01*
X0216358Y0235736D01*
X0216151Y0235870D01*
X0215947Y0236010D01*
X0215747Y0236155D01*
X0215550Y0236305D01*
X0215357Y0236460D01*
X0215167Y0236619D01*
X0214982Y0236783D01*
X0214801Y0236951D01*
X0214624Y0237124D01*
X0214451Y0237301D01*
X0214283Y0237482D01*
X0214119Y0237667D01*
X0213960Y0237857D01*
X0213805Y0238050D01*
X0213655Y0238247D01*
X0213510Y0238447D01*
X0213370Y0238651D01*
X0213236Y0238858D01*
X0213106Y0239069D01*
X0212981Y0239283D01*
X0212862Y0239499D01*
X0212748Y0239719D01*
X0212640Y0239941D01*
X0212537Y0240166D01*
X0212439Y0240393D01*
X0212347Y0240623D01*
X0212261Y0240855D01*
X0212181Y0241089D01*
X0212106Y0241325D01*
X0212037Y0241562D01*
X0211974Y0241801D01*
X0211917Y0242042D01*
X0211866Y0242284D01*
X0211820Y0242527D01*
X0211781Y0242771D01*
X0211748Y0243016D01*
X0211721Y0243262D01*
X0211699Y0243509D01*
X0211684Y0243755D01*
X0211675Y0244003D01*
X0211672Y0244250D01*
D22*
X0042616Y0136824D02*
X0042616Y0132220D01*
X0033408Y0123012D01*
X0033408Y0109200D01*
X0033408Y0123012D02*
X0024200Y0132220D01*
X0024200Y0136824D01*
X0024200Y0054324D02*
X0042616Y0026700D01*
X0024200Y0026700D02*
X0042616Y0054324D01*
D23*
X0210500Y0050500D02*
X0210500Y0045500D01*
X0213000Y0043000D01*
X0210500Y0040500D01*
X0210500Y0035500D01*
X0213000Y0033000D01*
X0218000Y0033000D01*
X0220500Y0035500D01*
X0220500Y0040500D01*
X0218000Y0043000D01*
X0220500Y0045500D01*
X0220500Y0050500D01*
X0218000Y0053000D01*
X0213000Y0053000D01*
X0210500Y0050500D01*
X0210392Y0076150D02*
X0211927Y0076150D01*
X0214996Y0079219D01*
X0219600Y0079219D01*
X0214996Y0079219D02*
X0211927Y0082289D01*
X0210392Y0082289D01*
X0263000Y0110500D02*
X0265500Y0108000D01*
X0270500Y0108000D01*
X0273000Y0110500D01*
X0273000Y0115500D01*
X0270500Y0118000D01*
X0273000Y0120500D01*
X0273000Y0125500D01*
X0270500Y0128000D01*
X0273000Y0130500D01*
X0273000Y0135500D01*
X0270500Y0138000D01*
X0273000Y0140500D01*
X0273000Y0145500D01*
X0270500Y0148000D01*
X0265500Y0148000D01*
X0263000Y0145500D01*
X0263000Y0140500D01*
X0265500Y0138000D01*
X0263000Y0135500D01*
X0263000Y0130500D01*
X0265500Y0128000D01*
X0263000Y0125500D01*
X0263000Y0120500D01*
X0265500Y0118000D01*
X0263000Y0115500D01*
X0263000Y0110500D01*
X0296750Y0110500D02*
X0299250Y0108000D01*
X0304250Y0108000D01*
X0306750Y0110500D01*
X0306750Y0115500D01*
X0304250Y0118000D01*
X0306750Y0120500D01*
X0306750Y0125500D01*
X0304250Y0128000D01*
X0306750Y0130500D01*
X0306750Y0135500D01*
X0304250Y0138000D01*
X0306750Y0140500D01*
X0306750Y0145500D01*
X0304250Y0148000D01*
X0299250Y0148000D01*
X0296750Y0145500D01*
X0296750Y0140500D01*
X0299250Y0138000D01*
X0296750Y0135500D01*
X0296750Y0130500D01*
X0299250Y0128000D01*
X0296750Y0125500D01*
X0296750Y0120500D01*
X0299250Y0118000D01*
X0296750Y0115500D01*
X0296750Y0110500D01*
X0343000Y0120500D02*
X0345500Y0118000D01*
X0350500Y0118000D01*
X0353000Y0120500D01*
X0355500Y0118000D01*
X0360500Y0118000D01*
X0363000Y0120500D01*
X0363000Y0125500D01*
X0360500Y0128000D01*
X0355500Y0128000D01*
X0353000Y0125500D01*
X0350500Y0128000D01*
X0345500Y0128000D01*
X0343000Y0125500D01*
X0343000Y0120500D01*
X0345500Y0128000D02*
X0343000Y0130500D01*
X0343000Y0135500D01*
X0345500Y0138000D01*
X0350500Y0138000D01*
X0353000Y0135500D01*
X0355500Y0138000D01*
X0360500Y0138000D01*
X0363000Y0135500D01*
X0363000Y0130500D01*
X0360500Y0128000D01*
X0355500Y0128000D01*
X0353000Y0130500D01*
X0350500Y0128000D01*
X0345500Y0128000D01*
X0295500Y0156750D02*
X0293000Y0154250D01*
X0288000Y0154250D01*
X0285500Y0156750D01*
X0283000Y0154250D01*
X0278000Y0154250D01*
X0275500Y0156750D01*
X0275500Y0161750D01*
X0278000Y0164250D01*
X0283000Y0164250D01*
X0285500Y0161750D01*
X0288000Y0164250D01*
X0293000Y0164250D01*
X0295500Y0161750D01*
X0295500Y0156750D01*
X0280500Y0173000D02*
X0275500Y0173000D01*
X0273000Y0175500D01*
X0270500Y0173000D01*
X0265500Y0173000D01*
X0263000Y0175500D01*
X0263000Y0180500D01*
X0265500Y0183000D01*
X0270500Y0183000D01*
X0273000Y0180500D01*
X0275500Y0183000D01*
X0280500Y0183000D01*
X0283000Y0180500D01*
X0283000Y0175500D01*
X0280500Y0173000D01*
X0280500Y0183000D02*
X0275500Y0183000D01*
X0273000Y0185500D01*
X0270500Y0183000D01*
X0265500Y0183000D01*
X0263000Y0185500D01*
X0263000Y0190500D01*
X0265500Y0193000D01*
X0270500Y0193000D01*
X0273000Y0195500D01*
X0275500Y0193000D01*
X0280500Y0193000D01*
X0283000Y0195500D01*
X0283000Y0200500D01*
X0280500Y0203000D01*
X0275500Y0203000D01*
X0273000Y0200500D01*
X0270500Y0203000D01*
X0265500Y0203000D01*
X0263000Y0200500D01*
X0263000Y0195500D01*
X0265500Y0193000D01*
X0270500Y0193000D01*
X0273000Y0190500D01*
X0275500Y0193000D01*
X0280500Y0193000D01*
X0283000Y0190500D01*
X0283000Y0185500D01*
X0280500Y0183000D01*
X0280500Y0213000D02*
X0275500Y0213000D01*
X0273000Y0215500D01*
X0270500Y0213000D01*
X0265500Y0213000D01*
X0263000Y0215500D01*
X0263000Y0220500D01*
X0265500Y0223000D01*
X0270500Y0223000D01*
X0273000Y0220500D01*
X0275500Y0223000D01*
X0280500Y0223000D01*
X0283000Y0220500D01*
X0283000Y0215500D01*
X0280500Y0213000D01*
X0280500Y0223000D02*
X0275500Y0223000D01*
X0273000Y0225500D01*
X0270500Y0223000D01*
X0265500Y0223000D01*
X0263000Y0225500D01*
X0263000Y0230500D01*
X0265500Y0233000D01*
X0270500Y0233000D01*
X0273000Y0235500D01*
X0275500Y0233000D01*
X0280500Y0233000D01*
X0283000Y0235500D01*
X0283000Y0240500D01*
X0280500Y0243000D01*
X0275500Y0243000D01*
X0273000Y0240500D01*
X0270500Y0243000D01*
X0265500Y0243000D01*
X0263000Y0240500D01*
X0263000Y0235500D01*
X0265500Y0233000D01*
X0270500Y0233000D01*
X0273000Y0230500D01*
X0275500Y0233000D01*
X0280500Y0233000D01*
X0283000Y0230500D01*
X0283000Y0225500D01*
X0280500Y0223000D01*
X0220350Y0258650D02*
X0211142Y0264789D01*
X0211142Y0258650D02*
X0220350Y0264789D01*
X0218000Y0288000D02*
X0213000Y0288000D01*
X0210500Y0290500D01*
X0210500Y0295500D01*
X0213000Y0298000D01*
X0210500Y0300500D01*
X0210500Y0305500D01*
X0213000Y0308000D01*
X0218000Y0308000D01*
X0220500Y0305500D01*
X0220500Y0300500D01*
X0218000Y0298000D01*
X0220500Y0295500D01*
X0220500Y0290500D01*
X0218000Y0288000D01*
D24*
X0346750Y0186125D03*
D25*
X0346750Y0151750D03*
D26*
X0350500Y0223000D03*
D27*
X0224150Y0272217D02*
X0223783Y0271850D01*
X0224150Y0272217D02*
X0224150Y0272951D01*
X0223783Y0273318D01*
X0223416Y0273318D01*
X0223049Y0272951D01*
X0223049Y0272217D01*
X0222682Y0271850D01*
X0222315Y0271850D01*
X0221948Y0272217D01*
X0221948Y0272951D01*
X0222315Y0273318D01*
X0222315Y0281850D02*
X0222682Y0281850D01*
X0223049Y0282217D01*
X0223049Y0282951D01*
X0223416Y0283318D01*
X0223783Y0283318D01*
X0224150Y0282951D01*
X0224150Y0282217D01*
X0223783Y0281850D01*
X0222315Y0281850D02*
X0221948Y0282217D01*
X0221948Y0282951D01*
X0222315Y0283318D01*
X0222315Y0290600D02*
X0223783Y0290600D01*
X0224150Y0290967D01*
X0224150Y0291701D01*
X0223783Y0292068D01*
X0223049Y0292068D01*
X0223049Y0291334D01*
X0222315Y0292068D02*
X0221948Y0291701D01*
X0221948Y0290967D01*
X0222315Y0290600D01*
X0221948Y0292810D02*
X0224150Y0294278D01*
X0221948Y0294278D01*
X0221948Y0295020D02*
X0221948Y0296121D01*
X0222315Y0296488D01*
X0223783Y0296488D01*
X0224150Y0296121D01*
X0224150Y0295020D01*
X0221948Y0295020D01*
X0221948Y0292810D02*
X0224150Y0292810D01*
X0223049Y0300600D02*
X0223049Y0302068D01*
X0223049Y0302810D02*
X0222682Y0303544D01*
X0222682Y0303911D01*
X0223049Y0304278D01*
X0223783Y0304278D01*
X0224150Y0303911D01*
X0224150Y0303177D01*
X0223783Y0302810D01*
X0223049Y0302810D02*
X0221948Y0302810D01*
X0221948Y0304278D01*
X0221948Y0305020D02*
X0223416Y0305020D01*
X0224150Y0305754D01*
X0223416Y0306488D01*
X0221948Y0306488D01*
X0222315Y0301334D02*
X0223783Y0301334D01*
X0052358Y0160035D02*
X0052358Y0159301D01*
X0051991Y0158934D01*
X0050890Y0158934D01*
X0050890Y0158200D02*
X0050890Y0160402D01*
X0051991Y0160402D01*
X0052358Y0160035D01*
X0051624Y0158934D02*
X0052358Y0158200D01*
X0050151Y0158200D02*
X0049417Y0158200D01*
X0049784Y0158200D02*
X0049784Y0160402D01*
X0049417Y0160402D02*
X0050151Y0160402D01*
X0048675Y0160035D02*
X0048308Y0160402D01*
X0047207Y0160402D01*
X0047207Y0158200D01*
X0048308Y0158200D01*
X0048675Y0158567D01*
X0048675Y0160035D01*
X0048680Y0150402D02*
X0048680Y0148200D01*
X0050148Y0148200D01*
X0050890Y0148200D02*
X0050890Y0150402D01*
X0051991Y0150402D01*
X0052358Y0150035D01*
X0052358Y0149301D01*
X0051991Y0148934D01*
X0050890Y0148934D01*
X0049414Y0149301D02*
X0048680Y0149301D01*
X0048680Y0150402D02*
X0050148Y0150402D01*
X0047938Y0150402D02*
X0046470Y0150402D01*
X0047204Y0150402D02*
X0047204Y0148200D01*
X0045728Y0148567D02*
X0045361Y0148200D01*
X0044627Y0148200D01*
X0044260Y0148567D01*
X0044627Y0149301D02*
X0045361Y0149301D01*
X0045728Y0148934D01*
X0045728Y0148567D01*
X0044627Y0149301D02*
X0044260Y0149668D01*
X0044260Y0150035D01*
X0044627Y0150402D01*
X0045361Y0150402D01*
X0045728Y0150035D01*
X0046837Y0140402D02*
X0046470Y0140035D01*
X0046470Y0139668D01*
X0046837Y0139301D01*
X0047571Y0139301D01*
X0047938Y0138934D01*
X0047938Y0138567D01*
X0047571Y0138200D01*
X0046837Y0138200D01*
X0046470Y0138567D01*
X0046837Y0140402D02*
X0047571Y0140402D01*
X0047938Y0140035D01*
X0048680Y0140402D02*
X0048680Y0138200D01*
X0050148Y0138200D01*
X0050890Y0138200D02*
X0050890Y0140402D01*
X0051991Y0140402D01*
X0052358Y0140035D01*
X0052358Y0139301D01*
X0051991Y0138934D01*
X0050890Y0138934D01*
X0050890Y0130402D02*
X0052358Y0130402D01*
X0051624Y0130402D02*
X0051624Y0128200D01*
X0050148Y0128567D02*
X0049781Y0128200D01*
X0049047Y0128200D01*
X0048680Y0128567D01*
X0049047Y0129301D02*
X0049781Y0129301D01*
X0050148Y0128934D01*
X0050148Y0128567D01*
X0049047Y0129301D02*
X0048680Y0129668D01*
X0048680Y0130035D01*
X0049047Y0130402D01*
X0049781Y0130402D01*
X0050148Y0130035D01*
X0047938Y0130035D02*
X0047938Y0129301D01*
X0047571Y0128934D01*
X0046470Y0128934D01*
X0046470Y0128200D02*
X0046470Y0130402D01*
X0047571Y0130402D01*
X0047938Y0130035D01*
X0047204Y0128934D02*
X0047938Y0128200D01*
X0047938Y0120402D02*
X0047938Y0118200D01*
X0048680Y0118567D02*
X0049047Y0118200D01*
X0049781Y0118200D01*
X0050148Y0118567D01*
X0050148Y0118934D01*
X0049781Y0119301D01*
X0049047Y0119301D01*
X0048680Y0119668D01*
X0048680Y0120035D01*
X0049047Y0120402D01*
X0049781Y0120402D01*
X0050148Y0120035D01*
X0050890Y0120035D02*
X0051257Y0120402D01*
X0051991Y0120402D01*
X0052358Y0120035D01*
X0052358Y0119668D01*
X0051991Y0119301D01*
X0052358Y0118934D01*
X0052358Y0118567D01*
X0051991Y0118200D01*
X0051257Y0118200D01*
X0050890Y0118567D01*
X0051624Y0119301D02*
X0051991Y0119301D01*
X0047938Y0120402D02*
X0047204Y0119668D01*
X0046470Y0120402D01*
X0046470Y0118200D01*
X0046470Y0110402D02*
X0047204Y0109668D01*
X0047938Y0110402D01*
X0047938Y0108200D01*
X0048680Y0108567D02*
X0049047Y0108200D01*
X0049781Y0108200D01*
X0050148Y0108567D01*
X0050148Y0108934D01*
X0049781Y0109301D01*
X0049047Y0109301D01*
X0048680Y0109668D01*
X0048680Y0110035D01*
X0049047Y0110402D01*
X0049781Y0110402D01*
X0050148Y0110035D01*
X0050890Y0110035D02*
X0051257Y0110402D01*
X0051991Y0110402D01*
X0052358Y0110035D01*
X0052358Y0109668D01*
X0050890Y0108200D01*
X0052358Y0108200D01*
X0046470Y0108200D02*
X0046470Y0110402D01*
X0046470Y0100402D02*
X0047204Y0099668D01*
X0047938Y0100402D01*
X0047938Y0098200D01*
X0048680Y0098567D02*
X0049047Y0098200D01*
X0049781Y0098200D01*
X0050148Y0098567D01*
X0050148Y0098934D01*
X0049781Y0099301D01*
X0049047Y0099301D01*
X0048680Y0099668D01*
X0048680Y0100035D01*
X0049047Y0100402D01*
X0049781Y0100402D01*
X0050148Y0100035D01*
X0050890Y0099668D02*
X0051624Y0100402D01*
X0051624Y0098200D01*
X0050890Y0098200D02*
X0052358Y0098200D01*
X0046470Y0098200D02*
X0046470Y0100402D01*
X0048680Y0090402D02*
X0048680Y0088200D01*
X0050148Y0088200D01*
X0050890Y0088200D02*
X0050890Y0090402D01*
X0052358Y0088200D01*
X0052358Y0090402D01*
X0050148Y0090402D02*
X0048680Y0090402D01*
X0048680Y0089301D02*
X0049414Y0089301D01*
X0049417Y0080402D02*
X0050151Y0080402D01*
X0049784Y0080402D02*
X0049784Y0078200D01*
X0049417Y0078200D02*
X0050151Y0078200D01*
X0050890Y0078200D02*
X0050890Y0080402D01*
X0051991Y0080402D01*
X0052358Y0080035D01*
X0052358Y0079301D01*
X0051991Y0078934D01*
X0050890Y0078934D01*
X0051624Y0078934D02*
X0052358Y0078200D01*
X0048675Y0078567D02*
X0048675Y0080035D01*
X0048308Y0080402D01*
X0047207Y0080402D01*
X0047207Y0078200D01*
X0048308Y0078200D01*
X0048675Y0078567D01*
X0048680Y0070402D02*
X0048680Y0068200D01*
X0050148Y0068200D01*
X0050890Y0068200D02*
X0050890Y0070402D01*
X0051991Y0070402D01*
X0052358Y0070035D01*
X0052358Y0069301D01*
X0051991Y0068934D01*
X0050890Y0068934D01*
X0049414Y0069301D02*
X0048680Y0069301D01*
X0048680Y0070402D02*
X0050148Y0070402D01*
X0047938Y0070402D02*
X0046470Y0070402D01*
X0047204Y0070402D02*
X0047204Y0068200D01*
X0045728Y0068567D02*
X0045361Y0068200D01*
X0044627Y0068200D01*
X0044260Y0068567D01*
X0044627Y0069301D02*
X0045361Y0069301D01*
X0045728Y0068934D01*
X0045728Y0068567D01*
X0044627Y0069301D02*
X0044260Y0069668D01*
X0044260Y0070035D01*
X0044627Y0070402D01*
X0045361Y0070402D01*
X0045728Y0070035D01*
X0046837Y0060402D02*
X0046470Y0060035D01*
X0046470Y0059668D01*
X0046837Y0059301D01*
X0047571Y0059301D01*
X0047938Y0058934D01*
X0047938Y0058567D01*
X0047571Y0058200D01*
X0046837Y0058200D01*
X0046470Y0058567D01*
X0046837Y0060402D02*
X0047571Y0060402D01*
X0047938Y0060035D01*
X0048680Y0060402D02*
X0048680Y0058200D01*
X0050148Y0058200D01*
X0050890Y0058200D02*
X0050890Y0060402D01*
X0051991Y0060402D01*
X0052358Y0060035D01*
X0052358Y0059301D01*
X0051991Y0058934D01*
X0050890Y0058934D01*
X0050890Y0050402D02*
X0052358Y0050402D01*
X0051624Y0050402D02*
X0051624Y0048200D01*
X0050148Y0048567D02*
X0049781Y0048200D01*
X0049047Y0048200D01*
X0048680Y0048567D01*
X0049047Y0049301D02*
X0049781Y0049301D01*
X0050148Y0048934D01*
X0050148Y0048567D01*
X0049047Y0049301D02*
X0048680Y0049668D01*
X0048680Y0050035D01*
X0049047Y0050402D01*
X0049781Y0050402D01*
X0050148Y0050035D01*
X0047938Y0050035D02*
X0047938Y0049301D01*
X0047571Y0048934D01*
X0046470Y0048934D01*
X0046470Y0048200D02*
X0046470Y0050402D01*
X0047571Y0050402D01*
X0047938Y0050035D01*
X0047204Y0048934D02*
X0047938Y0048200D01*
X0047938Y0040402D02*
X0047938Y0038200D01*
X0048680Y0038567D02*
X0049047Y0038200D01*
X0049781Y0038200D01*
X0050148Y0038567D01*
X0050148Y0038934D01*
X0049781Y0039301D01*
X0049047Y0039301D01*
X0048680Y0039668D01*
X0048680Y0040035D01*
X0049047Y0040402D01*
X0049781Y0040402D01*
X0050148Y0040035D01*
X0050890Y0040035D02*
X0051257Y0040402D01*
X0051991Y0040402D01*
X0052358Y0040035D01*
X0052358Y0039668D01*
X0051991Y0039301D01*
X0052358Y0038934D01*
X0052358Y0038567D01*
X0051991Y0038200D01*
X0051257Y0038200D01*
X0050890Y0038567D01*
X0051624Y0039301D02*
X0051991Y0039301D01*
X0047938Y0040402D02*
X0047204Y0039668D01*
X0046470Y0040402D01*
X0046470Y0038200D01*
X0046470Y0030402D02*
X0047204Y0029668D01*
X0047938Y0030402D01*
X0047938Y0028200D01*
X0048680Y0028567D02*
X0049047Y0028200D01*
X0049781Y0028200D01*
X0050148Y0028567D01*
X0050148Y0028934D01*
X0049781Y0029301D01*
X0049047Y0029301D01*
X0048680Y0029668D01*
X0048680Y0030035D01*
X0049047Y0030402D01*
X0049781Y0030402D01*
X0050148Y0030035D01*
X0050890Y0030035D02*
X0051257Y0030402D01*
X0051991Y0030402D01*
X0052358Y0030035D01*
X0052358Y0029668D01*
X0050890Y0028200D01*
X0052358Y0028200D01*
X0046470Y0028200D02*
X0046470Y0030402D01*
X0046470Y0020402D02*
X0047204Y0019668D01*
X0047938Y0020402D01*
X0047938Y0018200D01*
X0048680Y0018567D02*
X0049047Y0018200D01*
X0049781Y0018200D01*
X0050148Y0018567D01*
X0050148Y0018934D01*
X0049781Y0019301D01*
X0049047Y0019301D01*
X0048680Y0019668D01*
X0048680Y0020035D01*
X0049047Y0020402D01*
X0049781Y0020402D01*
X0050148Y0020035D01*
X0050890Y0019668D02*
X0051624Y0020402D01*
X0051624Y0018200D01*
X0050890Y0018200D02*
X0052358Y0018200D01*
X0046470Y0018200D02*
X0046470Y0020402D01*
X0048680Y0010402D02*
X0048680Y0008200D01*
X0050148Y0008200D01*
X0050890Y0008200D02*
X0050890Y0010402D01*
X0052358Y0008200D01*
X0052358Y0010402D01*
X0050148Y0010402D02*
X0048680Y0010402D01*
X0048680Y0009301D02*
X0049414Y0009301D01*
X0020464Y0007068D02*
X0019730Y0007068D01*
X0020097Y0007435D02*
X0020097Y0005967D01*
X0020464Y0005600D01*
X0018988Y0005967D02*
X0018988Y0006701D01*
X0018621Y0007068D01*
X0017887Y0007068D01*
X0017520Y0006701D01*
X0017520Y0005967D01*
X0017887Y0005600D01*
X0018621Y0005600D01*
X0018988Y0005967D01*
X0016778Y0005600D02*
X0016778Y0006701D01*
X0016411Y0007068D01*
X0016044Y0006701D01*
X0016044Y0005600D01*
X0015310Y0005600D02*
X0015310Y0007068D01*
X0015677Y0007068D01*
X0016044Y0006701D01*
X0014568Y0006334D02*
X0014568Y0007802D01*
X0014568Y0006334D02*
X0013834Y0005600D01*
X0013100Y0006334D01*
X0013100Y0007802D01*
X0013467Y0015600D02*
X0014201Y0015600D01*
X0014568Y0015967D01*
X0014568Y0016701D01*
X0013834Y0016701D01*
X0013100Y0017435D02*
X0013100Y0015967D01*
X0013467Y0015600D01*
X0015310Y0015600D02*
X0015310Y0017802D01*
X0016778Y0015600D01*
X0016778Y0017802D01*
X0017520Y0017802D02*
X0018621Y0017802D01*
X0018988Y0017435D01*
X0018988Y0015967D01*
X0018621Y0015600D01*
X0017520Y0015600D01*
X0017520Y0017802D01*
X0014568Y0017435D02*
X0014201Y0017802D01*
X0013467Y0017802D01*
X0013100Y0017435D01*
X0013100Y0025600D02*
X0014568Y0027068D01*
X0014568Y0027435D01*
X0014201Y0027802D01*
X0013467Y0027802D01*
X0013100Y0027435D01*
X0013100Y0025600D02*
X0014568Y0025600D01*
X0015310Y0025600D02*
X0016411Y0025600D01*
X0016778Y0025967D01*
X0016778Y0026334D01*
X0016411Y0026701D01*
X0015310Y0026701D01*
X0015310Y0025600D02*
X0015310Y0027802D01*
X0016411Y0027802D01*
X0016778Y0027435D01*
X0016778Y0027068D01*
X0016411Y0026701D01*
X0016778Y0035600D02*
X0016778Y0037068D01*
X0016044Y0037802D01*
X0015310Y0037068D01*
X0015310Y0035600D01*
X0014568Y0035600D02*
X0013100Y0035600D01*
X0014568Y0037068D01*
X0014568Y0037435D01*
X0014201Y0037802D01*
X0013467Y0037802D01*
X0013100Y0037435D01*
X0015310Y0036701D02*
X0016778Y0036701D01*
X0016778Y0045600D02*
X0016778Y0047068D01*
X0016044Y0047802D01*
X0015310Y0047068D01*
X0015310Y0045600D01*
X0014568Y0045600D02*
X0013100Y0045600D01*
X0013834Y0045600D02*
X0013834Y0047802D01*
X0013100Y0047068D01*
X0015310Y0046701D02*
X0016778Y0046701D01*
X0016411Y0055600D02*
X0015310Y0055600D01*
X0015310Y0057802D01*
X0016411Y0057802D01*
X0016778Y0057435D01*
X0016778Y0057068D01*
X0016411Y0056701D01*
X0015310Y0056701D01*
X0016411Y0056701D02*
X0016778Y0056334D01*
X0016778Y0055967D01*
X0016411Y0055600D01*
X0014568Y0055600D02*
X0013100Y0055600D01*
X0013834Y0055600D02*
X0013834Y0057802D01*
X0013100Y0057068D01*
X0013834Y0065600D02*
X0014568Y0066334D01*
X0014568Y0067802D01*
X0015310Y0067802D02*
X0016411Y0067802D01*
X0016778Y0067435D01*
X0016778Y0065967D01*
X0016411Y0065600D01*
X0015310Y0065600D01*
X0015310Y0067802D01*
X0017520Y0067802D02*
X0017520Y0065600D01*
X0018621Y0065600D01*
X0018988Y0065967D01*
X0018988Y0067435D01*
X0018621Y0067802D01*
X0017520Y0067802D01*
X0013834Y0065600D02*
X0013100Y0066334D01*
X0013100Y0067802D01*
X0013467Y0075600D02*
X0014201Y0075600D01*
X0014568Y0075967D01*
X0014568Y0076701D01*
X0013834Y0076701D01*
X0013100Y0075967D02*
X0013467Y0075600D01*
X0013100Y0075967D02*
X0013100Y0077435D01*
X0013467Y0077802D01*
X0014201Y0077802D01*
X0014568Y0077435D01*
X0015310Y0077802D02*
X0016778Y0075600D01*
X0016778Y0077802D01*
X0017520Y0077802D02*
X0018621Y0077802D01*
X0018988Y0077435D01*
X0018988Y0075967D01*
X0018621Y0075600D01*
X0017520Y0075600D01*
X0017520Y0077802D01*
X0015310Y0077802D02*
X0015310Y0075600D01*
X0015310Y0085600D02*
X0015310Y0087068D01*
X0015677Y0087068D01*
X0016044Y0086701D01*
X0016411Y0087068D01*
X0016778Y0086701D01*
X0016778Y0085600D01*
X0016044Y0085600D02*
X0016044Y0086701D01*
X0017520Y0086701D02*
X0017520Y0085967D01*
X0017887Y0085600D01*
X0018621Y0085600D01*
X0018988Y0085967D01*
X0018988Y0086701D01*
X0018621Y0087068D01*
X0017887Y0087068D01*
X0017520Y0086701D01*
X0019730Y0087068D02*
X0020464Y0087068D01*
X0020097Y0087435D02*
X0020097Y0085967D01*
X0020464Y0085600D01*
X0014568Y0086334D02*
X0014568Y0087802D01*
X0013100Y0087802D02*
X0013100Y0086334D01*
X0013834Y0085600D01*
X0014568Y0086334D01*
X0014201Y0095600D02*
X0014568Y0095967D01*
X0014568Y0096701D01*
X0013834Y0096701D01*
X0014568Y0097435D02*
X0014201Y0097802D01*
X0013467Y0097802D01*
X0013100Y0097435D01*
X0013100Y0095967D01*
X0013467Y0095600D01*
X0014201Y0095600D01*
X0015310Y0095600D02*
X0015310Y0097802D01*
X0016778Y0095600D01*
X0016778Y0097802D01*
X0017520Y0097802D02*
X0018621Y0097802D01*
X0018988Y0097435D01*
X0018988Y0095967D01*
X0018621Y0095600D01*
X0017520Y0095600D01*
X0017520Y0097802D01*
X0016411Y0105600D02*
X0015310Y0105600D01*
X0015310Y0107802D01*
X0016411Y0107802D01*
X0016778Y0107435D01*
X0016778Y0107068D01*
X0016411Y0106701D01*
X0015310Y0106701D01*
X0014568Y0107068D02*
X0013100Y0105600D01*
X0014568Y0105600D01*
X0014568Y0107068D02*
X0014568Y0107435D01*
X0014201Y0107802D01*
X0013467Y0107802D01*
X0013100Y0107435D01*
X0016411Y0106701D02*
X0016778Y0106334D01*
X0016778Y0105967D01*
X0016411Y0105600D01*
X0016778Y0115600D02*
X0016778Y0117068D01*
X0016044Y0117802D01*
X0015310Y0117068D01*
X0015310Y0115600D01*
X0014568Y0115600D02*
X0013100Y0115600D01*
X0014568Y0117068D01*
X0014568Y0117435D01*
X0014201Y0117802D01*
X0013467Y0117802D01*
X0013100Y0117435D01*
X0015310Y0116701D02*
X0016778Y0116701D01*
X0016778Y0125600D02*
X0016778Y0127068D01*
X0016044Y0127802D01*
X0015310Y0127068D01*
X0015310Y0125600D01*
X0014568Y0125600D02*
X0013100Y0125600D01*
X0013834Y0125600D02*
X0013834Y0127802D01*
X0013100Y0127068D01*
X0015310Y0126701D02*
X0016778Y0126701D01*
X0016411Y0135600D02*
X0015310Y0135600D01*
X0015310Y0137802D01*
X0016411Y0137802D01*
X0016778Y0137435D01*
X0016778Y0137068D01*
X0016411Y0136701D01*
X0015310Y0136701D01*
X0016411Y0136701D02*
X0016778Y0136334D01*
X0016778Y0135967D01*
X0016411Y0135600D01*
X0014568Y0135600D02*
X0013100Y0135600D01*
X0013834Y0135600D02*
X0013834Y0137802D01*
X0013100Y0137068D01*
X0013834Y0145600D02*
X0014568Y0146334D01*
X0014568Y0147802D01*
X0015310Y0147802D02*
X0016411Y0147802D01*
X0016778Y0147435D01*
X0016778Y0145967D01*
X0016411Y0145600D01*
X0015310Y0145600D01*
X0015310Y0147802D01*
X0017520Y0147802D02*
X0017520Y0145600D01*
X0018621Y0145600D01*
X0018988Y0145967D01*
X0018988Y0147435D01*
X0018621Y0147802D01*
X0017520Y0147802D01*
X0013834Y0145600D02*
X0013100Y0146334D01*
X0013100Y0147802D01*
X0013467Y0155600D02*
X0014201Y0155600D01*
X0014568Y0155967D01*
X0014568Y0156701D01*
X0013834Y0156701D01*
X0014568Y0157435D02*
X0014201Y0157802D01*
X0013467Y0157802D01*
X0013100Y0157435D01*
X0013100Y0155967D01*
X0013467Y0155600D01*
X0015310Y0155600D02*
X0015310Y0157802D01*
X0016778Y0155600D01*
X0016778Y0157802D01*
X0017520Y0157802D02*
X0018621Y0157802D01*
X0018988Y0157435D01*
X0018988Y0155967D01*
X0018621Y0155600D01*
X0017520Y0155600D01*
X0017520Y0157802D01*
X0221948Y0067951D02*
X0221948Y0067217D01*
X0222315Y0066850D01*
X0222682Y0066850D01*
X0223049Y0067217D01*
X0223049Y0067951D01*
X0223416Y0068318D01*
X0223783Y0068318D01*
X0224150Y0067951D01*
X0224150Y0067217D01*
X0223783Y0066850D01*
X0222315Y0068318D02*
X0221948Y0067951D01*
X0222315Y0059568D02*
X0221948Y0059201D01*
X0221948Y0058467D01*
X0222315Y0058100D01*
X0222682Y0058100D01*
X0223049Y0058467D01*
X0223049Y0059201D01*
X0223416Y0059568D01*
X0223783Y0059568D01*
X0224150Y0059201D01*
X0224150Y0058467D01*
X0223783Y0058100D01*
X0223783Y0051488D02*
X0222315Y0051488D01*
X0221948Y0051121D01*
X0221948Y0050020D01*
X0224150Y0050020D01*
X0224150Y0051121D01*
X0223783Y0051488D01*
X0224150Y0049278D02*
X0221948Y0049278D01*
X0221948Y0047810D02*
X0224150Y0049278D01*
X0224150Y0047810D02*
X0221948Y0047810D01*
X0222315Y0047068D02*
X0221948Y0046701D01*
X0221948Y0045967D01*
X0222315Y0045600D01*
X0223783Y0045600D01*
X0224150Y0045967D01*
X0224150Y0046701D01*
X0223783Y0047068D01*
X0223049Y0047068D01*
X0223049Y0046334D01*
X0223416Y0040238D02*
X0221948Y0040238D01*
X0223416Y0040238D02*
X0224150Y0039504D01*
X0223416Y0038770D01*
X0221948Y0038770D01*
X0221948Y0038028D02*
X0221948Y0036560D01*
X0223049Y0036560D01*
X0222682Y0037294D01*
X0222682Y0037661D01*
X0223049Y0038028D01*
X0223783Y0038028D01*
X0224150Y0037661D01*
X0224150Y0036927D01*
X0223783Y0036560D01*
X0223049Y0035818D02*
X0223049Y0034350D01*
X0222315Y0035084D02*
X0223783Y0035084D01*
D28*
X0348000Y0127750D03*
D29*
X0366915Y0118182D02*
X0366915Y0116731D01*
X0369817Y0116731D01*
X0368850Y0116731D02*
X0368850Y0118182D01*
X0368366Y0118666D01*
X0367399Y0118666D01*
X0366915Y0118182D01*
X0367399Y0115720D02*
X0368850Y0115720D01*
X0368850Y0114268D01*
X0368366Y0113785D01*
X0367883Y0114268D01*
X0367883Y0115720D01*
X0367399Y0115720D02*
X0366915Y0115236D01*
X0366915Y0114268D01*
X0366431Y0112773D02*
X0365948Y0112289D01*
X0365948Y0111322D01*
X0366431Y0110838D01*
X0368366Y0110838D01*
X0368850Y0111322D01*
X0368850Y0112289D01*
X0368366Y0112773D01*
X0366915Y0106887D02*
X0366915Y0106404D01*
X0367883Y0105436D01*
X0368850Y0105436D02*
X0366915Y0105436D01*
X0367399Y0104425D02*
X0367883Y0104425D01*
X0367883Y0102490D01*
X0368366Y0102490D02*
X0367399Y0102490D01*
X0366915Y0102973D01*
X0366915Y0103941D01*
X0367399Y0104425D01*
X0368850Y0103941D02*
X0368850Y0102973D01*
X0368366Y0102490D01*
X0368850Y0101493D02*
X0368366Y0101009D01*
X0366431Y0101009D01*
X0366915Y0100525D02*
X0366915Y0101493D01*
X0365948Y0099045D02*
X0368850Y0099045D01*
X0368850Y0099528D02*
X0368850Y0098561D01*
X0368850Y0097564D02*
X0368850Y0096597D01*
X0368850Y0097080D02*
X0366915Y0097080D01*
X0366915Y0096597D01*
X0365948Y0097080D02*
X0365464Y0097080D01*
X0365948Y0098561D02*
X0365948Y0099045D01*
X0365948Y0095585D02*
X0365948Y0093650D01*
X0368850Y0093650D01*
X0367399Y0093650D02*
X0367399Y0094617D01*
D30*
X0367173Y0144614D02*
X0361661Y0144614D01*
X0361661Y0172173D01*
X0339614Y0172173D01*
X0339614Y0144614D01*
X0361661Y0144614D01*
X0367173Y0144614D02*
X0367173Y0172173D01*
X0361661Y0172173D01*
X0361661Y0179614D02*
X0361661Y0207173D01*
X0339614Y0207173D01*
X0339614Y0179614D01*
X0361661Y0179614D01*
X0367173Y0179614D01*
X0367173Y0207173D01*
X0361661Y0207173D01*
X0173569Y0329250D02*
X0172301Y0329250D01*
X0172935Y0329250D02*
X0172935Y0331152D01*
X0172301Y0330518D01*
X0171359Y0330835D02*
X0171042Y0331152D01*
X0170408Y0331152D01*
X0170092Y0330835D01*
X0170092Y0329567D01*
X0170408Y0329250D01*
X0171042Y0329250D01*
X0171359Y0329567D01*
X0171359Y0330835D01*
X0169149Y0330835D02*
X0169149Y0330201D01*
X0168832Y0329884D01*
X0167882Y0329884D01*
X0168516Y0329884D02*
X0169149Y0329250D01*
X0167882Y0329250D02*
X0167882Y0331152D01*
X0168832Y0331152D01*
X0169149Y0330835D01*
X0166940Y0330835D02*
X0166623Y0331152D01*
X0165989Y0331152D01*
X0165672Y0330835D01*
X0165672Y0329567D01*
X0165989Y0329250D01*
X0166623Y0329250D01*
X0166940Y0329567D01*
X0164832Y0329250D02*
X0164199Y0329250D01*
X0164515Y0329250D02*
X0164515Y0331152D01*
X0164199Y0331152D02*
X0164832Y0331152D01*
X0163256Y0331152D02*
X0163256Y0329250D01*
X0161989Y0329250D02*
X0161989Y0331152D01*
X0162623Y0330518D01*
X0163256Y0331152D01*
X0107647Y0082129D02*
X0106146Y0080628D01*
X0107647Y0082129D02*
X0107647Y0077625D01*
X0106146Y0077625D02*
X0109149Y0077625D01*
X0161989Y0016752D02*
X0162623Y0016118D01*
X0163256Y0016752D01*
X0163256Y0014850D01*
X0164199Y0014850D02*
X0164832Y0014850D01*
X0164515Y0014850D02*
X0164515Y0016752D01*
X0164199Y0016752D02*
X0164832Y0016752D01*
X0165672Y0016435D02*
X0165672Y0015167D01*
X0165989Y0014850D01*
X0166623Y0014850D01*
X0166940Y0015167D01*
X0167882Y0015484D02*
X0168832Y0015484D01*
X0169149Y0015801D01*
X0169149Y0016435D01*
X0168832Y0016752D01*
X0167882Y0016752D01*
X0167882Y0014850D01*
X0168516Y0015484D02*
X0169149Y0014850D01*
X0170092Y0015167D02*
X0170408Y0014850D01*
X0171042Y0014850D01*
X0171359Y0015167D01*
X0171359Y0016435D01*
X0171042Y0016752D01*
X0170408Y0016752D01*
X0170092Y0016435D01*
X0170092Y0015167D01*
X0172301Y0014850D02*
X0173569Y0016118D01*
X0173569Y0016435D01*
X0173252Y0016752D01*
X0172618Y0016752D01*
X0172301Y0016435D01*
X0172301Y0014850D02*
X0173569Y0014850D01*
X0166940Y0016435D02*
X0166623Y0016752D01*
X0165989Y0016752D01*
X0165672Y0016435D01*
X0161989Y0016752D02*
X0161989Y0014850D01*
D31*
X0176321Y0159323D02*
X0179679Y0159323D01*
X0180131Y0163769D01*
X0181136Y0164061D01*
X0182103Y0164461D01*
X0183020Y0164966D01*
X0186483Y0162142D01*
X0188858Y0164517D01*
X0186034Y0167980D01*
X0186422Y0168662D01*
X0186752Y0169374D01*
X0181978Y0171352D01*
X0181646Y0170709D01*
X0181211Y0170130D01*
X0180685Y0169633D01*
X0180083Y0169231D01*
X0179422Y0168935D01*
X0178721Y0168755D01*
X0178000Y0168694D01*
X0177196Y0168769D01*
X0176420Y0168994D01*
X0175700Y0169359D01*
X0175061Y0169853D01*
X0174525Y0170457D01*
X0174111Y0171150D01*
X0173834Y0171909D01*
X0173704Y0172706D01*
X0173724Y0173513D01*
X0173896Y0174303D01*
X0174211Y0175046D01*
X0174660Y0175717D01*
X0175226Y0176293D01*
X0175889Y0176753D01*
X0176627Y0177081D01*
X0177413Y0177266D01*
X0178220Y0177300D01*
X0179019Y0177184D01*
X0179783Y0176920D01*
X0180483Y0176518D01*
X0181096Y0175993D01*
X0181601Y0175362D01*
X0181978Y0174648D01*
X0186752Y0176626D01*
X0186422Y0177338D01*
X0186034Y0178020D01*
X0188858Y0181483D01*
X0186483Y0183858D01*
X0183020Y0181034D01*
X0182103Y0181539D01*
X0181136Y0181939D01*
X0180131Y0182231D01*
X0179679Y0186677D01*
X0176321Y0186677D01*
X0175869Y0182231D01*
X0174864Y0181939D01*
X0173897Y0181539D01*
X0172980Y0181034D01*
X0169517Y0183858D01*
X0167142Y0181483D01*
X0169966Y0178020D01*
X0169461Y0177103D01*
X0176719Y0177103D01*
X0175544Y0176514D02*
X0169217Y0176514D01*
X0169061Y0176136D02*
X0168769Y0175131D01*
X0164323Y0174679D01*
X0164323Y0171321D01*
X0168769Y0170869D01*
X0169061Y0169864D01*
X0169461Y0168897D01*
X0169966Y0167980D01*
X0167142Y0164517D01*
X0169517Y0162142D01*
X0172980Y0164966D01*
X0173897Y0164461D01*
X0174864Y0164061D01*
X0175869Y0163769D01*
X0176321Y0159323D01*
X0176310Y0159431D02*
X0179690Y0159431D01*
X0179750Y0160020D02*
X0176250Y0160020D01*
X0176190Y0160609D02*
X0179810Y0160609D01*
X0179870Y0161198D02*
X0176130Y0161198D01*
X0176070Y0161788D02*
X0179930Y0161788D01*
X0179990Y0162377D02*
X0176010Y0162377D01*
X0175951Y0162966D02*
X0180049Y0162966D01*
X0180109Y0163555D02*
X0175891Y0163555D01*
X0174663Y0164144D02*
X0181337Y0164144D01*
X0182597Y0164733D02*
X0173403Y0164733D01*
X0172694Y0164733D02*
X0167318Y0164733D01*
X0167515Y0164144D02*
X0171972Y0164144D01*
X0171249Y0163555D02*
X0168104Y0163555D01*
X0168693Y0162966D02*
X0170527Y0162966D01*
X0169805Y0162377D02*
X0169282Y0162377D01*
X0167798Y0165322D02*
X0188202Y0165322D01*
X0188682Y0164733D02*
X0183306Y0164733D01*
X0184028Y0164144D02*
X0188485Y0164144D01*
X0187896Y0163555D02*
X0184751Y0163555D01*
X0185473Y0162966D02*
X0187307Y0162966D01*
X0186718Y0162377D02*
X0186195Y0162377D01*
X0187721Y0165911D02*
X0168279Y0165911D01*
X0168759Y0166500D02*
X0187241Y0166500D01*
X0186761Y0167089D02*
X0169239Y0167089D01*
X0169720Y0167678D02*
X0186280Y0167678D01*
X0186198Y0168267D02*
X0169808Y0168267D01*
X0169483Y0168856D02*
X0176896Y0168856D01*
X0175589Y0169445D02*
X0169234Y0169445D01*
X0169011Y0170034D02*
X0174900Y0170034D01*
X0174426Y0170623D02*
X0168840Y0170623D01*
X0165389Y0171213D02*
X0174089Y0171213D01*
X0173873Y0171802D02*
X0164323Y0171802D01*
X0164323Y0172391D02*
X0173755Y0172391D01*
X0173711Y0172980D02*
X0164323Y0172980D01*
X0164323Y0173569D02*
X0173737Y0173569D01*
X0173864Y0174158D02*
X0164323Y0174158D01*
X0164990Y0174747D02*
X0174084Y0174747D01*
X0174405Y0175336D02*
X0168829Y0175336D01*
X0168999Y0175925D02*
X0174864Y0175925D01*
X0179253Y0177103D02*
X0186531Y0177103D01*
X0186483Y0176514D02*
X0180488Y0176514D01*
X0181150Y0175925D02*
X0185061Y0175925D01*
X0183639Y0175336D02*
X0181614Y0175336D01*
X0181926Y0174747D02*
X0182217Y0174747D01*
X0182315Y0171213D02*
X0181906Y0171213D01*
X0181582Y0170623D02*
X0183737Y0170623D01*
X0185159Y0170034D02*
X0181109Y0170034D01*
X0180404Y0169445D02*
X0186581Y0169445D01*
X0186512Y0168856D02*
X0179116Y0168856D01*
X0186221Y0177692D02*
X0169785Y0177692D01*
X0169753Y0178281D02*
X0186247Y0178281D01*
X0186728Y0178870D02*
X0169272Y0178870D01*
X0168792Y0179459D02*
X0187208Y0179459D01*
X0187688Y0180048D02*
X0168312Y0180048D01*
X0167832Y0180637D02*
X0188168Y0180637D01*
X0188649Y0181227D02*
X0183256Y0181227D01*
X0182671Y0181227D02*
X0173329Y0181227D01*
X0172744Y0181227D02*
X0167351Y0181227D01*
X0167474Y0181816D02*
X0172022Y0181816D01*
X0171299Y0182405D02*
X0168063Y0182405D01*
X0168652Y0182994D02*
X0170577Y0182994D01*
X0169854Y0183583D02*
X0169241Y0183583D01*
X0174565Y0181816D02*
X0181435Y0181816D01*
X0180113Y0182405D02*
X0175887Y0182405D01*
X0175946Y0182994D02*
X0180054Y0182994D01*
X0179994Y0183583D02*
X0176006Y0183583D01*
X0176066Y0184172D02*
X0179934Y0184172D01*
X0179874Y0184761D02*
X0176126Y0184761D01*
X0176186Y0185350D02*
X0179814Y0185350D01*
X0179754Y0185939D02*
X0176246Y0185939D01*
X0176306Y0186528D02*
X0179694Y0186528D01*
X0183978Y0181816D02*
X0188526Y0181816D01*
X0187937Y0182405D02*
X0184701Y0182405D01*
X0185423Y0182994D02*
X0187348Y0182994D01*
X0186759Y0183583D02*
X0186146Y0183583D01*
X0169461Y0177103D02*
X0169061Y0176136D01*
M02*
