G75*
%MOIN*%
%OFA0B0*%
%FSLAX25Y25*%
%IPPOS*%
%LPD*%
%AMOC8*
5,1,8,0,0,1.08239X$1,22.5*
%
%ADD10C,0.00600*%
%ADD11C,0.00000*%
%ADD12C,0.13398*%
%ADD13C,0.02000*%
%ADD14C,0.06743*%
%ADD15C,0.07200*%
%ADD16C,0.08200*%
%ADD17C,0.10700*%
%ADD18C,0.09400*%
%ADD19OC8,0.08400*%
%ADD20OC8,0.07800*%
%ADD21C,0.07800*%
%ADD22OC8,0.07400*%
%ADD23OC8,0.06400*%
D10*
X0003000Y0003000D02*
X0073000Y0003000D01*
X0073000Y0074750D01*
X0073000Y0075000D02*
X0105500Y0075000D01*
X0105500Y0085000D01*
X0126500Y0085000D01*
X0126500Y0028000D01*
X0228000Y0028000D01*
X0228000Y0083000D01*
X0373000Y0083000D01*
X0373000Y0258000D01*
X0228000Y0258000D01*
X0228000Y0318000D01*
X0123000Y0318000D01*
X0123000Y0168500D01*
X0109500Y0155500D01*
X0080000Y0155500D01*
X0072500Y0162500D01*
X0003000Y0162500D01*
X0003000Y0003000D01*
D11*
X0069201Y0098000D02*
X0069203Y0098158D01*
X0069209Y0098316D01*
X0069219Y0098474D01*
X0069233Y0098632D01*
X0069251Y0098789D01*
X0069272Y0098946D01*
X0069298Y0099102D01*
X0069328Y0099258D01*
X0069361Y0099413D01*
X0069399Y0099566D01*
X0069440Y0099719D01*
X0069485Y0099871D01*
X0069534Y0100022D01*
X0069587Y0100171D01*
X0069643Y0100319D01*
X0069703Y0100465D01*
X0069767Y0100610D01*
X0069835Y0100753D01*
X0069906Y0100895D01*
X0069980Y0101035D01*
X0070058Y0101172D01*
X0070140Y0101308D01*
X0070224Y0101442D01*
X0070313Y0101573D01*
X0070404Y0101702D01*
X0070499Y0101829D01*
X0070596Y0101954D01*
X0070697Y0102076D01*
X0070801Y0102195D01*
X0070908Y0102312D01*
X0071018Y0102426D01*
X0071131Y0102537D01*
X0071246Y0102646D01*
X0071364Y0102751D01*
X0071485Y0102853D01*
X0071608Y0102953D01*
X0071734Y0103049D01*
X0071862Y0103142D01*
X0071992Y0103232D01*
X0072125Y0103318D01*
X0072260Y0103402D01*
X0072396Y0103481D01*
X0072535Y0103558D01*
X0072676Y0103630D01*
X0072818Y0103700D01*
X0072962Y0103765D01*
X0073108Y0103827D01*
X0073255Y0103885D01*
X0073404Y0103940D01*
X0073554Y0103991D01*
X0073705Y0104038D01*
X0073857Y0104081D01*
X0074010Y0104120D01*
X0074165Y0104156D01*
X0074320Y0104187D01*
X0074476Y0104215D01*
X0074632Y0104239D01*
X0074789Y0104259D01*
X0074947Y0104275D01*
X0075104Y0104287D01*
X0075263Y0104295D01*
X0075421Y0104299D01*
X0075579Y0104299D01*
X0075737Y0104295D01*
X0075896Y0104287D01*
X0076053Y0104275D01*
X0076211Y0104259D01*
X0076368Y0104239D01*
X0076524Y0104215D01*
X0076680Y0104187D01*
X0076835Y0104156D01*
X0076990Y0104120D01*
X0077143Y0104081D01*
X0077295Y0104038D01*
X0077446Y0103991D01*
X0077596Y0103940D01*
X0077745Y0103885D01*
X0077892Y0103827D01*
X0078038Y0103765D01*
X0078182Y0103700D01*
X0078324Y0103630D01*
X0078465Y0103558D01*
X0078604Y0103481D01*
X0078740Y0103402D01*
X0078875Y0103318D01*
X0079008Y0103232D01*
X0079138Y0103142D01*
X0079266Y0103049D01*
X0079392Y0102953D01*
X0079515Y0102853D01*
X0079636Y0102751D01*
X0079754Y0102646D01*
X0079869Y0102537D01*
X0079982Y0102426D01*
X0080092Y0102312D01*
X0080199Y0102195D01*
X0080303Y0102076D01*
X0080404Y0101954D01*
X0080501Y0101829D01*
X0080596Y0101702D01*
X0080687Y0101573D01*
X0080776Y0101442D01*
X0080860Y0101308D01*
X0080942Y0101172D01*
X0081020Y0101035D01*
X0081094Y0100895D01*
X0081165Y0100753D01*
X0081233Y0100610D01*
X0081297Y0100465D01*
X0081357Y0100319D01*
X0081413Y0100171D01*
X0081466Y0100022D01*
X0081515Y0099871D01*
X0081560Y0099719D01*
X0081601Y0099566D01*
X0081639Y0099413D01*
X0081672Y0099258D01*
X0081702Y0099102D01*
X0081728Y0098946D01*
X0081749Y0098789D01*
X0081767Y0098632D01*
X0081781Y0098474D01*
X0081791Y0098316D01*
X0081797Y0098158D01*
X0081799Y0098000D01*
X0081797Y0097842D01*
X0081791Y0097684D01*
X0081781Y0097526D01*
X0081767Y0097368D01*
X0081749Y0097211D01*
X0081728Y0097054D01*
X0081702Y0096898D01*
X0081672Y0096742D01*
X0081639Y0096587D01*
X0081601Y0096434D01*
X0081560Y0096281D01*
X0081515Y0096129D01*
X0081466Y0095978D01*
X0081413Y0095829D01*
X0081357Y0095681D01*
X0081297Y0095535D01*
X0081233Y0095390D01*
X0081165Y0095247D01*
X0081094Y0095105D01*
X0081020Y0094965D01*
X0080942Y0094828D01*
X0080860Y0094692D01*
X0080776Y0094558D01*
X0080687Y0094427D01*
X0080596Y0094298D01*
X0080501Y0094171D01*
X0080404Y0094046D01*
X0080303Y0093924D01*
X0080199Y0093805D01*
X0080092Y0093688D01*
X0079982Y0093574D01*
X0079869Y0093463D01*
X0079754Y0093354D01*
X0079636Y0093249D01*
X0079515Y0093147D01*
X0079392Y0093047D01*
X0079266Y0092951D01*
X0079138Y0092858D01*
X0079008Y0092768D01*
X0078875Y0092682D01*
X0078740Y0092598D01*
X0078604Y0092519D01*
X0078465Y0092442D01*
X0078324Y0092370D01*
X0078182Y0092300D01*
X0078038Y0092235D01*
X0077892Y0092173D01*
X0077745Y0092115D01*
X0077596Y0092060D01*
X0077446Y0092009D01*
X0077295Y0091962D01*
X0077143Y0091919D01*
X0076990Y0091880D01*
X0076835Y0091844D01*
X0076680Y0091813D01*
X0076524Y0091785D01*
X0076368Y0091761D01*
X0076211Y0091741D01*
X0076053Y0091725D01*
X0075896Y0091713D01*
X0075737Y0091705D01*
X0075579Y0091701D01*
X0075421Y0091701D01*
X0075263Y0091705D01*
X0075104Y0091713D01*
X0074947Y0091725D01*
X0074789Y0091741D01*
X0074632Y0091761D01*
X0074476Y0091785D01*
X0074320Y0091813D01*
X0074165Y0091844D01*
X0074010Y0091880D01*
X0073857Y0091919D01*
X0073705Y0091962D01*
X0073554Y0092009D01*
X0073404Y0092060D01*
X0073255Y0092115D01*
X0073108Y0092173D01*
X0072962Y0092235D01*
X0072818Y0092300D01*
X0072676Y0092370D01*
X0072535Y0092442D01*
X0072396Y0092519D01*
X0072260Y0092598D01*
X0072125Y0092682D01*
X0071992Y0092768D01*
X0071862Y0092858D01*
X0071734Y0092951D01*
X0071608Y0093047D01*
X0071485Y0093147D01*
X0071364Y0093249D01*
X0071246Y0093354D01*
X0071131Y0093463D01*
X0071018Y0093574D01*
X0070908Y0093688D01*
X0070801Y0093805D01*
X0070697Y0093924D01*
X0070596Y0094046D01*
X0070499Y0094171D01*
X0070404Y0094298D01*
X0070313Y0094427D01*
X0070224Y0094558D01*
X0070140Y0094692D01*
X0070058Y0094828D01*
X0069980Y0094965D01*
X0069906Y0095105D01*
X0069835Y0095247D01*
X0069767Y0095390D01*
X0069703Y0095535D01*
X0069643Y0095681D01*
X0069587Y0095829D01*
X0069534Y0095978D01*
X0069485Y0096129D01*
X0069440Y0096281D01*
X0069399Y0096434D01*
X0069361Y0096587D01*
X0069328Y0096742D01*
X0069298Y0096898D01*
X0069272Y0097054D01*
X0069251Y0097211D01*
X0069233Y0097368D01*
X0069219Y0097526D01*
X0069209Y0097684D01*
X0069203Y0097842D01*
X0069201Y0098000D01*
X0215451Y0098000D02*
X0215453Y0098158D01*
X0215459Y0098316D01*
X0215469Y0098474D01*
X0215483Y0098632D01*
X0215501Y0098789D01*
X0215522Y0098946D01*
X0215548Y0099102D01*
X0215578Y0099258D01*
X0215611Y0099413D01*
X0215649Y0099566D01*
X0215690Y0099719D01*
X0215735Y0099871D01*
X0215784Y0100022D01*
X0215837Y0100171D01*
X0215893Y0100319D01*
X0215953Y0100465D01*
X0216017Y0100610D01*
X0216085Y0100753D01*
X0216156Y0100895D01*
X0216230Y0101035D01*
X0216308Y0101172D01*
X0216390Y0101308D01*
X0216474Y0101442D01*
X0216563Y0101573D01*
X0216654Y0101702D01*
X0216749Y0101829D01*
X0216846Y0101954D01*
X0216947Y0102076D01*
X0217051Y0102195D01*
X0217158Y0102312D01*
X0217268Y0102426D01*
X0217381Y0102537D01*
X0217496Y0102646D01*
X0217614Y0102751D01*
X0217735Y0102853D01*
X0217858Y0102953D01*
X0217984Y0103049D01*
X0218112Y0103142D01*
X0218242Y0103232D01*
X0218375Y0103318D01*
X0218510Y0103402D01*
X0218646Y0103481D01*
X0218785Y0103558D01*
X0218926Y0103630D01*
X0219068Y0103700D01*
X0219212Y0103765D01*
X0219358Y0103827D01*
X0219505Y0103885D01*
X0219654Y0103940D01*
X0219804Y0103991D01*
X0219955Y0104038D01*
X0220107Y0104081D01*
X0220260Y0104120D01*
X0220415Y0104156D01*
X0220570Y0104187D01*
X0220726Y0104215D01*
X0220882Y0104239D01*
X0221039Y0104259D01*
X0221197Y0104275D01*
X0221354Y0104287D01*
X0221513Y0104295D01*
X0221671Y0104299D01*
X0221829Y0104299D01*
X0221987Y0104295D01*
X0222146Y0104287D01*
X0222303Y0104275D01*
X0222461Y0104259D01*
X0222618Y0104239D01*
X0222774Y0104215D01*
X0222930Y0104187D01*
X0223085Y0104156D01*
X0223240Y0104120D01*
X0223393Y0104081D01*
X0223545Y0104038D01*
X0223696Y0103991D01*
X0223846Y0103940D01*
X0223995Y0103885D01*
X0224142Y0103827D01*
X0224288Y0103765D01*
X0224432Y0103700D01*
X0224574Y0103630D01*
X0224715Y0103558D01*
X0224854Y0103481D01*
X0224990Y0103402D01*
X0225125Y0103318D01*
X0225258Y0103232D01*
X0225388Y0103142D01*
X0225516Y0103049D01*
X0225642Y0102953D01*
X0225765Y0102853D01*
X0225886Y0102751D01*
X0226004Y0102646D01*
X0226119Y0102537D01*
X0226232Y0102426D01*
X0226342Y0102312D01*
X0226449Y0102195D01*
X0226553Y0102076D01*
X0226654Y0101954D01*
X0226751Y0101829D01*
X0226846Y0101702D01*
X0226937Y0101573D01*
X0227026Y0101442D01*
X0227110Y0101308D01*
X0227192Y0101172D01*
X0227270Y0101035D01*
X0227344Y0100895D01*
X0227415Y0100753D01*
X0227483Y0100610D01*
X0227547Y0100465D01*
X0227607Y0100319D01*
X0227663Y0100171D01*
X0227716Y0100022D01*
X0227765Y0099871D01*
X0227810Y0099719D01*
X0227851Y0099566D01*
X0227889Y0099413D01*
X0227922Y0099258D01*
X0227952Y0099102D01*
X0227978Y0098946D01*
X0227999Y0098789D01*
X0228017Y0098632D01*
X0228031Y0098474D01*
X0228041Y0098316D01*
X0228047Y0098158D01*
X0228049Y0098000D01*
X0228047Y0097842D01*
X0228041Y0097684D01*
X0228031Y0097526D01*
X0228017Y0097368D01*
X0227999Y0097211D01*
X0227978Y0097054D01*
X0227952Y0096898D01*
X0227922Y0096742D01*
X0227889Y0096587D01*
X0227851Y0096434D01*
X0227810Y0096281D01*
X0227765Y0096129D01*
X0227716Y0095978D01*
X0227663Y0095829D01*
X0227607Y0095681D01*
X0227547Y0095535D01*
X0227483Y0095390D01*
X0227415Y0095247D01*
X0227344Y0095105D01*
X0227270Y0094965D01*
X0227192Y0094828D01*
X0227110Y0094692D01*
X0227026Y0094558D01*
X0226937Y0094427D01*
X0226846Y0094298D01*
X0226751Y0094171D01*
X0226654Y0094046D01*
X0226553Y0093924D01*
X0226449Y0093805D01*
X0226342Y0093688D01*
X0226232Y0093574D01*
X0226119Y0093463D01*
X0226004Y0093354D01*
X0225886Y0093249D01*
X0225765Y0093147D01*
X0225642Y0093047D01*
X0225516Y0092951D01*
X0225388Y0092858D01*
X0225258Y0092768D01*
X0225125Y0092682D01*
X0224990Y0092598D01*
X0224854Y0092519D01*
X0224715Y0092442D01*
X0224574Y0092370D01*
X0224432Y0092300D01*
X0224288Y0092235D01*
X0224142Y0092173D01*
X0223995Y0092115D01*
X0223846Y0092060D01*
X0223696Y0092009D01*
X0223545Y0091962D01*
X0223393Y0091919D01*
X0223240Y0091880D01*
X0223085Y0091844D01*
X0222930Y0091813D01*
X0222774Y0091785D01*
X0222618Y0091761D01*
X0222461Y0091741D01*
X0222303Y0091725D01*
X0222146Y0091713D01*
X0221987Y0091705D01*
X0221829Y0091701D01*
X0221671Y0091701D01*
X0221513Y0091705D01*
X0221354Y0091713D01*
X0221197Y0091725D01*
X0221039Y0091741D01*
X0220882Y0091761D01*
X0220726Y0091785D01*
X0220570Y0091813D01*
X0220415Y0091844D01*
X0220260Y0091880D01*
X0220107Y0091919D01*
X0219955Y0091962D01*
X0219804Y0092009D01*
X0219654Y0092060D01*
X0219505Y0092115D01*
X0219358Y0092173D01*
X0219212Y0092235D01*
X0219068Y0092300D01*
X0218926Y0092370D01*
X0218785Y0092442D01*
X0218646Y0092519D01*
X0218510Y0092598D01*
X0218375Y0092682D01*
X0218242Y0092768D01*
X0218112Y0092858D01*
X0217984Y0092951D01*
X0217858Y0093047D01*
X0217735Y0093147D01*
X0217614Y0093249D01*
X0217496Y0093354D01*
X0217381Y0093463D01*
X0217268Y0093574D01*
X0217158Y0093688D01*
X0217051Y0093805D01*
X0216947Y0093924D01*
X0216846Y0094046D01*
X0216749Y0094171D01*
X0216654Y0094298D01*
X0216563Y0094427D01*
X0216474Y0094558D01*
X0216390Y0094692D01*
X0216308Y0094828D01*
X0216230Y0094965D01*
X0216156Y0095105D01*
X0216085Y0095247D01*
X0216017Y0095390D01*
X0215953Y0095535D01*
X0215893Y0095681D01*
X0215837Y0095829D01*
X0215784Y0095978D01*
X0215735Y0096129D01*
X0215690Y0096281D01*
X0215649Y0096434D01*
X0215611Y0096587D01*
X0215578Y0096742D01*
X0215548Y0096898D01*
X0215522Y0097054D01*
X0215501Y0097211D01*
X0215483Y0097368D01*
X0215469Y0097526D01*
X0215459Y0097684D01*
X0215453Y0097842D01*
X0215451Y0098000D01*
X0215451Y0244250D02*
X0215453Y0244408D01*
X0215459Y0244566D01*
X0215469Y0244724D01*
X0215483Y0244882D01*
X0215501Y0245039D01*
X0215522Y0245196D01*
X0215548Y0245352D01*
X0215578Y0245508D01*
X0215611Y0245663D01*
X0215649Y0245816D01*
X0215690Y0245969D01*
X0215735Y0246121D01*
X0215784Y0246272D01*
X0215837Y0246421D01*
X0215893Y0246569D01*
X0215953Y0246715D01*
X0216017Y0246860D01*
X0216085Y0247003D01*
X0216156Y0247145D01*
X0216230Y0247285D01*
X0216308Y0247422D01*
X0216390Y0247558D01*
X0216474Y0247692D01*
X0216563Y0247823D01*
X0216654Y0247952D01*
X0216749Y0248079D01*
X0216846Y0248204D01*
X0216947Y0248326D01*
X0217051Y0248445D01*
X0217158Y0248562D01*
X0217268Y0248676D01*
X0217381Y0248787D01*
X0217496Y0248896D01*
X0217614Y0249001D01*
X0217735Y0249103D01*
X0217858Y0249203D01*
X0217984Y0249299D01*
X0218112Y0249392D01*
X0218242Y0249482D01*
X0218375Y0249568D01*
X0218510Y0249652D01*
X0218646Y0249731D01*
X0218785Y0249808D01*
X0218926Y0249880D01*
X0219068Y0249950D01*
X0219212Y0250015D01*
X0219358Y0250077D01*
X0219505Y0250135D01*
X0219654Y0250190D01*
X0219804Y0250241D01*
X0219955Y0250288D01*
X0220107Y0250331D01*
X0220260Y0250370D01*
X0220415Y0250406D01*
X0220570Y0250437D01*
X0220726Y0250465D01*
X0220882Y0250489D01*
X0221039Y0250509D01*
X0221197Y0250525D01*
X0221354Y0250537D01*
X0221513Y0250545D01*
X0221671Y0250549D01*
X0221829Y0250549D01*
X0221987Y0250545D01*
X0222146Y0250537D01*
X0222303Y0250525D01*
X0222461Y0250509D01*
X0222618Y0250489D01*
X0222774Y0250465D01*
X0222930Y0250437D01*
X0223085Y0250406D01*
X0223240Y0250370D01*
X0223393Y0250331D01*
X0223545Y0250288D01*
X0223696Y0250241D01*
X0223846Y0250190D01*
X0223995Y0250135D01*
X0224142Y0250077D01*
X0224288Y0250015D01*
X0224432Y0249950D01*
X0224574Y0249880D01*
X0224715Y0249808D01*
X0224854Y0249731D01*
X0224990Y0249652D01*
X0225125Y0249568D01*
X0225258Y0249482D01*
X0225388Y0249392D01*
X0225516Y0249299D01*
X0225642Y0249203D01*
X0225765Y0249103D01*
X0225886Y0249001D01*
X0226004Y0248896D01*
X0226119Y0248787D01*
X0226232Y0248676D01*
X0226342Y0248562D01*
X0226449Y0248445D01*
X0226553Y0248326D01*
X0226654Y0248204D01*
X0226751Y0248079D01*
X0226846Y0247952D01*
X0226937Y0247823D01*
X0227026Y0247692D01*
X0227110Y0247558D01*
X0227192Y0247422D01*
X0227270Y0247285D01*
X0227344Y0247145D01*
X0227415Y0247003D01*
X0227483Y0246860D01*
X0227547Y0246715D01*
X0227607Y0246569D01*
X0227663Y0246421D01*
X0227716Y0246272D01*
X0227765Y0246121D01*
X0227810Y0245969D01*
X0227851Y0245816D01*
X0227889Y0245663D01*
X0227922Y0245508D01*
X0227952Y0245352D01*
X0227978Y0245196D01*
X0227999Y0245039D01*
X0228017Y0244882D01*
X0228031Y0244724D01*
X0228041Y0244566D01*
X0228047Y0244408D01*
X0228049Y0244250D01*
X0228047Y0244092D01*
X0228041Y0243934D01*
X0228031Y0243776D01*
X0228017Y0243618D01*
X0227999Y0243461D01*
X0227978Y0243304D01*
X0227952Y0243148D01*
X0227922Y0242992D01*
X0227889Y0242837D01*
X0227851Y0242684D01*
X0227810Y0242531D01*
X0227765Y0242379D01*
X0227716Y0242228D01*
X0227663Y0242079D01*
X0227607Y0241931D01*
X0227547Y0241785D01*
X0227483Y0241640D01*
X0227415Y0241497D01*
X0227344Y0241355D01*
X0227270Y0241215D01*
X0227192Y0241078D01*
X0227110Y0240942D01*
X0227026Y0240808D01*
X0226937Y0240677D01*
X0226846Y0240548D01*
X0226751Y0240421D01*
X0226654Y0240296D01*
X0226553Y0240174D01*
X0226449Y0240055D01*
X0226342Y0239938D01*
X0226232Y0239824D01*
X0226119Y0239713D01*
X0226004Y0239604D01*
X0225886Y0239499D01*
X0225765Y0239397D01*
X0225642Y0239297D01*
X0225516Y0239201D01*
X0225388Y0239108D01*
X0225258Y0239018D01*
X0225125Y0238932D01*
X0224990Y0238848D01*
X0224854Y0238769D01*
X0224715Y0238692D01*
X0224574Y0238620D01*
X0224432Y0238550D01*
X0224288Y0238485D01*
X0224142Y0238423D01*
X0223995Y0238365D01*
X0223846Y0238310D01*
X0223696Y0238259D01*
X0223545Y0238212D01*
X0223393Y0238169D01*
X0223240Y0238130D01*
X0223085Y0238094D01*
X0222930Y0238063D01*
X0222774Y0238035D01*
X0222618Y0238011D01*
X0222461Y0237991D01*
X0222303Y0237975D01*
X0222146Y0237963D01*
X0221987Y0237955D01*
X0221829Y0237951D01*
X0221671Y0237951D01*
X0221513Y0237955D01*
X0221354Y0237963D01*
X0221197Y0237975D01*
X0221039Y0237991D01*
X0220882Y0238011D01*
X0220726Y0238035D01*
X0220570Y0238063D01*
X0220415Y0238094D01*
X0220260Y0238130D01*
X0220107Y0238169D01*
X0219955Y0238212D01*
X0219804Y0238259D01*
X0219654Y0238310D01*
X0219505Y0238365D01*
X0219358Y0238423D01*
X0219212Y0238485D01*
X0219068Y0238550D01*
X0218926Y0238620D01*
X0218785Y0238692D01*
X0218646Y0238769D01*
X0218510Y0238848D01*
X0218375Y0238932D01*
X0218242Y0239018D01*
X0218112Y0239108D01*
X0217984Y0239201D01*
X0217858Y0239297D01*
X0217735Y0239397D01*
X0217614Y0239499D01*
X0217496Y0239604D01*
X0217381Y0239713D01*
X0217268Y0239824D01*
X0217158Y0239938D01*
X0217051Y0240055D01*
X0216947Y0240174D01*
X0216846Y0240296D01*
X0216749Y0240421D01*
X0216654Y0240548D01*
X0216563Y0240677D01*
X0216474Y0240808D01*
X0216390Y0240942D01*
X0216308Y0241078D01*
X0216230Y0241215D01*
X0216156Y0241355D01*
X0216085Y0241497D01*
X0216017Y0241640D01*
X0215953Y0241785D01*
X0215893Y0241931D01*
X0215837Y0242079D01*
X0215784Y0242228D01*
X0215735Y0242379D01*
X0215690Y0242531D01*
X0215649Y0242684D01*
X0215611Y0242837D01*
X0215578Y0242992D01*
X0215548Y0243148D01*
X0215522Y0243304D01*
X0215501Y0243461D01*
X0215483Y0243618D01*
X0215469Y0243776D01*
X0215459Y0243934D01*
X0215453Y0244092D01*
X0215451Y0244250D01*
D12*
X0221750Y0244250D03*
X0221750Y0098000D03*
X0075500Y0098000D03*
D13*
X0326000Y0160500D02*
X0341750Y0144250D01*
X0350000Y0146250D01*
X0360500Y0149250D01*
X0360500Y0153000D01*
X0350500Y0155500D01*
X0340500Y0165500D01*
X0340500Y0174250D01*
X0341750Y0175500D01*
X0349500Y0175500D01*
X0358500Y0180000D01*
X0358500Y0186750D01*
X0350750Y0190500D01*
X0340500Y0190500D01*
X0340500Y0210500D01*
X0346750Y0216250D01*
X0355750Y0216500D01*
X0355500Y0230250D01*
X0340500Y0230250D01*
X0327000Y0216250D01*
X0326000Y0160500D01*
X0326616Y0159865D02*
X0346135Y0159865D01*
X0344137Y0161863D02*
X0326024Y0161863D01*
X0326060Y0163862D02*
X0342138Y0163862D01*
X0340500Y0165860D02*
X0326096Y0165860D01*
X0326132Y0167859D02*
X0340500Y0167859D01*
X0340500Y0169857D02*
X0326168Y0169857D01*
X0326204Y0171856D02*
X0340500Y0171856D01*
X0340500Y0173854D02*
X0326240Y0173854D01*
X0326275Y0175853D02*
X0350205Y0175853D01*
X0354202Y0177851D02*
X0326311Y0177851D01*
X0326347Y0179850D02*
X0358199Y0179850D01*
X0358500Y0181848D02*
X0326383Y0181848D01*
X0326419Y0183847D02*
X0358500Y0183847D01*
X0358500Y0185845D02*
X0326455Y0185845D01*
X0326490Y0187844D02*
X0356240Y0187844D01*
X0352109Y0189842D02*
X0326526Y0189842D01*
X0326562Y0191841D02*
X0340500Y0191841D01*
X0340500Y0193839D02*
X0326598Y0193839D01*
X0326634Y0195838D02*
X0340500Y0195838D01*
X0340500Y0197836D02*
X0326670Y0197836D01*
X0326706Y0199835D02*
X0340500Y0199835D01*
X0340500Y0201833D02*
X0326741Y0201833D01*
X0326777Y0203832D02*
X0340500Y0203832D01*
X0340500Y0205830D02*
X0326813Y0205830D01*
X0326849Y0207829D02*
X0340500Y0207829D01*
X0340500Y0209827D02*
X0326885Y0209827D01*
X0326921Y0211826D02*
X0341941Y0211826D01*
X0344113Y0213824D02*
X0326956Y0213824D01*
X0326992Y0215823D02*
X0346286Y0215823D01*
X0351750Y0209000D02*
X0365500Y0209000D01*
X0365500Y0196750D01*
X0350500Y0196750D01*
X0348000Y0199250D01*
X0348000Y0203000D01*
X0351750Y0209000D01*
X0351018Y0207829D02*
X0365500Y0207829D01*
X0370500Y0207829D01*
X0370500Y0209827D02*
X0365500Y0209827D01*
X0365500Y0211826D02*
X0370500Y0211826D01*
X0370500Y0213824D02*
X0365500Y0213824D01*
X0365500Y0215823D02*
X0370500Y0215823D01*
X0370500Y0217821D02*
X0365500Y0217821D01*
X0365500Y0219820D02*
X0370500Y0219820D01*
X0370500Y0221818D02*
X0365500Y0221818D01*
X0365500Y0223817D02*
X0370500Y0223817D01*
X0370500Y0225815D02*
X0365500Y0225815D01*
X0365500Y0227814D02*
X0370500Y0227814D01*
X0370500Y0229812D02*
X0365500Y0229812D01*
X0365500Y0231750D02*
X0360500Y0236750D01*
X0344250Y0236750D01*
X0341750Y0243000D01*
X0344250Y0249250D01*
X0365500Y0249250D01*
X0370500Y0244250D01*
X0370500Y0168000D01*
X0361750Y0164250D01*
X0351750Y0164250D01*
X0351750Y0166750D01*
X0352000Y0167500D01*
X0354250Y0170500D01*
X0365500Y0176750D01*
X0365500Y0231750D01*
X0365439Y0231811D02*
X0370500Y0231811D01*
X0370500Y0233809D02*
X0363441Y0233809D01*
X0361442Y0235808D02*
X0370500Y0235808D01*
X0370500Y0237806D02*
X0343827Y0237806D01*
X0343028Y0239805D02*
X0370500Y0239805D01*
X0370500Y0241803D02*
X0342229Y0241803D01*
X0342071Y0243802D02*
X0370500Y0243802D01*
X0368949Y0245801D02*
X0342870Y0245801D01*
X0343670Y0247799D02*
X0366951Y0247799D01*
X0355508Y0229812D02*
X0340078Y0229812D01*
X0338151Y0227814D02*
X0355544Y0227814D01*
X0355581Y0225815D02*
X0336224Y0225815D01*
X0334297Y0223817D02*
X0355617Y0223817D01*
X0355653Y0221818D02*
X0332370Y0221818D01*
X0330442Y0219820D02*
X0355690Y0219820D01*
X0355726Y0217821D02*
X0328515Y0217821D01*
X0349769Y0205830D02*
X0365500Y0205830D01*
X0370500Y0205830D01*
X0370500Y0203832D02*
X0365500Y0203832D01*
X0348520Y0203832D01*
X0348000Y0201833D02*
X0365500Y0201833D01*
X0370500Y0201833D01*
X0370500Y0199835D02*
X0365500Y0199835D01*
X0348000Y0199835D01*
X0349414Y0197836D02*
X0365500Y0197836D01*
X0370500Y0197836D01*
X0370500Y0195838D02*
X0365500Y0195838D01*
X0365500Y0193839D02*
X0370500Y0193839D01*
X0370500Y0191841D02*
X0365500Y0191841D01*
X0365500Y0189842D02*
X0370500Y0189842D01*
X0370500Y0187844D02*
X0365500Y0187844D01*
X0365500Y0185845D02*
X0370500Y0185845D01*
X0370500Y0183847D02*
X0365500Y0183847D01*
X0365500Y0181848D02*
X0370500Y0181848D01*
X0370500Y0179850D02*
X0365500Y0179850D01*
X0365500Y0177851D02*
X0370500Y0177851D01*
X0370500Y0175853D02*
X0363885Y0175853D01*
X0360287Y0173854D02*
X0370500Y0173854D01*
X0370500Y0171856D02*
X0356690Y0171856D01*
X0353768Y0169857D02*
X0370500Y0169857D01*
X0370170Y0167859D02*
X0352269Y0167859D01*
X0351750Y0165860D02*
X0365507Y0165860D01*
X0357024Y0153869D02*
X0332427Y0153869D01*
X0334364Y0151870D02*
X0360500Y0151870D01*
X0360500Y0149872D02*
X0336301Y0149872D01*
X0338238Y0147873D02*
X0355682Y0147873D01*
X0348453Y0145875D02*
X0340175Y0145875D01*
X0330490Y0155868D02*
X0350132Y0155868D01*
X0348134Y0157866D02*
X0328553Y0157866D01*
D14*
X0058000Y0158000D03*
X0058000Y0148000D03*
X0058000Y0138000D03*
X0058000Y0128000D03*
X0058000Y0118000D03*
X0058000Y0108000D03*
X0058000Y0098000D03*
X0058000Y0088000D03*
X0058000Y0078000D03*
X0058000Y0068000D03*
X0058000Y0058000D03*
X0058000Y0048000D03*
X0058000Y0038000D03*
X0058000Y0028000D03*
X0058000Y0018000D03*
X0058000Y0008000D03*
X0008000Y0008000D03*
X0008000Y0018000D03*
X0008000Y0028000D03*
X0008000Y0038000D03*
X0008000Y0048000D03*
X0008000Y0058000D03*
X0008000Y0068000D03*
X0008000Y0078000D03*
X0008000Y0088000D03*
X0008000Y0098000D03*
X0008000Y0108000D03*
X0008000Y0118000D03*
X0008000Y0128000D03*
X0008000Y0138000D03*
X0008000Y0148000D03*
X0008000Y0158000D03*
D15*
X0087375Y0140500D03*
X0097375Y0140500D03*
X0097375Y0130500D03*
X0087375Y0130500D03*
X0087375Y0120500D03*
X0097375Y0120500D03*
X0097375Y0110500D03*
X0087375Y0110500D03*
X0090500Y0079875D03*
X0080500Y0079875D03*
X0100500Y0079875D03*
D16*
X0138000Y0078000D03*
X0138000Y0068000D03*
X0138000Y0058000D03*
X0138000Y0048000D03*
X0138000Y0038000D03*
X0138000Y0088000D03*
X0138000Y0098000D03*
X0138000Y0108000D03*
X0138000Y0118000D03*
X0138000Y0128000D03*
X0138000Y0138000D03*
X0138000Y0148000D03*
X0109000Y0140500D03*
X0109000Y0130500D03*
X0028000Y0098000D03*
X0028000Y0088000D03*
X0028000Y0018000D03*
X0028000Y0008000D03*
X0198000Y0038000D03*
X0198000Y0048000D03*
X0198000Y0058000D03*
X0198000Y0068000D03*
X0198000Y0078000D03*
X0198000Y0088000D03*
X0198000Y0098000D03*
X0198000Y0108000D03*
X0198000Y0118000D03*
X0198000Y0128000D03*
X0198000Y0138000D03*
X0198000Y0148000D03*
X0198000Y0198000D03*
X0198000Y0208000D03*
X0198000Y0218000D03*
X0198000Y0228000D03*
X0198000Y0238000D03*
X0198000Y0248000D03*
X0198000Y0258000D03*
X0198000Y0268000D03*
X0198000Y0278000D03*
X0198000Y0288000D03*
X0198000Y0298000D03*
X0198000Y0308000D03*
X0215500Y0303000D03*
X0215500Y0293000D03*
X0138000Y0288000D03*
X0138000Y0278000D03*
X0138000Y0268000D03*
X0138000Y0258000D03*
X0138000Y0248000D03*
X0138000Y0238000D03*
X0138000Y0228000D03*
X0138000Y0218000D03*
X0138000Y0208000D03*
X0138000Y0198000D03*
X0138000Y0298000D03*
X0138000Y0308000D03*
X0268000Y0228000D03*
X0278000Y0228000D03*
X0278000Y0218000D03*
X0268000Y0218000D03*
X0268000Y0208000D03*
X0278000Y0208000D03*
X0278000Y0198000D03*
X0268000Y0198000D03*
X0268000Y0188000D03*
X0278000Y0188000D03*
X0278000Y0178000D03*
X0268000Y0178000D03*
X0280500Y0159250D03*
X0290500Y0159250D03*
X0301750Y0143000D03*
X0301750Y0133000D03*
X0301750Y0123000D03*
X0301750Y0113000D03*
X0268000Y0113000D03*
X0268000Y0123000D03*
X0268000Y0133000D03*
X0268000Y0143000D03*
X0348000Y0133000D03*
X0358000Y0133000D03*
X0358000Y0123000D03*
X0348000Y0123000D03*
X0215500Y0048000D03*
X0215500Y0038000D03*
D17*
X0348050Y0183657D02*
X0357950Y0183657D01*
X0357950Y0203343D02*
X0348050Y0203343D01*
X0348050Y0223157D02*
X0357950Y0223157D01*
X0357950Y0242843D02*
X0348050Y0242843D01*
D18*
X0356500Y0164587D03*
X0356500Y0150807D03*
D19*
X0215500Y0068000D03*
X0215500Y0058000D03*
X0215500Y0273000D03*
X0215500Y0283000D03*
D20*
X0358000Y0100000D03*
D21*
X0348000Y0100000D03*
D22*
X0316500Y0243000D03*
X0316500Y0253000D03*
X0282000Y0253000D03*
X0282000Y0243000D03*
D23*
X0267000Y0251500D03*
X0237000Y0251500D03*
M02*
