G75*
%MOIN*%
%OFA0B0*%
%FSLAX25Y25*%
%IPPOS*%
%LPD*%
%AMOC8*
5,1,8,0,0,1.08239X$1,22.5*
%
%ADD10C,0.00600*%
%ADD11C,0.00000*%
%ADD12C,0.05943*%
%ADD13C,0.06400*%
%ADD14OC8,0.05943*%
%ADD15C,0.07400*%
%ADD16C,0.09900*%
%ADD17C,0.08600*%
%ADD18OC8,0.07600*%
%ADD19OC8,0.07000*%
%ADD20C,0.07000*%
%ADD21C,0.03200*%
%ADD22C,0.01600*%
%ADD23C,0.02778*%
%ADD24C,0.15000*%
D10*
X0003000Y0003000D02*
X0073000Y0003000D01*
X0073000Y0074250D01*
X0111750Y0074250D01*
X0111750Y0048000D01*
X0131750Y0028000D01*
X0228000Y0028000D01*
X0228000Y0083000D01*
X0373000Y0083000D01*
X0373000Y0258000D01*
X0228000Y0258000D01*
X0228000Y0318000D01*
X0123000Y0318000D01*
X0123000Y0223000D01*
X0079250Y0223000D01*
X0065500Y0209250D01*
X0065500Y0163000D01*
X0003000Y0163000D01*
X0003000Y0003000D01*
D11*
X0069201Y0098000D02*
X0069203Y0098158D01*
X0069209Y0098316D01*
X0069219Y0098474D01*
X0069233Y0098632D01*
X0069251Y0098789D01*
X0069272Y0098946D01*
X0069298Y0099102D01*
X0069328Y0099258D01*
X0069361Y0099413D01*
X0069399Y0099566D01*
X0069440Y0099719D01*
X0069485Y0099871D01*
X0069534Y0100022D01*
X0069587Y0100171D01*
X0069643Y0100319D01*
X0069703Y0100465D01*
X0069767Y0100610D01*
X0069835Y0100753D01*
X0069906Y0100895D01*
X0069980Y0101035D01*
X0070058Y0101172D01*
X0070140Y0101308D01*
X0070224Y0101442D01*
X0070313Y0101573D01*
X0070404Y0101702D01*
X0070499Y0101829D01*
X0070596Y0101954D01*
X0070697Y0102076D01*
X0070801Y0102195D01*
X0070908Y0102312D01*
X0071018Y0102426D01*
X0071131Y0102537D01*
X0071246Y0102646D01*
X0071364Y0102751D01*
X0071485Y0102853D01*
X0071608Y0102953D01*
X0071734Y0103049D01*
X0071862Y0103142D01*
X0071992Y0103232D01*
X0072125Y0103318D01*
X0072260Y0103402D01*
X0072396Y0103481D01*
X0072535Y0103558D01*
X0072676Y0103630D01*
X0072818Y0103700D01*
X0072962Y0103765D01*
X0073108Y0103827D01*
X0073255Y0103885D01*
X0073404Y0103940D01*
X0073554Y0103991D01*
X0073705Y0104038D01*
X0073857Y0104081D01*
X0074010Y0104120D01*
X0074165Y0104156D01*
X0074320Y0104187D01*
X0074476Y0104215D01*
X0074632Y0104239D01*
X0074789Y0104259D01*
X0074947Y0104275D01*
X0075104Y0104287D01*
X0075263Y0104295D01*
X0075421Y0104299D01*
X0075579Y0104299D01*
X0075737Y0104295D01*
X0075896Y0104287D01*
X0076053Y0104275D01*
X0076211Y0104259D01*
X0076368Y0104239D01*
X0076524Y0104215D01*
X0076680Y0104187D01*
X0076835Y0104156D01*
X0076990Y0104120D01*
X0077143Y0104081D01*
X0077295Y0104038D01*
X0077446Y0103991D01*
X0077596Y0103940D01*
X0077745Y0103885D01*
X0077892Y0103827D01*
X0078038Y0103765D01*
X0078182Y0103700D01*
X0078324Y0103630D01*
X0078465Y0103558D01*
X0078604Y0103481D01*
X0078740Y0103402D01*
X0078875Y0103318D01*
X0079008Y0103232D01*
X0079138Y0103142D01*
X0079266Y0103049D01*
X0079392Y0102953D01*
X0079515Y0102853D01*
X0079636Y0102751D01*
X0079754Y0102646D01*
X0079869Y0102537D01*
X0079982Y0102426D01*
X0080092Y0102312D01*
X0080199Y0102195D01*
X0080303Y0102076D01*
X0080404Y0101954D01*
X0080501Y0101829D01*
X0080596Y0101702D01*
X0080687Y0101573D01*
X0080776Y0101442D01*
X0080860Y0101308D01*
X0080942Y0101172D01*
X0081020Y0101035D01*
X0081094Y0100895D01*
X0081165Y0100753D01*
X0081233Y0100610D01*
X0081297Y0100465D01*
X0081357Y0100319D01*
X0081413Y0100171D01*
X0081466Y0100022D01*
X0081515Y0099871D01*
X0081560Y0099719D01*
X0081601Y0099566D01*
X0081639Y0099413D01*
X0081672Y0099258D01*
X0081702Y0099102D01*
X0081728Y0098946D01*
X0081749Y0098789D01*
X0081767Y0098632D01*
X0081781Y0098474D01*
X0081791Y0098316D01*
X0081797Y0098158D01*
X0081799Y0098000D01*
X0081797Y0097842D01*
X0081791Y0097684D01*
X0081781Y0097526D01*
X0081767Y0097368D01*
X0081749Y0097211D01*
X0081728Y0097054D01*
X0081702Y0096898D01*
X0081672Y0096742D01*
X0081639Y0096587D01*
X0081601Y0096434D01*
X0081560Y0096281D01*
X0081515Y0096129D01*
X0081466Y0095978D01*
X0081413Y0095829D01*
X0081357Y0095681D01*
X0081297Y0095535D01*
X0081233Y0095390D01*
X0081165Y0095247D01*
X0081094Y0095105D01*
X0081020Y0094965D01*
X0080942Y0094828D01*
X0080860Y0094692D01*
X0080776Y0094558D01*
X0080687Y0094427D01*
X0080596Y0094298D01*
X0080501Y0094171D01*
X0080404Y0094046D01*
X0080303Y0093924D01*
X0080199Y0093805D01*
X0080092Y0093688D01*
X0079982Y0093574D01*
X0079869Y0093463D01*
X0079754Y0093354D01*
X0079636Y0093249D01*
X0079515Y0093147D01*
X0079392Y0093047D01*
X0079266Y0092951D01*
X0079138Y0092858D01*
X0079008Y0092768D01*
X0078875Y0092682D01*
X0078740Y0092598D01*
X0078604Y0092519D01*
X0078465Y0092442D01*
X0078324Y0092370D01*
X0078182Y0092300D01*
X0078038Y0092235D01*
X0077892Y0092173D01*
X0077745Y0092115D01*
X0077596Y0092060D01*
X0077446Y0092009D01*
X0077295Y0091962D01*
X0077143Y0091919D01*
X0076990Y0091880D01*
X0076835Y0091844D01*
X0076680Y0091813D01*
X0076524Y0091785D01*
X0076368Y0091761D01*
X0076211Y0091741D01*
X0076053Y0091725D01*
X0075896Y0091713D01*
X0075737Y0091705D01*
X0075579Y0091701D01*
X0075421Y0091701D01*
X0075263Y0091705D01*
X0075104Y0091713D01*
X0074947Y0091725D01*
X0074789Y0091741D01*
X0074632Y0091761D01*
X0074476Y0091785D01*
X0074320Y0091813D01*
X0074165Y0091844D01*
X0074010Y0091880D01*
X0073857Y0091919D01*
X0073705Y0091962D01*
X0073554Y0092009D01*
X0073404Y0092060D01*
X0073255Y0092115D01*
X0073108Y0092173D01*
X0072962Y0092235D01*
X0072818Y0092300D01*
X0072676Y0092370D01*
X0072535Y0092442D01*
X0072396Y0092519D01*
X0072260Y0092598D01*
X0072125Y0092682D01*
X0071992Y0092768D01*
X0071862Y0092858D01*
X0071734Y0092951D01*
X0071608Y0093047D01*
X0071485Y0093147D01*
X0071364Y0093249D01*
X0071246Y0093354D01*
X0071131Y0093463D01*
X0071018Y0093574D01*
X0070908Y0093688D01*
X0070801Y0093805D01*
X0070697Y0093924D01*
X0070596Y0094046D01*
X0070499Y0094171D01*
X0070404Y0094298D01*
X0070313Y0094427D01*
X0070224Y0094558D01*
X0070140Y0094692D01*
X0070058Y0094828D01*
X0069980Y0094965D01*
X0069906Y0095105D01*
X0069835Y0095247D01*
X0069767Y0095390D01*
X0069703Y0095535D01*
X0069643Y0095681D01*
X0069587Y0095829D01*
X0069534Y0095978D01*
X0069485Y0096129D01*
X0069440Y0096281D01*
X0069399Y0096434D01*
X0069361Y0096587D01*
X0069328Y0096742D01*
X0069298Y0096898D01*
X0069272Y0097054D01*
X0069251Y0097211D01*
X0069233Y0097368D01*
X0069219Y0097526D01*
X0069209Y0097684D01*
X0069203Y0097842D01*
X0069201Y0098000D01*
X0215451Y0098000D02*
X0215453Y0098158D01*
X0215459Y0098316D01*
X0215469Y0098474D01*
X0215483Y0098632D01*
X0215501Y0098789D01*
X0215522Y0098946D01*
X0215548Y0099102D01*
X0215578Y0099258D01*
X0215611Y0099413D01*
X0215649Y0099566D01*
X0215690Y0099719D01*
X0215735Y0099871D01*
X0215784Y0100022D01*
X0215837Y0100171D01*
X0215893Y0100319D01*
X0215953Y0100465D01*
X0216017Y0100610D01*
X0216085Y0100753D01*
X0216156Y0100895D01*
X0216230Y0101035D01*
X0216308Y0101172D01*
X0216390Y0101308D01*
X0216474Y0101442D01*
X0216563Y0101573D01*
X0216654Y0101702D01*
X0216749Y0101829D01*
X0216846Y0101954D01*
X0216947Y0102076D01*
X0217051Y0102195D01*
X0217158Y0102312D01*
X0217268Y0102426D01*
X0217381Y0102537D01*
X0217496Y0102646D01*
X0217614Y0102751D01*
X0217735Y0102853D01*
X0217858Y0102953D01*
X0217984Y0103049D01*
X0218112Y0103142D01*
X0218242Y0103232D01*
X0218375Y0103318D01*
X0218510Y0103402D01*
X0218646Y0103481D01*
X0218785Y0103558D01*
X0218926Y0103630D01*
X0219068Y0103700D01*
X0219212Y0103765D01*
X0219358Y0103827D01*
X0219505Y0103885D01*
X0219654Y0103940D01*
X0219804Y0103991D01*
X0219955Y0104038D01*
X0220107Y0104081D01*
X0220260Y0104120D01*
X0220415Y0104156D01*
X0220570Y0104187D01*
X0220726Y0104215D01*
X0220882Y0104239D01*
X0221039Y0104259D01*
X0221197Y0104275D01*
X0221354Y0104287D01*
X0221513Y0104295D01*
X0221671Y0104299D01*
X0221829Y0104299D01*
X0221987Y0104295D01*
X0222146Y0104287D01*
X0222303Y0104275D01*
X0222461Y0104259D01*
X0222618Y0104239D01*
X0222774Y0104215D01*
X0222930Y0104187D01*
X0223085Y0104156D01*
X0223240Y0104120D01*
X0223393Y0104081D01*
X0223545Y0104038D01*
X0223696Y0103991D01*
X0223846Y0103940D01*
X0223995Y0103885D01*
X0224142Y0103827D01*
X0224288Y0103765D01*
X0224432Y0103700D01*
X0224574Y0103630D01*
X0224715Y0103558D01*
X0224854Y0103481D01*
X0224990Y0103402D01*
X0225125Y0103318D01*
X0225258Y0103232D01*
X0225388Y0103142D01*
X0225516Y0103049D01*
X0225642Y0102953D01*
X0225765Y0102853D01*
X0225886Y0102751D01*
X0226004Y0102646D01*
X0226119Y0102537D01*
X0226232Y0102426D01*
X0226342Y0102312D01*
X0226449Y0102195D01*
X0226553Y0102076D01*
X0226654Y0101954D01*
X0226751Y0101829D01*
X0226846Y0101702D01*
X0226937Y0101573D01*
X0227026Y0101442D01*
X0227110Y0101308D01*
X0227192Y0101172D01*
X0227270Y0101035D01*
X0227344Y0100895D01*
X0227415Y0100753D01*
X0227483Y0100610D01*
X0227547Y0100465D01*
X0227607Y0100319D01*
X0227663Y0100171D01*
X0227716Y0100022D01*
X0227765Y0099871D01*
X0227810Y0099719D01*
X0227851Y0099566D01*
X0227889Y0099413D01*
X0227922Y0099258D01*
X0227952Y0099102D01*
X0227978Y0098946D01*
X0227999Y0098789D01*
X0228017Y0098632D01*
X0228031Y0098474D01*
X0228041Y0098316D01*
X0228047Y0098158D01*
X0228049Y0098000D01*
X0228047Y0097842D01*
X0228041Y0097684D01*
X0228031Y0097526D01*
X0228017Y0097368D01*
X0227999Y0097211D01*
X0227978Y0097054D01*
X0227952Y0096898D01*
X0227922Y0096742D01*
X0227889Y0096587D01*
X0227851Y0096434D01*
X0227810Y0096281D01*
X0227765Y0096129D01*
X0227716Y0095978D01*
X0227663Y0095829D01*
X0227607Y0095681D01*
X0227547Y0095535D01*
X0227483Y0095390D01*
X0227415Y0095247D01*
X0227344Y0095105D01*
X0227270Y0094965D01*
X0227192Y0094828D01*
X0227110Y0094692D01*
X0227026Y0094558D01*
X0226937Y0094427D01*
X0226846Y0094298D01*
X0226751Y0094171D01*
X0226654Y0094046D01*
X0226553Y0093924D01*
X0226449Y0093805D01*
X0226342Y0093688D01*
X0226232Y0093574D01*
X0226119Y0093463D01*
X0226004Y0093354D01*
X0225886Y0093249D01*
X0225765Y0093147D01*
X0225642Y0093047D01*
X0225516Y0092951D01*
X0225388Y0092858D01*
X0225258Y0092768D01*
X0225125Y0092682D01*
X0224990Y0092598D01*
X0224854Y0092519D01*
X0224715Y0092442D01*
X0224574Y0092370D01*
X0224432Y0092300D01*
X0224288Y0092235D01*
X0224142Y0092173D01*
X0223995Y0092115D01*
X0223846Y0092060D01*
X0223696Y0092009D01*
X0223545Y0091962D01*
X0223393Y0091919D01*
X0223240Y0091880D01*
X0223085Y0091844D01*
X0222930Y0091813D01*
X0222774Y0091785D01*
X0222618Y0091761D01*
X0222461Y0091741D01*
X0222303Y0091725D01*
X0222146Y0091713D01*
X0221987Y0091705D01*
X0221829Y0091701D01*
X0221671Y0091701D01*
X0221513Y0091705D01*
X0221354Y0091713D01*
X0221197Y0091725D01*
X0221039Y0091741D01*
X0220882Y0091761D01*
X0220726Y0091785D01*
X0220570Y0091813D01*
X0220415Y0091844D01*
X0220260Y0091880D01*
X0220107Y0091919D01*
X0219955Y0091962D01*
X0219804Y0092009D01*
X0219654Y0092060D01*
X0219505Y0092115D01*
X0219358Y0092173D01*
X0219212Y0092235D01*
X0219068Y0092300D01*
X0218926Y0092370D01*
X0218785Y0092442D01*
X0218646Y0092519D01*
X0218510Y0092598D01*
X0218375Y0092682D01*
X0218242Y0092768D01*
X0218112Y0092858D01*
X0217984Y0092951D01*
X0217858Y0093047D01*
X0217735Y0093147D01*
X0217614Y0093249D01*
X0217496Y0093354D01*
X0217381Y0093463D01*
X0217268Y0093574D01*
X0217158Y0093688D01*
X0217051Y0093805D01*
X0216947Y0093924D01*
X0216846Y0094046D01*
X0216749Y0094171D01*
X0216654Y0094298D01*
X0216563Y0094427D01*
X0216474Y0094558D01*
X0216390Y0094692D01*
X0216308Y0094828D01*
X0216230Y0094965D01*
X0216156Y0095105D01*
X0216085Y0095247D01*
X0216017Y0095390D01*
X0215953Y0095535D01*
X0215893Y0095681D01*
X0215837Y0095829D01*
X0215784Y0095978D01*
X0215735Y0096129D01*
X0215690Y0096281D01*
X0215649Y0096434D01*
X0215611Y0096587D01*
X0215578Y0096742D01*
X0215548Y0096898D01*
X0215522Y0097054D01*
X0215501Y0097211D01*
X0215483Y0097368D01*
X0215469Y0097526D01*
X0215459Y0097684D01*
X0215453Y0097842D01*
X0215451Y0098000D01*
X0215451Y0244250D02*
X0215453Y0244408D01*
X0215459Y0244566D01*
X0215469Y0244724D01*
X0215483Y0244882D01*
X0215501Y0245039D01*
X0215522Y0245196D01*
X0215548Y0245352D01*
X0215578Y0245508D01*
X0215611Y0245663D01*
X0215649Y0245816D01*
X0215690Y0245969D01*
X0215735Y0246121D01*
X0215784Y0246272D01*
X0215837Y0246421D01*
X0215893Y0246569D01*
X0215953Y0246715D01*
X0216017Y0246860D01*
X0216085Y0247003D01*
X0216156Y0247145D01*
X0216230Y0247285D01*
X0216308Y0247422D01*
X0216390Y0247558D01*
X0216474Y0247692D01*
X0216563Y0247823D01*
X0216654Y0247952D01*
X0216749Y0248079D01*
X0216846Y0248204D01*
X0216947Y0248326D01*
X0217051Y0248445D01*
X0217158Y0248562D01*
X0217268Y0248676D01*
X0217381Y0248787D01*
X0217496Y0248896D01*
X0217614Y0249001D01*
X0217735Y0249103D01*
X0217858Y0249203D01*
X0217984Y0249299D01*
X0218112Y0249392D01*
X0218242Y0249482D01*
X0218375Y0249568D01*
X0218510Y0249652D01*
X0218646Y0249731D01*
X0218785Y0249808D01*
X0218926Y0249880D01*
X0219068Y0249950D01*
X0219212Y0250015D01*
X0219358Y0250077D01*
X0219505Y0250135D01*
X0219654Y0250190D01*
X0219804Y0250241D01*
X0219955Y0250288D01*
X0220107Y0250331D01*
X0220260Y0250370D01*
X0220415Y0250406D01*
X0220570Y0250437D01*
X0220726Y0250465D01*
X0220882Y0250489D01*
X0221039Y0250509D01*
X0221197Y0250525D01*
X0221354Y0250537D01*
X0221513Y0250545D01*
X0221671Y0250549D01*
X0221829Y0250549D01*
X0221987Y0250545D01*
X0222146Y0250537D01*
X0222303Y0250525D01*
X0222461Y0250509D01*
X0222618Y0250489D01*
X0222774Y0250465D01*
X0222930Y0250437D01*
X0223085Y0250406D01*
X0223240Y0250370D01*
X0223393Y0250331D01*
X0223545Y0250288D01*
X0223696Y0250241D01*
X0223846Y0250190D01*
X0223995Y0250135D01*
X0224142Y0250077D01*
X0224288Y0250015D01*
X0224432Y0249950D01*
X0224574Y0249880D01*
X0224715Y0249808D01*
X0224854Y0249731D01*
X0224990Y0249652D01*
X0225125Y0249568D01*
X0225258Y0249482D01*
X0225388Y0249392D01*
X0225516Y0249299D01*
X0225642Y0249203D01*
X0225765Y0249103D01*
X0225886Y0249001D01*
X0226004Y0248896D01*
X0226119Y0248787D01*
X0226232Y0248676D01*
X0226342Y0248562D01*
X0226449Y0248445D01*
X0226553Y0248326D01*
X0226654Y0248204D01*
X0226751Y0248079D01*
X0226846Y0247952D01*
X0226937Y0247823D01*
X0227026Y0247692D01*
X0227110Y0247558D01*
X0227192Y0247422D01*
X0227270Y0247285D01*
X0227344Y0247145D01*
X0227415Y0247003D01*
X0227483Y0246860D01*
X0227547Y0246715D01*
X0227607Y0246569D01*
X0227663Y0246421D01*
X0227716Y0246272D01*
X0227765Y0246121D01*
X0227810Y0245969D01*
X0227851Y0245816D01*
X0227889Y0245663D01*
X0227922Y0245508D01*
X0227952Y0245352D01*
X0227978Y0245196D01*
X0227999Y0245039D01*
X0228017Y0244882D01*
X0228031Y0244724D01*
X0228041Y0244566D01*
X0228047Y0244408D01*
X0228049Y0244250D01*
X0228047Y0244092D01*
X0228041Y0243934D01*
X0228031Y0243776D01*
X0228017Y0243618D01*
X0227999Y0243461D01*
X0227978Y0243304D01*
X0227952Y0243148D01*
X0227922Y0242992D01*
X0227889Y0242837D01*
X0227851Y0242684D01*
X0227810Y0242531D01*
X0227765Y0242379D01*
X0227716Y0242228D01*
X0227663Y0242079D01*
X0227607Y0241931D01*
X0227547Y0241785D01*
X0227483Y0241640D01*
X0227415Y0241497D01*
X0227344Y0241355D01*
X0227270Y0241215D01*
X0227192Y0241078D01*
X0227110Y0240942D01*
X0227026Y0240808D01*
X0226937Y0240677D01*
X0226846Y0240548D01*
X0226751Y0240421D01*
X0226654Y0240296D01*
X0226553Y0240174D01*
X0226449Y0240055D01*
X0226342Y0239938D01*
X0226232Y0239824D01*
X0226119Y0239713D01*
X0226004Y0239604D01*
X0225886Y0239499D01*
X0225765Y0239397D01*
X0225642Y0239297D01*
X0225516Y0239201D01*
X0225388Y0239108D01*
X0225258Y0239018D01*
X0225125Y0238932D01*
X0224990Y0238848D01*
X0224854Y0238769D01*
X0224715Y0238692D01*
X0224574Y0238620D01*
X0224432Y0238550D01*
X0224288Y0238485D01*
X0224142Y0238423D01*
X0223995Y0238365D01*
X0223846Y0238310D01*
X0223696Y0238259D01*
X0223545Y0238212D01*
X0223393Y0238169D01*
X0223240Y0238130D01*
X0223085Y0238094D01*
X0222930Y0238063D01*
X0222774Y0238035D01*
X0222618Y0238011D01*
X0222461Y0237991D01*
X0222303Y0237975D01*
X0222146Y0237963D01*
X0221987Y0237955D01*
X0221829Y0237951D01*
X0221671Y0237951D01*
X0221513Y0237955D01*
X0221354Y0237963D01*
X0221197Y0237975D01*
X0221039Y0237991D01*
X0220882Y0238011D01*
X0220726Y0238035D01*
X0220570Y0238063D01*
X0220415Y0238094D01*
X0220260Y0238130D01*
X0220107Y0238169D01*
X0219955Y0238212D01*
X0219804Y0238259D01*
X0219654Y0238310D01*
X0219505Y0238365D01*
X0219358Y0238423D01*
X0219212Y0238485D01*
X0219068Y0238550D01*
X0218926Y0238620D01*
X0218785Y0238692D01*
X0218646Y0238769D01*
X0218510Y0238848D01*
X0218375Y0238932D01*
X0218242Y0239018D01*
X0218112Y0239108D01*
X0217984Y0239201D01*
X0217858Y0239297D01*
X0217735Y0239397D01*
X0217614Y0239499D01*
X0217496Y0239604D01*
X0217381Y0239713D01*
X0217268Y0239824D01*
X0217158Y0239938D01*
X0217051Y0240055D01*
X0216947Y0240174D01*
X0216846Y0240296D01*
X0216749Y0240421D01*
X0216654Y0240548D01*
X0216563Y0240677D01*
X0216474Y0240808D01*
X0216390Y0240942D01*
X0216308Y0241078D01*
X0216230Y0241215D01*
X0216156Y0241355D01*
X0216085Y0241497D01*
X0216017Y0241640D01*
X0215953Y0241785D01*
X0215893Y0241931D01*
X0215837Y0242079D01*
X0215784Y0242228D01*
X0215735Y0242379D01*
X0215690Y0242531D01*
X0215649Y0242684D01*
X0215611Y0242837D01*
X0215578Y0242992D01*
X0215548Y0243148D01*
X0215522Y0243304D01*
X0215501Y0243461D01*
X0215483Y0243618D01*
X0215469Y0243776D01*
X0215459Y0243934D01*
X0215453Y0244092D01*
X0215451Y0244250D01*
D12*
X0058000Y0158000D03*
X0058000Y0148000D03*
X0058000Y0138000D03*
X0058000Y0128000D03*
X0058000Y0118000D03*
X0058000Y0108000D03*
X0058000Y0098000D03*
X0058000Y0088000D03*
X0058000Y0078000D03*
X0058000Y0068000D03*
X0058000Y0058000D03*
X0058000Y0048000D03*
X0058000Y0038000D03*
X0058000Y0028000D03*
X0058000Y0018000D03*
X0058000Y0008000D03*
X0008000Y0008000D03*
X0008000Y0018000D03*
X0008000Y0028000D03*
X0008000Y0038000D03*
X0008000Y0048000D03*
X0008000Y0058000D03*
X0008000Y0068000D03*
X0008000Y0078000D03*
X0008000Y0088000D03*
X0008000Y0098000D03*
X0008000Y0108000D03*
X0008000Y0118000D03*
X0008000Y0128000D03*
X0008000Y0138000D03*
X0008000Y0148000D03*
X0008000Y0158000D03*
D13*
X0087375Y0140500D03*
X0097375Y0140500D03*
X0097375Y0130500D03*
X0087375Y0130500D03*
X0087375Y0120500D03*
X0097375Y0120500D03*
X0097375Y0110500D03*
X0087375Y0110500D03*
X0090500Y0079875D03*
X0080500Y0079875D03*
X0100500Y0079875D03*
D14*
X0097375Y0173000D03*
X0087375Y0173000D03*
X0087375Y0183000D03*
X0097375Y0183000D03*
X0097375Y0193000D03*
X0087375Y0193000D03*
X0087375Y0203000D03*
X0097375Y0203000D03*
X0097375Y0213000D03*
X0087375Y0213000D03*
D15*
X0138000Y0208000D03*
X0138000Y0198000D03*
X0138000Y0218000D03*
X0138000Y0228000D03*
X0138000Y0238000D03*
X0138000Y0248000D03*
X0138000Y0258000D03*
X0138000Y0268000D03*
X0138000Y0278000D03*
X0138000Y0288000D03*
X0138000Y0298000D03*
X0138000Y0308000D03*
X0198000Y0308000D03*
X0198000Y0298000D03*
X0198000Y0288000D03*
X0198000Y0278000D03*
X0198000Y0268000D03*
X0198000Y0258000D03*
X0198000Y0248000D03*
X0198000Y0238000D03*
X0198000Y0228000D03*
X0198000Y0218000D03*
X0198000Y0208000D03*
X0198000Y0198000D03*
X0198000Y0148000D03*
X0198000Y0138000D03*
X0198000Y0128000D03*
X0198000Y0118000D03*
X0198000Y0108000D03*
X0198000Y0098000D03*
X0198000Y0088000D03*
X0198000Y0078000D03*
X0198000Y0068000D03*
X0198000Y0058000D03*
X0198000Y0048000D03*
X0198000Y0038000D03*
X0215500Y0038000D03*
X0215500Y0048000D03*
X0138000Y0048000D03*
X0138000Y0038000D03*
X0138000Y0058000D03*
X0138000Y0068000D03*
X0138000Y0078000D03*
X0138000Y0088000D03*
X0138000Y0098000D03*
X0138000Y0108000D03*
X0138000Y0118000D03*
X0138000Y0128000D03*
X0138000Y0138000D03*
X0138000Y0148000D03*
X0268000Y0143000D03*
X0268000Y0133000D03*
X0268000Y0123000D03*
X0268000Y0113000D03*
X0301750Y0113000D03*
X0301750Y0123000D03*
X0301750Y0133000D03*
X0301750Y0143000D03*
X0290500Y0159250D03*
X0280500Y0159250D03*
X0278000Y0178000D03*
X0268000Y0178000D03*
X0268000Y0188000D03*
X0278000Y0188000D03*
X0278000Y0198000D03*
X0268000Y0198000D03*
X0268000Y0218000D03*
X0278000Y0218000D03*
X0278000Y0228000D03*
X0268000Y0228000D03*
X0268000Y0238000D03*
X0278000Y0238000D03*
X0215500Y0293000D03*
X0215500Y0303000D03*
X0348000Y0133000D03*
X0358000Y0133000D03*
X0358000Y0123000D03*
X0348000Y0123000D03*
D16*
X0348050Y0223157D02*
X0357950Y0223157D01*
X0357950Y0242843D02*
X0348050Y0242843D01*
D17*
X0353000Y0200087D03*
X0353000Y0186307D03*
X0353000Y0165087D03*
X0353000Y0151307D03*
D18*
X0215500Y0068000D03*
X0215500Y0058000D03*
X0215500Y0273000D03*
X0215500Y0283000D03*
D19*
X0358000Y0105000D03*
D20*
X0348000Y0105000D03*
D21*
X0343937Y0109139D02*
X0326100Y0109139D01*
X0326100Y0112337D02*
X0370100Y0112337D01*
X0370100Y0109139D02*
X0362488Y0109139D01*
X0364100Y0107527D02*
X0360527Y0111100D01*
X0358000Y0111100D01*
X0358000Y0105000D01*
X0364100Y0105000D01*
X0364100Y0107527D01*
X0364100Y0105940D02*
X0370100Y0105940D01*
X0370100Y0102742D02*
X0364100Y0102742D01*
X0364100Y0102473D02*
X0364100Y0105000D01*
X0358000Y0105000D01*
X0358000Y0105000D01*
X0358000Y0105000D01*
X0358000Y0098900D01*
X0360527Y0098900D01*
X0364100Y0102473D01*
X0361170Y0099543D02*
X0370100Y0099543D01*
X0370100Y0096345D02*
X0325670Y0096345D01*
X0325628Y0096244D02*
X0326100Y0097383D01*
X0326100Y0113617D01*
X0325628Y0114756D01*
X0315628Y0124756D01*
X0314756Y0125628D01*
X0313617Y0126100D01*
X0306960Y0126100D01*
X0306837Y0126399D01*
X0305383Y0127852D01*
X0305854Y0128195D01*
X0306555Y0128896D01*
X0307138Y0129698D01*
X0307588Y0130582D01*
X0307895Y0131525D01*
X0308050Y0132504D01*
X0308050Y0133000D01*
X0308050Y0133496D01*
X0307895Y0134475D01*
X0307588Y0135418D01*
X0307138Y0136302D01*
X0306555Y0137104D01*
X0305854Y0137805D01*
X0305383Y0138148D01*
X0306837Y0139601D01*
X0307750Y0141807D01*
X0307750Y0144193D01*
X0306837Y0146399D01*
X0305149Y0148087D01*
X0302943Y0149000D01*
X0300557Y0149000D01*
X0298351Y0148087D01*
X0296663Y0146399D01*
X0295750Y0144193D01*
X0295750Y0141807D01*
X0296663Y0139601D01*
X0298117Y0138148D01*
X0297646Y0137805D01*
X0296945Y0137104D01*
X0296362Y0136302D01*
X0295912Y0135418D01*
X0295605Y0134475D01*
X0295450Y0133496D01*
X0295450Y0133000D01*
X0301750Y0133000D01*
X0308050Y0133000D01*
X0301750Y0133000D01*
X0301750Y0133000D01*
X0301750Y0133000D01*
X0295450Y0133000D01*
X0295450Y0132504D01*
X0295605Y0131525D01*
X0295912Y0130582D01*
X0296362Y0129698D01*
X0296945Y0128896D01*
X0297646Y0128195D01*
X0298117Y0127852D01*
X0296663Y0126399D01*
X0295750Y0124193D01*
X0295750Y0121807D01*
X0296663Y0119601D01*
X0298265Y0118000D01*
X0296663Y0116399D01*
X0295750Y0114193D01*
X0295750Y0111807D01*
X0296663Y0109601D01*
X0298351Y0107913D01*
X0300557Y0107000D01*
X0302943Y0107000D01*
X0305149Y0107913D01*
X0306837Y0109601D01*
X0306889Y0109727D01*
X0309900Y0106716D01*
X0309900Y0099284D01*
X0306716Y0096100D01*
X0244284Y0096100D01*
X0230628Y0109756D01*
X0229756Y0110628D01*
X0228617Y0111100D01*
X0212383Y0111100D01*
X0211244Y0110628D01*
X0206244Y0105628D01*
X0205372Y0104756D01*
X0204900Y0103617D01*
X0204900Y0099284D01*
X0204000Y0098384D01*
X0204000Y0099193D01*
X0203087Y0101399D01*
X0201485Y0103000D01*
X0203087Y0104601D01*
X0204000Y0106807D01*
X0204000Y0109193D01*
X0203919Y0109388D01*
X0205090Y0109873D01*
X0205117Y0109900D01*
X0208617Y0109900D01*
X0209756Y0110372D01*
X0264756Y0165372D01*
X0265628Y0166244D01*
X0266100Y0167383D01*
X0266100Y0171716D01*
X0266508Y0172124D01*
X0266807Y0172000D01*
X0269193Y0172000D01*
X0271399Y0172913D01*
X0273000Y0174515D01*
X0274601Y0172913D01*
X0276807Y0172000D01*
X0279193Y0172000D01*
X0281399Y0172913D01*
X0283087Y0174601D01*
X0284000Y0176807D01*
X0284000Y0179193D01*
X0283087Y0181399D01*
X0281485Y0183000D01*
X0283087Y0184601D01*
X0284000Y0186807D01*
X0284000Y0189193D01*
X0283087Y0191399D01*
X0281485Y0193000D01*
X0283087Y0194601D01*
X0284000Y0196807D01*
X0284000Y0199193D01*
X0283087Y0201399D01*
X0281399Y0203087D01*
X0279193Y0204000D01*
X0276807Y0204000D01*
X0274601Y0203087D01*
X0273000Y0201485D01*
X0271399Y0203087D01*
X0269193Y0204000D01*
X0266807Y0204000D01*
X0264601Y0203087D01*
X0262913Y0201399D01*
X0262790Y0201100D01*
X0262383Y0201100D01*
X0261244Y0200628D01*
X0260372Y0199756D01*
X0255372Y0194756D01*
X0254900Y0193617D01*
X0254900Y0189284D01*
X0216716Y0151100D01*
X0203210Y0151100D01*
X0203087Y0151399D01*
X0201399Y0153087D01*
X0199193Y0154000D01*
X0196807Y0154000D01*
X0194601Y0153087D01*
X0192913Y0151399D01*
X0192000Y0149193D01*
X0192000Y0146807D01*
X0192913Y0144601D01*
X0194515Y0143000D01*
X0192913Y0141399D01*
X0192000Y0139193D01*
X0192000Y0136807D01*
X0192913Y0134601D01*
X0194515Y0133000D01*
X0192913Y0131399D01*
X0192000Y0129193D01*
X0192000Y0126807D01*
X0192913Y0124601D01*
X0194515Y0123000D01*
X0192913Y0121399D01*
X0192000Y0119193D01*
X0192000Y0116807D01*
X0192913Y0114601D01*
X0194515Y0113000D01*
X0192913Y0111399D01*
X0192000Y0109193D01*
X0192000Y0106807D01*
X0192913Y0104601D01*
X0194515Y0103000D01*
X0192913Y0101399D01*
X0192000Y0099193D01*
X0192000Y0096807D01*
X0192913Y0094601D01*
X0194515Y0093000D01*
X0192913Y0091399D01*
X0192000Y0089193D01*
X0192000Y0086807D01*
X0192913Y0084601D01*
X0194515Y0083000D01*
X0192913Y0081399D01*
X0192000Y0079193D01*
X0192000Y0076807D01*
X0192913Y0074601D01*
X0194367Y0073148D01*
X0193896Y0072805D01*
X0193195Y0072104D01*
X0192612Y0071302D01*
X0192162Y0070418D01*
X0191855Y0069475D01*
X0191700Y0068496D01*
X0191700Y0068000D01*
X0198000Y0068000D01*
X0204300Y0068000D01*
X0204300Y0068496D01*
X0204145Y0069475D01*
X0203838Y0070418D01*
X0203388Y0071302D01*
X0202805Y0072104D01*
X0202104Y0072805D01*
X0201633Y0073148D01*
X0203087Y0074601D01*
X0203210Y0074900D01*
X0208617Y0074900D01*
X0209756Y0075372D01*
X0219284Y0084900D01*
X0225799Y0084900D01*
X0225541Y0084643D01*
X0225100Y0083577D01*
X0225100Y0030900D01*
X0132951Y0030900D01*
X0114650Y0049201D01*
X0114650Y0074827D01*
X0114208Y0075893D01*
X0113393Y0076708D01*
X0112327Y0077150D01*
X0105621Y0077150D01*
X0105875Y0077649D01*
X0106157Y0078517D01*
X0106300Y0079419D01*
X0106300Y0079875D01*
X0100500Y0079875D01*
X0100500Y0079875D01*
X0106300Y0079875D01*
X0106300Y0080332D01*
X0106157Y0081233D01*
X0105875Y0082102D01*
X0105461Y0082915D01*
X0104924Y0083654D01*
X0104278Y0084299D01*
X0103540Y0084836D01*
X0102726Y0085250D01*
X0101858Y0085532D01*
X0100956Y0085675D01*
X0100500Y0085675D01*
X0100500Y0079875D01*
X0100500Y0085675D01*
X0100044Y0085675D01*
X0099142Y0085532D01*
X0098274Y0085250D01*
X0097460Y0084836D01*
X0096722Y0084299D01*
X0096076Y0083654D01*
X0095539Y0082915D01*
X0095349Y0082541D01*
X0095163Y0082991D01*
X0093615Y0084538D01*
X0091594Y0085375D01*
X0090009Y0085375D01*
X0089884Y0085500D01*
X0104756Y0100372D01*
X0105628Y0101244D01*
X0106100Y0102383D01*
X0106100Y0145883D01*
X0106127Y0145910D01*
X0106689Y0147266D01*
X0106689Y0148734D01*
X0106127Y0150090D01*
X0105090Y0151127D01*
X0103734Y0151689D01*
X0102266Y0151689D01*
X0100910Y0151127D01*
X0099873Y0150090D01*
X0099311Y0148734D01*
X0099311Y0147266D01*
X0099873Y0145910D01*
X0099900Y0145883D01*
X0099900Y0145407D01*
X0098469Y0146000D01*
X0096281Y0146000D01*
X0094260Y0145163D01*
X0092713Y0143615D01*
X0092375Y0142801D01*
X0092037Y0143615D01*
X0090490Y0145163D01*
X0088469Y0146000D01*
X0086281Y0146000D01*
X0084259Y0145163D01*
X0082712Y0143615D01*
X0081875Y0141594D01*
X0081875Y0139406D01*
X0082712Y0137384D01*
X0084259Y0135837D01*
X0085074Y0135500D01*
X0084259Y0135163D01*
X0082712Y0133615D01*
X0081875Y0131594D01*
X0081875Y0129406D01*
X0082712Y0127384D01*
X0084259Y0125837D01*
X0085074Y0125500D01*
X0084259Y0125163D01*
X0082712Y0123615D01*
X0081875Y0121594D01*
X0081875Y0119406D01*
X0082712Y0117384D01*
X0084259Y0115837D01*
X0085074Y0115500D01*
X0084259Y0115163D01*
X0082712Y0113615D01*
X0081875Y0111594D01*
X0081875Y0109406D01*
X0082712Y0107384D01*
X0084259Y0105837D01*
X0086281Y0105000D01*
X0088469Y0105000D01*
X0090490Y0105837D01*
X0092037Y0107384D01*
X0092375Y0108199D01*
X0092713Y0107384D01*
X0094260Y0105837D01*
X0096281Y0105000D01*
X0098469Y0105000D01*
X0099900Y0105593D01*
X0099900Y0104284D01*
X0086716Y0091100D01*
X0081185Y0091100D01*
X0083044Y0092959D01*
X0084399Y0096230D01*
X0084399Y0099770D01*
X0083044Y0103041D01*
X0080541Y0105544D01*
X0077270Y0106899D01*
X0073730Y0106899D01*
X0070459Y0105544D01*
X0067956Y0103041D01*
X0066601Y0099770D01*
X0066601Y0096230D01*
X0067956Y0092959D01*
X0069573Y0091341D01*
X0068734Y0091689D01*
X0067266Y0091689D01*
X0065910Y0091127D01*
X0065883Y0091100D01*
X0062355Y0091100D01*
X0060986Y0092469D01*
X0059704Y0093000D01*
X0060986Y0093531D01*
X0062469Y0095014D01*
X0063272Y0096951D01*
X0063272Y0099049D01*
X0062469Y0100986D01*
X0060986Y0102469D01*
X0059704Y0103000D01*
X0060986Y0103531D01*
X0062469Y0105014D01*
X0063272Y0106951D01*
X0063272Y0109049D01*
X0062469Y0110986D01*
X0060986Y0112469D01*
X0059704Y0113000D01*
X0060986Y0113531D01*
X0062469Y0115014D01*
X0063272Y0116951D01*
X0063272Y0119049D01*
X0062469Y0120986D01*
X0060986Y0122469D01*
X0059704Y0123000D01*
X0060986Y0123531D01*
X0062469Y0125014D01*
X0063272Y0126951D01*
X0063272Y0129049D01*
X0062469Y0130986D01*
X0060986Y0132469D01*
X0059704Y0133000D01*
X0060986Y0133531D01*
X0062469Y0135014D01*
X0063272Y0136951D01*
X0063272Y0139049D01*
X0062469Y0140986D01*
X0060986Y0142469D01*
X0059704Y0143000D01*
X0060986Y0143531D01*
X0062469Y0145014D01*
X0063272Y0146951D01*
X0063272Y0149049D01*
X0062469Y0150986D01*
X0060986Y0152469D01*
X0059704Y0153000D01*
X0060986Y0153531D01*
X0062355Y0154900D01*
X0146716Y0154900D01*
X0179900Y0121716D01*
X0179900Y0042383D01*
X0180372Y0041244D01*
X0186244Y0035372D01*
X0187383Y0034900D01*
X0192790Y0034900D01*
X0192913Y0034601D01*
X0194601Y0032913D01*
X0196807Y0032000D01*
X0199193Y0032000D01*
X0201399Y0032913D01*
X0203087Y0034601D01*
X0204000Y0036807D01*
X0204000Y0039193D01*
X0203087Y0041399D01*
X0201485Y0043000D01*
X0203087Y0044601D01*
X0204000Y0046807D01*
X0204000Y0049193D01*
X0203087Y0051399D01*
X0201633Y0052852D01*
X0202104Y0053195D01*
X0202805Y0053896D01*
X0203388Y0054698D01*
X0203838Y0055582D01*
X0204145Y0056525D01*
X0204300Y0057504D01*
X0204300Y0058000D01*
X0204300Y0058496D01*
X0204145Y0059475D01*
X0203838Y0060418D01*
X0203388Y0061302D01*
X0202805Y0062104D01*
X0202104Y0062805D01*
X0201836Y0063000D01*
X0202104Y0063195D01*
X0202805Y0063896D01*
X0203388Y0064698D01*
X0203838Y0065582D01*
X0204145Y0066525D01*
X0204300Y0067504D01*
X0204300Y0068000D01*
X0198000Y0068000D01*
X0198000Y0068000D01*
X0198000Y0061700D01*
X0198000Y0058000D01*
X0198000Y0058000D01*
X0204300Y0058000D01*
X0198000Y0058000D01*
X0198000Y0058000D01*
X0198000Y0068000D01*
X0198000Y0068000D01*
X0198000Y0068000D01*
X0191700Y0068000D01*
X0191700Y0067504D01*
X0191855Y0066525D01*
X0192162Y0065582D01*
X0192612Y0064698D01*
X0193195Y0063896D01*
X0193896Y0063195D01*
X0194164Y0063000D01*
X0193896Y0062805D01*
X0193195Y0062104D01*
X0192612Y0061302D01*
X0192162Y0060418D01*
X0191855Y0059475D01*
X0191700Y0058496D01*
X0191700Y0058000D01*
X0198000Y0058000D01*
X0198000Y0058000D01*
X0191700Y0058000D01*
X0191700Y0057504D01*
X0191855Y0056525D01*
X0192162Y0055582D01*
X0192612Y0054698D01*
X0193195Y0053896D01*
X0193896Y0053195D01*
X0194367Y0052852D01*
X0193449Y0051935D01*
X0191100Y0054284D01*
X0191100Y0128617D01*
X0190628Y0129756D01*
X0155628Y0164756D01*
X0154756Y0165628D01*
X0153617Y0166100D01*
X0126206Y0166100D01*
X0126689Y0167266D01*
X0126689Y0168734D01*
X0126127Y0170090D01*
X0125090Y0171127D01*
X0123734Y0171689D01*
X0123695Y0171689D01*
X0114756Y0180628D01*
X0113617Y0181100D01*
X0110117Y0181100D01*
X0110090Y0181127D01*
X0108734Y0181689D01*
X0107266Y0181689D01*
X0105910Y0181127D01*
X0104873Y0180090D01*
X0104311Y0178734D01*
X0104311Y0177266D01*
X0104873Y0175910D01*
X0105910Y0174873D01*
X0107266Y0174311D01*
X0108734Y0174311D01*
X0110090Y0174873D01*
X0110117Y0174900D01*
X0111716Y0174900D01*
X0119311Y0167305D01*
X0119311Y0167266D01*
X0119794Y0166100D01*
X0095117Y0166100D01*
X0095090Y0166127D01*
X0093734Y0166689D01*
X0092266Y0166689D01*
X0090910Y0166127D01*
X0089873Y0165090D01*
X0089311Y0163734D01*
X0089311Y0162266D01*
X0089794Y0161100D01*
X0067701Y0161100D01*
X0067958Y0161357D01*
X0068400Y0162423D01*
X0068400Y0208049D01*
X0080451Y0220100D01*
X0119883Y0220100D01*
X0119873Y0220090D01*
X0119311Y0218734D01*
X0119311Y0217266D01*
X0119873Y0215910D01*
X0120910Y0214873D01*
X0122266Y0214311D01*
X0123734Y0214311D01*
X0125090Y0214873D01*
X0126127Y0215910D01*
X0126689Y0217266D01*
X0126689Y0217305D01*
X0133449Y0224065D01*
X0134515Y0223000D01*
X0132913Y0221399D01*
X0132000Y0219193D01*
X0132000Y0216807D01*
X0132913Y0214601D01*
X0134515Y0213000D01*
X0132913Y0211399D01*
X0132000Y0209193D01*
X0132000Y0206807D01*
X0132913Y0204601D01*
X0134515Y0203000D01*
X0132913Y0201399D01*
X0132000Y0199193D01*
X0132000Y0196807D01*
X0132913Y0194601D01*
X0134601Y0192913D01*
X0136807Y0192000D01*
X0139193Y0192000D01*
X0141399Y0192913D01*
X0143087Y0194601D01*
X0143092Y0194614D01*
X0157334Y0180372D01*
X0158473Y0179900D01*
X0203617Y0179900D01*
X0204756Y0180372D01*
X0224756Y0200372D01*
X0225628Y0201244D01*
X0226100Y0202383D01*
X0226100Y0216716D01*
X0244284Y0234900D01*
X0250883Y0234900D01*
X0250910Y0234873D01*
X0252266Y0234311D01*
X0253734Y0234311D01*
X0255090Y0234873D01*
X0256127Y0235910D01*
X0256689Y0237266D01*
X0256689Y0238734D01*
X0256127Y0240090D01*
X0255090Y0241127D01*
X0253734Y0241689D01*
X0252266Y0241689D01*
X0250910Y0241127D01*
X0250883Y0241100D01*
X0242383Y0241100D01*
X0241244Y0240628D01*
X0240372Y0239756D01*
X0220372Y0219756D01*
X0219900Y0218617D01*
X0219900Y0204284D01*
X0216100Y0200484D01*
X0216100Y0216716D01*
X0223695Y0224311D01*
X0223734Y0224311D01*
X0225090Y0224873D01*
X0226127Y0225910D01*
X0226689Y0227266D01*
X0226689Y0228734D01*
X0226127Y0230090D01*
X0225090Y0231127D01*
X0223734Y0231689D01*
X0222266Y0231689D01*
X0220910Y0231127D01*
X0219873Y0230090D01*
X0219311Y0228734D01*
X0219311Y0228695D01*
X0210372Y0219756D01*
X0209900Y0218617D01*
X0209900Y0206206D01*
X0208734Y0206689D01*
X0207266Y0206689D01*
X0205910Y0206127D01*
X0204873Y0205090D01*
X0204311Y0203734D01*
X0204311Y0202266D01*
X0204873Y0200910D01*
X0204900Y0200883D01*
X0204900Y0199284D01*
X0204000Y0198384D01*
X0204000Y0199193D01*
X0203087Y0201399D01*
X0201485Y0203000D01*
X0203087Y0204601D01*
X0204000Y0206807D01*
X0204000Y0209193D01*
X0203087Y0211399D01*
X0201485Y0213000D01*
X0203087Y0214601D01*
X0204000Y0216807D01*
X0204000Y0219193D01*
X0203087Y0221399D01*
X0201485Y0223000D01*
X0203087Y0224601D01*
X0204000Y0226807D01*
X0204000Y0229193D01*
X0203087Y0231399D01*
X0201485Y0233000D01*
X0203087Y0234601D01*
X0204000Y0236807D01*
X0204000Y0239193D01*
X0203087Y0241399D01*
X0201485Y0243000D01*
X0203087Y0244601D01*
X0204000Y0246807D01*
X0204000Y0249193D01*
X0203087Y0251399D01*
X0201485Y0253000D01*
X0203087Y0254601D01*
X0204000Y0256807D01*
X0204000Y0259193D01*
X0203087Y0261399D01*
X0201485Y0263000D01*
X0203087Y0264601D01*
X0204000Y0266807D01*
X0204000Y0269193D01*
X0203087Y0271399D01*
X0201485Y0273000D01*
X0203087Y0274601D01*
X0204000Y0276807D01*
X0204000Y0279193D01*
X0203087Y0281399D01*
X0201485Y0283000D01*
X0203087Y0284601D01*
X0204000Y0286807D01*
X0204000Y0289193D01*
X0203087Y0291399D01*
X0201633Y0292852D01*
X0202104Y0293195D01*
X0202805Y0293896D01*
X0203388Y0294698D01*
X0203838Y0295582D01*
X0204145Y0296525D01*
X0204300Y0297504D01*
X0204300Y0298000D01*
X0204300Y0298496D01*
X0204145Y0299475D01*
X0203838Y0300418D01*
X0203388Y0301302D01*
X0202805Y0302104D01*
X0202104Y0302805D01*
X0201633Y0303148D01*
X0203087Y0304601D01*
X0204000Y0306807D01*
X0204000Y0309193D01*
X0203087Y0311399D01*
X0201399Y0313087D01*
X0199193Y0314000D01*
X0196807Y0314000D01*
X0194601Y0313087D01*
X0192913Y0311399D01*
X0192000Y0309193D01*
X0192000Y0306807D01*
X0192913Y0304601D01*
X0194367Y0303148D01*
X0193896Y0302805D01*
X0193195Y0302104D01*
X0192612Y0301302D01*
X0192162Y0300418D01*
X0191855Y0299475D01*
X0191700Y0298496D01*
X0191700Y0298000D01*
X0198000Y0298000D01*
X0204300Y0298000D01*
X0198000Y0298000D01*
X0198000Y0298000D01*
X0198000Y0298000D01*
X0191700Y0298000D01*
X0191700Y0297504D01*
X0191855Y0296525D01*
X0192162Y0295582D01*
X0192612Y0294698D01*
X0193195Y0293896D01*
X0193896Y0293195D01*
X0194367Y0292852D01*
X0192913Y0291399D01*
X0192000Y0289193D01*
X0192000Y0286807D01*
X0192913Y0284601D01*
X0194515Y0283000D01*
X0192913Y0281399D01*
X0192000Y0279193D01*
X0192000Y0276807D01*
X0192913Y0274601D01*
X0194515Y0273000D01*
X0192913Y0271399D01*
X0192000Y0269193D01*
X0192000Y0266807D01*
X0192913Y0264601D01*
X0194515Y0263000D01*
X0192913Y0261399D01*
X0192000Y0259193D01*
X0192000Y0256807D01*
X0192913Y0254601D01*
X0194515Y0253000D01*
X0192913Y0251399D01*
X0192000Y0249193D01*
X0192000Y0246807D01*
X0192913Y0244601D01*
X0194515Y0243000D01*
X0192913Y0241399D01*
X0192000Y0239193D01*
X0192000Y0236807D01*
X0192913Y0234601D01*
X0194515Y0233000D01*
X0192913Y0231399D01*
X0192000Y0229193D01*
X0192000Y0226807D01*
X0192913Y0224601D01*
X0194515Y0223000D01*
X0192913Y0221399D01*
X0192000Y0219193D01*
X0192000Y0216807D01*
X0192913Y0214601D01*
X0194515Y0213000D01*
X0192913Y0211399D01*
X0192000Y0209193D01*
X0192000Y0206807D01*
X0192913Y0204601D01*
X0194515Y0203000D01*
X0192913Y0201399D01*
X0192000Y0199193D01*
X0192000Y0198384D01*
X0149756Y0240628D01*
X0148617Y0241100D01*
X0143210Y0241100D01*
X0143087Y0241399D01*
X0141485Y0243000D01*
X0143087Y0244601D01*
X0144000Y0246807D01*
X0144000Y0247616D01*
X0184311Y0207305D01*
X0184311Y0207266D01*
X0184873Y0205910D01*
X0185910Y0204873D01*
X0187266Y0204311D01*
X0188734Y0204311D01*
X0190090Y0204873D01*
X0191127Y0205910D01*
X0191689Y0207266D01*
X0191689Y0208734D01*
X0191127Y0210090D01*
X0190090Y0211127D01*
X0188734Y0211689D01*
X0188695Y0211689D01*
X0143876Y0256508D01*
X0144000Y0256807D01*
X0144000Y0257616D01*
X0179311Y0222305D01*
X0179311Y0222266D01*
X0179873Y0220910D01*
X0180910Y0219873D01*
X0182266Y0219311D01*
X0183734Y0219311D01*
X0185090Y0219873D01*
X0186127Y0220910D01*
X0186689Y0222266D01*
X0186689Y0223734D01*
X0186127Y0225090D01*
X0185090Y0226127D01*
X0183734Y0226689D01*
X0183695Y0226689D01*
X0143876Y0266508D01*
X0144000Y0266807D01*
X0144000Y0269193D01*
X0143087Y0271399D01*
X0141633Y0272852D01*
X0142104Y0273195D01*
X0142805Y0273896D01*
X0143388Y0274698D01*
X0143838Y0275582D01*
X0144145Y0276525D01*
X0144300Y0277504D01*
X0144300Y0278000D01*
X0144300Y0278496D01*
X0144145Y0279475D01*
X0143838Y0280418D01*
X0143388Y0281302D01*
X0142805Y0282104D01*
X0142104Y0282805D01*
X0141836Y0283000D01*
X0142104Y0283195D01*
X0142805Y0283896D01*
X0143388Y0284698D01*
X0143838Y0285582D01*
X0144145Y0286525D01*
X0144300Y0287504D01*
X0144300Y0288000D01*
X0144300Y0288496D01*
X0144145Y0289475D01*
X0143838Y0290418D01*
X0143388Y0291302D01*
X0142805Y0292104D01*
X0142104Y0292805D01*
X0141633Y0293148D01*
X0143087Y0294601D01*
X0144000Y0296807D01*
X0144000Y0299193D01*
X0143087Y0301399D01*
X0141485Y0303000D01*
X0143087Y0304601D01*
X0144000Y0306807D01*
X0144000Y0309193D01*
X0143087Y0311399D01*
X0141399Y0313087D01*
X0139193Y0314000D01*
X0136807Y0314000D01*
X0134601Y0313087D01*
X0132913Y0311399D01*
X0132000Y0309193D01*
X0132000Y0306807D01*
X0132913Y0304601D01*
X0134515Y0303000D01*
X0132913Y0301399D01*
X0132000Y0299193D01*
X0132000Y0296807D01*
X0132913Y0294601D01*
X0134367Y0293148D01*
X0133896Y0292805D01*
X0133195Y0292104D01*
X0132612Y0291302D01*
X0132162Y0290418D01*
X0131855Y0289475D01*
X0131700Y0288496D01*
X0131700Y0288000D01*
X0138000Y0288000D01*
X0144300Y0288000D01*
X0138000Y0288000D01*
X0138000Y0288000D01*
X0138000Y0278000D01*
X0138000Y0278000D01*
X0144300Y0278000D01*
X0138000Y0278000D01*
X0138000Y0278000D01*
X0138000Y0284300D01*
X0138000Y0288000D01*
X0138000Y0288000D01*
X0138000Y0288000D01*
X0131700Y0288000D01*
X0131700Y0287504D01*
X0131855Y0286525D01*
X0132162Y0285582D01*
X0132612Y0284698D01*
X0133195Y0283896D01*
X0133896Y0283195D01*
X0134164Y0283000D01*
X0133896Y0282805D01*
X0133195Y0282104D01*
X0132612Y0281302D01*
X0132162Y0280418D01*
X0131855Y0279475D01*
X0131700Y0278496D01*
X0131700Y0278000D01*
X0138000Y0278000D01*
X0138000Y0278000D01*
X0131700Y0278000D01*
X0131700Y0277504D01*
X0131855Y0276525D01*
X0132162Y0275582D01*
X0132612Y0274698D01*
X0133195Y0273896D01*
X0133896Y0273195D01*
X0134367Y0272852D01*
X0132913Y0271399D01*
X0132000Y0269193D01*
X0132000Y0266807D01*
X0132913Y0264601D01*
X0134515Y0263000D01*
X0132913Y0261399D01*
X0132000Y0259193D01*
X0132000Y0256807D01*
X0132913Y0254601D01*
X0134515Y0253000D01*
X0132913Y0251399D01*
X0132000Y0249193D01*
X0132000Y0246807D01*
X0132124Y0246508D01*
X0130172Y0244556D01*
X0129700Y0243417D01*
X0129700Y0229084D01*
X0125900Y0225284D01*
X0125900Y0315100D01*
X0225100Y0315100D01*
X0225100Y0257423D01*
X0225541Y0256357D01*
X0226357Y0255541D01*
X0227423Y0255100D01*
X0370100Y0255100D01*
X0370100Y0085900D01*
X0315284Y0085900D01*
X0324756Y0095372D01*
X0325628Y0096244D01*
X0326100Y0099543D02*
X0346017Y0099543D01*
X0346846Y0099200D02*
X0344715Y0100083D01*
X0343083Y0101715D01*
X0342200Y0103846D01*
X0342200Y0106154D01*
X0343083Y0108285D01*
X0344715Y0109917D01*
X0346846Y0110800D01*
X0349154Y0110800D01*
X0351285Y0109917D01*
X0352788Y0108415D01*
X0355473Y0111100D01*
X0358000Y0111100D01*
X0358000Y0105000D01*
X0358000Y0105000D01*
X0358000Y0098900D01*
X0355473Y0098900D01*
X0352788Y0101585D01*
X0351285Y0100083D01*
X0349154Y0099200D01*
X0346846Y0099200D01*
X0349983Y0099543D02*
X0354830Y0099543D01*
X0358000Y0099543D02*
X0358000Y0099543D01*
X0358000Y0102742D02*
X0358000Y0102742D01*
X0358000Y0105940D02*
X0358000Y0105940D01*
X0358000Y0109139D02*
X0358000Y0109139D01*
X0353512Y0109139D02*
X0352063Y0109139D01*
X0356525Y0116855D02*
X0357504Y0116700D01*
X0358000Y0116700D01*
X0358496Y0116700D01*
X0359475Y0116855D01*
X0360418Y0117162D01*
X0361302Y0117612D01*
X0362104Y0118195D01*
X0362805Y0118896D01*
X0363388Y0119698D01*
X0363838Y0120582D01*
X0364145Y0121525D01*
X0364300Y0122504D01*
X0364300Y0123000D01*
X0364300Y0123496D01*
X0364145Y0124475D01*
X0363838Y0125418D01*
X0363388Y0126302D01*
X0362805Y0127104D01*
X0362104Y0127805D01*
X0361836Y0128000D01*
X0362104Y0128195D01*
X0362805Y0128896D01*
X0363388Y0129698D01*
X0363838Y0130582D01*
X0364145Y0131525D01*
X0364300Y0132504D01*
X0364300Y0133000D01*
X0364300Y0133496D01*
X0364145Y0134475D01*
X0363838Y0135418D01*
X0363388Y0136302D01*
X0362805Y0137104D01*
X0362104Y0137805D01*
X0361302Y0138388D01*
X0360418Y0138838D01*
X0359475Y0139145D01*
X0358496Y0139300D01*
X0358000Y0139300D01*
X0358000Y0133000D01*
X0358000Y0133000D01*
X0364300Y0133000D01*
X0358000Y0133000D01*
X0358000Y0133000D01*
X0358000Y0139300D01*
X0357504Y0139300D01*
X0356525Y0139145D01*
X0355582Y0138838D01*
X0354698Y0138388D01*
X0353896Y0137805D01*
X0353195Y0137104D01*
X0352852Y0136633D01*
X0351399Y0138087D01*
X0349193Y0139000D01*
X0346807Y0139000D01*
X0344601Y0138087D01*
X0342913Y0136399D01*
X0342000Y0134193D01*
X0342000Y0131807D01*
X0342913Y0129601D01*
X0344515Y0128000D01*
X0342913Y0126399D01*
X0342000Y0124193D01*
X0342000Y0121807D01*
X0342913Y0119601D01*
X0344601Y0117913D01*
X0346807Y0117000D01*
X0349193Y0117000D01*
X0351399Y0117913D01*
X0352852Y0119367D01*
X0353195Y0118896D01*
X0353896Y0118195D01*
X0354698Y0117612D01*
X0355582Y0117162D01*
X0356525Y0116855D01*
X0358000Y0116700D02*
X0358000Y0123000D01*
X0364300Y0123000D01*
X0358000Y0123000D01*
X0358000Y0123000D01*
X0358000Y0123000D01*
X0358000Y0133000D01*
X0358000Y0133000D01*
X0358000Y0129300D01*
X0358000Y0123000D01*
X0358000Y0116700D01*
X0358000Y0118734D02*
X0358000Y0118734D01*
X0358000Y0121933D02*
X0358000Y0121933D01*
X0358000Y0123000D02*
X0358000Y0123000D01*
X0358000Y0125132D02*
X0358000Y0125132D01*
X0358000Y0128330D02*
X0358000Y0128330D01*
X0358000Y0131529D02*
X0358000Y0131529D01*
X0358000Y0134727D02*
X0358000Y0134727D01*
X0358000Y0137926D02*
X0358000Y0137926D01*
X0354061Y0137926D02*
X0351560Y0137926D01*
X0354949Y0141507D02*
X0358551Y0142999D01*
X0361308Y0145756D01*
X0362800Y0149358D01*
X0362800Y0153256D01*
X0361308Y0156858D01*
X0358551Y0159615D01*
X0357657Y0159986D01*
X0358199Y0160527D01*
X0358749Y0161245D01*
X0359202Y0162028D01*
X0359548Y0162864D01*
X0359782Y0163738D01*
X0359900Y0164634D01*
X0359900Y0165087D01*
X0359900Y0165539D01*
X0359782Y0166436D01*
X0359548Y0167309D01*
X0359202Y0168145D01*
X0358749Y0168928D01*
X0358199Y0169646D01*
X0357559Y0170285D01*
X0356842Y0170836D01*
X0356058Y0171288D01*
X0355223Y0171634D01*
X0354349Y0171869D01*
X0353452Y0171987D01*
X0353000Y0171987D01*
X0352548Y0171987D01*
X0351651Y0171869D01*
X0350777Y0171634D01*
X0349942Y0171288D01*
X0349158Y0170836D01*
X0348441Y0170285D01*
X0347801Y0169646D01*
X0347251Y0168928D01*
X0346798Y0168145D01*
X0346452Y0167309D01*
X0346218Y0166436D01*
X0346100Y0165539D01*
X0346100Y0165087D01*
X0353000Y0165087D01*
X0353000Y0171987D01*
X0353000Y0165087D01*
X0353000Y0165087D01*
X0359900Y0165087D01*
X0353000Y0165087D01*
X0353000Y0165087D01*
X0353000Y0165087D01*
X0346100Y0165087D01*
X0346100Y0164634D01*
X0346218Y0163738D01*
X0346253Y0163606D01*
X0342800Y0167059D01*
X0342800Y0173200D01*
X0351642Y0173200D01*
X0355244Y0174692D01*
X0361308Y0180756D01*
X0362800Y0184358D01*
X0362800Y0188256D01*
X0361308Y0191858D01*
X0358551Y0194615D01*
X0357657Y0194986D01*
X0358199Y0195527D01*
X0358749Y0196245D01*
X0359202Y0197028D01*
X0359548Y0197864D01*
X0359782Y0198738D01*
X0359900Y0199634D01*
X0359900Y0200087D01*
X0359900Y0200539D01*
X0359782Y0201436D01*
X0359548Y0202309D01*
X0359202Y0203145D01*
X0358749Y0203928D01*
X0358199Y0204646D01*
X0357559Y0205285D01*
X0356842Y0205836D01*
X0356058Y0206288D01*
X0355223Y0206634D01*
X0354349Y0206869D01*
X0353452Y0206987D01*
X0353000Y0206987D01*
X0352548Y0206987D01*
X0351651Y0206869D01*
X0350777Y0206634D01*
X0350024Y0206323D01*
X0359763Y0216061D01*
X0362057Y0217011D01*
X0364096Y0219051D01*
X0365200Y0221715D01*
X0365200Y0224600D01*
X0364096Y0227264D01*
X0362057Y0229304D01*
X0359763Y0230254D01*
X0358551Y0231466D01*
X0354949Y0232957D01*
X0351051Y0232957D01*
X0347449Y0231466D01*
X0346237Y0230254D01*
X0343943Y0229304D01*
X0341904Y0227264D01*
X0340954Y0224970D01*
X0324692Y0208709D01*
X0323200Y0205107D01*
X0323200Y0161051D01*
X0324692Y0157449D01*
X0327449Y0154692D01*
X0339142Y0142999D01*
X0342744Y0141507D01*
X0354949Y0141507D01*
X0359875Y0144323D02*
X0370100Y0144323D01*
X0370100Y0147521D02*
X0362039Y0147521D01*
X0362800Y0150720D02*
X0370100Y0150720D01*
X0370100Y0153918D02*
X0362526Y0153918D01*
X0361050Y0157117D02*
X0370100Y0157117D01*
X0370100Y0160315D02*
X0357987Y0160315D01*
X0359722Y0163514D02*
X0370100Y0163514D01*
X0370100Y0166712D02*
X0359708Y0166712D01*
X0357934Y0169911D02*
X0370100Y0169911D01*
X0370100Y0173109D02*
X0342800Y0173109D01*
X0342800Y0169911D02*
X0348066Y0169911D01*
X0346292Y0166712D02*
X0343147Y0166712D01*
X0353000Y0166712D02*
X0353000Y0166712D01*
X0353000Y0169911D02*
X0353000Y0169911D01*
X0356860Y0176308D02*
X0370100Y0176308D01*
X0370100Y0179506D02*
X0360058Y0179506D01*
X0362115Y0182705D02*
X0370100Y0182705D01*
X0370100Y0185903D02*
X0362800Y0185903D01*
X0362450Y0189102D02*
X0370100Y0189102D01*
X0370100Y0192300D02*
X0360866Y0192300D01*
X0358170Y0195499D02*
X0370100Y0195499D01*
X0370100Y0198697D02*
X0359771Y0198697D01*
X0359900Y0200087D02*
X0353000Y0200087D01*
X0353000Y0206987D01*
X0353000Y0200087D01*
X0353000Y0200087D01*
X0359900Y0200087D01*
X0359659Y0201896D02*
X0370100Y0201896D01*
X0370100Y0205094D02*
X0357750Y0205094D01*
X0353000Y0205094D02*
X0353000Y0205094D01*
X0353000Y0201896D02*
X0353000Y0201896D01*
X0353000Y0200087D02*
X0353000Y0200087D01*
X0353000Y0200087D01*
X0346100Y0200087D01*
X0346100Y0200539D01*
X0346218Y0201436D01*
X0346452Y0202309D01*
X0346764Y0203062D01*
X0342800Y0199098D01*
X0342800Y0192800D01*
X0345634Y0192800D01*
X0347449Y0194615D01*
X0348343Y0194986D01*
X0347801Y0195527D01*
X0347251Y0196245D01*
X0346798Y0197028D01*
X0346452Y0197864D01*
X0346218Y0198738D01*
X0346100Y0199634D01*
X0346100Y0200087D01*
X0353000Y0200087D01*
X0347830Y0195499D02*
X0342800Y0195499D01*
X0342800Y0198697D02*
X0346229Y0198697D01*
X0346341Y0201896D02*
X0345598Y0201896D01*
X0351995Y0208293D02*
X0370100Y0208293D01*
X0370100Y0211491D02*
X0355193Y0211491D01*
X0358392Y0214690D02*
X0370100Y0214690D01*
X0370100Y0217888D02*
X0362934Y0217888D01*
X0364940Y0221087D02*
X0370100Y0221087D01*
X0370100Y0224285D02*
X0365200Y0224285D01*
X0363877Y0227484D02*
X0370100Y0227484D01*
X0370100Y0230682D02*
X0359334Y0230682D01*
X0358445Y0235293D02*
X0359426Y0235422D01*
X0360382Y0235678D01*
X0361296Y0236057D01*
X0362154Y0236551D01*
X0362939Y0237154D01*
X0363639Y0237854D01*
X0364241Y0238639D01*
X0364736Y0239496D01*
X0365115Y0240410D01*
X0365371Y0241366D01*
X0365500Y0242348D01*
X0365500Y0242792D01*
X0353050Y0242792D01*
X0353050Y0235293D01*
X0358445Y0235293D01*
X0362842Y0237079D02*
X0370100Y0237079D01*
X0370100Y0233881D02*
X0282366Y0233881D01*
X0283087Y0234601D02*
X0284000Y0236807D01*
X0284000Y0239193D01*
X0283087Y0241399D01*
X0281399Y0243087D01*
X0279193Y0244000D01*
X0276807Y0244000D01*
X0274601Y0243087D01*
X0273000Y0241485D01*
X0271399Y0243087D01*
X0269193Y0244000D01*
X0266807Y0244000D01*
X0264601Y0243087D01*
X0262913Y0241399D01*
X0262000Y0239193D01*
X0262000Y0236807D01*
X0262913Y0234601D01*
X0264515Y0233000D01*
X0262913Y0231399D01*
X0262000Y0229193D01*
X0262000Y0226807D01*
X0262913Y0224601D01*
X0264515Y0223000D01*
X0262913Y0221399D01*
X0262000Y0219193D01*
X0262000Y0216807D01*
X0262913Y0214601D01*
X0264601Y0212913D01*
X0266807Y0212000D01*
X0269193Y0212000D01*
X0271399Y0212913D01*
X0273000Y0214515D01*
X0274601Y0212913D01*
X0276807Y0212000D01*
X0279193Y0212000D01*
X0281399Y0212913D01*
X0283087Y0214601D01*
X0284000Y0216807D01*
X0284000Y0219193D01*
X0283087Y0221399D01*
X0281485Y0223000D01*
X0283087Y0224601D01*
X0284000Y0226807D01*
X0284000Y0229193D01*
X0283087Y0231399D01*
X0281485Y0233000D01*
X0283087Y0234601D01*
X0284000Y0237079D02*
X0343158Y0237079D01*
X0343061Y0237154D02*
X0343846Y0236551D01*
X0344704Y0236057D01*
X0345618Y0235678D01*
X0346574Y0235422D01*
X0347555Y0235293D01*
X0352950Y0235293D01*
X0352950Y0242792D01*
X0353050Y0242792D01*
X0353050Y0242893D01*
X0352950Y0242893D01*
X0352950Y0250393D01*
X0347555Y0250393D01*
X0346574Y0250263D01*
X0345618Y0250007D01*
X0344704Y0249628D01*
X0343846Y0249134D01*
X0343061Y0248531D01*
X0342361Y0247831D01*
X0341759Y0247046D01*
X0341264Y0246189D01*
X0340885Y0245275D01*
X0340629Y0244319D01*
X0340500Y0243337D01*
X0340500Y0242893D01*
X0352950Y0242893D01*
X0352950Y0242792D01*
X0340500Y0242792D01*
X0340500Y0242348D01*
X0340629Y0241366D01*
X0340885Y0240410D01*
X0341264Y0239496D01*
X0341759Y0238639D01*
X0342361Y0237854D01*
X0343061Y0237154D01*
X0340940Y0240278D02*
X0283551Y0240278D01*
X0280457Y0243476D02*
X0340518Y0243476D01*
X0341545Y0246675D02*
X0230378Y0246675D01*
X0230649Y0246020D02*
X0229294Y0249291D01*
X0226791Y0251794D01*
X0223520Y0253149D01*
X0219980Y0253149D01*
X0216709Y0251794D01*
X0214206Y0249291D01*
X0212851Y0246020D01*
X0212851Y0242480D01*
X0214206Y0239209D01*
X0216709Y0236706D01*
X0219980Y0235351D01*
X0223520Y0235351D01*
X0226791Y0236706D01*
X0229294Y0239209D01*
X0230649Y0242480D01*
X0230649Y0246020D01*
X0230649Y0243476D02*
X0265543Y0243476D01*
X0262449Y0240278D02*
X0255939Y0240278D01*
X0256612Y0237079D02*
X0262000Y0237079D01*
X0263634Y0233881D02*
X0243265Y0233881D01*
X0240066Y0230682D02*
X0262617Y0230682D01*
X0262000Y0227484D02*
X0236868Y0227484D01*
X0233669Y0224285D02*
X0263229Y0224285D01*
X0262784Y0221087D02*
X0230471Y0221087D01*
X0227272Y0217888D02*
X0262000Y0217888D01*
X0262877Y0214690D02*
X0226100Y0214690D01*
X0226100Y0211491D02*
X0327475Y0211491D01*
X0324520Y0208293D02*
X0226100Y0208293D01*
X0226100Y0205094D02*
X0323200Y0205094D01*
X0323200Y0201896D02*
X0282589Y0201896D01*
X0284000Y0198697D02*
X0323200Y0198697D01*
X0323200Y0195499D02*
X0283458Y0195499D01*
X0282185Y0192300D02*
X0323200Y0192300D01*
X0323200Y0189102D02*
X0284000Y0189102D01*
X0283626Y0185903D02*
X0323200Y0185903D01*
X0323200Y0182705D02*
X0281781Y0182705D01*
X0283870Y0179506D02*
X0323200Y0179506D01*
X0323200Y0176308D02*
X0283793Y0176308D01*
X0281594Y0173109D02*
X0323200Y0173109D01*
X0323200Y0169911D02*
X0266100Y0169911D01*
X0265822Y0166712D02*
X0323200Y0166712D01*
X0323200Y0163514D02*
X0294722Y0163514D01*
X0293899Y0164337D02*
X0291693Y0165250D01*
X0289307Y0165250D01*
X0287101Y0164337D01*
X0285500Y0162735D01*
X0283899Y0164337D01*
X0281693Y0165250D01*
X0279307Y0165250D01*
X0277101Y0164337D01*
X0275413Y0162649D01*
X0274500Y0160443D01*
X0274500Y0158057D01*
X0275413Y0155851D01*
X0277101Y0154163D01*
X0279307Y0153250D01*
X0281693Y0153250D01*
X0283899Y0154163D01*
X0285500Y0155765D01*
X0287101Y0154163D01*
X0289307Y0153250D01*
X0291693Y0153250D01*
X0293899Y0154163D01*
X0295587Y0155851D01*
X0296500Y0158057D01*
X0296500Y0160443D01*
X0295587Y0162649D01*
X0293899Y0164337D01*
X0296500Y0160315D02*
X0323505Y0160315D01*
X0325024Y0157117D02*
X0296111Y0157117D01*
X0293306Y0153918D02*
X0328223Y0153918D01*
X0331421Y0150720D02*
X0261100Y0150720D01*
X0261100Y0150883D02*
X0261127Y0150910D01*
X0261689Y0152266D01*
X0261689Y0153734D01*
X0261127Y0155090D01*
X0260090Y0156127D01*
X0258734Y0156689D01*
X0257266Y0156689D01*
X0255910Y0156127D01*
X0254873Y0155090D01*
X0254311Y0153734D01*
X0254311Y0152266D01*
X0254719Y0151281D01*
X0253734Y0151689D01*
X0252266Y0151689D01*
X0250910Y0151127D01*
X0249873Y0150090D01*
X0249311Y0148734D01*
X0249311Y0147266D01*
X0249873Y0145910D01*
X0249900Y0145883D01*
X0249900Y0125117D01*
X0249873Y0125090D01*
X0249311Y0123734D01*
X0249311Y0122266D01*
X0249873Y0120910D01*
X0250910Y0119873D01*
X0252266Y0119311D01*
X0253734Y0119311D01*
X0255090Y0119873D01*
X0255916Y0120699D01*
X0262124Y0114492D01*
X0262000Y0114193D01*
X0262000Y0111807D01*
X0262913Y0109601D01*
X0264601Y0107913D01*
X0266807Y0107000D01*
X0269193Y0107000D01*
X0271399Y0107913D01*
X0273087Y0109601D01*
X0274000Y0111807D01*
X0274000Y0114193D01*
X0273087Y0116399D01*
X0271485Y0118000D01*
X0273087Y0119601D01*
X0274000Y0121807D01*
X0274000Y0124193D01*
X0273087Y0126399D01*
X0271633Y0127852D01*
X0272104Y0128195D01*
X0272805Y0128896D01*
X0273388Y0129698D01*
X0273838Y0130582D01*
X0274145Y0131525D01*
X0274300Y0132504D01*
X0274300Y0133000D01*
X0274300Y0133496D01*
X0274145Y0134475D01*
X0273838Y0135418D01*
X0273388Y0136302D01*
X0272805Y0137104D01*
X0272104Y0137805D01*
X0271633Y0138148D01*
X0273087Y0139601D01*
X0274000Y0141807D01*
X0274000Y0144193D01*
X0273087Y0146399D01*
X0271399Y0148087D01*
X0269193Y0149000D01*
X0266807Y0149000D01*
X0264601Y0148087D01*
X0262913Y0146399D01*
X0262000Y0144193D01*
X0262000Y0141807D01*
X0262913Y0139601D01*
X0264367Y0138148D01*
X0263896Y0137805D01*
X0263195Y0137104D01*
X0262612Y0136302D01*
X0262162Y0135418D01*
X0261855Y0134475D01*
X0261700Y0133496D01*
X0261700Y0133000D01*
X0268000Y0133000D01*
X0274300Y0133000D01*
X0268000Y0133000D01*
X0268000Y0133000D01*
X0268000Y0133000D01*
X0261700Y0133000D01*
X0261700Y0132504D01*
X0261855Y0131525D01*
X0262162Y0130582D01*
X0262612Y0129698D01*
X0263195Y0128896D01*
X0263896Y0128195D01*
X0264367Y0127852D01*
X0262913Y0126399D01*
X0262000Y0124193D01*
X0262000Y0123384D01*
X0261100Y0124284D01*
X0261100Y0150883D01*
X0261613Y0153918D02*
X0277694Y0153918D01*
X0274889Y0157117D02*
X0256501Y0157117D01*
X0254387Y0153918D02*
X0253302Y0153918D01*
X0250503Y0150720D02*
X0250104Y0150720D01*
X0249311Y0147521D02*
X0246905Y0147521D01*
X0249900Y0144323D02*
X0243707Y0144323D01*
X0240508Y0141124D02*
X0249900Y0141124D01*
X0249900Y0137926D02*
X0237310Y0137926D01*
X0234111Y0134727D02*
X0249900Y0134727D01*
X0249900Y0131529D02*
X0230913Y0131529D01*
X0227714Y0128330D02*
X0249900Y0128330D01*
X0249900Y0125132D02*
X0224516Y0125132D01*
X0221317Y0121933D02*
X0249449Y0121933D01*
X0257881Y0118734D02*
X0218119Y0118734D01*
X0214920Y0115536D02*
X0261080Y0115536D01*
X0262000Y0112337D02*
X0211722Y0112337D01*
X0209755Y0109139D02*
X0204000Y0109139D01*
X0203641Y0105940D02*
X0206556Y0105940D01*
X0204900Y0102742D02*
X0201743Y0102742D01*
X0203855Y0099543D02*
X0204900Y0099543D01*
X0194257Y0102742D02*
X0191100Y0102742D01*
X0191100Y0105940D02*
X0192359Y0105940D01*
X0192000Y0109139D02*
X0191100Y0109139D01*
X0191100Y0112337D02*
X0193852Y0112337D01*
X0192526Y0115536D02*
X0191100Y0115536D01*
X0191100Y0118734D02*
X0192000Y0118734D01*
X0191100Y0121933D02*
X0193448Y0121933D01*
X0192694Y0125132D02*
X0191100Y0125132D01*
X0191100Y0128330D02*
X0192000Y0128330D01*
X0193043Y0131529D02*
X0188855Y0131529D01*
X0185657Y0134727D02*
X0192861Y0134727D01*
X0192000Y0137926D02*
X0182458Y0137926D01*
X0179260Y0141124D02*
X0192800Y0141124D01*
X0193192Y0144323D02*
X0176061Y0144323D01*
X0172863Y0147521D02*
X0192000Y0147521D01*
X0192632Y0150720D02*
X0169664Y0150720D01*
X0166466Y0153918D02*
X0196609Y0153918D01*
X0199391Y0153918D02*
X0219534Y0153918D01*
X0222733Y0157117D02*
X0163267Y0157117D01*
X0160069Y0160315D02*
X0225931Y0160315D01*
X0229130Y0163514D02*
X0156870Y0163514D01*
X0147698Y0153918D02*
X0139391Y0153918D01*
X0139193Y0154000D02*
X0136807Y0154000D01*
X0134601Y0153087D01*
X0132913Y0151399D01*
X0132000Y0149193D01*
X0132000Y0146807D01*
X0132913Y0144601D01*
X0134515Y0143000D01*
X0132913Y0141399D01*
X0132000Y0139193D01*
X0132000Y0136807D01*
X0132913Y0134601D01*
X0134515Y0133000D01*
X0132913Y0131399D01*
X0132000Y0129193D01*
X0132000Y0126807D01*
X0132913Y0124601D01*
X0134515Y0123000D01*
X0132913Y0121399D01*
X0132000Y0119193D01*
X0132000Y0116807D01*
X0132913Y0114601D01*
X0134515Y0113000D01*
X0132913Y0111399D01*
X0132000Y0109193D01*
X0132000Y0106807D01*
X0132913Y0104601D01*
X0134515Y0103000D01*
X0132913Y0101399D01*
X0132000Y0099193D01*
X0132000Y0096807D01*
X0132913Y0094601D01*
X0134515Y0093000D01*
X0132913Y0091399D01*
X0132000Y0089193D01*
X0132000Y0086807D01*
X0132913Y0084601D01*
X0134515Y0083000D01*
X0132913Y0081399D01*
X0132000Y0079193D01*
X0132000Y0076807D01*
X0132913Y0074601D01*
X0134515Y0073000D01*
X0132913Y0071399D01*
X0132000Y0069193D01*
X0132000Y0066807D01*
X0132913Y0064601D01*
X0134515Y0063000D01*
X0132913Y0061399D01*
X0132000Y0059193D01*
X0132000Y0056807D01*
X0132913Y0054601D01*
X0134367Y0053148D01*
X0133896Y0052805D01*
X0133195Y0052104D01*
X0132612Y0051302D01*
X0132162Y0050418D01*
X0131855Y0049475D01*
X0131700Y0048496D01*
X0131700Y0048000D01*
X0138000Y0048000D01*
X0144300Y0048000D01*
X0144300Y0048496D01*
X0144145Y0049475D01*
X0143838Y0050418D01*
X0143388Y0051302D01*
X0142805Y0052104D01*
X0142104Y0052805D01*
X0141633Y0053148D01*
X0143087Y0054601D01*
X0144000Y0056807D01*
X0144000Y0059193D01*
X0143087Y0061399D01*
X0141485Y0063000D01*
X0143087Y0064601D01*
X0144000Y0066807D01*
X0144000Y0069193D01*
X0143087Y0071399D01*
X0141485Y0073000D01*
X0143087Y0074601D01*
X0144000Y0076807D01*
X0144000Y0079193D01*
X0143087Y0081399D01*
X0141485Y0083000D01*
X0143087Y0084601D01*
X0144000Y0086807D01*
X0144000Y0089193D01*
X0143087Y0091399D01*
X0141485Y0093000D01*
X0143087Y0094601D01*
X0144000Y0096807D01*
X0144000Y0099193D01*
X0143087Y0101399D01*
X0141485Y0103000D01*
X0143087Y0104601D01*
X0144000Y0106807D01*
X0144000Y0109193D01*
X0143087Y0111399D01*
X0141485Y0113000D01*
X0143087Y0114601D01*
X0144000Y0116807D01*
X0144000Y0119193D01*
X0143087Y0121399D01*
X0141485Y0123000D01*
X0143087Y0124601D01*
X0144000Y0126807D01*
X0144000Y0129193D01*
X0143087Y0131399D01*
X0141485Y0133000D01*
X0143087Y0134601D01*
X0144000Y0136807D01*
X0144000Y0139193D01*
X0143087Y0141399D01*
X0141485Y0143000D01*
X0143087Y0144601D01*
X0144000Y0146807D01*
X0144000Y0149193D01*
X0143087Y0151399D01*
X0141399Y0153087D01*
X0139193Y0154000D01*
X0136609Y0153918D02*
X0061373Y0153918D01*
X0062579Y0150720D02*
X0100503Y0150720D01*
X0099311Y0147521D02*
X0063272Y0147521D01*
X0061778Y0144323D02*
X0083419Y0144323D01*
X0081875Y0141124D02*
X0062331Y0141124D01*
X0063272Y0137926D02*
X0082488Y0137926D01*
X0083824Y0134727D02*
X0062182Y0134727D01*
X0061927Y0131529D02*
X0081875Y0131529D01*
X0082320Y0128330D02*
X0063272Y0128330D01*
X0062518Y0125132D02*
X0084228Y0125132D01*
X0082015Y0121933D02*
X0061522Y0121933D01*
X0063272Y0118734D02*
X0082153Y0118734D01*
X0084987Y0115536D02*
X0062685Y0115536D01*
X0061118Y0112337D02*
X0082183Y0112337D01*
X0081985Y0109139D02*
X0063234Y0109139D01*
X0062853Y0105940D02*
X0071415Y0105940D01*
X0067832Y0102742D02*
X0060327Y0102742D01*
X0056296Y0103000D02*
X0055014Y0102469D01*
X0053531Y0100986D01*
X0052728Y0099049D01*
X0052728Y0096951D01*
X0053531Y0095014D01*
X0055014Y0093531D01*
X0056296Y0093000D01*
X0055014Y0092469D01*
X0053531Y0090986D01*
X0052728Y0089049D01*
X0052728Y0086951D01*
X0053531Y0085014D01*
X0055014Y0083531D01*
X0056295Y0083000D01*
X0055014Y0082469D01*
X0053531Y0080987D01*
X0052728Y0079049D01*
X0052728Y0076952D01*
X0053531Y0075014D01*
X0055014Y0073531D01*
X0056296Y0073000D01*
X0055014Y0072469D01*
X0053531Y0070987D01*
X0052728Y0069049D01*
X0052728Y0066952D01*
X0053531Y0065014D01*
X0055014Y0063531D01*
X0056296Y0063000D01*
X0055014Y0062469D01*
X0053531Y0060987D01*
X0052728Y0059049D01*
X0052728Y0056952D01*
X0053531Y0055014D01*
X0055014Y0053531D01*
X0056296Y0053000D01*
X0055014Y0052469D01*
X0053531Y0050987D01*
X0052728Y0049049D01*
X0052728Y0046952D01*
X0053531Y0045014D01*
X0055014Y0043531D01*
X0056296Y0043000D01*
X0055014Y0042469D01*
X0053531Y0040987D01*
X0052728Y0039049D01*
X0052728Y0036952D01*
X0053531Y0035014D01*
X0055014Y0033531D01*
X0056296Y0033000D01*
X0055014Y0032469D01*
X0053531Y0030987D01*
X0052728Y0029049D01*
X0052728Y0026952D01*
X0053531Y0025014D01*
X0055014Y0023531D01*
X0056296Y0023000D01*
X0055014Y0022469D01*
X0053531Y0020987D01*
X0052728Y0019049D01*
X0052728Y0016952D01*
X0053081Y0016100D01*
X0049284Y0016100D01*
X0046100Y0019284D01*
X0046100Y0033617D01*
X0045628Y0034756D01*
X0044756Y0035628D01*
X0013272Y0067112D01*
X0013272Y0069049D01*
X0012469Y0070987D01*
X0010986Y0072469D01*
X0010116Y0072830D01*
X0010139Y0072837D01*
X0010920Y0073235D01*
X0011630Y0073751D01*
X0012250Y0074371D01*
X0012765Y0075080D01*
X0013163Y0075862D01*
X0013434Y0076696D01*
X0013572Y0077562D01*
X0013572Y0078000D01*
X0008000Y0078000D01*
X0008000Y0078000D01*
X0013572Y0078000D01*
X0013572Y0078439D01*
X0013434Y0079305D01*
X0013163Y0080139D01*
X0012765Y0080921D01*
X0012250Y0081630D01*
X0011630Y0082250D01*
X0010920Y0082766D01*
X0010139Y0083164D01*
X0010117Y0083171D01*
X0010986Y0083531D01*
X0012469Y0085014D01*
X0013272Y0086951D01*
X0013272Y0089049D01*
X0012469Y0090986D01*
X0010986Y0092469D01*
X0010116Y0092829D01*
X0010139Y0092837D01*
X0010920Y0093235D01*
X0011630Y0093750D01*
X0012250Y0094370D01*
X0012765Y0095080D01*
X0013163Y0095861D01*
X0013434Y0096695D01*
X0013572Y0097561D01*
X0013572Y0098000D01*
X0013572Y0098438D01*
X0013434Y0099305D01*
X0013163Y0100139D01*
X0012765Y0100920D01*
X0012250Y0101630D01*
X0011630Y0102250D01*
X0010920Y0102765D01*
X0010139Y0103163D01*
X0010116Y0103171D01*
X0010986Y0103531D01*
X0012469Y0105014D01*
X0013272Y0106951D01*
X0013272Y0109049D01*
X0012469Y0110986D01*
X0010986Y0112469D01*
X0009704Y0113000D01*
X0010986Y0113531D01*
X0012469Y0115014D01*
X0013272Y0116951D01*
X0013272Y0119049D01*
X0012469Y0120986D01*
X0010986Y0122469D01*
X0009704Y0123000D01*
X0010986Y0123531D01*
X0012469Y0125014D01*
X0013272Y0126951D01*
X0013272Y0129049D01*
X0012469Y0130986D01*
X0010986Y0132469D01*
X0009704Y0133000D01*
X0010986Y0133531D01*
X0012469Y0135014D01*
X0013272Y0136951D01*
X0013272Y0139049D01*
X0012469Y0140986D01*
X0010986Y0142469D01*
X0009704Y0143000D01*
X0010986Y0143531D01*
X0012469Y0145014D01*
X0013272Y0146951D01*
X0013272Y0149049D01*
X0012469Y0150986D01*
X0010986Y0152469D01*
X0010116Y0152829D01*
X0010139Y0152837D01*
X0010920Y0153235D01*
X0011630Y0153750D01*
X0012250Y0154370D01*
X0012765Y0155080D01*
X0013163Y0155861D01*
X0013434Y0156695D01*
X0013572Y0157561D01*
X0013572Y0158000D01*
X0013572Y0158438D01*
X0013434Y0159305D01*
X0013176Y0160100D01*
X0053164Y0160100D01*
X0052728Y0159049D01*
X0052728Y0156951D01*
X0053531Y0155014D01*
X0055014Y0153531D01*
X0056296Y0153000D01*
X0055014Y0152469D01*
X0053531Y0150986D01*
X0052728Y0149049D01*
X0052728Y0146951D01*
X0053531Y0145014D01*
X0055014Y0143531D01*
X0056296Y0143000D01*
X0055014Y0142469D01*
X0053531Y0140986D01*
X0052728Y0139049D01*
X0052728Y0136951D01*
X0053531Y0135014D01*
X0055014Y0133531D01*
X0056296Y0133000D01*
X0055014Y0132469D01*
X0053531Y0130986D01*
X0052728Y0129049D01*
X0052728Y0126951D01*
X0053531Y0125014D01*
X0055014Y0123531D01*
X0056296Y0123000D01*
X0055014Y0122469D01*
X0053531Y0120986D01*
X0052728Y0119049D01*
X0052728Y0116951D01*
X0053531Y0115014D01*
X0055014Y0113531D01*
X0056296Y0113000D01*
X0055014Y0112469D01*
X0053531Y0110986D01*
X0052728Y0109049D01*
X0052728Y0106951D01*
X0053531Y0105014D01*
X0055014Y0103531D01*
X0056296Y0103000D01*
X0055673Y0102742D02*
X0010952Y0102742D01*
X0012853Y0105940D02*
X0053147Y0105940D01*
X0052766Y0109139D02*
X0013234Y0109139D01*
X0011118Y0112337D02*
X0054882Y0112337D01*
X0053315Y0115536D02*
X0012685Y0115536D01*
X0013272Y0118734D02*
X0052728Y0118734D01*
X0054478Y0121933D02*
X0011522Y0121933D01*
X0012518Y0125132D02*
X0053482Y0125132D01*
X0052728Y0128330D02*
X0013272Y0128330D01*
X0011927Y0131529D02*
X0054073Y0131529D01*
X0053818Y0134727D02*
X0012182Y0134727D01*
X0013272Y0137926D02*
X0052728Y0137926D01*
X0053669Y0141124D02*
X0012331Y0141124D01*
X0011778Y0144323D02*
X0054222Y0144323D01*
X0052728Y0147521D02*
X0013272Y0147521D01*
X0012579Y0150720D02*
X0053421Y0150720D01*
X0054627Y0153918D02*
X0011798Y0153918D01*
X0013501Y0157117D02*
X0052728Y0157117D01*
X0068400Y0163514D02*
X0089311Y0163514D01*
X0089558Y0167728D02*
X0085191Y0167728D01*
X0082103Y0170816D01*
X0082103Y0175184D01*
X0084920Y0178000D01*
X0082103Y0180816D01*
X0082103Y0185184D01*
X0084920Y0188000D01*
X0082103Y0190816D01*
X0082103Y0195184D01*
X0084920Y0198000D01*
X0082103Y0200816D01*
X0082103Y0205184D01*
X0084920Y0208000D01*
X0082103Y0210816D01*
X0082103Y0215184D01*
X0085191Y0218272D01*
X0089558Y0218272D01*
X0092375Y0215455D01*
X0095191Y0218272D01*
X0099558Y0218272D01*
X0102646Y0215184D01*
X0102646Y0210816D01*
X0099830Y0208000D01*
X0102646Y0205184D01*
X0102646Y0200816D01*
X0099830Y0198000D01*
X0102646Y0195184D01*
X0102646Y0190816D01*
X0099830Y0188000D01*
X0102646Y0185184D01*
X0102646Y0180816D01*
X0099830Y0178000D01*
X0102646Y0175184D01*
X0102646Y0170816D01*
X0099558Y0167728D01*
X0095191Y0167728D01*
X0092375Y0170545D01*
X0089558Y0167728D01*
X0091741Y0169911D02*
X0093009Y0169911D01*
X0101741Y0169911D02*
X0116705Y0169911D01*
X0119541Y0166712D02*
X0068400Y0166712D01*
X0068400Y0169911D02*
X0083009Y0169911D01*
X0082103Y0173109D02*
X0068400Y0173109D01*
X0068400Y0176308D02*
X0083227Y0176308D01*
X0083413Y0179506D02*
X0068400Y0179506D01*
X0068400Y0182705D02*
X0082103Y0182705D01*
X0082823Y0185903D02*
X0068400Y0185903D01*
X0068400Y0189102D02*
X0083818Y0189102D01*
X0082103Y0192300D02*
X0068400Y0192300D01*
X0068400Y0195499D02*
X0082418Y0195499D01*
X0084222Y0198697D02*
X0068400Y0198697D01*
X0068400Y0201896D02*
X0082103Y0201896D01*
X0082103Y0205094D02*
X0068400Y0205094D01*
X0068644Y0208293D02*
X0084627Y0208293D01*
X0082103Y0211491D02*
X0071843Y0211491D01*
X0075041Y0214690D02*
X0082103Y0214690D01*
X0084808Y0217888D02*
X0078240Y0217888D01*
X0089942Y0217888D02*
X0094808Y0217888D01*
X0099942Y0217888D02*
X0119311Y0217888D01*
X0121352Y0214690D02*
X0102646Y0214690D01*
X0102646Y0211491D02*
X0133006Y0211491D01*
X0132877Y0214690D02*
X0124648Y0214690D01*
X0127272Y0217888D02*
X0132000Y0217888D01*
X0132784Y0221087D02*
X0130471Y0221087D01*
X0128100Y0227484D02*
X0125900Y0227484D01*
X0125900Y0230682D02*
X0129700Y0230682D01*
X0129700Y0233881D02*
X0125900Y0233881D01*
X0125900Y0237079D02*
X0129700Y0237079D01*
X0129700Y0240278D02*
X0125900Y0240278D01*
X0125900Y0243476D02*
X0129725Y0243476D01*
X0132054Y0246675D02*
X0125900Y0246675D01*
X0125900Y0249873D02*
X0132282Y0249873D01*
X0134443Y0253072D02*
X0125900Y0253072D01*
X0125900Y0256270D02*
X0132222Y0256270D01*
X0132114Y0259469D02*
X0125900Y0259469D01*
X0125900Y0262668D02*
X0134182Y0262668D01*
X0132390Y0265866D02*
X0125900Y0265866D01*
X0125900Y0269065D02*
X0132000Y0269065D01*
X0133778Y0272263D02*
X0125900Y0272263D01*
X0125900Y0275462D02*
X0132223Y0275462D01*
X0131726Y0278660D02*
X0125900Y0278660D01*
X0125900Y0281859D02*
X0133016Y0281859D01*
X0132429Y0285057D02*
X0125900Y0285057D01*
X0125900Y0288256D02*
X0131700Y0288256D01*
X0132722Y0291454D02*
X0125900Y0291454D01*
X0125900Y0294653D02*
X0132892Y0294653D01*
X0132000Y0297851D02*
X0125900Y0297851D01*
X0125900Y0301050D02*
X0132769Y0301050D01*
X0133267Y0304248D02*
X0125900Y0304248D01*
X0125900Y0307447D02*
X0132000Y0307447D01*
X0132601Y0310645D02*
X0125900Y0310645D01*
X0125900Y0313844D02*
X0136429Y0313844D01*
X0139571Y0313844D02*
X0196429Y0313844D01*
X0199571Y0313844D02*
X0225100Y0313844D01*
X0225100Y0310645D02*
X0203399Y0310645D01*
X0204000Y0307447D02*
X0211461Y0307447D01*
X0212101Y0308087D02*
X0210413Y0306399D01*
X0209500Y0304193D01*
X0209500Y0301807D01*
X0210413Y0299601D01*
X0211867Y0298148D01*
X0211396Y0297805D01*
X0210695Y0297104D01*
X0210112Y0296302D01*
X0209662Y0295418D01*
X0209355Y0294475D01*
X0209200Y0293496D01*
X0209200Y0293000D01*
X0215500Y0293000D01*
X0221800Y0293000D01*
X0221800Y0293496D01*
X0221645Y0294475D01*
X0221338Y0295418D01*
X0220888Y0296302D01*
X0220305Y0297104D01*
X0219604Y0297805D01*
X0219133Y0298148D01*
X0220587Y0299601D01*
X0221500Y0301807D01*
X0221500Y0304193D01*
X0220587Y0306399D01*
X0218899Y0308087D01*
X0216693Y0309000D01*
X0214307Y0309000D01*
X0212101Y0308087D01*
X0209523Y0304248D02*
X0202733Y0304248D01*
X0203517Y0301050D02*
X0209814Y0301050D01*
X0211459Y0297851D02*
X0204300Y0297851D01*
X0203355Y0294653D02*
X0209413Y0294653D01*
X0209200Y0293000D02*
X0209200Y0292504D01*
X0209355Y0291525D01*
X0209662Y0290582D01*
X0210112Y0289698D01*
X0210695Y0288896D01*
X0211396Y0288195D01*
X0211785Y0287912D01*
X0209400Y0285527D01*
X0209400Y0280473D01*
X0211873Y0278000D01*
X0209400Y0275527D01*
X0209400Y0270473D01*
X0212973Y0266900D01*
X0218027Y0266900D01*
X0221600Y0270473D01*
X0221600Y0275527D01*
X0219127Y0278000D01*
X0221600Y0280473D01*
X0221600Y0285527D01*
X0219215Y0287912D01*
X0219604Y0288195D01*
X0220305Y0288896D01*
X0220888Y0289698D01*
X0221338Y0290582D01*
X0221645Y0291525D01*
X0221800Y0292504D01*
X0221800Y0293000D01*
X0215500Y0293000D01*
X0215500Y0293000D01*
X0215500Y0293000D01*
X0209200Y0293000D01*
X0209378Y0291454D02*
X0203031Y0291454D01*
X0204000Y0288256D02*
X0211335Y0288256D01*
X0209400Y0285057D02*
X0203275Y0285057D01*
X0202627Y0281859D02*
X0209400Y0281859D01*
X0211213Y0278660D02*
X0204000Y0278660D01*
X0203443Y0275462D02*
X0209400Y0275462D01*
X0209400Y0272263D02*
X0202222Y0272263D01*
X0204000Y0269065D02*
X0210809Y0269065D01*
X0203610Y0265866D02*
X0225100Y0265866D01*
X0225100Y0262668D02*
X0201818Y0262668D01*
X0203886Y0259469D02*
X0225100Y0259469D01*
X0225628Y0256270D02*
X0203778Y0256270D01*
X0201557Y0253072D02*
X0219793Y0253072D01*
X0223707Y0253072D02*
X0370100Y0253072D01*
X0370100Y0249873D02*
X0360705Y0249873D01*
X0360382Y0250007D02*
X0359426Y0250263D01*
X0358445Y0250393D01*
X0353050Y0250393D01*
X0353050Y0242893D01*
X0365500Y0242893D01*
X0365500Y0243337D01*
X0365371Y0244319D01*
X0365115Y0245275D01*
X0364736Y0246189D01*
X0364241Y0247046D01*
X0363639Y0247831D01*
X0362939Y0248531D01*
X0362154Y0249134D01*
X0361296Y0249628D01*
X0360382Y0250007D01*
X0364455Y0246675D02*
X0370100Y0246675D01*
X0370100Y0243476D02*
X0365482Y0243476D01*
X0365060Y0240278D02*
X0370100Y0240278D01*
X0353050Y0240278D02*
X0352950Y0240278D01*
X0352950Y0243476D02*
X0353050Y0243476D01*
X0353050Y0246675D02*
X0352950Y0246675D01*
X0352950Y0249873D02*
X0353050Y0249873D01*
X0345295Y0249873D02*
X0228712Y0249873D01*
X0229737Y0240278D02*
X0240894Y0240278D01*
X0237695Y0237079D02*
X0227165Y0237079D01*
X0225535Y0230682D02*
X0231298Y0230682D01*
X0228100Y0227484D02*
X0226689Y0227484D01*
X0224901Y0224285D02*
X0223669Y0224285D01*
X0221703Y0221087D02*
X0220471Y0221087D01*
X0219900Y0217888D02*
X0217272Y0217888D01*
X0216100Y0214690D02*
X0219900Y0214690D01*
X0219900Y0211491D02*
X0216100Y0211491D01*
X0216100Y0208293D02*
X0219900Y0208293D01*
X0219900Y0205094D02*
X0216100Y0205094D01*
X0216100Y0201896D02*
X0217512Y0201896D01*
X0223081Y0198697D02*
X0259313Y0198697D01*
X0256115Y0195499D02*
X0219883Y0195499D01*
X0216684Y0192300D02*
X0254900Y0192300D01*
X0254718Y0189102D02*
X0213486Y0189102D01*
X0210287Y0185903D02*
X0251519Y0185903D01*
X0248321Y0182705D02*
X0207089Y0182705D01*
X0204313Y0198697D02*
X0204000Y0198697D01*
X0204464Y0201896D02*
X0202589Y0201896D01*
X0203291Y0205094D02*
X0204877Y0205094D01*
X0204000Y0208293D02*
X0209900Y0208293D01*
X0209900Y0211491D02*
X0202994Y0211491D01*
X0203123Y0214690D02*
X0209900Y0214690D01*
X0209900Y0217888D02*
X0204000Y0217888D01*
X0203216Y0221087D02*
X0211703Y0221087D01*
X0214901Y0224285D02*
X0202771Y0224285D01*
X0204000Y0227484D02*
X0218100Y0227484D01*
X0220465Y0230682D02*
X0203383Y0230682D01*
X0202366Y0233881D02*
X0234497Y0233881D01*
X0216335Y0237079D02*
X0204000Y0237079D01*
X0203551Y0240278D02*
X0213763Y0240278D01*
X0212851Y0243476D02*
X0201962Y0243476D01*
X0203945Y0246675D02*
X0213122Y0246675D01*
X0214788Y0249873D02*
X0203718Y0249873D01*
X0194443Y0253072D02*
X0157312Y0253072D01*
X0154114Y0256270D02*
X0192222Y0256270D01*
X0192114Y0259469D02*
X0150915Y0259469D01*
X0147717Y0262668D02*
X0194182Y0262668D01*
X0192390Y0265866D02*
X0144518Y0265866D01*
X0144000Y0269065D02*
X0192000Y0269065D01*
X0193778Y0272263D02*
X0142222Y0272263D01*
X0143777Y0275462D02*
X0192557Y0275462D01*
X0192000Y0278660D02*
X0144274Y0278660D01*
X0142984Y0281859D02*
X0193373Y0281859D01*
X0192725Y0285057D02*
X0143571Y0285057D01*
X0144300Y0288256D02*
X0192000Y0288256D01*
X0192969Y0291454D02*
X0143278Y0291454D01*
X0143108Y0294653D02*
X0192645Y0294653D01*
X0191700Y0297851D02*
X0144000Y0297851D01*
X0143231Y0301050D02*
X0192483Y0301050D01*
X0193267Y0304248D02*
X0142733Y0304248D01*
X0144000Y0307447D02*
X0192000Y0307447D01*
X0192601Y0310645D02*
X0143399Y0310645D01*
X0138000Y0285057D02*
X0138000Y0285057D01*
X0138000Y0281859D02*
X0138000Y0281859D01*
X0138000Y0278660D02*
X0138000Y0278660D01*
X0144114Y0256270D02*
X0145345Y0256270D01*
X0147312Y0253072D02*
X0148544Y0253072D01*
X0150511Y0249873D02*
X0151742Y0249873D01*
X0153709Y0246675D02*
X0154941Y0246675D01*
X0156908Y0243476D02*
X0158139Y0243476D01*
X0160106Y0240278D02*
X0161338Y0240278D01*
X0163305Y0237079D02*
X0164537Y0237079D01*
X0166503Y0233881D02*
X0167735Y0233881D01*
X0169702Y0230682D02*
X0170934Y0230682D01*
X0172900Y0227484D02*
X0174132Y0227484D01*
X0176099Y0224285D02*
X0177331Y0224285D01*
X0179297Y0221087D02*
X0179800Y0221087D01*
X0182496Y0217888D02*
X0192000Y0217888D01*
X0192784Y0221087D02*
X0186200Y0221087D01*
X0186460Y0224285D02*
X0193229Y0224285D01*
X0192000Y0227484D02*
X0182900Y0227484D01*
X0179702Y0230682D02*
X0192617Y0230682D01*
X0193634Y0233881D02*
X0176503Y0233881D01*
X0173305Y0237079D02*
X0192000Y0237079D01*
X0192449Y0240278D02*
X0170106Y0240278D01*
X0166908Y0243476D02*
X0194038Y0243476D01*
X0192054Y0246675D02*
X0163709Y0246675D01*
X0160511Y0249873D02*
X0192282Y0249873D01*
X0220191Y0269065D02*
X0225100Y0269065D01*
X0225100Y0272263D02*
X0221600Y0272263D01*
X0221600Y0275462D02*
X0225100Y0275462D01*
X0225100Y0278660D02*
X0219787Y0278660D01*
X0221600Y0281859D02*
X0225100Y0281859D01*
X0225100Y0285057D02*
X0221600Y0285057D01*
X0219665Y0288256D02*
X0225100Y0288256D01*
X0225100Y0291454D02*
X0221622Y0291454D01*
X0221587Y0294653D02*
X0225100Y0294653D01*
X0225100Y0297851D02*
X0219541Y0297851D01*
X0221186Y0301050D02*
X0225100Y0301050D01*
X0225100Y0304248D02*
X0221477Y0304248D01*
X0219539Y0307447D02*
X0225100Y0307447D01*
X0270457Y0243476D02*
X0275543Y0243476D01*
X0283383Y0230682D02*
X0346666Y0230682D01*
X0342123Y0227484D02*
X0284000Y0227484D01*
X0282771Y0224285D02*
X0340269Y0224285D01*
X0337070Y0221087D02*
X0283216Y0221087D01*
X0284000Y0217888D02*
X0333872Y0217888D01*
X0330673Y0214690D02*
X0283123Y0214690D01*
X0273411Y0201896D02*
X0272589Y0201896D01*
X0263411Y0201896D02*
X0225898Y0201896D01*
X0245122Y0179506D02*
X0115878Y0179506D01*
X0119076Y0176308D02*
X0241924Y0176308D01*
X0238725Y0173109D02*
X0122275Y0173109D01*
X0126201Y0169911D02*
X0235527Y0169911D01*
X0232328Y0166712D02*
X0126459Y0166712D01*
X0113507Y0173109D02*
X0102646Y0173109D01*
X0101522Y0176308D02*
X0104708Y0176308D01*
X0104631Y0179506D02*
X0101336Y0179506D01*
X0102646Y0182705D02*
X0155001Y0182705D01*
X0151803Y0185903D02*
X0101927Y0185903D01*
X0100932Y0189102D02*
X0148604Y0189102D01*
X0145406Y0192300D02*
X0139918Y0192300D01*
X0136082Y0192300D02*
X0102646Y0192300D01*
X0102331Y0195499D02*
X0132542Y0195499D01*
X0132000Y0198697D02*
X0100527Y0198697D01*
X0102646Y0201896D02*
X0133411Y0201896D01*
X0132709Y0205094D02*
X0102646Y0205094D01*
X0100123Y0208293D02*
X0132000Y0208293D01*
X0159702Y0230682D02*
X0160934Y0230682D01*
X0162900Y0227484D02*
X0164132Y0227484D01*
X0166099Y0224285D02*
X0167331Y0224285D01*
X0169297Y0221087D02*
X0170529Y0221087D01*
X0172496Y0217888D02*
X0173728Y0217888D01*
X0175694Y0214690D02*
X0176926Y0214690D01*
X0178893Y0211491D02*
X0180125Y0211491D01*
X0182091Y0208293D02*
X0183323Y0208293D01*
X0185290Y0205094D02*
X0185689Y0205094D01*
X0188488Y0201896D02*
X0193411Y0201896D01*
X0192709Y0205094D02*
X0190311Y0205094D01*
X0191689Y0208293D02*
X0192000Y0208293D01*
X0193006Y0211491D02*
X0189211Y0211491D01*
X0185694Y0214690D02*
X0192877Y0214690D01*
X0192000Y0198697D02*
X0191687Y0198697D01*
X0157735Y0233881D02*
X0156503Y0233881D01*
X0154537Y0237079D02*
X0153305Y0237079D01*
X0151338Y0240278D02*
X0150106Y0240278D01*
X0148139Y0243476D02*
X0141962Y0243476D01*
X0143945Y0246675D02*
X0144941Y0246675D01*
X0143368Y0150720D02*
X0150896Y0150720D01*
X0154095Y0147521D02*
X0144000Y0147521D01*
X0142808Y0144323D02*
X0157293Y0144323D01*
X0160492Y0141124D02*
X0143200Y0141124D01*
X0144000Y0137926D02*
X0163690Y0137926D01*
X0166889Y0134727D02*
X0143139Y0134727D01*
X0142957Y0131529D02*
X0170087Y0131529D01*
X0173286Y0128330D02*
X0144000Y0128330D01*
X0143306Y0125132D02*
X0176484Y0125132D01*
X0179683Y0121933D02*
X0142552Y0121933D01*
X0144000Y0118734D02*
X0179900Y0118734D01*
X0179900Y0115536D02*
X0143474Y0115536D01*
X0142148Y0112337D02*
X0179900Y0112337D01*
X0179900Y0109139D02*
X0144000Y0109139D01*
X0143641Y0105940D02*
X0179900Y0105940D01*
X0179900Y0102742D02*
X0141743Y0102742D01*
X0143855Y0099543D02*
X0179900Y0099543D01*
X0179900Y0096345D02*
X0143809Y0096345D01*
X0141632Y0093146D02*
X0179900Y0093146D01*
X0179900Y0089948D02*
X0143688Y0089948D01*
X0143976Y0086749D02*
X0179900Y0086749D01*
X0179900Y0083551D02*
X0142036Y0083551D01*
X0143520Y0080352D02*
X0179900Y0080352D01*
X0179900Y0077154D02*
X0144000Y0077154D01*
X0142441Y0073955D02*
X0179900Y0073955D01*
X0179900Y0070757D02*
X0143352Y0070757D01*
X0144000Y0067558D02*
X0179900Y0067558D01*
X0179900Y0064360D02*
X0142845Y0064360D01*
X0143185Y0061161D02*
X0179900Y0061161D01*
X0179900Y0057963D02*
X0144000Y0057963D01*
X0143154Y0054764D02*
X0179900Y0054764D01*
X0179900Y0051566D02*
X0143197Y0051566D01*
X0144300Y0048367D02*
X0179900Y0048367D01*
X0179900Y0045169D02*
X0143628Y0045169D01*
X0143838Y0045582D02*
X0144145Y0046525D01*
X0144300Y0047504D01*
X0144300Y0048000D01*
X0138000Y0048000D01*
X0138000Y0048000D01*
X0138000Y0048000D01*
X0131700Y0048000D01*
X0131700Y0047504D01*
X0131855Y0046525D01*
X0132162Y0045582D01*
X0132612Y0044698D01*
X0133195Y0043896D01*
X0133896Y0043195D01*
X0134367Y0042852D01*
X0132913Y0041399D01*
X0132000Y0039193D01*
X0132000Y0036807D01*
X0132913Y0034601D01*
X0134601Y0032913D01*
X0136807Y0032000D01*
X0139193Y0032000D01*
X0141399Y0032913D01*
X0143087Y0034601D01*
X0144000Y0036807D01*
X0144000Y0039193D01*
X0143087Y0041399D01*
X0141633Y0042852D01*
X0142104Y0043195D01*
X0142805Y0043896D01*
X0143388Y0044698D01*
X0143838Y0045582D01*
X0142515Y0041970D02*
X0180071Y0041970D01*
X0182844Y0038772D02*
X0144000Y0038772D01*
X0143489Y0035573D02*
X0186043Y0035573D01*
X0195902Y0032375D02*
X0140098Y0032375D01*
X0135902Y0032375D02*
X0131477Y0032375D01*
X0132511Y0035573D02*
X0128278Y0035573D01*
X0125079Y0038772D02*
X0132000Y0038772D01*
X0133485Y0041970D02*
X0121881Y0041970D01*
X0118682Y0045169D02*
X0132372Y0045169D01*
X0131700Y0048367D02*
X0115484Y0048367D01*
X0114650Y0051566D02*
X0132803Y0051566D01*
X0132846Y0054764D02*
X0114650Y0054764D01*
X0114650Y0057963D02*
X0132000Y0057963D01*
X0132815Y0061161D02*
X0114650Y0061161D01*
X0114650Y0064360D02*
X0133155Y0064360D01*
X0132000Y0067558D02*
X0114650Y0067558D01*
X0114650Y0070757D02*
X0132648Y0070757D01*
X0133559Y0073955D02*
X0114650Y0073955D01*
X0105623Y0077154D02*
X0132000Y0077154D01*
X0132480Y0080352D02*
X0106297Y0080352D01*
X0104999Y0083551D02*
X0133964Y0083551D01*
X0132024Y0086749D02*
X0091133Y0086749D01*
X0094332Y0089948D02*
X0132313Y0089948D01*
X0134368Y0093146D02*
X0097530Y0093146D01*
X0100729Y0096345D02*
X0132191Y0096345D01*
X0132145Y0099543D02*
X0103927Y0099543D01*
X0106100Y0102742D02*
X0134257Y0102742D01*
X0132359Y0105940D02*
X0106100Y0105940D01*
X0106100Y0109139D02*
X0132000Y0109139D01*
X0133852Y0112337D02*
X0106100Y0112337D01*
X0106100Y0115536D02*
X0132526Y0115536D01*
X0132000Y0118734D02*
X0106100Y0118734D01*
X0106100Y0121933D02*
X0133448Y0121933D01*
X0132694Y0125132D02*
X0106100Y0125132D01*
X0106100Y0128330D02*
X0132000Y0128330D01*
X0133043Y0131529D02*
X0106100Y0131529D01*
X0106100Y0134727D02*
X0132861Y0134727D01*
X0132000Y0137926D02*
X0106100Y0137926D01*
X0106100Y0141124D02*
X0132800Y0141124D01*
X0133192Y0144323D02*
X0106100Y0144323D01*
X0106689Y0147521D02*
X0132000Y0147521D01*
X0132632Y0150720D02*
X0105497Y0150720D01*
X0093420Y0144323D02*
X0091330Y0144323D01*
X0090593Y0105940D02*
X0094157Y0105940D01*
X0098358Y0102742D02*
X0083168Y0102742D01*
X0084156Y0105940D02*
X0079585Y0105940D01*
X0084399Y0099543D02*
X0095159Y0099543D01*
X0091961Y0096345D02*
X0084399Y0096345D01*
X0083122Y0093146D02*
X0088762Y0093146D01*
X0094602Y0083551D02*
X0096001Y0083551D01*
X0100500Y0083551D02*
X0100500Y0083551D01*
X0100500Y0080352D02*
X0100500Y0080352D01*
X0100500Y0079875D02*
X0100500Y0079875D01*
X0067878Y0093146D02*
X0060058Y0093146D01*
X0055942Y0093146D02*
X0010747Y0093146D01*
X0012899Y0089948D02*
X0053101Y0089948D01*
X0052812Y0086749D02*
X0013188Y0086749D01*
X0011006Y0083551D02*
X0054994Y0083551D01*
X0053268Y0080352D02*
X0013055Y0080352D01*
X0013507Y0077154D02*
X0052728Y0077154D01*
X0054590Y0073955D02*
X0011834Y0073955D01*
X0012564Y0070757D02*
X0053436Y0070757D01*
X0052728Y0067558D02*
X0013272Y0067558D01*
X0016024Y0064360D02*
X0054185Y0064360D01*
X0053706Y0061161D02*
X0019223Y0061161D01*
X0022421Y0057963D02*
X0052728Y0057963D01*
X0053781Y0054764D02*
X0025620Y0054764D01*
X0028818Y0051566D02*
X0054110Y0051566D01*
X0052728Y0048367D02*
X0032017Y0048367D01*
X0035215Y0045169D02*
X0053467Y0045169D01*
X0054515Y0041970D02*
X0038414Y0041970D01*
X0041612Y0038772D02*
X0052728Y0038772D01*
X0053299Y0035573D02*
X0044811Y0035573D01*
X0046100Y0032375D02*
X0054919Y0032375D01*
X0052781Y0029176D02*
X0046100Y0029176D01*
X0046100Y0025978D02*
X0053132Y0025978D01*
X0055762Y0022779D02*
X0046100Y0022779D01*
X0046100Y0019581D02*
X0052949Y0019581D01*
X0052964Y0016382D02*
X0049002Y0016382D01*
X0045372Y0011244D02*
X0046244Y0010372D01*
X0047383Y0009900D01*
X0053081Y0009900D01*
X0052728Y0009049D01*
X0052728Y0006952D01*
X0053164Y0005900D01*
X0012836Y0005900D01*
X0013272Y0006952D01*
X0013272Y0009049D01*
X0012469Y0010987D01*
X0010986Y0012469D01*
X0010116Y0012830D01*
X0010139Y0012837D01*
X0010920Y0013235D01*
X0011630Y0013751D01*
X0012250Y0014371D01*
X0012765Y0015080D01*
X0013163Y0015862D01*
X0013434Y0016696D01*
X0013572Y0017562D01*
X0013572Y0018000D01*
X0008000Y0018000D01*
X0008000Y0018000D01*
X0013572Y0018000D01*
X0013572Y0018439D01*
X0013434Y0019305D01*
X0013163Y0020139D01*
X0012765Y0020921D01*
X0012250Y0021630D01*
X0011630Y0022250D01*
X0010920Y0022766D01*
X0010139Y0023164D01*
X0010116Y0023171D01*
X0010986Y0023531D01*
X0012469Y0025014D01*
X0013272Y0026952D01*
X0013272Y0029049D01*
X0012469Y0030987D01*
X0010986Y0032469D01*
X0009704Y0033000D01*
X0010986Y0033531D01*
X0012469Y0035014D01*
X0013272Y0036952D01*
X0013272Y0039049D01*
X0012469Y0040987D01*
X0010986Y0042469D01*
X0009704Y0043000D01*
X0010986Y0043531D01*
X0012469Y0045014D01*
X0013272Y0046952D01*
X0013272Y0049049D01*
X0012469Y0050987D01*
X0010986Y0052469D01*
X0009704Y0053000D01*
X0010986Y0053531D01*
X0012469Y0055014D01*
X0013272Y0056952D01*
X0013272Y0058344D01*
X0039900Y0031716D01*
X0039900Y0017383D01*
X0040372Y0016244D01*
X0045372Y0011244D01*
X0047178Y0009985D02*
X0012884Y0009985D01*
X0013203Y0006787D02*
X0052797Y0006787D01*
X0043432Y0013184D02*
X0010819Y0013184D01*
X0013333Y0016382D02*
X0040315Y0016382D01*
X0039900Y0019581D02*
X0013345Y0019581D01*
X0010894Y0022779D02*
X0039900Y0022779D01*
X0039900Y0025978D02*
X0012868Y0025978D01*
X0013219Y0029176D02*
X0039900Y0029176D01*
X0039241Y0032375D02*
X0011081Y0032375D01*
X0012701Y0035573D02*
X0036043Y0035573D01*
X0032844Y0038772D02*
X0013272Y0038772D01*
X0011485Y0041970D02*
X0029646Y0041970D01*
X0026447Y0045169D02*
X0012533Y0045169D01*
X0013272Y0048367D02*
X0023249Y0048367D01*
X0020050Y0051566D02*
X0011890Y0051566D01*
X0012219Y0054764D02*
X0016852Y0054764D01*
X0013653Y0057963D02*
X0013272Y0057963D01*
X0008000Y0022729D02*
X0008000Y0018001D01*
X0008000Y0022729D01*
X0008000Y0022729D01*
X0008000Y0019581D02*
X0008000Y0019581D01*
X0008000Y0018001D02*
X0008000Y0018001D01*
X0013321Y0096345D02*
X0052980Y0096345D01*
X0052933Y0099543D02*
X0013357Y0099543D01*
X0013572Y0098000D02*
X0008000Y0098000D01*
X0008000Y0098000D01*
X0013572Y0098000D01*
X0063020Y0096345D02*
X0066601Y0096345D01*
X0066601Y0099543D02*
X0063067Y0099543D01*
X0013572Y0158000D02*
X0008000Y0158000D01*
X0013572Y0158000D01*
X0008000Y0158000D02*
X0008000Y0158000D01*
X0191100Y0099543D02*
X0192145Y0099543D01*
X0192191Y0096345D02*
X0191100Y0096345D01*
X0191100Y0093146D02*
X0194368Y0093146D01*
X0192312Y0089948D02*
X0191100Y0089948D01*
X0191100Y0086749D02*
X0192024Y0086749D01*
X0191100Y0083551D02*
X0193964Y0083551D01*
X0192480Y0080352D02*
X0191100Y0080352D01*
X0191100Y0077154D02*
X0192000Y0077154D01*
X0191100Y0073955D02*
X0193559Y0073955D01*
X0192334Y0070757D02*
X0191100Y0070757D01*
X0191100Y0067558D02*
X0191700Y0067558D01*
X0191100Y0064360D02*
X0192858Y0064360D01*
X0192540Y0061161D02*
X0191100Y0061161D01*
X0191100Y0057963D02*
X0191700Y0057963D01*
X0191100Y0054764D02*
X0192578Y0054764D01*
X0198000Y0061161D02*
X0198000Y0061161D01*
X0198000Y0064360D02*
X0198000Y0064360D01*
X0198000Y0067558D02*
X0198000Y0067558D01*
X0203142Y0064360D02*
X0210513Y0064360D01*
X0209400Y0065473D02*
X0211873Y0063000D01*
X0209400Y0060527D01*
X0209400Y0055473D01*
X0211785Y0053088D01*
X0211396Y0052805D01*
X0210695Y0052104D01*
X0210112Y0051302D01*
X0209662Y0050418D01*
X0209355Y0049475D01*
X0209200Y0048496D01*
X0209200Y0048000D01*
X0215500Y0048000D01*
X0221800Y0048000D01*
X0221800Y0048496D01*
X0221645Y0049475D01*
X0221338Y0050418D01*
X0220888Y0051302D01*
X0220305Y0052104D01*
X0219604Y0052805D01*
X0219215Y0053088D01*
X0221600Y0055473D01*
X0221600Y0060527D01*
X0219127Y0063000D01*
X0221600Y0065473D01*
X0221600Y0070527D01*
X0218027Y0074100D01*
X0212973Y0074100D01*
X0209400Y0070527D01*
X0209400Y0065473D01*
X0209400Y0067558D02*
X0204300Y0067558D01*
X0203666Y0070757D02*
X0209630Y0070757D01*
X0212829Y0073955D02*
X0202441Y0073955D01*
X0211538Y0077154D02*
X0225100Y0077154D01*
X0225100Y0080352D02*
X0214736Y0080352D01*
X0217935Y0083551D02*
X0225100Y0083551D01*
X0225100Y0073955D02*
X0218171Y0073955D01*
X0221370Y0070757D02*
X0225100Y0070757D01*
X0225100Y0067558D02*
X0221600Y0067558D01*
X0220486Y0064360D02*
X0225100Y0064360D01*
X0225100Y0061161D02*
X0220965Y0061161D01*
X0221600Y0057963D02*
X0225100Y0057963D01*
X0225100Y0054764D02*
X0220891Y0054764D01*
X0220697Y0051566D02*
X0225100Y0051566D01*
X0225100Y0048367D02*
X0221800Y0048367D01*
X0221800Y0048000D02*
X0215500Y0048000D01*
X0215500Y0048000D01*
X0215500Y0048000D01*
X0209200Y0048000D01*
X0209200Y0047504D01*
X0209355Y0046525D01*
X0209662Y0045582D01*
X0210112Y0044698D01*
X0210695Y0043896D01*
X0211396Y0043195D01*
X0211867Y0042852D01*
X0210413Y0041399D01*
X0209500Y0039193D01*
X0209500Y0036807D01*
X0210413Y0034601D01*
X0212101Y0032913D01*
X0214307Y0032000D01*
X0216693Y0032000D01*
X0218899Y0032913D01*
X0220587Y0034601D01*
X0221500Y0036807D01*
X0221500Y0039193D01*
X0220587Y0041399D01*
X0219133Y0042852D01*
X0219604Y0043195D01*
X0220305Y0043896D01*
X0220888Y0044698D01*
X0221338Y0045582D01*
X0221645Y0046525D01*
X0221800Y0047504D01*
X0221800Y0048000D01*
X0221128Y0045169D02*
X0225100Y0045169D01*
X0225100Y0041970D02*
X0220015Y0041970D01*
X0221500Y0038772D02*
X0225100Y0038772D01*
X0225100Y0035573D02*
X0220989Y0035573D01*
X0217598Y0032375D02*
X0225100Y0032375D01*
X0213402Y0032375D02*
X0200098Y0032375D01*
X0203489Y0035573D02*
X0210011Y0035573D01*
X0209500Y0038772D02*
X0204000Y0038772D01*
X0202515Y0041970D02*
X0210985Y0041970D01*
X0209872Y0045169D02*
X0203322Y0045169D01*
X0204000Y0048367D02*
X0209200Y0048367D01*
X0210303Y0051566D02*
X0202920Y0051566D01*
X0203422Y0054764D02*
X0210109Y0054764D01*
X0209400Y0057963D02*
X0204300Y0057963D01*
X0203460Y0061161D02*
X0210035Y0061161D01*
X0244039Y0096345D02*
X0306961Y0096345D01*
X0309900Y0099543D02*
X0240841Y0099543D01*
X0237642Y0102742D02*
X0309900Y0102742D01*
X0309900Y0105940D02*
X0234444Y0105940D01*
X0231245Y0109139D02*
X0263376Y0109139D01*
X0272624Y0109139D02*
X0297126Y0109139D01*
X0295750Y0112337D02*
X0274000Y0112337D01*
X0273444Y0115536D02*
X0296306Y0115536D01*
X0297530Y0118734D02*
X0272220Y0118734D01*
X0274000Y0121933D02*
X0295750Y0121933D01*
X0296139Y0125132D02*
X0273611Y0125132D01*
X0272240Y0128330D02*
X0297510Y0128330D01*
X0295605Y0131529D02*
X0274145Y0131529D01*
X0274063Y0134727D02*
X0295687Y0134727D01*
X0297811Y0137926D02*
X0271939Y0137926D01*
X0273717Y0141124D02*
X0296033Y0141124D01*
X0295803Y0144323D02*
X0273947Y0144323D01*
X0271964Y0147521D02*
X0297786Y0147521D01*
X0305714Y0147521D02*
X0334620Y0147521D01*
X0337818Y0144323D02*
X0307697Y0144323D01*
X0307467Y0141124D02*
X0370100Y0141124D01*
X0370100Y0137926D02*
X0361939Y0137926D01*
X0364063Y0134727D02*
X0370100Y0134727D01*
X0370100Y0131529D02*
X0364145Y0131529D01*
X0362240Y0128330D02*
X0370100Y0128330D01*
X0370100Y0125132D02*
X0363932Y0125132D01*
X0364210Y0121933D02*
X0370100Y0121933D01*
X0370100Y0118734D02*
X0362644Y0118734D01*
X0370100Y0115536D02*
X0324848Y0115536D01*
X0321650Y0118734D02*
X0343780Y0118734D01*
X0342000Y0121933D02*
X0318451Y0121933D01*
X0315253Y0125132D02*
X0342389Y0125132D01*
X0344185Y0128330D02*
X0305990Y0128330D01*
X0307895Y0131529D02*
X0342115Y0131529D01*
X0342221Y0134727D02*
X0307813Y0134727D01*
X0305689Y0137926D02*
X0344440Y0137926D01*
X0352220Y0118734D02*
X0353356Y0118734D01*
X0342200Y0105940D02*
X0326100Y0105940D01*
X0326100Y0102742D02*
X0342657Y0102742D01*
X0322530Y0093146D02*
X0370100Y0093146D01*
X0370100Y0089948D02*
X0319332Y0089948D01*
X0316133Y0086749D02*
X0370100Y0086749D01*
X0307477Y0109139D02*
X0306374Y0109139D01*
X0264061Y0137926D02*
X0261100Y0137926D01*
X0261100Y0141124D02*
X0262283Y0141124D01*
X0262053Y0144323D02*
X0261100Y0144323D01*
X0261100Y0147521D02*
X0264036Y0147521D01*
X0261937Y0134727D02*
X0261100Y0134727D01*
X0261100Y0131529D02*
X0261855Y0131529D01*
X0261100Y0128330D02*
X0263760Y0128330D01*
X0262389Y0125132D02*
X0261100Y0125132D01*
X0283306Y0153918D02*
X0287694Y0153918D01*
X0286278Y0163514D02*
X0284722Y0163514D01*
X0276278Y0163514D02*
X0262898Y0163514D01*
X0259699Y0160315D02*
X0274500Y0160315D01*
X0274406Y0173109D02*
X0271594Y0173109D01*
X0352950Y0237079D02*
X0353050Y0237079D01*
D22*
X0268000Y0198000D02*
X0263000Y0198000D01*
X0258000Y0193000D01*
X0258000Y0188000D01*
X0218000Y0148000D01*
X0198000Y0148000D01*
X0198000Y0138000D02*
X0221253Y0138000D01*
X0260300Y0177047D01*
X0260300Y0180300D01*
X0268000Y0188000D01*
X0268000Y0178000D02*
X0263000Y0173000D01*
X0263000Y0168000D01*
X0208000Y0113000D01*
X0203000Y0113000D01*
X0208000Y0103000D02*
X0208000Y0098000D01*
X0198000Y0088000D01*
X0198000Y0078000D02*
X0208000Y0078000D01*
X0218000Y0088000D01*
X0313000Y0088000D01*
X0323000Y0098000D01*
X0323000Y0113000D01*
X0313000Y0123000D01*
X0301750Y0123000D01*
X0301750Y0113000D02*
X0308000Y0113000D01*
X0313000Y0108000D01*
X0313000Y0098000D01*
X0308000Y0093000D01*
X0243000Y0093000D01*
X0228000Y0108000D01*
X0213000Y0108000D01*
X0208000Y0103000D01*
X0183000Y0123000D02*
X0183000Y0043000D01*
X0188000Y0038000D01*
X0198000Y0038000D01*
X0198000Y0048000D02*
X0193000Y0048000D01*
X0188000Y0053000D01*
X0188000Y0128000D01*
X0153000Y0163000D01*
X0093000Y0163000D01*
X0103000Y0148000D02*
X0103000Y0103000D01*
X0088000Y0088000D01*
X0078000Y0088000D01*
X0068000Y0078000D01*
X0058000Y0078000D01*
X0058000Y0088000D02*
X0068000Y0088000D01*
X0078953Y0085700D02*
X0068953Y0075700D01*
X0068000Y0075700D01*
X0068000Y0073000D01*
X0078953Y0085700D02*
X0085300Y0085700D01*
X0090500Y0080500D01*
X0090500Y0079875D01*
X0043000Y0033000D02*
X0043000Y0018000D01*
X0048000Y0013000D01*
X0068000Y0013000D01*
X0043000Y0033000D02*
X0008000Y0068000D01*
X0008000Y0068000D01*
X0023000Y0043000D02*
X0012472Y0032472D01*
X0012472Y0026148D01*
X0008000Y0021677D01*
X0008000Y0018000D01*
X0053000Y0133000D02*
X0068000Y0133000D01*
X0053000Y0133000D02*
X0028000Y0158000D01*
X0008000Y0158000D01*
X0058000Y0158000D02*
X0148000Y0158000D01*
X0183000Y0123000D01*
X0123000Y0168000D02*
X0113000Y0178000D01*
X0108000Y0178000D01*
X0138000Y0198000D02*
X0144090Y0198000D01*
X0159090Y0183000D01*
X0203000Y0183000D01*
X0223000Y0203000D01*
X0223000Y0218000D01*
X0243000Y0238000D01*
X0253000Y0238000D01*
X0223000Y0228000D02*
X0213000Y0218000D01*
X0213000Y0198000D01*
X0203000Y0188000D01*
X0193000Y0188000D01*
X0183000Y0198000D01*
X0153000Y0198000D01*
X0143000Y0208000D01*
X0138000Y0208000D01*
X0123000Y0218000D02*
X0132800Y0227800D01*
X0132800Y0242800D01*
X0138000Y0248000D01*
X0138000Y0238000D02*
X0148000Y0238000D01*
X0193000Y0193000D01*
X0195646Y0193000D01*
X0195846Y0192800D01*
X0200154Y0192800D01*
X0200354Y0193000D01*
X0203000Y0193000D01*
X0208000Y0198000D01*
X0208000Y0203000D01*
X0188000Y0208000D02*
X0138000Y0258000D01*
X0138000Y0268000D02*
X0183000Y0223000D01*
X0258000Y0153000D02*
X0258000Y0123000D01*
X0268000Y0113000D01*
X0253000Y0123000D02*
X0253000Y0148000D01*
D23*
X0253000Y0148000D03*
X0258000Y0153000D03*
X0253000Y0123000D03*
X0203000Y0113000D03*
X0123000Y0168000D03*
X0108000Y0178000D03*
X0093000Y0163000D03*
X0103000Y0148000D03*
X0068000Y0088000D03*
X0068000Y0073000D03*
X0023000Y0063000D03*
X0023000Y0043000D03*
X0068000Y0013000D03*
X0208000Y0203000D03*
X0188000Y0208000D03*
X0183000Y0223000D03*
X0223000Y0228000D03*
X0253000Y0238000D03*
X0123000Y0218000D03*
D24*
X0333000Y0203157D02*
X0333000Y0183000D01*
X0349693Y0183000D01*
X0353000Y0186307D01*
X0333000Y0183000D02*
X0333000Y0163000D01*
X0344693Y0151307D01*
X0353000Y0151307D01*
X0333000Y0203157D02*
X0353000Y0223157D01*
M02*
