%
M48
M72
T01C0.01378
T02C0.03200
T03C0.03543
T04C0.03937
T05C0.04000
T06C0.06600
T07C0.12598
%
T01
X33000Y133000
X48000Y133000
X73000Y123000
X78000Y113000
X68000Y88000
X68000Y13000
X23000Y43000
X23000Y63000
X68000Y73000
X203000Y113000
X253000Y123000
X253000Y148000
X258000Y153000
X208000Y203000
X188000Y208000
X183000Y223000
X223000Y228000
X128000Y168000
X118000Y155889
X118000Y143000
X253000Y238000
T02
X348000Y100000
X358000Y100000
X316500Y243000
X316500Y253000
X282000Y253000
X282000Y243000
X267000Y251500
X237000Y251500
T03
X8000Y158000
X8000Y148000
X8000Y138000
X8000Y128000
X8000Y118000
X8000Y108000
X8000Y98000
X8000Y88000
X8000Y78000
X8000Y68000
X8000Y58000
X8000Y48000
X8000Y38000
X8000Y28000
X8000Y18000
X8000Y8000
X58000Y8000
X58000Y18000
X58000Y28000
X58000Y38000
X58000Y48000
X58000Y58000
X58000Y68000
X58000Y78000
X58000Y88000
X58000Y98000
X58000Y108000
X58000Y118000
X58000Y128000
X58000Y138000
X58000Y148000
X58000Y158000
T04
X356500Y150807
X356500Y164587
T05
X87375Y140500
X97375Y140500
X97375Y130500
X87375Y130500
X87375Y120500
X97375Y120500
X97375Y110500
X87375Y110500
X80500Y79875
X28000Y8000
X28000Y18000
X90500Y79875
X100500Y79875
X138000Y88000
X138000Y78000
X138000Y68000
X138000Y58000
X138000Y48000
X138000Y38000
X198000Y38000
X198000Y48000
X198000Y58000
X198000Y68000
X198000Y78000
X198000Y88000
X198000Y98000
X198000Y108000
X198000Y118000
X198000Y128000
X198000Y138000
X198000Y148000
X215500Y38000
X215500Y48000
X215500Y58000
X215500Y68000
X268000Y113000
X268000Y123000
X268000Y133000
X268000Y143000
X280500Y159250
X290500Y159250
X301750Y143000
X301750Y133000
X301750Y123000
X301750Y113000
X348000Y123000
X358000Y123000
X358000Y133000
X348000Y133000
X278000Y178000
X268000Y178000
X268000Y188000
X278000Y188000
X278000Y198000
X268000Y198000
X268000Y208000
X278000Y208000
X278000Y218000
X268000Y218000
X268000Y228000
X278000Y228000
X138000Y148000
X138000Y138000
X138000Y128000
X138000Y118000
X138000Y108000
X138000Y98000
X109000Y130500
X109000Y140500
X138000Y198000
X138000Y208000
X138000Y218000
X138000Y228000
X138000Y238000
X138000Y248000
X138000Y258000
X138000Y268000
X138000Y278000
X138000Y288000
X138000Y298000
X138000Y308000
X198000Y308000
X198000Y298000
X198000Y288000
X198000Y278000
X198000Y268000
X198000Y258000
X198000Y248000
X198000Y238000
X198000Y228000
X198000Y218000
X198000Y208000
X198000Y198000
X215500Y273000
X215500Y283000
X215500Y293000
X215500Y303000
X28000Y98000
X28000Y88000
T06
X353000Y183657
X353000Y203343
X353000Y223157
X353000Y242843
T07
X75500Y98000
X221750Y98000
X221750Y244250
M30
