G75*
%MOIN*%
%OFA0B0*%
%FSLAX25Y25*%
%IPPOS*%
%LPD*%
%AMOC8*
5,1,8,0,0,1.08239X$1,22.5*
%
%ADD10C,0.00600*%
%ADD11C,0.00000*%
%ADD12C,0.05943*%
%ADD13C,0.06400*%
%ADD14C,0.07400*%
%ADD15C,0.09900*%
%ADD16C,0.08600*%
%ADD17OC8,0.07600*%
%ADD18OC8,0.07000*%
%ADD19C,0.07000*%
%ADD20OC8,0.06600*%
%ADD21OC8,0.05600*%
%ADD22C,0.02778*%
%ADD23C,0.01600*%
%ADD24C,0.02400*%
%ADD25C,0.04000*%
%ADD26C,0.03200*%
D10*
X0003000Y0003000D02*
X0073000Y0003000D01*
X0073000Y0074750D01*
X0073000Y0075000D02*
X0105500Y0075000D01*
X0105500Y0085000D01*
X0126500Y0085000D01*
X0126500Y0028000D01*
X0228000Y0028000D01*
X0228000Y0083000D01*
X0373000Y0083000D01*
X0373000Y0258000D01*
X0228000Y0258000D01*
X0228000Y0318000D01*
X0123000Y0318000D01*
X0123000Y0168500D01*
X0109500Y0155500D01*
X0080000Y0155500D01*
X0072500Y0162500D01*
X0003000Y0162500D01*
X0003000Y0003000D01*
D11*
X0069201Y0098000D02*
X0069203Y0098158D01*
X0069209Y0098316D01*
X0069219Y0098474D01*
X0069233Y0098632D01*
X0069251Y0098789D01*
X0069272Y0098946D01*
X0069298Y0099102D01*
X0069328Y0099258D01*
X0069361Y0099413D01*
X0069399Y0099566D01*
X0069440Y0099719D01*
X0069485Y0099871D01*
X0069534Y0100022D01*
X0069587Y0100171D01*
X0069643Y0100319D01*
X0069703Y0100465D01*
X0069767Y0100610D01*
X0069835Y0100753D01*
X0069906Y0100895D01*
X0069980Y0101035D01*
X0070058Y0101172D01*
X0070140Y0101308D01*
X0070224Y0101442D01*
X0070313Y0101573D01*
X0070404Y0101702D01*
X0070499Y0101829D01*
X0070596Y0101954D01*
X0070697Y0102076D01*
X0070801Y0102195D01*
X0070908Y0102312D01*
X0071018Y0102426D01*
X0071131Y0102537D01*
X0071246Y0102646D01*
X0071364Y0102751D01*
X0071485Y0102853D01*
X0071608Y0102953D01*
X0071734Y0103049D01*
X0071862Y0103142D01*
X0071992Y0103232D01*
X0072125Y0103318D01*
X0072260Y0103402D01*
X0072396Y0103481D01*
X0072535Y0103558D01*
X0072676Y0103630D01*
X0072818Y0103700D01*
X0072962Y0103765D01*
X0073108Y0103827D01*
X0073255Y0103885D01*
X0073404Y0103940D01*
X0073554Y0103991D01*
X0073705Y0104038D01*
X0073857Y0104081D01*
X0074010Y0104120D01*
X0074165Y0104156D01*
X0074320Y0104187D01*
X0074476Y0104215D01*
X0074632Y0104239D01*
X0074789Y0104259D01*
X0074947Y0104275D01*
X0075104Y0104287D01*
X0075263Y0104295D01*
X0075421Y0104299D01*
X0075579Y0104299D01*
X0075737Y0104295D01*
X0075896Y0104287D01*
X0076053Y0104275D01*
X0076211Y0104259D01*
X0076368Y0104239D01*
X0076524Y0104215D01*
X0076680Y0104187D01*
X0076835Y0104156D01*
X0076990Y0104120D01*
X0077143Y0104081D01*
X0077295Y0104038D01*
X0077446Y0103991D01*
X0077596Y0103940D01*
X0077745Y0103885D01*
X0077892Y0103827D01*
X0078038Y0103765D01*
X0078182Y0103700D01*
X0078324Y0103630D01*
X0078465Y0103558D01*
X0078604Y0103481D01*
X0078740Y0103402D01*
X0078875Y0103318D01*
X0079008Y0103232D01*
X0079138Y0103142D01*
X0079266Y0103049D01*
X0079392Y0102953D01*
X0079515Y0102853D01*
X0079636Y0102751D01*
X0079754Y0102646D01*
X0079869Y0102537D01*
X0079982Y0102426D01*
X0080092Y0102312D01*
X0080199Y0102195D01*
X0080303Y0102076D01*
X0080404Y0101954D01*
X0080501Y0101829D01*
X0080596Y0101702D01*
X0080687Y0101573D01*
X0080776Y0101442D01*
X0080860Y0101308D01*
X0080942Y0101172D01*
X0081020Y0101035D01*
X0081094Y0100895D01*
X0081165Y0100753D01*
X0081233Y0100610D01*
X0081297Y0100465D01*
X0081357Y0100319D01*
X0081413Y0100171D01*
X0081466Y0100022D01*
X0081515Y0099871D01*
X0081560Y0099719D01*
X0081601Y0099566D01*
X0081639Y0099413D01*
X0081672Y0099258D01*
X0081702Y0099102D01*
X0081728Y0098946D01*
X0081749Y0098789D01*
X0081767Y0098632D01*
X0081781Y0098474D01*
X0081791Y0098316D01*
X0081797Y0098158D01*
X0081799Y0098000D01*
X0081797Y0097842D01*
X0081791Y0097684D01*
X0081781Y0097526D01*
X0081767Y0097368D01*
X0081749Y0097211D01*
X0081728Y0097054D01*
X0081702Y0096898D01*
X0081672Y0096742D01*
X0081639Y0096587D01*
X0081601Y0096434D01*
X0081560Y0096281D01*
X0081515Y0096129D01*
X0081466Y0095978D01*
X0081413Y0095829D01*
X0081357Y0095681D01*
X0081297Y0095535D01*
X0081233Y0095390D01*
X0081165Y0095247D01*
X0081094Y0095105D01*
X0081020Y0094965D01*
X0080942Y0094828D01*
X0080860Y0094692D01*
X0080776Y0094558D01*
X0080687Y0094427D01*
X0080596Y0094298D01*
X0080501Y0094171D01*
X0080404Y0094046D01*
X0080303Y0093924D01*
X0080199Y0093805D01*
X0080092Y0093688D01*
X0079982Y0093574D01*
X0079869Y0093463D01*
X0079754Y0093354D01*
X0079636Y0093249D01*
X0079515Y0093147D01*
X0079392Y0093047D01*
X0079266Y0092951D01*
X0079138Y0092858D01*
X0079008Y0092768D01*
X0078875Y0092682D01*
X0078740Y0092598D01*
X0078604Y0092519D01*
X0078465Y0092442D01*
X0078324Y0092370D01*
X0078182Y0092300D01*
X0078038Y0092235D01*
X0077892Y0092173D01*
X0077745Y0092115D01*
X0077596Y0092060D01*
X0077446Y0092009D01*
X0077295Y0091962D01*
X0077143Y0091919D01*
X0076990Y0091880D01*
X0076835Y0091844D01*
X0076680Y0091813D01*
X0076524Y0091785D01*
X0076368Y0091761D01*
X0076211Y0091741D01*
X0076053Y0091725D01*
X0075896Y0091713D01*
X0075737Y0091705D01*
X0075579Y0091701D01*
X0075421Y0091701D01*
X0075263Y0091705D01*
X0075104Y0091713D01*
X0074947Y0091725D01*
X0074789Y0091741D01*
X0074632Y0091761D01*
X0074476Y0091785D01*
X0074320Y0091813D01*
X0074165Y0091844D01*
X0074010Y0091880D01*
X0073857Y0091919D01*
X0073705Y0091962D01*
X0073554Y0092009D01*
X0073404Y0092060D01*
X0073255Y0092115D01*
X0073108Y0092173D01*
X0072962Y0092235D01*
X0072818Y0092300D01*
X0072676Y0092370D01*
X0072535Y0092442D01*
X0072396Y0092519D01*
X0072260Y0092598D01*
X0072125Y0092682D01*
X0071992Y0092768D01*
X0071862Y0092858D01*
X0071734Y0092951D01*
X0071608Y0093047D01*
X0071485Y0093147D01*
X0071364Y0093249D01*
X0071246Y0093354D01*
X0071131Y0093463D01*
X0071018Y0093574D01*
X0070908Y0093688D01*
X0070801Y0093805D01*
X0070697Y0093924D01*
X0070596Y0094046D01*
X0070499Y0094171D01*
X0070404Y0094298D01*
X0070313Y0094427D01*
X0070224Y0094558D01*
X0070140Y0094692D01*
X0070058Y0094828D01*
X0069980Y0094965D01*
X0069906Y0095105D01*
X0069835Y0095247D01*
X0069767Y0095390D01*
X0069703Y0095535D01*
X0069643Y0095681D01*
X0069587Y0095829D01*
X0069534Y0095978D01*
X0069485Y0096129D01*
X0069440Y0096281D01*
X0069399Y0096434D01*
X0069361Y0096587D01*
X0069328Y0096742D01*
X0069298Y0096898D01*
X0069272Y0097054D01*
X0069251Y0097211D01*
X0069233Y0097368D01*
X0069219Y0097526D01*
X0069209Y0097684D01*
X0069203Y0097842D01*
X0069201Y0098000D01*
X0215451Y0098000D02*
X0215453Y0098158D01*
X0215459Y0098316D01*
X0215469Y0098474D01*
X0215483Y0098632D01*
X0215501Y0098789D01*
X0215522Y0098946D01*
X0215548Y0099102D01*
X0215578Y0099258D01*
X0215611Y0099413D01*
X0215649Y0099566D01*
X0215690Y0099719D01*
X0215735Y0099871D01*
X0215784Y0100022D01*
X0215837Y0100171D01*
X0215893Y0100319D01*
X0215953Y0100465D01*
X0216017Y0100610D01*
X0216085Y0100753D01*
X0216156Y0100895D01*
X0216230Y0101035D01*
X0216308Y0101172D01*
X0216390Y0101308D01*
X0216474Y0101442D01*
X0216563Y0101573D01*
X0216654Y0101702D01*
X0216749Y0101829D01*
X0216846Y0101954D01*
X0216947Y0102076D01*
X0217051Y0102195D01*
X0217158Y0102312D01*
X0217268Y0102426D01*
X0217381Y0102537D01*
X0217496Y0102646D01*
X0217614Y0102751D01*
X0217735Y0102853D01*
X0217858Y0102953D01*
X0217984Y0103049D01*
X0218112Y0103142D01*
X0218242Y0103232D01*
X0218375Y0103318D01*
X0218510Y0103402D01*
X0218646Y0103481D01*
X0218785Y0103558D01*
X0218926Y0103630D01*
X0219068Y0103700D01*
X0219212Y0103765D01*
X0219358Y0103827D01*
X0219505Y0103885D01*
X0219654Y0103940D01*
X0219804Y0103991D01*
X0219955Y0104038D01*
X0220107Y0104081D01*
X0220260Y0104120D01*
X0220415Y0104156D01*
X0220570Y0104187D01*
X0220726Y0104215D01*
X0220882Y0104239D01*
X0221039Y0104259D01*
X0221197Y0104275D01*
X0221354Y0104287D01*
X0221513Y0104295D01*
X0221671Y0104299D01*
X0221829Y0104299D01*
X0221987Y0104295D01*
X0222146Y0104287D01*
X0222303Y0104275D01*
X0222461Y0104259D01*
X0222618Y0104239D01*
X0222774Y0104215D01*
X0222930Y0104187D01*
X0223085Y0104156D01*
X0223240Y0104120D01*
X0223393Y0104081D01*
X0223545Y0104038D01*
X0223696Y0103991D01*
X0223846Y0103940D01*
X0223995Y0103885D01*
X0224142Y0103827D01*
X0224288Y0103765D01*
X0224432Y0103700D01*
X0224574Y0103630D01*
X0224715Y0103558D01*
X0224854Y0103481D01*
X0224990Y0103402D01*
X0225125Y0103318D01*
X0225258Y0103232D01*
X0225388Y0103142D01*
X0225516Y0103049D01*
X0225642Y0102953D01*
X0225765Y0102853D01*
X0225886Y0102751D01*
X0226004Y0102646D01*
X0226119Y0102537D01*
X0226232Y0102426D01*
X0226342Y0102312D01*
X0226449Y0102195D01*
X0226553Y0102076D01*
X0226654Y0101954D01*
X0226751Y0101829D01*
X0226846Y0101702D01*
X0226937Y0101573D01*
X0227026Y0101442D01*
X0227110Y0101308D01*
X0227192Y0101172D01*
X0227270Y0101035D01*
X0227344Y0100895D01*
X0227415Y0100753D01*
X0227483Y0100610D01*
X0227547Y0100465D01*
X0227607Y0100319D01*
X0227663Y0100171D01*
X0227716Y0100022D01*
X0227765Y0099871D01*
X0227810Y0099719D01*
X0227851Y0099566D01*
X0227889Y0099413D01*
X0227922Y0099258D01*
X0227952Y0099102D01*
X0227978Y0098946D01*
X0227999Y0098789D01*
X0228017Y0098632D01*
X0228031Y0098474D01*
X0228041Y0098316D01*
X0228047Y0098158D01*
X0228049Y0098000D01*
X0228047Y0097842D01*
X0228041Y0097684D01*
X0228031Y0097526D01*
X0228017Y0097368D01*
X0227999Y0097211D01*
X0227978Y0097054D01*
X0227952Y0096898D01*
X0227922Y0096742D01*
X0227889Y0096587D01*
X0227851Y0096434D01*
X0227810Y0096281D01*
X0227765Y0096129D01*
X0227716Y0095978D01*
X0227663Y0095829D01*
X0227607Y0095681D01*
X0227547Y0095535D01*
X0227483Y0095390D01*
X0227415Y0095247D01*
X0227344Y0095105D01*
X0227270Y0094965D01*
X0227192Y0094828D01*
X0227110Y0094692D01*
X0227026Y0094558D01*
X0226937Y0094427D01*
X0226846Y0094298D01*
X0226751Y0094171D01*
X0226654Y0094046D01*
X0226553Y0093924D01*
X0226449Y0093805D01*
X0226342Y0093688D01*
X0226232Y0093574D01*
X0226119Y0093463D01*
X0226004Y0093354D01*
X0225886Y0093249D01*
X0225765Y0093147D01*
X0225642Y0093047D01*
X0225516Y0092951D01*
X0225388Y0092858D01*
X0225258Y0092768D01*
X0225125Y0092682D01*
X0224990Y0092598D01*
X0224854Y0092519D01*
X0224715Y0092442D01*
X0224574Y0092370D01*
X0224432Y0092300D01*
X0224288Y0092235D01*
X0224142Y0092173D01*
X0223995Y0092115D01*
X0223846Y0092060D01*
X0223696Y0092009D01*
X0223545Y0091962D01*
X0223393Y0091919D01*
X0223240Y0091880D01*
X0223085Y0091844D01*
X0222930Y0091813D01*
X0222774Y0091785D01*
X0222618Y0091761D01*
X0222461Y0091741D01*
X0222303Y0091725D01*
X0222146Y0091713D01*
X0221987Y0091705D01*
X0221829Y0091701D01*
X0221671Y0091701D01*
X0221513Y0091705D01*
X0221354Y0091713D01*
X0221197Y0091725D01*
X0221039Y0091741D01*
X0220882Y0091761D01*
X0220726Y0091785D01*
X0220570Y0091813D01*
X0220415Y0091844D01*
X0220260Y0091880D01*
X0220107Y0091919D01*
X0219955Y0091962D01*
X0219804Y0092009D01*
X0219654Y0092060D01*
X0219505Y0092115D01*
X0219358Y0092173D01*
X0219212Y0092235D01*
X0219068Y0092300D01*
X0218926Y0092370D01*
X0218785Y0092442D01*
X0218646Y0092519D01*
X0218510Y0092598D01*
X0218375Y0092682D01*
X0218242Y0092768D01*
X0218112Y0092858D01*
X0217984Y0092951D01*
X0217858Y0093047D01*
X0217735Y0093147D01*
X0217614Y0093249D01*
X0217496Y0093354D01*
X0217381Y0093463D01*
X0217268Y0093574D01*
X0217158Y0093688D01*
X0217051Y0093805D01*
X0216947Y0093924D01*
X0216846Y0094046D01*
X0216749Y0094171D01*
X0216654Y0094298D01*
X0216563Y0094427D01*
X0216474Y0094558D01*
X0216390Y0094692D01*
X0216308Y0094828D01*
X0216230Y0094965D01*
X0216156Y0095105D01*
X0216085Y0095247D01*
X0216017Y0095390D01*
X0215953Y0095535D01*
X0215893Y0095681D01*
X0215837Y0095829D01*
X0215784Y0095978D01*
X0215735Y0096129D01*
X0215690Y0096281D01*
X0215649Y0096434D01*
X0215611Y0096587D01*
X0215578Y0096742D01*
X0215548Y0096898D01*
X0215522Y0097054D01*
X0215501Y0097211D01*
X0215483Y0097368D01*
X0215469Y0097526D01*
X0215459Y0097684D01*
X0215453Y0097842D01*
X0215451Y0098000D01*
X0215451Y0244250D02*
X0215453Y0244408D01*
X0215459Y0244566D01*
X0215469Y0244724D01*
X0215483Y0244882D01*
X0215501Y0245039D01*
X0215522Y0245196D01*
X0215548Y0245352D01*
X0215578Y0245508D01*
X0215611Y0245663D01*
X0215649Y0245816D01*
X0215690Y0245969D01*
X0215735Y0246121D01*
X0215784Y0246272D01*
X0215837Y0246421D01*
X0215893Y0246569D01*
X0215953Y0246715D01*
X0216017Y0246860D01*
X0216085Y0247003D01*
X0216156Y0247145D01*
X0216230Y0247285D01*
X0216308Y0247422D01*
X0216390Y0247558D01*
X0216474Y0247692D01*
X0216563Y0247823D01*
X0216654Y0247952D01*
X0216749Y0248079D01*
X0216846Y0248204D01*
X0216947Y0248326D01*
X0217051Y0248445D01*
X0217158Y0248562D01*
X0217268Y0248676D01*
X0217381Y0248787D01*
X0217496Y0248896D01*
X0217614Y0249001D01*
X0217735Y0249103D01*
X0217858Y0249203D01*
X0217984Y0249299D01*
X0218112Y0249392D01*
X0218242Y0249482D01*
X0218375Y0249568D01*
X0218510Y0249652D01*
X0218646Y0249731D01*
X0218785Y0249808D01*
X0218926Y0249880D01*
X0219068Y0249950D01*
X0219212Y0250015D01*
X0219358Y0250077D01*
X0219505Y0250135D01*
X0219654Y0250190D01*
X0219804Y0250241D01*
X0219955Y0250288D01*
X0220107Y0250331D01*
X0220260Y0250370D01*
X0220415Y0250406D01*
X0220570Y0250437D01*
X0220726Y0250465D01*
X0220882Y0250489D01*
X0221039Y0250509D01*
X0221197Y0250525D01*
X0221354Y0250537D01*
X0221513Y0250545D01*
X0221671Y0250549D01*
X0221829Y0250549D01*
X0221987Y0250545D01*
X0222146Y0250537D01*
X0222303Y0250525D01*
X0222461Y0250509D01*
X0222618Y0250489D01*
X0222774Y0250465D01*
X0222930Y0250437D01*
X0223085Y0250406D01*
X0223240Y0250370D01*
X0223393Y0250331D01*
X0223545Y0250288D01*
X0223696Y0250241D01*
X0223846Y0250190D01*
X0223995Y0250135D01*
X0224142Y0250077D01*
X0224288Y0250015D01*
X0224432Y0249950D01*
X0224574Y0249880D01*
X0224715Y0249808D01*
X0224854Y0249731D01*
X0224990Y0249652D01*
X0225125Y0249568D01*
X0225258Y0249482D01*
X0225388Y0249392D01*
X0225516Y0249299D01*
X0225642Y0249203D01*
X0225765Y0249103D01*
X0225886Y0249001D01*
X0226004Y0248896D01*
X0226119Y0248787D01*
X0226232Y0248676D01*
X0226342Y0248562D01*
X0226449Y0248445D01*
X0226553Y0248326D01*
X0226654Y0248204D01*
X0226751Y0248079D01*
X0226846Y0247952D01*
X0226937Y0247823D01*
X0227026Y0247692D01*
X0227110Y0247558D01*
X0227192Y0247422D01*
X0227270Y0247285D01*
X0227344Y0247145D01*
X0227415Y0247003D01*
X0227483Y0246860D01*
X0227547Y0246715D01*
X0227607Y0246569D01*
X0227663Y0246421D01*
X0227716Y0246272D01*
X0227765Y0246121D01*
X0227810Y0245969D01*
X0227851Y0245816D01*
X0227889Y0245663D01*
X0227922Y0245508D01*
X0227952Y0245352D01*
X0227978Y0245196D01*
X0227999Y0245039D01*
X0228017Y0244882D01*
X0228031Y0244724D01*
X0228041Y0244566D01*
X0228047Y0244408D01*
X0228049Y0244250D01*
X0228047Y0244092D01*
X0228041Y0243934D01*
X0228031Y0243776D01*
X0228017Y0243618D01*
X0227999Y0243461D01*
X0227978Y0243304D01*
X0227952Y0243148D01*
X0227922Y0242992D01*
X0227889Y0242837D01*
X0227851Y0242684D01*
X0227810Y0242531D01*
X0227765Y0242379D01*
X0227716Y0242228D01*
X0227663Y0242079D01*
X0227607Y0241931D01*
X0227547Y0241785D01*
X0227483Y0241640D01*
X0227415Y0241497D01*
X0227344Y0241355D01*
X0227270Y0241215D01*
X0227192Y0241078D01*
X0227110Y0240942D01*
X0227026Y0240808D01*
X0226937Y0240677D01*
X0226846Y0240548D01*
X0226751Y0240421D01*
X0226654Y0240296D01*
X0226553Y0240174D01*
X0226449Y0240055D01*
X0226342Y0239938D01*
X0226232Y0239824D01*
X0226119Y0239713D01*
X0226004Y0239604D01*
X0225886Y0239499D01*
X0225765Y0239397D01*
X0225642Y0239297D01*
X0225516Y0239201D01*
X0225388Y0239108D01*
X0225258Y0239018D01*
X0225125Y0238932D01*
X0224990Y0238848D01*
X0224854Y0238769D01*
X0224715Y0238692D01*
X0224574Y0238620D01*
X0224432Y0238550D01*
X0224288Y0238485D01*
X0224142Y0238423D01*
X0223995Y0238365D01*
X0223846Y0238310D01*
X0223696Y0238259D01*
X0223545Y0238212D01*
X0223393Y0238169D01*
X0223240Y0238130D01*
X0223085Y0238094D01*
X0222930Y0238063D01*
X0222774Y0238035D01*
X0222618Y0238011D01*
X0222461Y0237991D01*
X0222303Y0237975D01*
X0222146Y0237963D01*
X0221987Y0237955D01*
X0221829Y0237951D01*
X0221671Y0237951D01*
X0221513Y0237955D01*
X0221354Y0237963D01*
X0221197Y0237975D01*
X0221039Y0237991D01*
X0220882Y0238011D01*
X0220726Y0238035D01*
X0220570Y0238063D01*
X0220415Y0238094D01*
X0220260Y0238130D01*
X0220107Y0238169D01*
X0219955Y0238212D01*
X0219804Y0238259D01*
X0219654Y0238310D01*
X0219505Y0238365D01*
X0219358Y0238423D01*
X0219212Y0238485D01*
X0219068Y0238550D01*
X0218926Y0238620D01*
X0218785Y0238692D01*
X0218646Y0238769D01*
X0218510Y0238848D01*
X0218375Y0238932D01*
X0218242Y0239018D01*
X0218112Y0239108D01*
X0217984Y0239201D01*
X0217858Y0239297D01*
X0217735Y0239397D01*
X0217614Y0239499D01*
X0217496Y0239604D01*
X0217381Y0239713D01*
X0217268Y0239824D01*
X0217158Y0239938D01*
X0217051Y0240055D01*
X0216947Y0240174D01*
X0216846Y0240296D01*
X0216749Y0240421D01*
X0216654Y0240548D01*
X0216563Y0240677D01*
X0216474Y0240808D01*
X0216390Y0240942D01*
X0216308Y0241078D01*
X0216230Y0241215D01*
X0216156Y0241355D01*
X0216085Y0241497D01*
X0216017Y0241640D01*
X0215953Y0241785D01*
X0215893Y0241931D01*
X0215837Y0242079D01*
X0215784Y0242228D01*
X0215735Y0242379D01*
X0215690Y0242531D01*
X0215649Y0242684D01*
X0215611Y0242837D01*
X0215578Y0242992D01*
X0215548Y0243148D01*
X0215522Y0243304D01*
X0215501Y0243461D01*
X0215483Y0243618D01*
X0215469Y0243776D01*
X0215459Y0243934D01*
X0215453Y0244092D01*
X0215451Y0244250D01*
D12*
X0058000Y0158000D03*
X0058000Y0148000D03*
X0058000Y0138000D03*
X0058000Y0128000D03*
X0058000Y0118000D03*
X0058000Y0108000D03*
X0058000Y0098000D03*
X0058000Y0088000D03*
X0058000Y0078000D03*
X0058000Y0068000D03*
X0058000Y0058000D03*
X0058000Y0048000D03*
X0058000Y0038000D03*
X0058000Y0028000D03*
X0058000Y0018000D03*
X0058000Y0008000D03*
X0008000Y0008000D03*
X0008000Y0018000D03*
X0008000Y0028000D03*
X0008000Y0038000D03*
X0008000Y0048000D03*
X0008000Y0058000D03*
X0008000Y0068000D03*
X0008000Y0078000D03*
X0008000Y0088000D03*
X0008000Y0098000D03*
X0008000Y0108000D03*
X0008000Y0118000D03*
X0008000Y0128000D03*
X0008000Y0138000D03*
X0008000Y0148000D03*
X0008000Y0158000D03*
D13*
X0087375Y0140500D03*
X0097375Y0140500D03*
X0097375Y0130500D03*
X0087375Y0130500D03*
X0087375Y0120500D03*
X0097375Y0120500D03*
X0097375Y0110500D03*
X0087375Y0110500D03*
X0090500Y0079875D03*
X0080500Y0079875D03*
X0100500Y0079875D03*
D14*
X0138000Y0078000D03*
X0138000Y0068000D03*
X0138000Y0058000D03*
X0138000Y0048000D03*
X0138000Y0038000D03*
X0138000Y0088000D03*
X0138000Y0098000D03*
X0138000Y0108000D03*
X0138000Y0118000D03*
X0138000Y0128000D03*
X0138000Y0138000D03*
X0138000Y0148000D03*
X0109000Y0140500D03*
X0109000Y0130500D03*
X0028000Y0098000D03*
X0028000Y0088000D03*
X0028000Y0018000D03*
X0028000Y0008000D03*
X0198000Y0038000D03*
X0198000Y0048000D03*
X0198000Y0058000D03*
X0198000Y0068000D03*
X0198000Y0078000D03*
X0198000Y0088000D03*
X0198000Y0098000D03*
X0198000Y0108000D03*
X0198000Y0118000D03*
X0198000Y0128000D03*
X0198000Y0138000D03*
X0198000Y0148000D03*
X0198000Y0198000D03*
X0198000Y0208000D03*
X0198000Y0218000D03*
X0198000Y0228000D03*
X0198000Y0238000D03*
X0198000Y0248000D03*
X0198000Y0258000D03*
X0198000Y0268000D03*
X0198000Y0278000D03*
X0198000Y0288000D03*
X0198000Y0298000D03*
X0198000Y0308000D03*
X0215500Y0303000D03*
X0215500Y0293000D03*
X0138000Y0288000D03*
X0138000Y0278000D03*
X0138000Y0268000D03*
X0138000Y0258000D03*
X0138000Y0248000D03*
X0138000Y0238000D03*
X0138000Y0228000D03*
X0138000Y0218000D03*
X0138000Y0208000D03*
X0138000Y0198000D03*
X0138000Y0298000D03*
X0138000Y0308000D03*
X0268000Y0228000D03*
X0278000Y0228000D03*
X0278000Y0218000D03*
X0268000Y0218000D03*
X0268000Y0208000D03*
X0278000Y0208000D03*
X0278000Y0198000D03*
X0268000Y0198000D03*
X0268000Y0188000D03*
X0278000Y0188000D03*
X0278000Y0178000D03*
X0268000Y0178000D03*
X0280500Y0159250D03*
X0290500Y0159250D03*
X0301750Y0143000D03*
X0301750Y0133000D03*
X0301750Y0123000D03*
X0301750Y0113000D03*
X0268000Y0113000D03*
X0268000Y0123000D03*
X0268000Y0133000D03*
X0268000Y0143000D03*
X0348000Y0133000D03*
X0358000Y0133000D03*
X0358000Y0123000D03*
X0348000Y0123000D03*
X0215500Y0048000D03*
X0215500Y0038000D03*
D15*
X0348050Y0183657D02*
X0357950Y0183657D01*
X0357950Y0203343D02*
X0348050Y0203343D01*
X0348050Y0223157D02*
X0357950Y0223157D01*
X0357950Y0242843D02*
X0348050Y0242843D01*
D16*
X0356500Y0164587D03*
X0356500Y0150807D03*
D17*
X0215500Y0068000D03*
X0215500Y0058000D03*
X0215500Y0273000D03*
X0215500Y0283000D03*
D18*
X0358000Y0100000D03*
D19*
X0348000Y0100000D03*
D20*
X0316500Y0243000D03*
X0316500Y0253000D03*
X0282000Y0253000D03*
X0282000Y0243000D03*
D21*
X0267000Y0251500D03*
X0237000Y0251500D03*
D22*
X0253000Y0238000D03*
X0223000Y0228000D03*
X0208000Y0203000D03*
X0188000Y0208000D03*
X0183000Y0223000D03*
X0128000Y0168000D03*
X0118000Y0155889D03*
X0118000Y0143000D03*
X0078000Y0113000D03*
X0073000Y0123000D03*
X0048000Y0133000D03*
X0033000Y0133000D03*
X0068000Y0088000D03*
X0068000Y0073000D03*
X0023000Y0063000D03*
X0023000Y0043000D03*
X0068000Y0013000D03*
X0203000Y0113000D03*
X0253000Y0123000D03*
X0253000Y0148000D03*
X0258000Y0153000D03*
D23*
X0228000Y0183000D01*
X0203000Y0183000D01*
X0188000Y0198000D01*
X0188000Y0208000D01*
X0183000Y0198000D02*
X0183000Y0223000D01*
X0178000Y0233000D02*
X0163000Y0218000D01*
X0138000Y0218000D01*
X0130300Y0195654D02*
X0137954Y0188000D01*
X0138000Y0188000D01*
X0143000Y0183000D01*
X0143000Y0168000D01*
X0140300Y0165300D01*
X0140232Y0165300D01*
X0120700Y0145768D01*
X0120700Y0145700D01*
X0118000Y0143000D01*
X0118000Y0148000D02*
X0083000Y0148000D01*
X0078000Y0143000D01*
X0078000Y0118000D01*
X0063000Y0103000D01*
X0063000Y0073000D01*
X0058000Y0068000D01*
X0038000Y0063000D02*
X0038000Y0138000D01*
X0053000Y0153000D01*
X0079030Y0153000D01*
X0079130Y0152900D01*
X0110925Y0152900D01*
X0116803Y0158778D01*
X0118778Y0158778D01*
X0128000Y0168000D01*
X0140700Y0170700D02*
X0118000Y0148000D01*
X0112411Y0150300D02*
X0082047Y0150300D01*
X0079747Y0148000D01*
X0058000Y0148000D01*
X0063000Y0143000D02*
X0053000Y0143000D01*
X0063000Y0143000D02*
X0063000Y0113000D01*
X0053000Y0113000D01*
X0053000Y0123000D01*
X0073000Y0123000D01*
X0063000Y0133000D01*
X0048000Y0133000D01*
X0033000Y0133000D02*
X0018000Y0148000D01*
X0008000Y0148000D01*
X0068000Y0088000D02*
X0094747Y0088000D01*
X0097047Y0090300D01*
X0110300Y0090300D01*
X0123000Y0103000D01*
X0123000Y0144815D01*
X0141185Y0163000D01*
X0168000Y0163000D01*
X0188000Y0143000D01*
X0188000Y0108000D01*
X0198000Y0098000D01*
X0208000Y0093000D02*
X0215500Y0085500D01*
X0215500Y0068000D01*
X0215500Y0058000D01*
X0208000Y0093000D02*
X0208000Y0118000D01*
X0198000Y0128000D01*
X0203000Y0113000D02*
X0198000Y0108000D01*
X0253000Y0123000D02*
X0268000Y0123000D01*
X0268000Y0143000D02*
X0267195Y0143000D01*
X0268000Y0143000D02*
X0268006Y0143000D01*
X0253000Y0148000D02*
X0253000Y0153000D01*
X0228000Y0178000D01*
X0203000Y0178000D01*
X0183000Y0198000D01*
X0208000Y0203000D02*
X0215500Y0210500D01*
X0265500Y0210500D01*
X0268000Y0208000D01*
X0278000Y0208000D01*
X0283000Y0208000D01*
X0293000Y0218000D01*
X0293000Y0232000D01*
X0282000Y0243000D01*
X0288000Y0248000D02*
X0293000Y0243000D01*
X0303000Y0229000D02*
X0316500Y0243000D01*
X0323000Y0248000D02*
X0269581Y0248000D01*
X0268781Y0247200D01*
X0265219Y0247200D01*
X0256519Y0255900D01*
X0227130Y0255900D01*
X0225900Y0257130D01*
X0225900Y0292600D01*
X0215500Y0303000D01*
X0204450Y0310598D02*
X0199148Y0315900D01*
X0185900Y0315900D01*
X0178000Y0308000D01*
X0178000Y0233000D01*
X0223000Y0228000D02*
X0258000Y0228000D01*
X0268000Y0218000D01*
X0278000Y0218000D01*
X0278000Y0228000D02*
X0268000Y0228000D01*
X0258000Y0238000D01*
X0253000Y0238000D01*
X0267000Y0251500D02*
X0268000Y0252500D01*
X0303000Y0229000D02*
X0303000Y0203000D01*
X0278000Y0178000D01*
X0268000Y0178000D01*
X0268000Y0188000D02*
X0278000Y0188000D01*
X0278000Y0198000D02*
X0268000Y0198000D01*
X0316000Y0253000D02*
X0316500Y0253000D01*
X0215500Y0273000D02*
X0215500Y0283000D01*
X0208000Y0283000D01*
X0204450Y0286550D01*
X0204450Y0310598D01*
X0148000Y0308000D02*
X0148000Y0303000D01*
X0143000Y0298000D01*
X0138000Y0298000D01*
X0130300Y0300300D02*
X0130300Y0195654D01*
X0128000Y0194701D02*
X0128000Y0308000D01*
X0133000Y0313000D01*
X0135646Y0313000D01*
X0135846Y0313200D01*
X0140154Y0313200D01*
X0140354Y0313000D01*
X0143000Y0313000D01*
X0148000Y0308000D01*
X0138000Y0308000D02*
X0130300Y0300300D01*
X0128000Y0194701D02*
X0137001Y0185700D01*
X0137047Y0185700D01*
X0140700Y0182047D01*
X0140700Y0170700D01*
X0118000Y0155889D02*
X0112411Y0150300D01*
X0109000Y0140500D02*
X0104022Y0140500D01*
X0099322Y0135800D01*
X0095428Y0135800D01*
X0090728Y0140500D01*
X0087375Y0140500D01*
X0087375Y0130500D02*
X0090728Y0130500D01*
X0095428Y0125800D01*
X0099322Y0125800D01*
X0104022Y0130500D01*
X0109000Y0130500D01*
X0098000Y0088000D02*
X0090500Y0080500D01*
X0090500Y0079875D01*
X0038000Y0063000D02*
X0033000Y0058000D01*
X0033000Y0023000D01*
X0048000Y0008000D01*
X0058000Y0008000D01*
X0023000Y0043000D02*
X0023000Y0063000D01*
D24*
X0090500Y0079875D02*
X0090500Y0079934D01*
X0098166Y0087600D01*
X0117600Y0087600D01*
X0129680Y0087600D01*
X0129680Y0147600D01*
X0135680Y0153600D01*
X0140320Y0153600D01*
X0143600Y0150320D01*
X0143600Y0077400D01*
X0148000Y0073000D01*
X0143000Y0068000D01*
X0138000Y0068000D01*
X0118000Y0088000D02*
X0117600Y0087600D01*
X0198000Y0168000D02*
X0213000Y0153000D01*
X0228000Y0153000D01*
X0238000Y0143000D01*
X0267195Y0143000D01*
X0268006Y0143000D01*
X0301750Y0143000D01*
X0280500Y0159250D02*
X0268000Y0143000D01*
D25*
X0274700Y0143000D01*
X0274700Y0143439D01*
X0274585Y0144310D01*
X0274358Y0145158D01*
X0274022Y0145970D01*
X0273583Y0146730D01*
X0273048Y0147427D01*
X0272427Y0148048D01*
X0271730Y0148583D01*
X0270970Y0149022D01*
X0270158Y0149358D01*
X0269310Y0149585D01*
X0268439Y0149700D01*
X0268000Y0149700D01*
X0268000Y0143000D01*
X0268000Y0143000D01*
X0268000Y0143000D01*
X0274700Y0143000D01*
X0274700Y0142561D01*
X0274585Y0141690D01*
X0274358Y0140842D01*
X0274022Y0140030D01*
X0273583Y0139270D01*
X0273048Y0138573D01*
X0272427Y0137952D01*
X0272241Y0137809D01*
X0273426Y0136625D01*
X0274400Y0134273D01*
X0274400Y0131727D01*
X0273426Y0129375D01*
X0272051Y0128000D01*
X0273426Y0126625D01*
X0274400Y0124273D01*
X0274400Y0121727D01*
X0273426Y0119375D01*
X0272051Y0118000D01*
X0273426Y0116625D01*
X0274400Y0114273D01*
X0274400Y0111727D01*
X0273426Y0109375D01*
X0271625Y0107574D01*
X0269273Y0106600D01*
X0266727Y0106600D01*
X0264375Y0107574D01*
X0262574Y0109375D01*
X0261600Y0111727D01*
X0261600Y0114273D01*
X0262574Y0116625D01*
X0263949Y0118000D01*
X0262574Y0119375D01*
X0262522Y0119500D01*
X0255235Y0119500D01*
X0253813Y0118911D01*
X0252187Y0118911D01*
X0250684Y0119534D01*
X0249534Y0120684D01*
X0248911Y0122187D01*
X0248911Y0123813D01*
X0249534Y0125316D01*
X0250684Y0126466D01*
X0252187Y0127089D01*
X0253813Y0127089D01*
X0255235Y0126500D01*
X0262522Y0126500D01*
X0262574Y0126625D01*
X0263949Y0128000D01*
X0262574Y0129375D01*
X0261600Y0131727D01*
X0261600Y0134273D01*
X0262574Y0136625D01*
X0263758Y0137809D01*
X0263573Y0137952D01*
X0262952Y0138573D01*
X0262417Y0139270D01*
X0261978Y0140030D01*
X0261642Y0140842D01*
X0261415Y0141690D01*
X0261300Y0142561D01*
X0261300Y0143000D01*
X0268000Y0143000D01*
X0268000Y0143000D01*
X0268000Y0149700D01*
X0267561Y0149700D01*
X0266690Y0149585D01*
X0265842Y0149358D01*
X0265030Y0149022D01*
X0264270Y0148583D01*
X0263573Y0148048D01*
X0262952Y0147427D01*
X0262417Y0146730D01*
X0261978Y0145970D01*
X0261642Y0145158D01*
X0261415Y0144310D01*
X0261300Y0143439D01*
X0261300Y0143000D01*
X0268000Y0143000D01*
X0268000Y0145937D02*
X0268000Y0145937D01*
X0274035Y0145937D02*
X0295715Y0145937D01*
X0295728Y0145970D02*
X0295392Y0145158D01*
X0295165Y0144310D01*
X0295050Y0143439D01*
X0295050Y0143000D01*
X0301750Y0143000D01*
X0308450Y0143000D01*
X0308450Y0143439D01*
X0308335Y0144310D01*
X0308108Y0145158D01*
X0307772Y0145970D01*
X0307333Y0146730D01*
X0306798Y0147427D01*
X0306177Y0148048D01*
X0305480Y0148583D01*
X0304720Y0149022D01*
X0303908Y0149358D01*
X0303060Y0149585D01*
X0302189Y0149700D01*
X0301750Y0149700D01*
X0301750Y0143000D01*
X0301750Y0143000D01*
X0301750Y0143000D01*
X0308450Y0143000D01*
X0308450Y0142561D01*
X0308335Y0141690D01*
X0308108Y0140842D01*
X0307772Y0140030D01*
X0307333Y0139270D01*
X0306798Y0138573D01*
X0306177Y0137952D01*
X0305991Y0137809D01*
X0307176Y0136625D01*
X0308150Y0134273D01*
X0308150Y0131727D01*
X0307176Y0129375D01*
X0305801Y0128000D01*
X0307176Y0126625D01*
X0308150Y0124273D01*
X0308150Y0121727D01*
X0307176Y0119375D01*
X0305801Y0118000D01*
X0307176Y0116625D01*
X0308150Y0114273D01*
X0308150Y0111727D01*
X0307176Y0109375D01*
X0305375Y0107574D01*
X0303023Y0106600D01*
X0300477Y0106600D01*
X0298125Y0107574D01*
X0296324Y0109375D01*
X0295350Y0111727D01*
X0295350Y0114273D01*
X0296324Y0116625D01*
X0297699Y0118000D01*
X0296324Y0119375D01*
X0295350Y0121727D01*
X0295350Y0124273D01*
X0296324Y0126625D01*
X0297699Y0128000D01*
X0296324Y0129375D01*
X0295350Y0131727D01*
X0295350Y0134273D01*
X0296324Y0136625D01*
X0297508Y0137809D01*
X0297323Y0137952D01*
X0296702Y0138573D01*
X0296167Y0139270D01*
X0295728Y0140030D01*
X0295392Y0140842D01*
X0295165Y0141690D01*
X0295050Y0142561D01*
X0295050Y0143000D01*
X0301750Y0143000D01*
X0301750Y0143000D01*
X0301750Y0149700D01*
X0301311Y0149700D01*
X0300440Y0149585D01*
X0299592Y0149358D01*
X0298780Y0149022D01*
X0298020Y0148583D01*
X0297323Y0148048D01*
X0296702Y0147427D01*
X0296167Y0146730D01*
X0295728Y0145970D01*
X0295132Y0141939D02*
X0274618Y0141939D01*
X0272412Y0137940D02*
X0297338Y0137940D01*
X0295350Y0133942D02*
X0274400Y0133942D01*
X0273661Y0129943D02*
X0296089Y0129943D01*
X0296043Y0125945D02*
X0273707Y0125945D01*
X0274400Y0121946D02*
X0295350Y0121946D01*
X0297647Y0117948D02*
X0272103Y0117948D01*
X0274400Y0113949D02*
X0295350Y0113949D01*
X0296086Y0109951D02*
X0273664Y0109951D01*
X0263897Y0117948D02*
X0211500Y0117948D01*
X0211500Y0118696D02*
X0210967Y0119983D01*
X0204348Y0126602D01*
X0204400Y0126727D01*
X0204400Y0129273D01*
X0203426Y0131625D01*
X0202051Y0133000D01*
X0203426Y0134375D01*
X0204400Y0136727D01*
X0204400Y0139273D01*
X0203426Y0141625D01*
X0202051Y0143000D01*
X0203426Y0144375D01*
X0204400Y0146727D01*
X0204400Y0149273D01*
X0203426Y0151625D01*
X0201625Y0153426D01*
X0199273Y0154400D01*
X0196727Y0154400D01*
X0194375Y0153426D01*
X0192574Y0151625D01*
X0191600Y0149273D01*
X0191600Y0146727D01*
X0192574Y0144375D01*
X0193949Y0143000D01*
X0192574Y0141625D01*
X0191600Y0139273D01*
X0191600Y0136727D01*
X0192574Y0134375D01*
X0193949Y0133000D01*
X0192574Y0131625D01*
X0191600Y0129273D01*
X0191600Y0126727D01*
X0192574Y0124375D01*
X0193949Y0123000D01*
X0192574Y0121625D01*
X0191600Y0119273D01*
X0191600Y0116727D01*
X0192574Y0114375D01*
X0193949Y0113000D01*
X0192574Y0111625D01*
X0191622Y0109327D01*
X0191500Y0109450D01*
X0191500Y0143696D01*
X0190967Y0144983D01*
X0189983Y0145967D01*
X0170967Y0164983D01*
X0169983Y0165967D01*
X0168696Y0166500D01*
X0146167Y0166500D01*
X0146500Y0167304D01*
X0146500Y0183696D01*
X0145967Y0184983D01*
X0140967Y0189983D01*
X0139983Y0190967D01*
X0139904Y0191000D01*
X0139295Y0191609D01*
X0141625Y0192574D01*
X0143426Y0194375D01*
X0144400Y0196727D01*
X0144400Y0199273D01*
X0143426Y0201625D01*
X0142051Y0203000D01*
X0143426Y0204375D01*
X0144400Y0206727D01*
X0144400Y0209273D01*
X0143426Y0211625D01*
X0142051Y0213000D01*
X0143426Y0214375D01*
X0143478Y0214500D01*
X0163696Y0214500D01*
X0164983Y0215033D01*
X0165967Y0216017D01*
X0180967Y0231017D01*
X0181500Y0232304D01*
X0181500Y0306550D01*
X0187350Y0312400D01*
X0193349Y0312400D01*
X0192574Y0311625D01*
X0191600Y0309273D01*
X0191600Y0306727D01*
X0192574Y0304375D01*
X0193949Y0303000D01*
X0192574Y0301625D01*
X0191600Y0299273D01*
X0191600Y0296727D01*
X0192574Y0294375D01*
X0193949Y0293000D01*
X0192574Y0291625D01*
X0191600Y0289273D01*
X0191600Y0286727D01*
X0192574Y0284375D01*
X0193758Y0283191D01*
X0193573Y0283048D01*
X0192952Y0282427D01*
X0192417Y0281730D01*
X0191978Y0280970D01*
X0191642Y0280158D01*
X0191415Y0279310D01*
X0191300Y0278439D01*
X0191300Y0278000D01*
X0198000Y0278000D01*
X0204700Y0278000D01*
X0204700Y0278439D01*
X0204585Y0279310D01*
X0204358Y0280158D01*
X0204022Y0280970D01*
X0203583Y0281730D01*
X0203048Y0282427D01*
X0202427Y0283048D01*
X0202241Y0283191D01*
X0202551Y0283500D01*
X0206017Y0280033D01*
X0207304Y0279500D01*
X0209808Y0279500D01*
X0211308Y0278000D01*
X0209000Y0275692D01*
X0209000Y0270308D01*
X0212808Y0266500D01*
X0218192Y0266500D01*
X0222000Y0270308D01*
X0222000Y0275692D01*
X0219692Y0278000D01*
X0222000Y0280308D01*
X0222000Y0285692D01*
X0219622Y0288071D01*
X0220926Y0289375D01*
X0221900Y0291727D01*
X0221900Y0294273D01*
X0220926Y0296625D01*
X0219741Y0297809D01*
X0219927Y0297952D01*
X0220548Y0298573D01*
X0221083Y0299270D01*
X0221522Y0300030D01*
X0221858Y0300842D01*
X0222085Y0301690D01*
X0222200Y0302561D01*
X0222200Y0303000D01*
X0222200Y0303439D01*
X0222085Y0304310D01*
X0221858Y0305158D01*
X0221522Y0305970D01*
X0221083Y0306730D01*
X0220548Y0307427D01*
X0219927Y0308048D01*
X0219230Y0308583D01*
X0218470Y0309022D01*
X0217658Y0309358D01*
X0216810Y0309585D01*
X0215939Y0309700D01*
X0215500Y0309700D01*
X0215500Y0303000D01*
X0215500Y0303000D01*
X0222200Y0303000D01*
X0215500Y0303000D01*
X0215500Y0303000D01*
X0215500Y0303000D01*
X0208800Y0303000D01*
X0208800Y0303439D01*
X0208915Y0304310D01*
X0209142Y0305158D01*
X0209478Y0305970D01*
X0209917Y0306730D01*
X0210452Y0307427D01*
X0211073Y0308048D01*
X0211770Y0308583D01*
X0212530Y0309022D01*
X0213342Y0309358D01*
X0214190Y0309585D01*
X0215061Y0309700D01*
X0215500Y0309700D01*
X0215500Y0303000D01*
X0208800Y0303000D01*
X0208800Y0302561D01*
X0208915Y0301690D01*
X0209142Y0300842D01*
X0209478Y0300030D01*
X0209917Y0299270D01*
X0210452Y0298573D01*
X0211073Y0297952D01*
X0211258Y0297809D01*
X0210074Y0296625D01*
X0209100Y0294273D01*
X0209100Y0291727D01*
X0210074Y0289375D01*
X0211378Y0288071D01*
X0209808Y0286500D01*
X0209450Y0286500D01*
X0207950Y0288000D01*
X0207950Y0311294D01*
X0207417Y0312580D01*
X0205297Y0314700D01*
X0224700Y0314700D01*
X0224700Y0257344D01*
X0225202Y0256131D01*
X0226131Y0255202D01*
X0227344Y0254700D01*
X0232422Y0254700D01*
X0231500Y0253778D01*
X0231500Y0249222D01*
X0234722Y0246000D01*
X0239278Y0246000D01*
X0242500Y0249222D01*
X0242500Y0253778D01*
X0241578Y0254700D01*
X0262422Y0254700D01*
X0261500Y0253778D01*
X0261500Y0249222D01*
X0264722Y0246000D01*
X0269278Y0246000D01*
X0272500Y0249222D01*
X0272500Y0253778D01*
X0271578Y0254700D01*
X0276000Y0254700D01*
X0276000Y0250515D01*
X0278515Y0248000D01*
X0276000Y0245485D01*
X0276000Y0240515D01*
X0279515Y0237000D01*
X0283050Y0237000D01*
X0289500Y0230550D01*
X0289500Y0219450D01*
X0282551Y0212500D01*
X0282051Y0213000D01*
X0283426Y0214375D01*
X0284400Y0216727D01*
X0284400Y0219273D01*
X0283426Y0221625D01*
X0282051Y0223000D01*
X0283426Y0224375D01*
X0284400Y0226727D01*
X0284400Y0229273D01*
X0283426Y0231625D01*
X0281625Y0233426D01*
X0279273Y0234400D01*
X0276727Y0234400D01*
X0274375Y0233426D01*
X0273000Y0232051D01*
X0271625Y0233426D01*
X0269273Y0234400D01*
X0266727Y0234400D01*
X0266602Y0234348D01*
X0259983Y0240967D01*
X0258696Y0241500D01*
X0255235Y0241500D01*
X0253813Y0242089D01*
X0252187Y0242089D01*
X0250684Y0241466D01*
X0249534Y0240316D01*
X0248911Y0238813D01*
X0248911Y0237187D01*
X0249534Y0235684D01*
X0250684Y0234534D01*
X0252187Y0233911D01*
X0253813Y0233911D01*
X0255235Y0234500D01*
X0256550Y0234500D01*
X0261652Y0229398D01*
X0261622Y0229327D01*
X0259983Y0230967D01*
X0258696Y0231500D01*
X0225235Y0231500D01*
X0223813Y0232089D01*
X0222187Y0232089D01*
X0220684Y0231466D01*
X0219534Y0230316D01*
X0218911Y0228813D01*
X0218911Y0227187D01*
X0219534Y0225684D01*
X0220684Y0224534D01*
X0222187Y0223911D01*
X0223813Y0223911D01*
X0225235Y0224500D01*
X0256550Y0224500D01*
X0261652Y0219398D01*
X0261600Y0219273D01*
X0261600Y0216727D01*
X0262574Y0214375D01*
X0262949Y0214000D01*
X0214804Y0214000D01*
X0213517Y0213467D01*
X0212533Y0212483D01*
X0212533Y0212483D01*
X0207106Y0207055D01*
X0205684Y0206466D01*
X0204534Y0205316D01*
X0203911Y0203813D01*
X0203911Y0202187D01*
X0204534Y0200684D01*
X0205684Y0199534D01*
X0207187Y0198911D01*
X0208813Y0198911D01*
X0210316Y0199534D01*
X0211466Y0200684D01*
X0212055Y0202106D01*
X0216950Y0207000D01*
X0261600Y0207000D01*
X0261600Y0206727D01*
X0262574Y0204375D01*
X0263949Y0203000D01*
X0262574Y0201625D01*
X0261600Y0199273D01*
X0261600Y0196727D01*
X0262574Y0194375D01*
X0263949Y0193000D01*
X0262574Y0191625D01*
X0261600Y0189273D01*
X0261600Y0186727D01*
X0262574Y0184375D01*
X0263949Y0183000D01*
X0262574Y0181625D01*
X0261600Y0179273D01*
X0261600Y0176727D01*
X0262574Y0174375D01*
X0264375Y0172574D01*
X0266727Y0171600D01*
X0269273Y0171600D01*
X0271625Y0172574D01*
X0273000Y0173949D01*
X0274375Y0172574D01*
X0276727Y0171600D01*
X0279273Y0171600D01*
X0281625Y0172574D01*
X0283426Y0174375D01*
X0284400Y0176727D01*
X0284400Y0179273D01*
X0284348Y0179398D01*
X0305967Y0201017D01*
X0306500Y0202304D01*
X0306500Y0227587D01*
X0315576Y0237000D01*
X0318985Y0237000D01*
X0322500Y0240515D01*
X0322500Y0245485D01*
X0319985Y0248000D01*
X0322500Y0250515D01*
X0322500Y0254700D01*
X0369700Y0254700D01*
X0369700Y0086300D01*
X0227344Y0086300D01*
X0226131Y0085798D01*
X0225202Y0084869D01*
X0224700Y0083656D01*
X0224700Y0031300D01*
X0129800Y0031300D01*
X0129800Y0085656D01*
X0129298Y0086869D01*
X0128369Y0087798D01*
X0127156Y0088300D01*
X0113250Y0088300D01*
X0113267Y0088317D01*
X0124983Y0100033D01*
X0125967Y0101017D01*
X0126500Y0102304D01*
X0126500Y0143365D01*
X0131600Y0148465D01*
X0131600Y0146727D01*
X0132574Y0144375D01*
X0133949Y0143000D01*
X0132574Y0141625D01*
X0131600Y0139273D01*
X0131600Y0136727D01*
X0132574Y0134375D01*
X0133949Y0133000D01*
X0132574Y0131625D01*
X0131600Y0129273D01*
X0131600Y0126727D01*
X0132574Y0124375D01*
X0133949Y0123000D01*
X0132574Y0121625D01*
X0131600Y0119273D01*
X0131600Y0116727D01*
X0132574Y0114375D01*
X0133949Y0113000D01*
X0132574Y0111625D01*
X0131600Y0109273D01*
X0131600Y0106727D01*
X0132574Y0104375D01*
X0133949Y0103000D01*
X0132574Y0101625D01*
X0131600Y0099273D01*
X0131600Y0096727D01*
X0132574Y0094375D01*
X0133949Y0093000D01*
X0132574Y0091625D01*
X0131600Y0089273D01*
X0131600Y0086727D01*
X0132574Y0084375D01*
X0133949Y0083000D01*
X0132574Y0081625D01*
X0131600Y0079273D01*
X0131600Y0076727D01*
X0132574Y0074375D01*
X0133758Y0073191D01*
X0133573Y0073048D01*
X0132952Y0072427D01*
X0132417Y0071730D01*
X0131978Y0070970D01*
X0131642Y0070158D01*
X0131415Y0069310D01*
X0131300Y0068439D01*
X0131300Y0068000D01*
X0138000Y0068000D01*
X0144700Y0068000D01*
X0144700Y0068439D01*
X0144585Y0069310D01*
X0144358Y0070158D01*
X0144022Y0070970D01*
X0143583Y0071730D01*
X0143048Y0072427D01*
X0142427Y0073048D01*
X0142241Y0073191D01*
X0143426Y0074375D01*
X0144400Y0076727D01*
X0144400Y0079273D01*
X0143426Y0081625D01*
X0142051Y0083000D01*
X0143426Y0084375D01*
X0144400Y0086727D01*
X0144400Y0089273D01*
X0143426Y0091625D01*
X0142051Y0093000D01*
X0143426Y0094375D01*
X0144400Y0096727D01*
X0144400Y0099273D01*
X0143426Y0101625D01*
X0142051Y0103000D01*
X0143426Y0104375D01*
X0144400Y0106727D01*
X0144400Y0109273D01*
X0143426Y0111625D01*
X0142051Y0113000D01*
X0143426Y0114375D01*
X0144400Y0116727D01*
X0144400Y0119273D01*
X0143426Y0121625D01*
X0142051Y0123000D01*
X0143426Y0124375D01*
X0144400Y0126727D01*
X0144400Y0129273D01*
X0143426Y0131625D01*
X0142051Y0133000D01*
X0143426Y0134375D01*
X0144400Y0136727D01*
X0144400Y0139273D01*
X0143426Y0141625D01*
X0142051Y0143000D01*
X0143426Y0144375D01*
X0144400Y0146727D01*
X0144400Y0149273D01*
X0143426Y0151625D01*
X0141625Y0153426D01*
X0139273Y0154400D01*
X0137535Y0154400D01*
X0142635Y0159500D01*
X0166550Y0159500D01*
X0184500Y0141550D01*
X0184500Y0107304D01*
X0185033Y0106017D01*
X0191652Y0099398D01*
X0191600Y0099273D01*
X0191600Y0096727D01*
X0192574Y0094375D01*
X0193949Y0093000D01*
X0192574Y0091625D01*
X0191600Y0089273D01*
X0191600Y0086727D01*
X0192574Y0084375D01*
X0193949Y0083000D01*
X0192574Y0081625D01*
X0191600Y0079273D01*
X0191600Y0076727D01*
X0192574Y0074375D01*
X0193949Y0073000D01*
X0192574Y0071625D01*
X0191600Y0069273D01*
X0191600Y0066727D01*
X0192574Y0064375D01*
X0193949Y0063000D01*
X0192574Y0061625D01*
X0191600Y0059273D01*
X0191600Y0056727D01*
X0192574Y0054375D01*
X0193949Y0053000D01*
X0192574Y0051625D01*
X0191600Y0049273D01*
X0191600Y0046727D01*
X0192574Y0044375D01*
X0193949Y0043000D01*
X0192574Y0041625D01*
X0191600Y0039273D01*
X0191600Y0036727D01*
X0192574Y0034375D01*
X0194375Y0032574D01*
X0196727Y0031600D01*
X0199273Y0031600D01*
X0201625Y0032574D01*
X0203426Y0034375D01*
X0204400Y0036727D01*
X0204400Y0039273D01*
X0203426Y0041625D01*
X0202051Y0043000D01*
X0203426Y0044375D01*
X0204400Y0046727D01*
X0204400Y0049273D01*
X0203426Y0051625D01*
X0202051Y0053000D01*
X0203426Y0054375D01*
X0204400Y0056727D01*
X0204400Y0059273D01*
X0203426Y0061625D01*
X0202051Y0063000D01*
X0203426Y0064375D01*
X0204400Y0066727D01*
X0204400Y0069273D01*
X0203426Y0071625D01*
X0202051Y0073000D01*
X0203426Y0074375D01*
X0204400Y0076727D01*
X0204400Y0079273D01*
X0203426Y0081625D01*
X0202051Y0083000D01*
X0203426Y0084375D01*
X0204400Y0086727D01*
X0204400Y0089273D01*
X0203426Y0091625D01*
X0202051Y0093000D01*
X0203426Y0094375D01*
X0204400Y0096727D01*
X0204400Y0099273D01*
X0203426Y0101625D01*
X0202051Y0103000D01*
X0203426Y0104375D01*
X0204400Y0106727D01*
X0204400Y0109154D01*
X0204500Y0109195D01*
X0204500Y0092304D01*
X0205033Y0091017D01*
X0212000Y0084050D01*
X0212000Y0073692D01*
X0209000Y0070692D01*
X0209000Y0065308D01*
X0211308Y0063000D01*
X0209000Y0060692D01*
X0209000Y0055308D01*
X0211378Y0052929D01*
X0210074Y0051625D01*
X0209100Y0049273D01*
X0209100Y0046727D01*
X0210074Y0044375D01*
X0211258Y0043191D01*
X0211073Y0043048D01*
X0210452Y0042427D01*
X0209917Y0041730D01*
X0209478Y0040970D01*
X0209142Y0040158D01*
X0208915Y0039310D01*
X0208800Y0038439D01*
X0208800Y0038000D01*
X0215500Y0038000D01*
X0222200Y0038000D01*
X0222200Y0038439D01*
X0222085Y0039310D01*
X0221858Y0040158D01*
X0221522Y0040970D01*
X0221083Y0041730D01*
X0220548Y0042427D01*
X0219927Y0043048D01*
X0219741Y0043191D01*
X0220926Y0044375D01*
X0221900Y0046727D01*
X0221900Y0049273D01*
X0220926Y0051625D01*
X0219622Y0052929D01*
X0222000Y0055308D01*
X0222000Y0060692D01*
X0219692Y0063000D01*
X0222000Y0065308D01*
X0222000Y0070692D01*
X0219000Y0073692D01*
X0219000Y0086196D01*
X0218467Y0087483D01*
X0211500Y0094450D01*
X0211500Y0118696D01*
X0209003Y0121946D02*
X0249011Y0121946D01*
X0250162Y0125945D02*
X0205005Y0125945D01*
X0204122Y0129943D02*
X0262339Y0129943D01*
X0261600Y0133942D02*
X0202993Y0133942D01*
X0204400Y0137940D02*
X0263588Y0137940D01*
X0261382Y0141939D02*
X0203112Y0141939D01*
X0204073Y0145937D02*
X0249428Y0145937D01*
X0249534Y0145684D02*
X0250684Y0144534D01*
X0252187Y0143911D01*
X0253813Y0143911D01*
X0255316Y0144534D01*
X0256466Y0145684D01*
X0257089Y0147187D01*
X0257089Y0148813D01*
X0257020Y0148980D01*
X0257187Y0148911D01*
X0258813Y0148911D01*
X0260316Y0149534D01*
X0261466Y0150684D01*
X0262089Y0152187D01*
X0262089Y0153813D01*
X0261466Y0155316D01*
X0260316Y0156466D01*
X0258894Y0157055D01*
X0229983Y0185967D01*
X0228696Y0186500D01*
X0204450Y0186500D01*
X0199327Y0191622D01*
X0201625Y0192574D01*
X0203426Y0194375D01*
X0204400Y0196727D01*
X0204400Y0199273D01*
X0203426Y0201625D01*
X0202051Y0203000D01*
X0203426Y0204375D01*
X0204400Y0206727D01*
X0204400Y0209273D01*
X0203426Y0211625D01*
X0202051Y0213000D01*
X0203426Y0214375D01*
X0204400Y0216727D01*
X0204400Y0219273D01*
X0203426Y0221625D01*
X0202051Y0223000D01*
X0203426Y0224375D01*
X0204400Y0226727D01*
X0204400Y0229273D01*
X0203426Y0231625D01*
X0202051Y0233000D01*
X0203426Y0234375D01*
X0204400Y0236727D01*
X0204400Y0239273D01*
X0203426Y0241625D01*
X0202051Y0243000D01*
X0203426Y0244375D01*
X0204400Y0246727D01*
X0204400Y0249273D01*
X0203426Y0251625D01*
X0202051Y0253000D01*
X0203426Y0254375D01*
X0204400Y0256727D01*
X0204400Y0259273D01*
X0203426Y0261625D01*
X0202051Y0263000D01*
X0203426Y0264375D01*
X0204400Y0266727D01*
X0204400Y0269273D01*
X0203426Y0271625D01*
X0202241Y0272809D01*
X0202427Y0272952D01*
X0203048Y0273573D01*
X0203583Y0274270D01*
X0204022Y0275030D01*
X0204358Y0275842D01*
X0204585Y0276690D01*
X0204700Y0277561D01*
X0204700Y0278000D01*
X0198000Y0278000D01*
X0198000Y0278000D01*
X0198000Y0278000D01*
X0191300Y0278000D01*
X0191300Y0277561D01*
X0191415Y0276690D01*
X0191642Y0275842D01*
X0191978Y0275030D01*
X0192417Y0274270D01*
X0192952Y0273573D01*
X0193573Y0272952D01*
X0193758Y0272809D01*
X0192574Y0271625D01*
X0191600Y0269273D01*
X0191600Y0266727D01*
X0192574Y0264375D01*
X0193949Y0263000D01*
X0192574Y0261625D01*
X0191600Y0259273D01*
X0191600Y0256727D01*
X0192574Y0254375D01*
X0193949Y0253000D01*
X0192574Y0251625D01*
X0191600Y0249273D01*
X0191600Y0246727D01*
X0192574Y0244375D01*
X0193949Y0243000D01*
X0192574Y0241625D01*
X0191600Y0239273D01*
X0191600Y0236727D01*
X0192574Y0234375D01*
X0193949Y0233000D01*
X0192574Y0231625D01*
X0191600Y0229273D01*
X0191600Y0226727D01*
X0192574Y0224375D01*
X0193949Y0223000D01*
X0192574Y0221625D01*
X0191600Y0219273D01*
X0191600Y0216727D01*
X0192574Y0214375D01*
X0193949Y0213000D01*
X0192574Y0211625D01*
X0191749Y0209633D01*
X0191466Y0210316D01*
X0190316Y0211466D01*
X0188813Y0212089D01*
X0187187Y0212089D01*
X0186500Y0211805D01*
X0186500Y0220765D01*
X0187089Y0222187D01*
X0187089Y0223813D01*
X0186466Y0225316D01*
X0185316Y0226466D01*
X0183813Y0227089D01*
X0182187Y0227089D01*
X0180684Y0226466D01*
X0179534Y0225316D01*
X0178911Y0223813D01*
X0178911Y0222187D01*
X0179500Y0220765D01*
X0179500Y0197304D01*
X0180033Y0196017D01*
X0181017Y0195033D01*
X0201017Y0175033D01*
X0202304Y0174500D01*
X0226550Y0174500D01*
X0249500Y0151550D01*
X0249500Y0150235D01*
X0248911Y0148813D01*
X0248911Y0147187D01*
X0249534Y0145684D01*
X0249376Y0149936D02*
X0204125Y0149936D01*
X0200397Y0153934D02*
X0247116Y0153934D01*
X0243117Y0157933D02*
X0178017Y0157933D01*
X0182015Y0153934D02*
X0195603Y0153934D01*
X0191875Y0149936D02*
X0186014Y0149936D01*
X0190012Y0145937D02*
X0191927Y0145937D01*
X0191500Y0141939D02*
X0192888Y0141939D01*
X0191600Y0137940D02*
X0191500Y0137940D01*
X0191500Y0133942D02*
X0193007Y0133942D01*
X0191878Y0129943D02*
X0191500Y0129943D01*
X0191500Y0125945D02*
X0191924Y0125945D01*
X0191500Y0121946D02*
X0192895Y0121946D01*
X0191600Y0117948D02*
X0191500Y0117948D01*
X0191500Y0113949D02*
X0193000Y0113949D01*
X0191881Y0109951D02*
X0191500Y0109951D01*
X0184500Y0109951D02*
X0144119Y0109951D01*
X0144079Y0105952D02*
X0185098Y0105952D01*
X0189096Y0101954D02*
X0143097Y0101954D01*
X0144400Y0097955D02*
X0191600Y0097955D01*
X0192992Y0093957D02*
X0143008Y0093957D01*
X0144116Y0089958D02*
X0191884Y0089958D01*
X0191918Y0085960D02*
X0144082Y0085960D01*
X0143090Y0081961D02*
X0192910Y0081961D01*
X0191600Y0077963D02*
X0144400Y0077963D01*
X0143015Y0073964D02*
X0192985Y0073964D01*
X0191887Y0069966D02*
X0144410Y0069966D01*
X0144700Y0068000D02*
X0138000Y0068000D01*
X0138000Y0068000D01*
X0138000Y0068000D01*
X0131300Y0068000D01*
X0131300Y0067561D01*
X0131415Y0066690D01*
X0131642Y0065842D01*
X0131978Y0065030D01*
X0132417Y0064270D01*
X0132952Y0063573D01*
X0133573Y0062952D01*
X0133758Y0062809D01*
X0132574Y0061625D01*
X0131600Y0059273D01*
X0131600Y0056727D01*
X0132574Y0054375D01*
X0133949Y0053000D01*
X0132574Y0051625D01*
X0131600Y0049273D01*
X0131600Y0046727D01*
X0132574Y0044375D01*
X0133949Y0043000D01*
X0132574Y0041625D01*
X0131600Y0039273D01*
X0131600Y0036727D01*
X0132574Y0034375D01*
X0134375Y0032574D01*
X0136727Y0031600D01*
X0139273Y0031600D01*
X0141625Y0032574D01*
X0143426Y0034375D01*
X0144400Y0036727D01*
X0144400Y0039273D01*
X0143426Y0041625D01*
X0142051Y0043000D01*
X0143426Y0044375D01*
X0144400Y0046727D01*
X0144400Y0049273D01*
X0143426Y0051625D01*
X0142051Y0053000D01*
X0143426Y0054375D01*
X0144400Y0056727D01*
X0144400Y0059273D01*
X0143426Y0061625D01*
X0142241Y0062809D01*
X0142427Y0062952D01*
X0143048Y0063573D01*
X0143583Y0064270D01*
X0144022Y0065030D01*
X0144358Y0065842D01*
X0144585Y0066690D01*
X0144700Y0067561D01*
X0144700Y0068000D01*
X0144392Y0065967D02*
X0191915Y0065967D01*
X0192918Y0061969D02*
X0143082Y0061969D01*
X0144400Y0057970D02*
X0191600Y0057970D01*
X0192977Y0053972D02*
X0143023Y0053972D01*
X0144110Y0049973D02*
X0191890Y0049973D01*
X0191912Y0045975D02*
X0144088Y0045975D01*
X0143075Y0041976D02*
X0192925Y0041976D01*
X0191600Y0037978D02*
X0144400Y0037978D01*
X0143030Y0033979D02*
X0192970Y0033979D01*
X0203030Y0033979D02*
X0210140Y0033979D01*
X0209917Y0034270D02*
X0210452Y0033573D01*
X0211073Y0032952D01*
X0211770Y0032417D01*
X0212530Y0031978D01*
X0213342Y0031642D01*
X0214190Y0031415D01*
X0215061Y0031300D01*
X0215500Y0031300D01*
X0215939Y0031300D01*
X0216810Y0031415D01*
X0217658Y0031642D01*
X0218470Y0031978D01*
X0219230Y0032417D01*
X0219927Y0032952D01*
X0220548Y0033573D01*
X0221083Y0034270D01*
X0221522Y0035030D01*
X0221858Y0035842D01*
X0222085Y0036690D01*
X0222200Y0037561D01*
X0222200Y0038000D01*
X0215500Y0038000D01*
X0215500Y0038000D01*
X0215500Y0031300D01*
X0215500Y0038000D01*
X0215500Y0038000D01*
X0215500Y0038000D01*
X0208800Y0038000D01*
X0208800Y0037561D01*
X0208915Y0036690D01*
X0209142Y0035842D01*
X0209478Y0035030D01*
X0209917Y0034270D01*
X0208800Y0037978D02*
X0204400Y0037978D01*
X0203075Y0041976D02*
X0210106Y0041976D01*
X0209412Y0045975D02*
X0204088Y0045975D01*
X0204110Y0049973D02*
X0209390Y0049973D01*
X0210336Y0053972D02*
X0203023Y0053972D01*
X0204400Y0057970D02*
X0209000Y0057970D01*
X0210276Y0061969D02*
X0203082Y0061969D01*
X0204085Y0065967D02*
X0209000Y0065967D01*
X0209000Y0069966D02*
X0204113Y0069966D01*
X0203015Y0073964D02*
X0212000Y0073964D01*
X0212000Y0077963D02*
X0204400Y0077963D01*
X0203090Y0081961D02*
X0212000Y0081961D01*
X0210090Y0085960D02*
X0204082Y0085960D01*
X0204116Y0089958D02*
X0206092Y0089958D01*
X0204500Y0093957D02*
X0203008Y0093957D01*
X0204400Y0097955D02*
X0204500Y0097955D01*
X0204500Y0101954D02*
X0203097Y0101954D01*
X0204079Y0105952D02*
X0204500Y0105952D01*
X0211500Y0105952D02*
X0216649Y0105952D01*
X0216482Y0105883D02*
X0219900Y0107299D01*
X0223600Y0107299D01*
X0227018Y0105883D01*
X0229633Y0103268D01*
X0231049Y0099850D01*
X0231049Y0096150D01*
X0229633Y0092732D01*
X0227018Y0090117D01*
X0223600Y0088701D01*
X0219900Y0088701D01*
X0216482Y0090117D01*
X0213867Y0092732D01*
X0212451Y0096150D01*
X0212451Y0099850D01*
X0213867Y0103268D01*
X0216482Y0105883D01*
X0211500Y0109951D02*
X0262336Y0109951D01*
X0261600Y0113949D02*
X0211500Y0113949D01*
X0211500Y0101954D02*
X0213322Y0101954D01*
X0212451Y0097955D02*
X0211500Y0097955D01*
X0211993Y0093957D02*
X0213359Y0093957D01*
X0215991Y0089958D02*
X0216864Y0089958D01*
X0219000Y0085960D02*
X0226522Y0085960D01*
X0226636Y0089958D02*
X0369700Y0089958D01*
X0369700Y0093957D02*
X0360725Y0093957D01*
X0360568Y0093800D02*
X0364200Y0097432D01*
X0364200Y0102568D01*
X0360568Y0106200D01*
X0355432Y0106200D01*
X0353000Y0103768D01*
X0352700Y0104068D01*
X0352700Y0118649D01*
X0353000Y0118949D01*
X0354375Y0117574D01*
X0356727Y0116600D01*
X0359273Y0116600D01*
X0361625Y0117574D01*
X0363426Y0119375D01*
X0364400Y0121727D01*
X0364400Y0124273D01*
X0363426Y0126625D01*
X0362051Y0128000D01*
X0363426Y0129375D01*
X0364400Y0131727D01*
X0364400Y0134273D01*
X0363426Y0136625D01*
X0361625Y0138426D01*
X0359273Y0139400D01*
X0356727Y0139400D01*
X0354375Y0138426D01*
X0353000Y0137051D01*
X0352700Y0137351D01*
X0352700Y0140360D01*
X0356147Y0143807D01*
X0357892Y0143807D01*
X0360465Y0144873D01*
X0362434Y0146842D01*
X0363500Y0149415D01*
X0363500Y0152199D01*
X0362434Y0154772D01*
X0360465Y0156741D01*
X0358158Y0157697D01*
X0360465Y0158652D01*
X0362434Y0160621D01*
X0363500Y0163194D01*
X0363500Y0165979D01*
X0362434Y0168552D01*
X0360465Y0170521D01*
X0357892Y0171587D01*
X0355108Y0171587D01*
X0352535Y0170521D01*
X0350566Y0168552D01*
X0349500Y0165979D01*
X0349500Y0163194D01*
X0350566Y0160621D01*
X0352535Y0158652D01*
X0354841Y0157697D01*
X0352535Y0156741D01*
X0350566Y0154772D01*
X0349500Y0152199D01*
X0349500Y0150454D01*
X0344016Y0144969D01*
X0343300Y0143242D01*
X0343300Y0137351D01*
X0342574Y0136625D01*
X0341600Y0134273D01*
X0341600Y0131727D01*
X0342574Y0129375D01*
X0343300Y0128649D01*
X0343300Y0127351D01*
X0342574Y0126625D01*
X0341600Y0124273D01*
X0341600Y0121727D01*
X0342574Y0119375D01*
X0343300Y0118649D01*
X0343300Y0104068D01*
X0342744Y0103512D01*
X0341800Y0101233D01*
X0341800Y0098767D01*
X0342744Y0096488D01*
X0344488Y0094744D01*
X0346767Y0093800D01*
X0349233Y0093800D01*
X0351512Y0094744D01*
X0353000Y0096232D01*
X0355432Y0093800D01*
X0360568Y0093800D01*
X0355275Y0093957D02*
X0349612Y0093957D01*
X0346388Y0093957D02*
X0230141Y0093957D01*
X0231049Y0097955D02*
X0342136Y0097955D01*
X0342098Y0101954D02*
X0230178Y0101954D01*
X0226851Y0105952D02*
X0343300Y0105952D01*
X0343300Y0109951D02*
X0307414Y0109951D01*
X0308150Y0113949D02*
X0343300Y0113949D01*
X0343300Y0117948D02*
X0305853Y0117948D01*
X0308150Y0121946D02*
X0341600Y0121946D01*
X0342293Y0125945D02*
X0307457Y0125945D01*
X0307411Y0129943D02*
X0342339Y0129943D01*
X0341600Y0133942D02*
X0308150Y0133942D01*
X0306162Y0137940D02*
X0343300Y0137940D01*
X0348000Y0142307D02*
X0348000Y0133000D01*
X0348000Y0123000D01*
X0348000Y0100000D01*
X0352700Y0105952D02*
X0355184Y0105952D01*
X0352700Y0109951D02*
X0369700Y0109951D01*
X0369700Y0113949D02*
X0352700Y0113949D01*
X0352700Y0117948D02*
X0354001Y0117948D01*
X0361999Y0117948D02*
X0369700Y0117948D01*
X0369700Y0121946D02*
X0364400Y0121946D01*
X0363707Y0125945D02*
X0369700Y0125945D01*
X0369700Y0129943D02*
X0363661Y0129943D01*
X0364400Y0133942D02*
X0369700Y0133942D01*
X0369700Y0137940D02*
X0362111Y0137940D01*
X0353889Y0137940D02*
X0352700Y0137940D01*
X0354279Y0141939D02*
X0369700Y0141939D01*
X0369700Y0145937D02*
X0361530Y0145937D01*
X0363500Y0149936D02*
X0369700Y0149936D01*
X0369700Y0153934D02*
X0362781Y0153934D01*
X0358729Y0157933D02*
X0369700Y0157933D01*
X0369700Y0161932D02*
X0362977Y0161932D01*
X0363500Y0165930D02*
X0369700Y0165930D01*
X0369700Y0169929D02*
X0361058Y0169929D01*
X0359472Y0176007D02*
X0362283Y0177172D01*
X0364435Y0179324D01*
X0365600Y0182136D01*
X0365600Y0185179D01*
X0364435Y0187991D01*
X0362283Y0190143D01*
X0359472Y0191307D01*
X0346528Y0191307D01*
X0343717Y0190143D01*
X0341565Y0187991D01*
X0340400Y0185179D01*
X0340400Y0182136D01*
X0341565Y0179324D01*
X0343717Y0177172D01*
X0346528Y0176007D01*
X0359472Y0176007D01*
X0363037Y0177926D02*
X0369700Y0177926D01*
X0369700Y0181924D02*
X0365512Y0181924D01*
X0365292Y0185923D02*
X0369700Y0185923D01*
X0369700Y0189921D02*
X0362505Y0189921D01*
X0369700Y0193920D02*
X0298869Y0193920D01*
X0294871Y0189921D02*
X0343495Y0189921D01*
X0340708Y0185923D02*
X0290872Y0185923D01*
X0286874Y0181924D02*
X0340488Y0181924D01*
X0342963Y0177926D02*
X0284400Y0177926D01*
X0282978Y0173927D02*
X0369700Y0173927D01*
X0351942Y0169929D02*
X0246021Y0169929D01*
X0242023Y0173927D02*
X0263022Y0173927D01*
X0261600Y0177926D02*
X0238024Y0177926D01*
X0234026Y0181924D02*
X0262873Y0181924D01*
X0261933Y0185923D02*
X0230027Y0185923D01*
X0227123Y0173927D02*
X0146500Y0173927D01*
X0146500Y0169929D02*
X0231122Y0169929D01*
X0235120Y0165930D02*
X0170020Y0165930D01*
X0174018Y0161932D02*
X0239119Y0161932D01*
X0250020Y0165930D02*
X0279909Y0165930D01*
X0280061Y0165950D02*
X0279190Y0165835D01*
X0278342Y0165608D01*
X0277530Y0165272D01*
X0276770Y0164833D01*
X0276073Y0164298D01*
X0275452Y0163677D01*
X0274917Y0162980D01*
X0274478Y0162220D01*
X0274142Y0161408D01*
X0273915Y0160560D01*
X0273800Y0159689D01*
X0273800Y0159250D01*
X0280500Y0159250D01*
X0280500Y0159250D01*
X0280500Y0165950D01*
X0280939Y0165950D01*
X0281810Y0165835D01*
X0282658Y0165608D01*
X0283470Y0165272D01*
X0284230Y0164833D01*
X0284927Y0164298D01*
X0285500Y0163725D01*
X0286073Y0164298D01*
X0286770Y0164833D01*
X0287530Y0165272D01*
X0288342Y0165608D01*
X0289190Y0165835D01*
X0290061Y0165950D01*
X0290500Y0165950D01*
X0290500Y0159250D01*
X0290500Y0159250D01*
X0297200Y0159250D01*
X0297200Y0159689D01*
X0297085Y0160560D01*
X0296858Y0161408D01*
X0296522Y0162220D01*
X0296083Y0162980D01*
X0295548Y0163677D01*
X0294927Y0164298D01*
X0294230Y0164833D01*
X0293470Y0165272D01*
X0292658Y0165608D01*
X0291810Y0165835D01*
X0290939Y0165950D01*
X0290500Y0165950D01*
X0290500Y0159250D01*
X0290500Y0159250D01*
X0297200Y0159250D01*
X0297200Y0158811D01*
X0297085Y0157940D01*
X0296858Y0157092D01*
X0296522Y0156280D01*
X0296083Y0155520D01*
X0295548Y0154823D01*
X0294927Y0154202D01*
X0294230Y0153667D01*
X0293470Y0153228D01*
X0292658Y0152892D01*
X0291810Y0152665D01*
X0290939Y0152550D01*
X0290500Y0152550D01*
X0290500Y0159250D01*
X0290500Y0159250D01*
X0290500Y0159250D01*
X0287200Y0159250D01*
X0280500Y0159250D01*
X0280500Y0159250D01*
X0280500Y0159250D01*
X0280500Y0165950D01*
X0280061Y0165950D01*
X0280500Y0165930D02*
X0280500Y0165930D01*
X0281091Y0165930D02*
X0289909Y0165930D01*
X0290500Y0165930D02*
X0290500Y0165930D01*
X0291091Y0165930D02*
X0349500Y0165930D01*
X0350023Y0161932D02*
X0296641Y0161932D01*
X0297083Y0157933D02*
X0354271Y0157933D01*
X0350219Y0153934D02*
X0294579Y0153934D01*
X0290500Y0153934D02*
X0290500Y0153934D01*
X0290500Y0152550D02*
X0290500Y0159250D01*
X0280500Y0159250D01*
X0280500Y0152550D01*
X0280939Y0152550D01*
X0281810Y0152665D01*
X0282658Y0152892D01*
X0283470Y0153228D01*
X0284230Y0153667D01*
X0284927Y0154202D01*
X0285500Y0154775D01*
X0286073Y0154202D01*
X0286770Y0153667D01*
X0287530Y0153228D01*
X0288342Y0152892D01*
X0289190Y0152665D01*
X0290061Y0152550D01*
X0290500Y0152550D01*
X0286421Y0153934D02*
X0284579Y0153934D01*
X0280500Y0153934D02*
X0280500Y0153934D01*
X0280500Y0152550D02*
X0280500Y0159250D01*
X0280500Y0159250D01*
X0273800Y0159250D01*
X0273800Y0158811D01*
X0273915Y0157940D01*
X0274142Y0157092D01*
X0274478Y0156280D01*
X0274917Y0155520D01*
X0275452Y0154823D01*
X0276073Y0154202D01*
X0276770Y0153667D01*
X0277530Y0153228D01*
X0278342Y0152892D01*
X0279190Y0152665D01*
X0280061Y0152550D01*
X0280500Y0152550D01*
X0276421Y0153934D02*
X0262039Y0153934D01*
X0260719Y0149936D02*
X0348982Y0149936D01*
X0344984Y0145937D02*
X0307785Y0145937D01*
X0308368Y0141939D02*
X0343300Y0141939D01*
X0348000Y0142307D02*
X0356500Y0150807D01*
X0360816Y0105952D02*
X0369700Y0105952D01*
X0369700Y0101954D02*
X0364200Y0101954D01*
X0364200Y0097955D02*
X0369700Y0097955D01*
X0301750Y0145937D02*
X0301750Y0145937D01*
X0290500Y0157933D02*
X0290500Y0157933D01*
X0290500Y0161932D02*
X0290500Y0161932D01*
X0280500Y0161932D02*
X0280500Y0161932D01*
X0280500Y0157933D02*
X0280500Y0157933D01*
X0273917Y0157933D02*
X0258017Y0157933D01*
X0254018Y0161932D02*
X0274359Y0161932D01*
X0273022Y0173927D02*
X0272978Y0173927D01*
X0284378Y0189327D02*
X0283426Y0191625D01*
X0282051Y0193000D01*
X0283426Y0194375D01*
X0284400Y0196727D01*
X0284400Y0199273D01*
X0283426Y0201625D01*
X0282051Y0203000D01*
X0283426Y0204375D01*
X0283478Y0204500D01*
X0283696Y0204500D01*
X0284983Y0205033D01*
X0294983Y0215033D01*
X0295967Y0216017D01*
X0296500Y0217304D01*
X0296500Y0232696D01*
X0295967Y0233983D01*
X0288000Y0241950D01*
X0288000Y0245485D01*
X0285485Y0248000D01*
X0288000Y0250515D01*
X0288000Y0254700D01*
X0310500Y0254700D01*
X0310500Y0250515D01*
X0313015Y0248000D01*
X0310500Y0245485D01*
X0310500Y0241820D01*
X0300503Y0231452D01*
X0300033Y0230983D01*
X0300020Y0230952D01*
X0299997Y0230928D01*
X0299754Y0230310D01*
X0299500Y0229696D01*
X0299500Y0229663D01*
X0299488Y0229632D01*
X0299500Y0228968D01*
X0299500Y0204450D01*
X0284378Y0189327D01*
X0284132Y0189921D02*
X0284971Y0189921D01*
X0282971Y0193920D02*
X0288970Y0193920D01*
X0292968Y0197918D02*
X0284400Y0197918D01*
X0283134Y0201917D02*
X0296967Y0201917D01*
X0299500Y0205915D02*
X0285865Y0205915D01*
X0289863Y0209914D02*
X0299500Y0209914D01*
X0299500Y0213912D02*
X0293862Y0213912D01*
X0296500Y0217911D02*
X0299500Y0217911D01*
X0299500Y0221909D02*
X0296500Y0221909D01*
X0296500Y0225908D02*
X0299500Y0225908D01*
X0299587Y0229906D02*
X0296500Y0229906D01*
X0295999Y0233905D02*
X0302867Y0233905D01*
X0306723Y0237903D02*
X0292046Y0237903D01*
X0288048Y0241902D02*
X0310500Y0241902D01*
X0310915Y0245900D02*
X0287585Y0245900D01*
X0287384Y0249899D02*
X0311116Y0249899D01*
X0310500Y0253897D02*
X0288000Y0253897D01*
X0276000Y0253897D02*
X0272381Y0253897D01*
X0272500Y0249899D02*
X0276616Y0249899D01*
X0276415Y0245900D02*
X0231049Y0245900D01*
X0231049Y0246100D02*
X0229633Y0249518D01*
X0227018Y0252133D01*
X0223600Y0253549D01*
X0219900Y0253549D01*
X0216482Y0252133D01*
X0213867Y0249518D01*
X0212451Y0246100D01*
X0212451Y0242400D01*
X0213867Y0238982D01*
X0216482Y0236367D01*
X0219900Y0234951D01*
X0223600Y0234951D01*
X0227018Y0236367D01*
X0229633Y0238982D01*
X0231049Y0242400D01*
X0231049Y0246100D01*
X0231500Y0249899D02*
X0229252Y0249899D01*
X0231619Y0253897D02*
X0202948Y0253897D01*
X0204400Y0257896D02*
X0224700Y0257896D01*
X0224700Y0261894D02*
X0203157Y0261894D01*
X0204054Y0265893D02*
X0224700Y0265893D01*
X0224700Y0269891D02*
X0221584Y0269891D01*
X0222000Y0273890D02*
X0224700Y0273890D01*
X0224700Y0277888D02*
X0219804Y0277888D01*
X0222000Y0281887D02*
X0224700Y0281887D01*
X0224700Y0285885D02*
X0221807Y0285885D01*
X0221137Y0289884D02*
X0224700Y0289884D01*
X0224700Y0293882D02*
X0221900Y0293882D01*
X0219835Y0297881D02*
X0224700Y0297881D01*
X0224700Y0301879D02*
X0222110Y0301879D01*
X0221560Y0305878D02*
X0224700Y0305878D01*
X0224700Y0309876D02*
X0207950Y0309876D01*
X0206122Y0313875D02*
X0224700Y0313875D01*
X0215500Y0305878D02*
X0215500Y0305878D01*
X0209440Y0305878D02*
X0207950Y0305878D01*
X0207950Y0301879D02*
X0208890Y0301879D01*
X0207950Y0297881D02*
X0211165Y0297881D01*
X0209100Y0293882D02*
X0207950Y0293882D01*
X0207950Y0289884D02*
X0209863Y0289884D01*
X0204163Y0281887D02*
X0203463Y0281887D01*
X0204700Y0277888D02*
X0211196Y0277888D01*
X0209000Y0273890D02*
X0203291Y0273890D01*
X0204144Y0269891D02*
X0209416Y0269891D01*
X0193052Y0253897D02*
X0181500Y0253897D01*
X0181500Y0257896D02*
X0191600Y0257896D01*
X0192843Y0261894D02*
X0181500Y0261894D01*
X0181500Y0265893D02*
X0191946Y0265893D01*
X0191856Y0269891D02*
X0181500Y0269891D01*
X0181500Y0273890D02*
X0192709Y0273890D01*
X0191300Y0277888D02*
X0181500Y0277888D01*
X0181500Y0281887D02*
X0192537Y0281887D01*
X0191949Y0285885D02*
X0181500Y0285885D01*
X0181500Y0289884D02*
X0191853Y0289884D01*
X0193067Y0293882D02*
X0181500Y0293882D01*
X0181500Y0297881D02*
X0191600Y0297881D01*
X0192828Y0301879D02*
X0181500Y0301879D01*
X0181500Y0305878D02*
X0191952Y0305878D01*
X0191850Y0309876D02*
X0184826Y0309876D01*
X0242381Y0253897D02*
X0261619Y0253897D01*
X0261500Y0249899D02*
X0242500Y0249899D01*
X0251735Y0241902D02*
X0230843Y0241902D01*
X0228554Y0237903D02*
X0248911Y0237903D01*
X0254265Y0241902D02*
X0276000Y0241902D01*
X0278611Y0237903D02*
X0263046Y0237903D01*
X0257146Y0233905D02*
X0202956Y0233905D01*
X0204400Y0237903D02*
X0214946Y0237903D01*
X0212657Y0241902D02*
X0203149Y0241902D01*
X0204058Y0245900D02*
X0212451Y0245900D01*
X0214248Y0249899D02*
X0204141Y0249899D01*
X0191859Y0249899D02*
X0181500Y0249899D01*
X0181500Y0245900D02*
X0191942Y0245900D01*
X0192851Y0241902D02*
X0181500Y0241902D01*
X0181500Y0237903D02*
X0191600Y0237903D01*
X0193044Y0233905D02*
X0181500Y0233905D01*
X0179856Y0229906D02*
X0191862Y0229906D01*
X0191939Y0225908D02*
X0185875Y0225908D01*
X0186974Y0221909D02*
X0192858Y0221909D01*
X0191600Y0217911D02*
X0186500Y0217911D01*
X0186500Y0213912D02*
X0193037Y0213912D01*
X0191865Y0209914D02*
X0191633Y0209914D01*
X0202963Y0213912D02*
X0214592Y0213912D01*
X0209964Y0209914D02*
X0204135Y0209914D01*
X0204064Y0205915D02*
X0205132Y0205915D01*
X0204023Y0201917D02*
X0203134Y0201917D01*
X0204400Y0197918D02*
X0261600Y0197918D01*
X0262866Y0201917D02*
X0211977Y0201917D01*
X0215865Y0205915D02*
X0261936Y0205915D01*
X0261600Y0217911D02*
X0204400Y0217911D01*
X0203142Y0221909D02*
X0259141Y0221909D01*
X0261044Y0229906D02*
X0261144Y0229906D01*
X0270469Y0233905D02*
X0275531Y0233905D01*
X0280469Y0233905D02*
X0286146Y0233905D01*
X0284138Y0229906D02*
X0289500Y0229906D01*
X0289500Y0225908D02*
X0284061Y0225908D01*
X0283142Y0221909D02*
X0289500Y0221909D01*
X0287961Y0217911D02*
X0284400Y0217911D01*
X0283962Y0213912D02*
X0282963Y0213912D01*
X0302868Y0197918D02*
X0342656Y0197918D01*
X0343717Y0196857D02*
X0341565Y0199009D01*
X0340400Y0201821D01*
X0340400Y0204864D01*
X0341565Y0207676D01*
X0343717Y0209828D01*
X0346528Y0210993D01*
X0359472Y0210993D01*
X0362283Y0209828D01*
X0364435Y0207676D01*
X0365600Y0204864D01*
X0365600Y0201821D01*
X0364435Y0199009D01*
X0362283Y0196857D01*
X0359472Y0195693D01*
X0346528Y0195693D01*
X0343717Y0196857D01*
X0340400Y0201917D02*
X0306340Y0201917D01*
X0306500Y0205915D02*
X0340835Y0205915D01*
X0343924Y0209914D02*
X0306500Y0209914D01*
X0306500Y0213912D02*
X0369700Y0213912D01*
X0369700Y0209914D02*
X0362076Y0209914D01*
X0365165Y0205915D02*
X0369700Y0205915D01*
X0369700Y0201917D02*
X0365600Y0201917D01*
X0363344Y0197918D02*
X0369700Y0197918D01*
X0362283Y0216672D02*
X0364435Y0218824D01*
X0365600Y0221636D01*
X0365600Y0224679D01*
X0364435Y0227491D01*
X0362283Y0229643D01*
X0359472Y0230807D01*
X0346528Y0230807D01*
X0343717Y0229643D01*
X0341565Y0227491D01*
X0340400Y0224679D01*
X0340400Y0221636D01*
X0341565Y0218824D01*
X0343717Y0216672D01*
X0346528Y0215507D01*
X0359472Y0215507D01*
X0362283Y0216672D01*
X0363522Y0217911D02*
X0369700Y0217911D01*
X0369700Y0221909D02*
X0365600Y0221909D01*
X0365091Y0225908D02*
X0369700Y0225908D01*
X0369700Y0229906D02*
X0361648Y0229906D01*
X0359472Y0235193D02*
X0362283Y0236357D01*
X0364435Y0238509D01*
X0365600Y0241321D01*
X0365600Y0244364D01*
X0364435Y0247176D01*
X0362283Y0249328D01*
X0359472Y0250493D01*
X0346528Y0250493D01*
X0343717Y0249328D01*
X0341565Y0247176D01*
X0340400Y0244364D01*
X0340400Y0241321D01*
X0341565Y0238509D01*
X0343717Y0236357D01*
X0346528Y0235193D01*
X0359472Y0235193D01*
X0363829Y0237903D02*
X0369700Y0237903D01*
X0369700Y0233905D02*
X0312592Y0233905D01*
X0308736Y0229906D02*
X0344352Y0229906D01*
X0340909Y0225908D02*
X0306500Y0225908D01*
X0306500Y0221909D02*
X0340400Y0221909D01*
X0342478Y0217911D02*
X0306500Y0217911D01*
X0319889Y0237903D02*
X0342171Y0237903D01*
X0340400Y0241902D02*
X0322500Y0241902D01*
X0322085Y0245900D02*
X0341036Y0245900D01*
X0345095Y0249899D02*
X0321884Y0249899D01*
X0322500Y0253897D02*
X0369700Y0253897D01*
X0369700Y0249899D02*
X0360905Y0249899D01*
X0364964Y0245900D02*
X0369700Y0245900D01*
X0369700Y0241902D02*
X0365600Y0241902D01*
X0263029Y0193920D02*
X0202971Y0193920D01*
X0201029Y0189921D02*
X0261868Y0189921D01*
X0219441Y0225908D02*
X0204061Y0225908D01*
X0204138Y0229906D02*
X0219364Y0229906D01*
X0180125Y0225908D02*
X0175857Y0225908D01*
X0179026Y0221909D02*
X0171859Y0221909D01*
X0167860Y0217911D02*
X0179500Y0217911D01*
X0179500Y0213912D02*
X0142963Y0213912D01*
X0144135Y0209914D02*
X0179500Y0209914D01*
X0179500Y0205915D02*
X0144064Y0205915D01*
X0143134Y0201917D02*
X0179500Y0201917D01*
X0179500Y0197918D02*
X0144400Y0197918D01*
X0142971Y0193920D02*
X0182131Y0193920D01*
X0186129Y0189921D02*
X0141029Y0189921D01*
X0145027Y0185923D02*
X0190128Y0185923D01*
X0194126Y0181924D02*
X0146500Y0181924D01*
X0146500Y0177926D02*
X0198125Y0177926D01*
X0172116Y0153934D02*
X0140397Y0153934D01*
X0141068Y0157933D02*
X0168117Y0157933D01*
X0176114Y0149936D02*
X0144125Y0149936D01*
X0144073Y0145937D02*
X0180113Y0145937D01*
X0184111Y0141939D02*
X0143112Y0141939D01*
X0144400Y0137940D02*
X0184500Y0137940D01*
X0184500Y0133942D02*
X0142993Y0133942D01*
X0144122Y0129943D02*
X0184500Y0129943D01*
X0184500Y0125945D02*
X0144076Y0125945D01*
X0143105Y0121946D02*
X0184500Y0121946D01*
X0184500Y0117948D02*
X0144400Y0117948D01*
X0143000Y0113949D02*
X0184500Y0113949D01*
X0219000Y0081961D02*
X0224700Y0081961D01*
X0224700Y0077963D02*
X0219000Y0077963D01*
X0219000Y0073964D02*
X0224700Y0073964D01*
X0224700Y0069966D02*
X0222000Y0069966D01*
X0222000Y0065967D02*
X0224700Y0065967D01*
X0224700Y0061969D02*
X0220724Y0061969D01*
X0222000Y0057970D02*
X0224700Y0057970D01*
X0224700Y0053972D02*
X0220664Y0053972D01*
X0221610Y0049973D02*
X0224700Y0049973D01*
X0224700Y0045975D02*
X0221588Y0045975D01*
X0220894Y0041976D02*
X0224700Y0041976D01*
X0224700Y0037978D02*
X0222200Y0037978D01*
X0220860Y0033979D02*
X0224700Y0033979D01*
X0215500Y0033979D02*
X0215500Y0033979D01*
X0215500Y0037978D02*
X0215500Y0037978D01*
X0132970Y0033979D02*
X0129800Y0033979D01*
X0129800Y0037978D02*
X0131600Y0037978D01*
X0132925Y0041976D02*
X0129800Y0041976D01*
X0129800Y0045975D02*
X0131912Y0045975D01*
X0131890Y0049973D02*
X0129800Y0049973D01*
X0129800Y0053972D02*
X0132977Y0053972D01*
X0131600Y0057970D02*
X0129800Y0057970D01*
X0129800Y0061969D02*
X0132918Y0061969D01*
X0131608Y0065967D02*
X0129800Y0065967D01*
X0129800Y0069966D02*
X0131590Y0069966D01*
X0132985Y0073964D02*
X0129800Y0073964D01*
X0129800Y0077963D02*
X0131600Y0077963D01*
X0132910Y0081961D02*
X0129800Y0081961D01*
X0129674Y0085960D02*
X0131918Y0085960D01*
X0131884Y0089958D02*
X0114908Y0089958D01*
X0118907Y0093957D02*
X0132992Y0093957D01*
X0131600Y0097955D02*
X0122905Y0097955D01*
X0126355Y0101954D02*
X0132903Y0101954D01*
X0131921Y0105952D02*
X0126500Y0105952D01*
X0126500Y0109951D02*
X0131881Y0109951D01*
X0133000Y0113949D02*
X0126500Y0113949D01*
X0126500Y0117948D02*
X0131600Y0117948D01*
X0132895Y0121946D02*
X0126500Y0121946D01*
X0126500Y0125945D02*
X0131924Y0125945D01*
X0131878Y0129943D02*
X0126500Y0129943D01*
X0126500Y0133942D02*
X0133007Y0133942D01*
X0131600Y0137940D02*
X0126500Y0137940D01*
X0126500Y0141939D02*
X0132888Y0141939D01*
X0131927Y0145937D02*
X0129072Y0145937D01*
X0119500Y0139195D02*
X0119500Y0104450D01*
X0108850Y0093800D01*
X0096351Y0093800D01*
X0095065Y0093267D01*
X0094080Y0092283D01*
X0093298Y0091500D01*
X0082151Y0091500D01*
X0083383Y0092732D01*
X0084799Y0096150D01*
X0084799Y0099850D01*
X0083383Y0103268D01*
X0080768Y0105883D01*
X0077350Y0107299D01*
X0073650Y0107299D01*
X0071258Y0106308D01*
X0080967Y0116017D01*
X0081500Y0117304D01*
X0081500Y0119266D01*
X0082373Y0117158D01*
X0083895Y0115636D01*
X0083336Y0115229D01*
X0082646Y0114539D01*
X0082072Y0113750D01*
X0081629Y0112880D01*
X0081327Y0111952D01*
X0081175Y0110988D01*
X0081175Y0110500D01*
X0087375Y0110500D01*
X0091175Y0110500D01*
X0097375Y0110500D01*
X0097375Y0110500D01*
X0087375Y0110500D01*
X0087375Y0110500D01*
X0087375Y0104300D01*
X0087863Y0104300D01*
X0088827Y0104453D01*
X0089755Y0104754D01*
X0090624Y0105197D01*
X0091414Y0105771D01*
X0092104Y0106461D01*
X0092375Y0106834D01*
X0092646Y0106461D01*
X0093336Y0105771D01*
X0094126Y0105197D01*
X0094995Y0104754D01*
X0095923Y0104453D01*
X0096887Y0104300D01*
X0097375Y0104300D01*
X0097375Y0110500D01*
X0097375Y0110500D01*
X0097375Y0104300D01*
X0097863Y0104300D01*
X0098827Y0104453D01*
X0099755Y0104754D01*
X0100625Y0105197D01*
X0101414Y0105771D01*
X0102104Y0106461D01*
X0102678Y0107250D01*
X0103121Y0108120D01*
X0103423Y0109048D01*
X0103575Y0110012D01*
X0103575Y0110500D01*
X0103575Y0110988D01*
X0103423Y0111952D01*
X0103121Y0112880D01*
X0102678Y0113750D01*
X0102104Y0114539D01*
X0101414Y0115229D01*
X0100855Y0115636D01*
X0102377Y0117158D01*
X0103275Y0119326D01*
X0103275Y0121674D01*
X0102377Y0123842D01*
X0102345Y0123874D01*
X0104460Y0125989D01*
X0105375Y0125074D01*
X0107727Y0124100D01*
X0110273Y0124100D01*
X0112625Y0125074D01*
X0114426Y0126875D01*
X0115400Y0129227D01*
X0115400Y0131773D01*
X0114426Y0134125D01*
X0113051Y0135500D01*
X0114426Y0136875D01*
X0115400Y0139227D01*
X0115400Y0139817D01*
X0115684Y0139534D01*
X0117187Y0138911D01*
X0118813Y0138911D01*
X0119500Y0139195D01*
X0119500Y0137940D02*
X0114867Y0137940D01*
X0114502Y0133942D02*
X0119500Y0133942D01*
X0119500Y0129943D02*
X0115400Y0129943D01*
X0113496Y0125945D02*
X0119500Y0125945D01*
X0119500Y0121946D02*
X0103162Y0121946D01*
X0104417Y0125945D02*
X0104504Y0125945D01*
X0102704Y0117948D02*
X0119500Y0117948D01*
X0119500Y0113949D02*
X0102533Y0113949D01*
X0103575Y0110500D02*
X0097375Y0110500D01*
X0097375Y0110500D01*
X0103575Y0110500D01*
X0103565Y0109951D02*
X0119500Y0109951D01*
X0119500Y0105952D02*
X0101596Y0105952D01*
X0097375Y0105952D02*
X0097375Y0105952D01*
X0097375Y0109951D02*
X0097375Y0109951D01*
X0093155Y0105952D02*
X0091595Y0105952D01*
X0087375Y0105952D02*
X0087375Y0105952D01*
X0087375Y0104300D02*
X0087375Y0110500D01*
X0087375Y0110500D01*
X0081175Y0110500D01*
X0081175Y0110012D01*
X0081327Y0109048D01*
X0081629Y0108120D01*
X0082072Y0107250D01*
X0082646Y0106461D01*
X0083336Y0105771D01*
X0084125Y0105197D01*
X0084995Y0104754D01*
X0085923Y0104453D01*
X0086887Y0104300D01*
X0087375Y0104300D01*
X0083928Y0101954D02*
X0117004Y0101954D01*
X0113006Y0097955D02*
X0084799Y0097955D01*
X0083891Y0093957D02*
X0109007Y0093957D01*
X0090500Y0084500D02*
X0090500Y0079875D01*
X0090500Y0084500D01*
X0090500Y0084500D01*
X0090500Y0081961D02*
X0090500Y0081961D01*
X0090500Y0079875D02*
X0090500Y0079875D01*
X0076781Y0084500D02*
X0075498Y0083217D01*
X0074600Y0081049D01*
X0074600Y0078702D01*
X0074766Y0078300D01*
X0072344Y0078300D01*
X0071131Y0077798D01*
X0070202Y0076869D01*
X0069700Y0075656D01*
X0069700Y0006300D01*
X0063435Y0006300D01*
X0063672Y0006872D01*
X0063672Y0009129D01*
X0062808Y0011213D01*
X0061213Y0012809D01*
X0060750Y0013000D01*
X0061213Y0013192D01*
X0062808Y0014788D01*
X0063672Y0016872D01*
X0063672Y0019129D01*
X0062808Y0021213D01*
X0061213Y0022809D01*
X0060750Y0023000D01*
X0061213Y0023192D01*
X0062808Y0024788D01*
X0063672Y0026872D01*
X0063672Y0029129D01*
X0062808Y0031213D01*
X0061213Y0032809D01*
X0060750Y0033000D01*
X0061213Y0033192D01*
X0062808Y0034788D01*
X0063672Y0036872D01*
X0063672Y0039129D01*
X0062808Y0041213D01*
X0061213Y0042809D01*
X0060750Y0043000D01*
X0061213Y0043192D01*
X0062808Y0044788D01*
X0063672Y0046872D01*
X0063672Y0049129D01*
X0062808Y0051213D01*
X0061213Y0052809D01*
X0060750Y0053000D01*
X0061213Y0053192D01*
X0062808Y0054788D01*
X0063672Y0056872D01*
X0063672Y0059129D01*
X0062808Y0061213D01*
X0061213Y0062809D01*
X0060750Y0063000D01*
X0061213Y0063192D01*
X0062808Y0064788D01*
X0063672Y0066872D01*
X0063672Y0068722D01*
X0065967Y0071018D01*
X0066500Y0072304D01*
X0066500Y0084195D01*
X0067187Y0083911D01*
X0068813Y0083911D01*
X0070235Y0084500D01*
X0076781Y0084500D01*
X0074978Y0081961D02*
X0066500Y0081961D01*
X0066500Y0077963D02*
X0071530Y0077963D01*
X0069700Y0073964D02*
X0066500Y0073964D01*
X0064915Y0069966D02*
X0069700Y0069966D01*
X0069700Y0065967D02*
X0063297Y0065967D01*
X0062053Y0061969D02*
X0069700Y0061969D01*
X0069700Y0057970D02*
X0063672Y0057970D01*
X0061992Y0053972D02*
X0069700Y0053972D01*
X0069700Y0049973D02*
X0063322Y0049973D01*
X0063300Y0045975D02*
X0069700Y0045975D01*
X0069700Y0041976D02*
X0062045Y0041976D01*
X0063672Y0037978D02*
X0069700Y0037978D01*
X0069700Y0033979D02*
X0062000Y0033979D01*
X0063319Y0029981D02*
X0069700Y0029981D01*
X0069700Y0025982D02*
X0063303Y0025982D01*
X0062038Y0021984D02*
X0069700Y0021984D01*
X0069700Y0017985D02*
X0063672Y0017985D01*
X0062007Y0013987D02*
X0069700Y0013987D01*
X0069700Y0009988D02*
X0063316Y0009988D01*
X0055250Y0013000D02*
X0054787Y0012809D01*
X0053479Y0011500D01*
X0049449Y0011500D01*
X0036500Y0024450D01*
X0036500Y0056550D01*
X0039983Y0060033D01*
X0040967Y0061017D01*
X0041500Y0062304D01*
X0041500Y0136550D01*
X0052328Y0147379D01*
X0052328Y0146872D01*
X0053192Y0144787D01*
X0054787Y0143192D01*
X0055250Y0143000D01*
X0054787Y0142808D01*
X0053192Y0141213D01*
X0052328Y0139128D01*
X0052328Y0136872D01*
X0053192Y0134787D01*
X0054787Y0133192D01*
X0055250Y0133000D01*
X0054787Y0132808D01*
X0053192Y0131213D01*
X0052328Y0129128D01*
X0052328Y0126872D01*
X0053192Y0124787D01*
X0054787Y0123192D01*
X0055250Y0123000D01*
X0054787Y0122808D01*
X0053192Y0121213D01*
X0052328Y0119128D01*
X0052328Y0116872D01*
X0053192Y0114787D01*
X0054787Y0113192D01*
X0055250Y0113000D01*
X0054787Y0112808D01*
X0053192Y0111213D01*
X0052328Y0109128D01*
X0052328Y0106872D01*
X0053192Y0104787D01*
X0054787Y0103192D01*
X0055250Y0103000D01*
X0054787Y0102808D01*
X0053192Y0101213D01*
X0052328Y0099128D01*
X0052328Y0096872D01*
X0053192Y0094787D01*
X0054787Y0093192D01*
X0055250Y0093000D01*
X0054787Y0092808D01*
X0053192Y0091213D01*
X0052328Y0089128D01*
X0052328Y0086872D01*
X0053192Y0084787D01*
X0054787Y0083192D01*
X0055250Y0083000D01*
X0054787Y0082809D01*
X0053192Y0081213D01*
X0052328Y0079129D01*
X0052328Y0076872D01*
X0053192Y0074788D01*
X0054787Y0073192D01*
X0055250Y0073000D01*
X0054787Y0072809D01*
X0053192Y0071213D01*
X0052328Y0069129D01*
X0052328Y0066872D01*
X0053192Y0064788D01*
X0054787Y0063192D01*
X0055250Y0063000D01*
X0054787Y0062809D01*
X0053192Y0061213D01*
X0052328Y0059129D01*
X0052328Y0056872D01*
X0053192Y0054788D01*
X0054787Y0053192D01*
X0055250Y0053000D01*
X0054787Y0052809D01*
X0053192Y0051213D01*
X0052328Y0049129D01*
X0052328Y0046872D01*
X0053192Y0044788D01*
X0054787Y0043192D01*
X0055250Y0043000D01*
X0054787Y0042809D01*
X0053192Y0041213D01*
X0052328Y0039129D01*
X0052328Y0036872D01*
X0053192Y0034788D01*
X0054787Y0033192D01*
X0055250Y0033000D01*
X0054787Y0032809D01*
X0053192Y0031213D01*
X0052328Y0029129D01*
X0052328Y0026872D01*
X0053192Y0024788D01*
X0054787Y0023192D01*
X0055250Y0023000D01*
X0054787Y0022809D01*
X0053192Y0021213D01*
X0052328Y0019129D01*
X0052328Y0016872D01*
X0053192Y0014788D01*
X0054787Y0013192D01*
X0055250Y0013000D01*
X0053993Y0013987D02*
X0046963Y0013987D01*
X0042965Y0017985D02*
X0052328Y0017985D01*
X0053962Y0021984D02*
X0038966Y0021984D01*
X0036500Y0025982D02*
X0052697Y0025982D01*
X0052681Y0029981D02*
X0036500Y0029981D01*
X0036500Y0033979D02*
X0054000Y0033979D01*
X0052328Y0037978D02*
X0036500Y0037978D01*
X0036500Y0041976D02*
X0053955Y0041976D01*
X0052700Y0045975D02*
X0036500Y0045975D01*
X0036500Y0049973D02*
X0052678Y0049973D01*
X0054008Y0053972D02*
X0036500Y0053972D01*
X0037920Y0057970D02*
X0052328Y0057970D01*
X0053947Y0061969D02*
X0041361Y0061969D01*
X0041500Y0065967D02*
X0052703Y0065967D01*
X0052675Y0069966D02*
X0041500Y0069966D01*
X0041500Y0073964D02*
X0054015Y0073964D01*
X0052328Y0077963D02*
X0041500Y0077963D01*
X0041500Y0081961D02*
X0053940Y0081961D01*
X0052706Y0085960D02*
X0041500Y0085960D01*
X0041500Y0089958D02*
X0052672Y0089958D01*
X0054022Y0093957D02*
X0041500Y0093957D01*
X0041500Y0097955D02*
X0052328Y0097955D01*
X0053933Y0101954D02*
X0041500Y0101954D01*
X0041500Y0105952D02*
X0052709Y0105952D01*
X0052669Y0109951D02*
X0041500Y0109951D01*
X0041500Y0113949D02*
X0054030Y0113949D01*
X0052328Y0117948D02*
X0041500Y0117948D01*
X0041500Y0121946D02*
X0053925Y0121946D01*
X0052712Y0125945D02*
X0041500Y0125945D01*
X0041500Y0129943D02*
X0052666Y0129943D01*
X0054037Y0133942D02*
X0041500Y0133942D01*
X0042890Y0137940D02*
X0052328Y0137940D01*
X0053918Y0141939D02*
X0046889Y0141939D01*
X0050887Y0145937D02*
X0052715Y0145937D01*
X0060750Y0143000D02*
X0061213Y0143192D01*
X0062521Y0144500D01*
X0074833Y0144500D01*
X0074500Y0143696D01*
X0074500Y0119450D01*
X0063672Y0108621D01*
X0063672Y0109128D01*
X0062808Y0111213D01*
X0061213Y0112808D01*
X0060750Y0113000D01*
X0061213Y0113192D01*
X0062808Y0114787D01*
X0063672Y0116872D01*
X0063672Y0119128D01*
X0062808Y0121213D01*
X0061213Y0122808D01*
X0060750Y0123000D01*
X0061213Y0123192D01*
X0062808Y0124787D01*
X0063672Y0126872D01*
X0063672Y0129128D01*
X0062808Y0131213D01*
X0061213Y0132808D01*
X0060750Y0133000D01*
X0061213Y0133192D01*
X0062808Y0134787D01*
X0063672Y0136872D01*
X0063672Y0139128D01*
X0062808Y0141213D01*
X0061213Y0142808D01*
X0060750Y0143000D01*
X0062082Y0141939D02*
X0074500Y0141939D01*
X0074500Y0137940D02*
X0063672Y0137940D01*
X0061963Y0133942D02*
X0074500Y0133942D01*
X0074500Y0129943D02*
X0063334Y0129943D01*
X0063288Y0125945D02*
X0074500Y0125945D01*
X0074500Y0121946D02*
X0062074Y0121946D01*
X0063672Y0117948D02*
X0072998Y0117948D01*
X0069000Y0113949D02*
X0061970Y0113949D01*
X0063331Y0109951D02*
X0065001Y0109951D01*
X0074901Y0109951D02*
X0081184Y0109951D01*
X0080601Y0105952D02*
X0083154Y0105952D01*
X0087375Y0109951D02*
X0087375Y0109951D01*
X0087375Y0110500D02*
X0087375Y0110500D01*
X0082217Y0113949D02*
X0078899Y0113949D01*
X0081500Y0117948D02*
X0082046Y0117948D01*
X0044986Y0149936D02*
X0013650Y0149936D01*
X0013534Y0150292D02*
X0013107Y0151130D01*
X0012555Y0151890D01*
X0011890Y0152555D01*
X0011130Y0153107D01*
X0011076Y0153135D01*
X0011213Y0153192D01*
X0012808Y0154787D01*
X0013672Y0156872D01*
X0013672Y0159128D01*
X0013642Y0159200D01*
X0052358Y0159200D01*
X0052328Y0159128D01*
X0052328Y0156872D01*
X0052482Y0156500D01*
X0052304Y0156500D01*
X0051017Y0155967D01*
X0050033Y0154983D01*
X0035033Y0139983D01*
X0034500Y0138696D01*
X0034500Y0137304D01*
X0034500Y0064450D01*
X0030033Y0059983D01*
X0029500Y0058696D01*
X0029500Y0024306D01*
X0029273Y0024400D01*
X0026727Y0024400D01*
X0024375Y0023426D01*
X0022574Y0021625D01*
X0021600Y0019273D01*
X0021600Y0016727D01*
X0022574Y0014375D01*
X0023949Y0013000D01*
X0023249Y0012300D01*
X0011721Y0012300D01*
X0011213Y0012809D01*
X0010750Y0013000D01*
X0011213Y0013192D01*
X0012808Y0014788D01*
X0013672Y0016872D01*
X0013672Y0019129D01*
X0012808Y0021213D01*
X0011213Y0022809D01*
X0010750Y0023000D01*
X0011213Y0023192D01*
X0012808Y0024788D01*
X0013672Y0026872D01*
X0013672Y0029129D01*
X0012808Y0031213D01*
X0011213Y0032809D01*
X0010750Y0033000D01*
X0011213Y0033192D01*
X0012808Y0034788D01*
X0013672Y0036872D01*
X0013672Y0039129D01*
X0012808Y0041213D01*
X0011213Y0042809D01*
X0010750Y0043000D01*
X0011213Y0043192D01*
X0012808Y0044788D01*
X0013672Y0046872D01*
X0013672Y0049129D01*
X0012808Y0051213D01*
X0011213Y0052809D01*
X0010750Y0053000D01*
X0011213Y0053192D01*
X0012808Y0054788D01*
X0013672Y0056872D01*
X0013672Y0059129D01*
X0012808Y0061213D01*
X0011213Y0062809D01*
X0011076Y0062865D01*
X0011130Y0062893D01*
X0011890Y0063445D01*
X0012555Y0064110D01*
X0013107Y0064871D01*
X0013534Y0065708D01*
X0013825Y0066602D01*
X0013972Y0067530D01*
X0013972Y0068000D01*
X0008000Y0068000D01*
X0008000Y0068000D01*
X0013972Y0068000D01*
X0013972Y0068470D01*
X0013825Y0069399D01*
X0013534Y0070293D01*
X0013107Y0071130D01*
X0012555Y0071891D01*
X0011890Y0072555D01*
X0011130Y0073108D01*
X0011076Y0073135D01*
X0011213Y0073192D01*
X0012808Y0074788D01*
X0013672Y0076872D01*
X0013672Y0079129D01*
X0012808Y0081213D01*
X0011213Y0082809D01*
X0010750Y0083000D01*
X0011213Y0083192D01*
X0011721Y0083700D01*
X0023249Y0083700D01*
X0024375Y0082574D01*
X0026727Y0081600D01*
X0029273Y0081600D01*
X0031625Y0082574D01*
X0033426Y0084375D01*
X0034400Y0086727D01*
X0034400Y0089273D01*
X0033426Y0091625D01*
X0032051Y0093000D01*
X0033426Y0094375D01*
X0034400Y0096727D01*
X0034400Y0099273D01*
X0033426Y0101625D01*
X0031625Y0103426D01*
X0029273Y0104400D01*
X0026727Y0104400D01*
X0024375Y0103426D01*
X0022574Y0101625D01*
X0021600Y0099273D01*
X0021600Y0096727D01*
X0022574Y0094375D01*
X0023949Y0093000D01*
X0023249Y0092300D01*
X0011721Y0092300D01*
X0011213Y0092808D01*
X0010750Y0093000D01*
X0011213Y0093192D01*
X0012808Y0094787D01*
X0013672Y0096872D01*
X0013672Y0099128D01*
X0012808Y0101213D01*
X0011213Y0102808D01*
X0010750Y0103000D01*
X0011213Y0103192D01*
X0012808Y0104787D01*
X0013672Y0106872D01*
X0013672Y0109128D01*
X0012808Y0111213D01*
X0011213Y0112808D01*
X0010750Y0113000D01*
X0011213Y0113192D01*
X0012808Y0114787D01*
X0013672Y0116872D01*
X0013672Y0119128D01*
X0012808Y0121213D01*
X0011213Y0122808D01*
X0010750Y0123000D01*
X0011213Y0123192D01*
X0012808Y0124787D01*
X0013672Y0126872D01*
X0013672Y0129128D01*
X0012808Y0131213D01*
X0011213Y0132808D01*
X0010750Y0133000D01*
X0011213Y0133192D01*
X0012808Y0134787D01*
X0013672Y0136872D01*
X0013672Y0139128D01*
X0012808Y0141213D01*
X0011213Y0142808D01*
X0011076Y0142865D01*
X0011130Y0142893D01*
X0011890Y0143445D01*
X0012555Y0144110D01*
X0013107Y0144870D01*
X0013534Y0145708D01*
X0013825Y0146602D01*
X0013972Y0147530D01*
X0013972Y0148000D01*
X0013972Y0148470D01*
X0013825Y0149398D01*
X0013534Y0150292D01*
X0013972Y0148000D02*
X0008000Y0148000D01*
X0008000Y0148000D01*
X0013972Y0148000D01*
X0013609Y0145937D02*
X0040988Y0145937D01*
X0036989Y0141939D02*
X0012082Y0141939D01*
X0013672Y0137940D02*
X0034500Y0137940D01*
X0034500Y0133942D02*
X0011963Y0133942D01*
X0013334Y0129943D02*
X0034500Y0129943D01*
X0034500Y0125945D02*
X0013288Y0125945D01*
X0012074Y0121946D02*
X0034500Y0121946D01*
X0034500Y0117948D02*
X0013672Y0117948D01*
X0011970Y0113949D02*
X0034500Y0113949D01*
X0034500Y0109951D02*
X0013331Y0109951D01*
X0013291Y0105952D02*
X0034500Y0105952D01*
X0034500Y0101954D02*
X0033097Y0101954D01*
X0034400Y0097955D02*
X0034500Y0097955D01*
X0034500Y0093957D02*
X0033008Y0093957D01*
X0034116Y0089958D02*
X0034500Y0089958D01*
X0034500Y0085960D02*
X0034082Y0085960D01*
X0034500Y0081961D02*
X0030145Y0081961D01*
X0025855Y0081961D02*
X0012060Y0081961D01*
X0013672Y0077963D02*
X0034500Y0077963D01*
X0034500Y0073964D02*
X0011985Y0073964D01*
X0013640Y0069966D02*
X0034500Y0069966D01*
X0034500Y0065967D02*
X0025815Y0065967D01*
X0025316Y0066466D02*
X0023813Y0067089D01*
X0022187Y0067089D01*
X0020684Y0066466D01*
X0019534Y0065316D01*
X0018911Y0063813D01*
X0018911Y0062187D01*
X0019500Y0060765D01*
X0019500Y0045235D01*
X0018911Y0043813D01*
X0018911Y0042187D01*
X0019534Y0040684D01*
X0020684Y0039534D01*
X0022187Y0038911D01*
X0023813Y0038911D01*
X0025316Y0039534D01*
X0026466Y0040684D01*
X0027089Y0042187D01*
X0027089Y0043813D01*
X0026500Y0045235D01*
X0026500Y0060765D01*
X0027089Y0062187D01*
X0027089Y0063813D01*
X0026466Y0065316D01*
X0025316Y0066466D01*
X0020185Y0065967D02*
X0013618Y0065967D01*
X0012053Y0061969D02*
X0019001Y0061969D01*
X0019500Y0057970D02*
X0013672Y0057970D01*
X0011992Y0053972D02*
X0019500Y0053972D01*
X0019500Y0049973D02*
X0013322Y0049973D01*
X0013300Y0045975D02*
X0019500Y0045975D01*
X0018998Y0041976D02*
X0012045Y0041976D01*
X0013672Y0037978D02*
X0029500Y0037978D01*
X0029500Y0041976D02*
X0027002Y0041976D01*
X0026500Y0045975D02*
X0029500Y0045975D01*
X0029500Y0049973D02*
X0026500Y0049973D01*
X0026500Y0053972D02*
X0029500Y0053972D01*
X0029500Y0057970D02*
X0026500Y0057970D01*
X0026999Y0061969D02*
X0032019Y0061969D01*
X0029500Y0033979D02*
X0012000Y0033979D01*
X0013319Y0029981D02*
X0029500Y0029981D01*
X0029500Y0025982D02*
X0013303Y0025982D01*
X0012038Y0021984D02*
X0022933Y0021984D01*
X0021600Y0017985D02*
X0013672Y0017985D01*
X0012007Y0013987D02*
X0022962Y0013987D01*
X0022992Y0093957D02*
X0011978Y0093957D01*
X0013672Y0097955D02*
X0021600Y0097955D01*
X0022903Y0101954D02*
X0012067Y0101954D01*
X0011955Y0153934D02*
X0048985Y0153934D01*
X0052328Y0157933D02*
X0013672Y0157933D01*
X0256572Y0145937D02*
X0261965Y0145937D01*
D26*
X0028000Y0088000D02*
X0008000Y0088000D01*
X0008000Y0008000D02*
X0028000Y0008000D01*
X0028000Y0008000D01*
M02*
